%TF.GenerationSoftware,KiCad,Pcbnew,9.0.7*%
%TF.CreationDate,2026-09-19T09:37:35-07:00*%
%TF.ProjectId,display_board_Rev_B,64697370-6c61-4795-9f62-6f6172645f52,rev?*%
%TF.SameCoordinates,Original*%
%TF.FileFunction,Copper,L2,Bot*%
%TF.FilePolarity,Positive*%
%FSLAX46Y46*%
G04 Gerber Fmt 4.6, Leading zero omitted, Abs format (unit mm)*
G04 Created by KiCad (PCBNEW 9.0.7) date 2026-09-19 09:37:35*
%MOMM*%
%LPD*%
G01*
G04 APERTURE LIST*
G04 Aperture macros list*
%AMRoundRect*
0 Rectangle with rounded corners*
0 $1 Rounding radius*
0 $2 $3 $4 $5 $6 $7 $8 $9 X,Y pos of 4 corners*
0 Add a 4 corners polygon primitive as box body*
4,1,4,$2,$3,$4,$5,$6,$7,$8,$9,$2,$3,0*
0 Add four circle primitives for the rounded corners*
1,1,$1+$1,$2,$3*
1,1,$1+$1,$4,$5*
1,1,$1+$1,$6,$7*
1,1,$1+$1,$8,$9*
0 Add four rect primitives between the rounded corners*
20,1,$1+$1,$2,$3,$4,$5,0*
20,1,$1+$1,$4,$5,$6,$7,0*
20,1,$1+$1,$6,$7,$8,$9,0*
20,1,$1+$1,$8,$9,$2,$3,0*%
G04 Aperture macros list end*
%TA.AperFunction,ComponentPad*%
%ADD10RoundRect,0.200000X-0.200000X-0.450000X0.200000X-0.450000X0.200000X0.450000X-0.200000X0.450000X0*%
%TD*%
%TA.AperFunction,ComponentPad*%
%ADD11O,0.800000X1.300000*%
%TD*%
%TA.AperFunction,ComponentPad*%
%ADD12RoundRect,0.250000X0.550000X-1.050000X0.550000X1.050000X-0.550000X1.050000X-0.550000X-1.050000X0*%
%TD*%
%TA.AperFunction,ComponentPad*%
%ADD13O,1.600000X2.600000*%
%TD*%
%TA.AperFunction,ComponentPad*%
%ADD14C,1.600000*%
%TD*%
%TA.AperFunction,ComponentPad*%
%ADD15RoundRect,0.190500X-0.444500X1.079500X-0.444500X-1.079500X0.444500X-1.079500X0.444500X1.079500X0*%
%TD*%
%TA.AperFunction,ViaPad*%
%ADD16C,0.600000*%
%TD*%
%TA.AperFunction,Conductor*%
%ADD17C,0.200000*%
%TD*%
G04 APERTURE END LIST*
D10*
%TO.P,J1,1,Pin_1*%
%TO.N,Net-(A1-TX{slash}IO17)*%
X130350000Y-79100000D03*
D11*
%TO.P,J1,2,Pin_2*%
%TO.N,Net-(A1-RX{slash}IO16)*%
X131600000Y-79100000D03*
%TO.P,J1,3,Pin_3*%
%TO.N,+5V*%
X132850000Y-79100000D03*
%TO.P,J1,4,Pin_4*%
%TO.N,GND*%
X134100000Y-79100000D03*
%TD*%
D10*
%TO.P,SW2,1,1*%
%TO.N,Net-(A1-A12{slash}IO13)*%
X128524000Y-89484200D03*
D11*
%TO.P,SW2,2,2*%
%TO.N,GND*%
X129774000Y-89484200D03*
%TD*%
D12*
%TO.P,A1,1,~{RESET}*%
%TO.N,unconnected-(A1-~{RESET}-Pad1)*%
X93200000Y-113500000D03*
D13*
%TO.P,A1,2,3V3*%
%TO.N,/3V3*%
X95740000Y-113500000D03*
%TO.P,A1,3,NC*%
%TO.N,unconnected-(A1-NC-Pad3)*%
X98280000Y-113500000D03*
%TO.P,A1,4,GND*%
%TO.N,GND*%
X100820000Y-113500000D03*
%TO.P,A1,5,DAC2/A0*%
%TO.N,unconnected-(A1-DAC2{slash}A0-Pad5)*%
X103360000Y-113500000D03*
%TO.P,A1,6,DAC1/A1*%
%TO.N,unconnected-(A1-DAC1{slash}A1-Pad6)*%
X105900000Y-113500000D03*
%TO.P,A1,7,I34/A2*%
%TO.N,unconnected-(A1-I34{slash}A2-Pad7)*%
X108440000Y-113500000D03*
%TO.P,A1,8,I39/A3*%
%TO.N,unconnected-(A1-I39{slash}A3-Pad8)*%
X110980000Y-113500000D03*
%TO.P,A1,9,IO36/A4*%
%TO.N,unconnected-(A1-IO36{slash}A4-Pad9)*%
X113520000Y-113500000D03*
%TO.P,A1,10,IO4/A5*%
%TO.N,Net-(A1-IO4{slash}A5)*%
X116060000Y-113500000D03*
%TO.P,A1,11,SCK/IO5*%
%TO.N,/MOSI*%
X118600000Y-113500000D03*
%TO.P,A1,12,MOSI/IO18*%
%TO.N,Net-(A1-MOSI{slash}IO18)*%
X121140000Y-113500000D03*
%TO.P,A1,13,MISO/IO19*%
%TO.N,unconnected-(A1-MISO{slash}IO19-Pad13)*%
X123680000Y-113500000D03*
%TO.P,A1,14,RX/IO16*%
%TO.N,Net-(A1-RX{slash}IO16)*%
X126220000Y-113500000D03*
%TO.P,A1,15,TX/IO17*%
%TO.N,Net-(A1-TX{slash}IO17)*%
X128760000Y-113500000D03*
%TO.P,A1,16,IO21*%
%TO.N,unconnected-(A1-IO21-Pad16)*%
X131300000Y-113500000D03*
%TO.P,A1,17,SDA/IO23*%
%TO.N,Net-(A1-SDA{slash}IO23)*%
X131300000Y-93780000D03*
%TO.P,A1,18,SCL/IO22*%
%TO.N,unconnected-(A1-SCL{slash}IO22-Pad18)*%
X128760000Y-93780000D03*
%TO.P,A1,19,A6/IO14*%
%TO.N,unconnected-(A1-A6{slash}IO14-Pad19)*%
X126220000Y-93780000D03*
%TO.P,A1,20,A7/IO32*%
%TO.N,unconnected-(A1-A7{slash}IO32-Pad20)*%
X123680000Y-93780000D03*
%TO.P,A1,21,A8/IO15*%
%TO.N,/DC*%
X121140000Y-93780000D03*
%TO.P,A1,22,A9/IO33*%
%TO.N,Net-(A1-A9{slash}IO33)*%
X118600000Y-93780000D03*
%TO.P,A1,23,A10/IO27*%
%TO.N,Net-(A1-A10{slash}IO27)*%
X116060000Y-93780000D03*
%TO.P,A1,24,A11/IO12*%
%TO.N,unconnected-(A1-A11{slash}IO12-Pad24)*%
X113520000Y-93780000D03*
%TO.P,A1,25,A12/IO13*%
%TO.N,Net-(A1-A12{slash}IO13)*%
X110980000Y-93780000D03*
%TO.P,A1,26,USB*%
%TO.N,unconnected-(A1-USB-Pad26)*%
X108440000Y-93780000D03*
%TO.P,A1,27,EN*%
%TO.N,unconnected-(A1-EN-Pad27)*%
X105900000Y-93780000D03*
%TO.P,A1,28,VBAT*%
%TO.N,+5V*%
X103360000Y-93780000D03*
%TD*%
D14*
%TO.P,R2,1*%
%TO.N,Net-(A1-A12{slash}IO13)*%
X128270000Y-83820000D03*
%TO.P,R2,2*%
%TO.N,+5V*%
X135890000Y-83820000D03*
%TD*%
D15*
%TO.P,U1,1,Vin*%
%TO.N,/3V3*%
X122500000Y-76000000D03*
%TO.P,U1,2,Lite*%
%TO.N,Net-(A1-IO4{slash}A5)*%
X119960000Y-76000000D03*
%TO.P,U1,3,Gnd*%
%TO.N,GND*%
X117420000Y-76000000D03*
%TO.P,U1,4,SCK*%
%TO.N,/MOSI*%
X114880000Y-76000000D03*
%TO.P,U1,5,MOSI*%
%TO.N,Net-(A1-MOSI{slash}IO18)*%
X112340000Y-76000000D03*
%TO.P,U1,6,MISO*%
%TO.N,unconnected-(U1-MISO-Pad6)*%
X109800000Y-76000000D03*
%TO.P,U1,7,DC*%
%TO.N,Net-(A1-A9{slash}IO33)*%
X107260000Y-76000000D03*
%TO.P,U1,8,RST*%
%TO.N,Net-(A1-SDA{slash}IO23)*%
X104720000Y-76000000D03*
%TO.P,U1,9,TCS*%
%TO.N,/DC*%
X102180000Y-76000000D03*
%TO.P,U1,10,GP2*%
%TO.N,unconnected-(U1-GP2-Pad10)*%
X102180000Y-88602000D03*
%TO.P,U1,11,GP1*%
%TO.N,unconnected-(U1-GP1-Pad11)*%
X104720000Y-88602000D03*
%TO.P,U1,12,BUSY*%
%TO.N,unconnected-(U1-BUSY-Pad12)*%
X107260000Y-88602000D03*
%TO.P,U1,13,INT*%
%TO.N,unconnected-(U1-INT-Pad13)*%
X109800000Y-88602000D03*
%TO.P,U1,14,SDA*%
%TO.N,unconnected-(U1-SDA-Pad14)*%
X112340000Y-88602000D03*
%TO.P,U1,15,SCL*%
%TO.N,unconnected-(U1-SCL-Pad15)*%
X114880000Y-88602000D03*
%TO.P,U1,16,TSCS*%
%TO.N,unconnected-(U1-TSCS-Pad16)*%
X117420000Y-88602000D03*
%TO.P,U1,17,MEMCS*%
%TO.N,unconnected-(U1-MEMCS-Pad17)*%
X119960000Y-88602000D03*
%TO.P,U1,18,SDCS*%
%TO.N,unconnected-(U1-SDCS-Pad18)*%
X122500000Y-88602000D03*
%TD*%
D10*
%TO.P,SW1,1,1*%
%TO.N,Net-(A1-A10{slash}IO27)*%
X93000000Y-87950000D03*
D11*
%TO.P,SW1,2,2*%
%TO.N,GND*%
X94250000Y-87950000D03*
%TD*%
D14*
%TO.P,R1,1*%
%TO.N,Net-(A1-A10{slash}IO27)*%
X88900000Y-81280000D03*
%TO.P,R1,2*%
%TO.N,+5V*%
X96520000Y-81280000D03*
%TD*%
D16*
%TO.N,Net-(A1-SDA{slash}IO23)*%
X125070000Y-85853400D03*
%TO.N,/DC*%
X120576000Y-90586300D03*
%TO.N,/3V3*%
X113550000Y-84900000D03*
%TO.N,Net-(A1-IO4{slash}A5)*%
X112700000Y-82800000D03*
%TO.N,Net-(A1-TX{slash}IO17)*%
X132537200Y-88442800D03*
%TD*%
D17*
%TO.N,/3V3*%
X113540000Y-84910000D02*
X113550000Y-84900000D01*
X113540000Y-90380000D02*
X113540000Y-84910000D01*
X114810000Y-91620000D02*
X113570000Y-90380000D01*
X113670000Y-111370000D02*
X114810000Y-110230000D01*
X114810000Y-110230000D02*
X114810000Y-91620000D01*
X102460000Y-111790000D02*
X102880000Y-111370000D01*
X102430000Y-111790000D02*
X102460000Y-111790000D01*
X102160000Y-112060000D02*
X102430000Y-111790000D01*
X102880000Y-111370000D02*
X113670000Y-111370000D01*
X113570000Y-90380000D02*
X113540000Y-90380000D01*
X102160000Y-114220000D02*
X102160000Y-112060000D01*
X95740000Y-115102000D02*
X95740000Y-113800000D01*
X101278000Y-115102000D02*
X95740000Y-115102000D01*
X102160000Y-114220000D02*
X101278000Y-115102000D01*
%TO.N,GND*%
X132080000Y-73025000D02*
X117475000Y-73025000D01*
X117420000Y-73715000D02*
X117420000Y-76000000D01*
X94250000Y-87950000D02*
X94250000Y-73390000D01*
X117475000Y-73660000D02*
X117420000Y-73715000D01*
X134100000Y-79100000D02*
X133248400Y-79951600D01*
X129799400Y-89458800D02*
X129774000Y-89484200D01*
X100820000Y-107460000D02*
X100820000Y-113800000D01*
X133248400Y-88773000D02*
X133273800Y-88798400D01*
X134100000Y-75045000D02*
X132080000Y-73025000D01*
X133273800Y-89535000D02*
X133197600Y-89458800D01*
X94615000Y-73025000D02*
X117475000Y-73025000D01*
X100965000Y-107315000D02*
X100820000Y-107460000D01*
X94250000Y-87950000D02*
X94250000Y-100600000D01*
X117475000Y-73025000D02*
X117475000Y-73660000D01*
X94250000Y-100600000D02*
X100965000Y-107315000D01*
X94250000Y-73390000D02*
X94615000Y-73025000D01*
X133248400Y-79951600D02*
X133248400Y-88773000D01*
X134100000Y-75045000D02*
X134100000Y-79100000D01*
X133273800Y-88798400D02*
X133273800Y-89535000D01*
X133197600Y-89458800D02*
X129799400Y-89458800D01*
%TO.N,Net-(A1-SDA{slash}IO23)*%
X127203000Y-91033600D02*
X125197000Y-91033600D01*
X131300000Y-91853800D02*
X131166000Y-91719400D01*
X127889000Y-91719400D02*
X127203000Y-91033600D01*
X131166000Y-91719400D02*
X127889000Y-91719400D01*
X125197000Y-91033600D02*
X125171000Y-91059000D01*
X131300000Y-93480000D02*
X131300000Y-91853800D01*
X125171000Y-91059000D02*
X125070000Y-90957400D01*
X125070000Y-90957400D02*
X125070000Y-85853400D01*
%TO.N,Net-(A1-A9{slash}IO33)*%
X118600000Y-93480000D02*
X118600000Y-92178300D01*
X107260000Y-76000000D02*
X118600000Y-87340000D01*
X118600000Y-87340000D02*
X118600000Y-92178300D01*
%TO.N,Net-(A1-A12{slash}IO13)*%
X128270000Y-83820000D02*
X128524000Y-84074000D01*
X128524000Y-84074000D02*
X128524000Y-87757000D01*
X128524000Y-89484200D02*
X128524000Y-87757000D01*
%TO.N,Net-(A1-MOSI{slash}IO18)*%
X120038000Y-92136700D02*
X119012000Y-91110700D01*
X119012000Y-82672300D02*
X112340000Y-76000000D01*
X121140000Y-111898000D02*
X120038000Y-110797000D01*
X121140000Y-113800000D02*
X121140000Y-111898000D01*
X119012000Y-91110700D02*
X119012000Y-82672300D01*
X120038000Y-110797000D02*
X120038000Y-92136700D01*
%TO.N,/DC*%
X121140000Y-93480000D02*
X121140000Y-92178300D01*
X120576000Y-91613900D02*
X121140000Y-92178300D01*
X120576000Y-90586300D02*
X120576000Y-91613900D01*
%TO.N,Net-(A1-IO4{slash}A5)*%
X116060000Y-113800000D02*
X117499000Y-112361000D01*
X117499000Y-112361000D02*
X117499000Y-90905366D01*
X115816000Y-89222366D02*
X115816000Y-87066000D01*
X115816000Y-85916000D02*
X112700000Y-82800000D01*
X115816000Y-87066000D02*
X115816000Y-85916000D01*
X117499000Y-90905366D02*
X115816000Y-89222366D01*
%TO.N,/MOSI*%
X118600000Y-113800000D02*
X118600000Y-115102000D01*
X121230000Y-82350000D02*
X114880000Y-76000000D01*
X121609000Y-115102000D02*
X122276000Y-114434000D01*
X122276000Y-114434000D02*
X122276000Y-91832400D01*
X118600000Y-115102000D02*
X121609000Y-115102000D01*
X121230000Y-90786300D02*
X121230000Y-82350000D01*
X122276000Y-91832400D02*
X121230000Y-90786300D01*
%TO.N,+5V*%
X96520000Y-81280000D02*
X96520000Y-85338300D01*
X103360000Y-93480000D02*
X103360000Y-92178300D01*
X96520000Y-85338300D02*
X103360000Y-92178300D01*
%TO.N,Net-(A1-A10{slash}IO27)*%
X93000000Y-85380000D02*
X93000000Y-87950000D01*
X88900000Y-81280000D02*
X93000000Y-85380000D01*
%TO.N,Net-(A1-RX{slash}IO16)*%
X124358000Y-88011000D02*
X124435000Y-87934800D01*
X124435000Y-87934800D02*
X124435000Y-78115000D01*
X127381000Y-110738000D02*
X127381000Y-92075000D01*
X124435000Y-78115000D02*
X125300000Y-77250000D01*
X126220000Y-113800000D02*
X126220000Y-111898000D01*
X126220000Y-111898000D02*
X127322000Y-110797000D01*
X130200000Y-77250000D02*
X131600000Y-78650000D01*
X126924000Y-91617800D02*
X124358000Y-91617800D01*
X131600000Y-78650000D02*
X131600000Y-79100000D01*
X125300000Y-77250000D02*
X130200000Y-77250000D01*
X127322000Y-110797000D02*
X127381000Y-110738000D01*
X127381000Y-92075000D02*
X126924000Y-91617800D01*
X124358000Y-91617800D02*
X124358000Y-88011000D01*
%TO.N,Net-(A1-TX{slash}IO17)*%
X132537200Y-88442800D02*
X132537200Y-85287200D01*
X132537200Y-85287200D02*
X130350000Y-83100000D01*
X130350000Y-83100000D02*
X130350000Y-79100000D01*
X132484000Y-88389600D02*
X132537200Y-88442800D01*
%TD*%
%TA.AperFunction,Conductor*%
%TO.N,GND*%
G36*
X137054681Y-72887061D02*
G01*
X137122478Y-72892992D01*
X137187547Y-72918445D01*
X137228525Y-72975036D01*
X137235670Y-73016666D01*
X137223846Y-83061853D01*
X137204082Y-83128869D01*
X137151225Y-83174562D01*
X137082054Y-83184424D01*
X137018533Y-83155324D01*
X136999529Y-83134595D01*
X136881966Y-82972781D01*
X136737219Y-82828034D01*
X136737213Y-82828028D01*
X136571613Y-82707715D01*
X136571612Y-82707714D01*
X136571610Y-82707713D01*
X136514653Y-82678691D01*
X136389223Y-82614781D01*
X136194534Y-82551522D01*
X135997693Y-82520346D01*
X135992352Y-82519500D01*
X135787648Y-82519500D01*
X135782307Y-82520346D01*
X135585465Y-82551522D01*
X135390776Y-82614781D01*
X135208386Y-82707715D01*
X135042786Y-82828028D01*
X134898028Y-82972786D01*
X134777715Y-83138386D01*
X134684781Y-83320776D01*
X134621522Y-83515465D01*
X134589500Y-83717648D01*
X134589500Y-83922351D01*
X134621522Y-84124534D01*
X134684781Y-84319223D01*
X134748691Y-84444653D01*
X134772729Y-84491829D01*
X134777715Y-84501613D01*
X134898028Y-84667213D01*
X135042786Y-84811971D01*
X135189392Y-84918484D01*
X135208390Y-84932287D01*
X135299767Y-84978846D01*
X135390776Y-85025218D01*
X135390778Y-85025218D01*
X135390781Y-85025220D01*
X135483712Y-85055415D01*
X135585465Y-85088477D01*
X135686557Y-85104488D01*
X135787648Y-85120500D01*
X135787649Y-85120500D01*
X135992351Y-85120500D01*
X135992352Y-85120500D01*
X136194534Y-85088477D01*
X136389219Y-85025220D01*
X136571610Y-84932287D01*
X136676546Y-84856047D01*
X136737213Y-84811971D01*
X136737215Y-84811968D01*
X136737219Y-84811966D01*
X136881966Y-84667219D01*
X136997740Y-84507867D01*
X137053069Y-84465203D01*
X137122682Y-84459224D01*
X137184478Y-84491829D01*
X137218835Y-84552668D01*
X137222058Y-84580900D01*
X137218812Y-87337992D01*
X137199048Y-87405008D01*
X137146191Y-87450701D01*
X137077020Y-87460563D01*
X137013499Y-87431463D01*
X137007131Y-87425527D01*
X136934943Y-87353339D01*
X136934936Y-87353333D01*
X136742493Y-87205667D01*
X136742492Y-87205666D01*
X136742489Y-87205664D01*
X136532412Y-87084376D01*
X136532405Y-87084373D01*
X136308304Y-86991547D01*
X136132828Y-86944528D01*
X136073989Y-86928762D01*
X136073988Y-86928761D01*
X136073985Y-86928761D01*
X135833489Y-86897100D01*
X135833488Y-86897100D01*
X135590912Y-86897100D01*
X135590911Y-86897100D01*
X135350414Y-86928761D01*
X135116095Y-86991547D01*
X134891994Y-87084373D01*
X134891985Y-87084377D01*
X134681906Y-87205667D01*
X134489463Y-87353333D01*
X134489456Y-87353339D01*
X134317939Y-87524856D01*
X134317933Y-87524863D01*
X134170267Y-87717306D01*
X134048977Y-87927385D01*
X134048973Y-87927394D01*
X133956147Y-88151495D01*
X133893361Y-88385814D01*
X133861700Y-88626311D01*
X133861700Y-88868888D01*
X133892191Y-89100500D01*
X133893362Y-89109389D01*
X133921000Y-89212535D01*
X133956147Y-89343704D01*
X134034941Y-89533928D01*
X134048976Y-89567812D01*
X134170264Y-89777889D01*
X134170266Y-89777892D01*
X134170267Y-89777893D01*
X134317933Y-89970336D01*
X134317939Y-89970343D01*
X134489456Y-90141860D01*
X134489463Y-90141866D01*
X134596250Y-90223806D01*
X134681911Y-90289536D01*
X134891988Y-90410824D01*
X135116100Y-90503654D01*
X135350411Y-90566438D01*
X135530786Y-90590184D01*
X135590911Y-90598100D01*
X135590912Y-90598100D01*
X135833489Y-90598100D01*
X135881588Y-90591767D01*
X136073989Y-90566438D01*
X136308300Y-90503654D01*
X136532412Y-90410824D01*
X136742489Y-90289536D01*
X136934938Y-90141865D01*
X137003809Y-90072993D01*
X137065130Y-90039510D01*
X137134822Y-90044494D01*
X137190756Y-90086365D01*
X137215173Y-90151829D01*
X137215489Y-90160822D01*
X137185815Y-115369764D01*
X137184829Y-115373106D01*
X137185624Y-115376500D01*
X137175016Y-115406380D01*
X137166051Y-115436780D01*
X137163415Y-115439058D01*
X137162249Y-115442344D01*
X137137174Y-115461742D01*
X137113194Y-115482473D01*
X137108928Y-115483595D01*
X137106987Y-115485097D01*
X137072623Y-115493146D01*
X137005395Y-115499028D01*
X136994587Y-115499500D01*
X122359740Y-115499500D01*
X122292701Y-115479815D01*
X122246946Y-115427011D01*
X122237002Y-115357853D01*
X122266027Y-115294297D01*
X122271993Y-115287884D01*
X122415243Y-115144419D01*
X122700744Y-114858491D01*
X122756520Y-114802716D01*
X122756634Y-114802517D01*
X122756796Y-114802356D01*
X122789614Y-114745413D01*
X122840143Y-114697160D01*
X122908740Y-114683884D01*
X122973625Y-114709802D01*
X122984729Y-114719651D01*
X123042214Y-114777136D01*
X123042218Y-114777139D01*
X123206079Y-114886628D01*
X123206092Y-114886635D01*
X123365814Y-114952793D01*
X123388165Y-114962051D01*
X123388169Y-114962051D01*
X123388170Y-114962052D01*
X123581456Y-115000500D01*
X123581459Y-115000500D01*
X123778543Y-115000500D01*
X123908582Y-114974632D01*
X123971835Y-114962051D01*
X124153914Y-114886632D01*
X124317782Y-114777139D01*
X124457139Y-114637782D01*
X124566632Y-114473914D01*
X124642051Y-114291835D01*
X124678816Y-114107007D01*
X124680500Y-114098543D01*
X124680500Y-112901456D01*
X124642052Y-112708170D01*
X124642051Y-112708169D01*
X124642051Y-112708165D01*
X124636839Y-112695581D01*
X124566635Y-112526092D01*
X124566628Y-112526079D01*
X124457139Y-112362218D01*
X124457136Y-112362214D01*
X124317785Y-112222863D01*
X124317781Y-112222860D01*
X124153920Y-112113371D01*
X124153907Y-112113364D01*
X123971839Y-112037950D01*
X123971829Y-112037947D01*
X123778543Y-111999500D01*
X123778541Y-111999500D01*
X123581459Y-111999500D01*
X123581457Y-111999500D01*
X123388170Y-112037947D01*
X123388160Y-112037950D01*
X123206092Y-112113364D01*
X123206079Y-112113371D01*
X123069391Y-112204704D01*
X123002713Y-112225582D01*
X122935333Y-112207097D01*
X122888643Y-112155119D01*
X122876500Y-112101602D01*
X122876500Y-95178397D01*
X122896185Y-95111358D01*
X122948989Y-95065603D01*
X123018147Y-95055659D01*
X123069389Y-95075294D01*
X123119500Y-95108777D01*
X123206079Y-95166628D01*
X123206092Y-95166635D01*
X123350952Y-95226637D01*
X123388165Y-95242051D01*
X123388169Y-95242051D01*
X123388170Y-95242052D01*
X123581456Y-95280500D01*
X123581459Y-95280500D01*
X123778543Y-95280500D01*
X123908898Y-95254570D01*
X123971835Y-95242051D01*
X124153914Y-95166632D01*
X124317782Y-95057139D01*
X124457139Y-94917782D01*
X124566632Y-94753914D01*
X124642051Y-94571835D01*
X124680500Y-94378541D01*
X124680500Y-93181459D01*
X124680500Y-93181456D01*
X124642052Y-92988170D01*
X124642051Y-92988169D01*
X124642051Y-92988165D01*
X124642049Y-92988160D01*
X124566635Y-92806092D01*
X124566628Y-92806079D01*
X124457139Y-92642218D01*
X124457136Y-92642214D01*
X124317785Y-92502863D01*
X124317781Y-92502860D01*
X124231789Y-92445402D01*
X124186984Y-92391790D01*
X124178277Y-92322465D01*
X124208431Y-92259438D01*
X124267874Y-92222718D01*
X124300680Y-92218300D01*
X124437057Y-92218300D01*
X125599320Y-92218300D01*
X125666359Y-92237985D01*
X125712114Y-92290789D01*
X125722058Y-92359947D01*
X125693033Y-92423503D01*
X125668211Y-92445402D01*
X125582218Y-92502860D01*
X125582214Y-92502863D01*
X125442863Y-92642214D01*
X125442860Y-92642218D01*
X125333371Y-92806079D01*
X125333364Y-92806092D01*
X125257950Y-92988160D01*
X125257947Y-92988170D01*
X125219500Y-93181456D01*
X125219500Y-93181459D01*
X125219500Y-94378541D01*
X125219500Y-94378543D01*
X125219499Y-94378543D01*
X125257947Y-94571829D01*
X125257950Y-94571839D01*
X125333364Y-94753907D01*
X125333371Y-94753920D01*
X125442860Y-94917781D01*
X125442863Y-94917785D01*
X125582214Y-95057136D01*
X125582218Y-95057139D01*
X125746079Y-95166628D01*
X125746092Y-95166635D01*
X125890952Y-95226637D01*
X125928165Y-95242051D01*
X125928169Y-95242051D01*
X125928170Y-95242052D01*
X126121456Y-95280500D01*
X126121459Y-95280500D01*
X126318543Y-95280500D01*
X126448898Y-95254570D01*
X126511835Y-95242051D01*
X126609049Y-95201783D01*
X126678516Y-95194315D01*
X126740996Y-95225590D01*
X126776648Y-95285679D01*
X126780500Y-95316345D01*
X126780500Y-110437762D01*
X126760815Y-110504801D01*
X126744141Y-110525483D01*
X125857084Y-111411733D01*
X125857085Y-111411734D01*
X125851405Y-111417409D01*
X125851284Y-111417480D01*
X125794723Y-111474040D01*
X125794722Y-111474040D01*
X125794721Y-111474041D01*
X125794722Y-111474041D01*
X125739637Y-111529075D01*
X125739486Y-111529273D01*
X125739480Y-111529284D01*
X125710500Y-111579479D01*
X125699680Y-111598219D01*
X125699653Y-111598265D01*
X125660527Y-111665963D01*
X125660457Y-111666132D01*
X125660424Y-111666209D01*
X125653705Y-111691285D01*
X125640165Y-111741816D01*
X125640160Y-111741834D01*
X125619534Y-111818670D01*
X125619500Y-111818926D01*
X125619500Y-111896670D01*
X125619460Y-111984588D01*
X125619500Y-111985194D01*
X125619500Y-112134216D01*
X125599815Y-112201255D01*
X125583181Y-112221897D01*
X125442863Y-112362214D01*
X125442860Y-112362218D01*
X125333371Y-112526079D01*
X125333364Y-112526092D01*
X125257950Y-112708160D01*
X125257947Y-112708170D01*
X125219500Y-112901456D01*
X125219500Y-112901459D01*
X125219500Y-114098541D01*
X125219500Y-114098543D01*
X125219499Y-114098543D01*
X125257947Y-114291829D01*
X125257950Y-114291839D01*
X125333364Y-114473907D01*
X125333371Y-114473920D01*
X125442860Y-114637781D01*
X125442863Y-114637785D01*
X125582214Y-114777136D01*
X125582218Y-114777139D01*
X125746079Y-114886628D01*
X125746092Y-114886635D01*
X125905814Y-114952793D01*
X125928165Y-114962051D01*
X125928169Y-114962051D01*
X125928170Y-114962052D01*
X126121456Y-115000500D01*
X126121459Y-115000500D01*
X126318543Y-115000500D01*
X126448582Y-114974632D01*
X126511835Y-114962051D01*
X126693914Y-114886632D01*
X126857782Y-114777139D01*
X126997139Y-114637782D01*
X127106632Y-114473914D01*
X127182051Y-114291835D01*
X127218816Y-114107007D01*
X127220500Y-114098543D01*
X127759499Y-114098543D01*
X127797947Y-114291829D01*
X127797950Y-114291839D01*
X127873364Y-114473907D01*
X127873371Y-114473920D01*
X127982860Y-114637781D01*
X127982863Y-114637785D01*
X128122214Y-114777136D01*
X128122218Y-114777139D01*
X128286079Y-114886628D01*
X128286092Y-114886635D01*
X128445814Y-114952793D01*
X128468165Y-114962051D01*
X128468169Y-114962051D01*
X128468170Y-114962052D01*
X128661456Y-115000500D01*
X128661459Y-115000500D01*
X128858543Y-115000500D01*
X128988582Y-114974632D01*
X129051835Y-114962051D01*
X129233914Y-114886632D01*
X129397782Y-114777139D01*
X129537139Y-114637782D01*
X129646632Y-114473914D01*
X129722051Y-114291835D01*
X129758816Y-114107007D01*
X129760500Y-114098543D01*
X130299499Y-114098543D01*
X130337947Y-114291829D01*
X130337950Y-114291839D01*
X130413364Y-114473907D01*
X130413371Y-114473920D01*
X130522860Y-114637781D01*
X130522863Y-114637785D01*
X130662214Y-114777136D01*
X130662218Y-114777139D01*
X130826079Y-114886628D01*
X130826092Y-114886635D01*
X130985814Y-114952793D01*
X131008165Y-114962051D01*
X131008169Y-114962051D01*
X131008170Y-114962052D01*
X131201456Y-115000500D01*
X131201459Y-115000500D01*
X131398543Y-115000500D01*
X131528582Y-114974632D01*
X131591835Y-114962051D01*
X131773914Y-114886632D01*
X131937782Y-114777139D01*
X132077139Y-114637782D01*
X132186632Y-114473914D01*
X132262051Y-114291835D01*
X132298816Y-114107007D01*
X132300500Y-114098543D01*
X132300500Y-112901456D01*
X132262052Y-112708170D01*
X132262051Y-112708169D01*
X132262051Y-112708165D01*
X132256839Y-112695581D01*
X132186635Y-112526092D01*
X132186628Y-112526079D01*
X132077139Y-112362218D01*
X132077136Y-112362214D01*
X131937785Y-112222863D01*
X131937781Y-112222860D01*
X131773920Y-112113371D01*
X131773907Y-112113364D01*
X131591839Y-112037950D01*
X131591829Y-112037947D01*
X131398543Y-111999500D01*
X131398541Y-111999500D01*
X131201459Y-111999500D01*
X131201457Y-111999500D01*
X131008170Y-112037947D01*
X131008160Y-112037950D01*
X130826092Y-112113364D01*
X130826079Y-112113371D01*
X130662218Y-112222860D01*
X130662214Y-112222863D01*
X130522863Y-112362214D01*
X130522860Y-112362218D01*
X130413371Y-112526079D01*
X130413364Y-112526092D01*
X130337950Y-112708160D01*
X130337947Y-112708170D01*
X130299500Y-112901456D01*
X130299500Y-112901459D01*
X130299500Y-114098541D01*
X130299500Y-114098543D01*
X130299499Y-114098543D01*
X129760500Y-114098543D01*
X129760500Y-112901456D01*
X129722052Y-112708170D01*
X129722051Y-112708169D01*
X129722051Y-112708165D01*
X129716839Y-112695581D01*
X129646635Y-112526092D01*
X129646628Y-112526079D01*
X129537139Y-112362218D01*
X129537136Y-112362214D01*
X129397785Y-112222863D01*
X129397781Y-112222860D01*
X129233920Y-112113371D01*
X129233907Y-112113364D01*
X129051839Y-112037950D01*
X129051829Y-112037947D01*
X128858543Y-111999500D01*
X128858541Y-111999500D01*
X128661459Y-111999500D01*
X128661457Y-111999500D01*
X128468170Y-112037947D01*
X128468160Y-112037950D01*
X128286092Y-112113364D01*
X128286079Y-112113371D01*
X128122218Y-112222860D01*
X128122214Y-112222863D01*
X127982863Y-112362214D01*
X127982860Y-112362218D01*
X127873371Y-112526079D01*
X127873364Y-112526092D01*
X127797950Y-112708160D01*
X127797947Y-112708170D01*
X127759500Y-112901456D01*
X127759500Y-112901459D01*
X127759500Y-114098541D01*
X127759500Y-114098543D01*
X127759499Y-114098543D01*
X127220500Y-114098543D01*
X127220500Y-112901456D01*
X127182052Y-112708170D01*
X127182051Y-112708169D01*
X127182051Y-112708165D01*
X127176839Y-112695581D01*
X127106635Y-112526092D01*
X127106628Y-112526079D01*
X126997140Y-112362219D01*
X126953571Y-112318650D01*
X126888868Y-112253947D01*
X126855385Y-112192627D01*
X126860369Y-112122935D01*
X126888907Y-112078549D01*
X127690596Y-111277587D01*
X127690716Y-111277519D01*
X127746484Y-111221750D01*
X127802352Y-111165934D01*
X127802352Y-111165933D01*
X127807950Y-111160341D01*
X127808346Y-111159888D01*
X127861520Y-111106716D01*
X127940577Y-110969784D01*
X127981501Y-110817057D01*
X127981501Y-110658942D01*
X127981501Y-110651347D01*
X127981500Y-110651329D01*
X127981500Y-95195102D01*
X128001185Y-95128063D01*
X128053989Y-95082308D01*
X128123147Y-95072364D01*
X128174391Y-95092000D01*
X128286079Y-95166628D01*
X128286092Y-95166635D01*
X128430952Y-95226637D01*
X128468165Y-95242051D01*
X128468169Y-95242051D01*
X128468170Y-95242052D01*
X128661456Y-95280500D01*
X128661459Y-95280500D01*
X128858543Y-95280500D01*
X128988898Y-95254570D01*
X129051835Y-95242051D01*
X129233914Y-95166632D01*
X129397782Y-95057139D01*
X129537139Y-94917782D01*
X129646632Y-94753914D01*
X129722051Y-94571835D01*
X129760500Y-94378541D01*
X129760500Y-93181459D01*
X129760500Y-93181456D01*
X129722052Y-92988170D01*
X129722051Y-92988169D01*
X129722051Y-92988165D01*
X129722049Y-92988160D01*
X129646635Y-92806092D01*
X129646628Y-92806079D01*
X129537139Y-92642218D01*
X129537136Y-92642214D01*
X129426503Y-92531581D01*
X129393018Y-92470258D01*
X129398002Y-92400566D01*
X129439874Y-92344633D01*
X129505338Y-92320216D01*
X129514184Y-92319900D01*
X130545817Y-92319900D01*
X130612856Y-92339585D01*
X130658611Y-92392389D01*
X130668555Y-92461547D01*
X130639530Y-92525103D01*
X130633511Y-92531567D01*
X130578178Y-92586900D01*
X130522859Y-92642219D01*
X130413371Y-92806079D01*
X130413364Y-92806092D01*
X130337950Y-92988160D01*
X130337947Y-92988170D01*
X130299500Y-93181456D01*
X130299500Y-93181459D01*
X130299500Y-94378541D01*
X130299500Y-94378543D01*
X130299499Y-94378543D01*
X130337947Y-94571829D01*
X130337950Y-94571839D01*
X130413364Y-94753907D01*
X130413371Y-94753920D01*
X130522860Y-94917781D01*
X130522863Y-94917785D01*
X130662214Y-95057136D01*
X130662218Y-95057139D01*
X130826079Y-95166628D01*
X130826092Y-95166635D01*
X130970952Y-95226637D01*
X131008165Y-95242051D01*
X131008169Y-95242051D01*
X131008170Y-95242052D01*
X131201456Y-95280500D01*
X131201459Y-95280500D01*
X131398543Y-95280500D01*
X131528898Y-95254570D01*
X131591835Y-95242051D01*
X131773914Y-95166632D01*
X131937782Y-95057139D01*
X132077139Y-94917782D01*
X132186632Y-94753914D01*
X132262051Y-94571835D01*
X132300500Y-94378541D01*
X132300500Y-93181459D01*
X132300500Y-93181456D01*
X132262052Y-92988170D01*
X132262051Y-92988169D01*
X132262051Y-92988165D01*
X132262049Y-92988160D01*
X132186635Y-92806092D01*
X132186628Y-92806079D01*
X132077139Y-92642218D01*
X132077136Y-92642214D01*
X131936819Y-92501897D01*
X131903334Y-92440574D01*
X131900500Y-92414216D01*
X131900500Y-91854695D01*
X131900618Y-91775638D01*
X131900500Y-91775194D01*
X131900500Y-91774743D01*
X131880220Y-91699057D01*
X131880220Y-91699056D01*
X131880233Y-91699052D01*
X131880175Y-91698889D01*
X131859922Y-91622850D01*
X131859921Y-91622849D01*
X131859921Y-91622847D01*
X131859848Y-91622671D01*
X131859578Y-91622018D01*
X131820375Y-91554116D01*
X131820283Y-91553956D01*
X131781069Y-91485801D01*
X131781067Y-91485799D01*
X131781066Y-91485797D01*
X131780610Y-91485201D01*
X131780609Y-91485199D01*
X131780523Y-91485087D01*
X131724639Y-91429203D01*
X131652747Y-91357096D01*
X131646748Y-91351079D01*
X131646520Y-91350684D01*
X131590725Y-91294889D01*
X131535432Y-91239431D01*
X131535431Y-91239430D01*
X131535429Y-91239428D01*
X131535163Y-91239224D01*
X131534986Y-91239088D01*
X131534716Y-91238880D01*
X131476835Y-91205463D01*
X131466496Y-91199493D01*
X131466494Y-91199492D01*
X131398618Y-91160169D01*
X131398182Y-91160051D01*
X131397787Y-91159823D01*
X131322061Y-91139533D01*
X131321884Y-91139485D01*
X131245951Y-91119017D01*
X131245502Y-91118958D01*
X131245500Y-91118957D01*
X131245499Y-91118957D01*
X131245072Y-91118900D01*
X131245057Y-91118900D01*
X131166895Y-91118900D01*
X131080875Y-91118771D01*
X131078896Y-91118900D01*
X128189035Y-91118900D01*
X128121996Y-91099215D01*
X128101367Y-91082594D01*
X127920221Y-90901501D01*
X127629856Y-90611220D01*
X127571716Y-90553080D01*
X127571677Y-90553057D01*
X127571647Y-90553027D01*
X127503658Y-90513787D01*
X127503660Y-90513782D01*
X127503642Y-90513778D01*
X127492695Y-90507458D01*
X127434784Y-90474023D01*
X127434783Y-90474022D01*
X127434782Y-90474022D01*
X127434706Y-90473990D01*
X127434703Y-90473989D01*
X127355166Y-90452689D01*
X127355166Y-90452688D01*
X127351188Y-90451623D01*
X127282057Y-90433100D01*
X127282015Y-90433100D01*
X127281970Y-90433088D01*
X127281946Y-90433088D01*
X127199475Y-90433100D01*
X125794500Y-90433100D01*
X125727461Y-90413415D01*
X125681706Y-90360611D01*
X125670500Y-90309100D01*
X125670500Y-86433165D01*
X125690185Y-86366126D01*
X125691398Y-86364274D01*
X125779390Y-86232585D01*
X125779390Y-86232584D01*
X125779394Y-86232579D01*
X125839737Y-86086897D01*
X125870500Y-85932242D01*
X125870500Y-85774558D01*
X125870500Y-85774555D01*
X125870499Y-85774553D01*
X125846467Y-85653739D01*
X125839737Y-85619903D01*
X125819103Y-85570087D01*
X125779397Y-85474227D01*
X125779390Y-85474214D01*
X125691789Y-85343111D01*
X125691786Y-85343107D01*
X125580292Y-85231613D01*
X125580288Y-85231610D01*
X125449185Y-85144009D01*
X125449172Y-85144002D01*
X125303501Y-85083664D01*
X125303489Y-85083661D01*
X125148841Y-85052899D01*
X125147338Y-85052751D01*
X125146601Y-85052453D01*
X125142868Y-85051711D01*
X125143008Y-85051002D01*
X125082552Y-85026586D01*
X125042197Y-84969549D01*
X125035500Y-84929349D01*
X125035500Y-83717648D01*
X126969500Y-83717648D01*
X126969500Y-83922351D01*
X127001522Y-84124534D01*
X127064781Y-84319223D01*
X127128691Y-84444653D01*
X127152729Y-84491829D01*
X127157715Y-84501613D01*
X127278028Y-84667213D01*
X127422786Y-84811971D01*
X127569392Y-84918484D01*
X127588390Y-84932287D01*
X127679767Y-84978846D01*
X127770780Y-85025220D01*
X127770786Y-85025222D01*
X127837817Y-85047001D01*
X127895493Y-85086437D01*
X127922692Y-85150796D01*
X127923500Y-85164932D01*
X127923500Y-88392680D01*
X127903815Y-88459719D01*
X127887181Y-88480361D01*
X127768531Y-88599010D01*
X127768530Y-88599011D01*
X127680522Y-88744593D01*
X127629913Y-88907007D01*
X127623500Y-88977586D01*
X127623500Y-89990813D01*
X127629913Y-90061392D01*
X127629913Y-90061394D01*
X127629914Y-90061396D01*
X127680522Y-90223806D01*
X127761023Y-90356971D01*
X127768530Y-90369388D01*
X127888811Y-90489669D01*
X127888813Y-90489670D01*
X127888815Y-90489672D01*
X128034394Y-90577678D01*
X128196804Y-90628286D01*
X128267384Y-90634700D01*
X128267387Y-90634700D01*
X128780613Y-90634700D01*
X128780616Y-90634700D01*
X128851196Y-90628286D01*
X129013606Y-90577678D01*
X129157597Y-90490631D01*
X129225148Y-90472796D01*
X129290636Y-90493647D01*
X129347689Y-90531769D01*
X129347693Y-90531771D01*
X129511476Y-90599612D01*
X129511483Y-90599615D01*
X129524000Y-90602104D01*
X129524000Y-90602103D01*
X130024000Y-90602103D01*
X130036516Y-90599615D01*
X130036523Y-90599612D01*
X130200306Y-90531771D01*
X130200316Y-90531766D01*
X130347716Y-90433276D01*
X130347720Y-90433273D01*
X130473073Y-90307920D01*
X130473076Y-90307916D01*
X130571566Y-90160516D01*
X130571571Y-90160507D01*
X130639413Y-89996720D01*
X130639415Y-89996712D01*
X130673999Y-89822846D01*
X130674000Y-89822843D01*
X130674000Y-89734200D01*
X130024000Y-89734200D01*
X130024000Y-90602103D01*
X129524000Y-90602103D01*
X129524000Y-89533928D01*
X129562060Y-89625814D01*
X129632386Y-89696140D01*
X129724272Y-89734200D01*
X129823728Y-89734200D01*
X129915614Y-89696140D01*
X129985940Y-89625814D01*
X130024000Y-89533928D01*
X130024000Y-89434472D01*
X129985940Y-89342586D01*
X129915614Y-89272260D01*
X129823728Y-89234200D01*
X130024000Y-89234200D01*
X130674000Y-89234200D01*
X130674000Y-89145557D01*
X130673999Y-89145553D01*
X130639415Y-88971687D01*
X130639413Y-88971679D01*
X130571571Y-88807892D01*
X130571566Y-88807883D01*
X130473076Y-88660483D01*
X130473073Y-88660479D01*
X130347720Y-88535126D01*
X130347716Y-88535123D01*
X130200316Y-88436633D01*
X130200307Y-88436628D01*
X130036519Y-88368785D01*
X130024000Y-88366294D01*
X130024000Y-89234200D01*
X129823728Y-89234200D01*
X129724272Y-89234200D01*
X129632386Y-89272260D01*
X129562060Y-89342586D01*
X129524000Y-89434472D01*
X129524000Y-88366295D01*
X129523999Y-88366294D01*
X129511480Y-88368785D01*
X129347690Y-88436629D01*
X129317388Y-88456876D01*
X129250711Y-88477752D01*
X129183331Y-88459266D01*
X129136642Y-88407286D01*
X129124500Y-88353772D01*
X129124500Y-84856047D01*
X129144185Y-84789008D01*
X129160819Y-84768366D01*
X129261966Y-84667219D01*
X129261968Y-84667215D01*
X129261971Y-84667213D01*
X129345191Y-84552668D01*
X129382287Y-84501610D01*
X129475220Y-84319219D01*
X129538477Y-84124534D01*
X129570500Y-83922352D01*
X129570500Y-83717648D01*
X129538477Y-83515466D01*
X129475220Y-83320781D01*
X129475218Y-83320778D01*
X129475218Y-83320776D01*
X129441503Y-83254607D01*
X129382287Y-83138390D01*
X129374556Y-83127749D01*
X129261971Y-82972786D01*
X129117213Y-82828028D01*
X128951613Y-82707715D01*
X128951612Y-82707714D01*
X128951610Y-82707713D01*
X128894653Y-82678691D01*
X128769223Y-82614781D01*
X128574534Y-82551522D01*
X128377693Y-82520346D01*
X128372352Y-82519500D01*
X128167648Y-82519500D01*
X128162307Y-82520346D01*
X127965465Y-82551522D01*
X127770776Y-82614781D01*
X127588386Y-82707715D01*
X127422786Y-82828028D01*
X127278028Y-82972786D01*
X127157715Y-83138386D01*
X127064781Y-83320776D01*
X127001522Y-83515465D01*
X126969500Y-83717648D01*
X125035500Y-83717648D01*
X125035500Y-78415097D01*
X125055185Y-78348058D01*
X125071819Y-78327416D01*
X125512417Y-77886819D01*
X125573740Y-77853334D01*
X125600098Y-77850500D01*
X129673677Y-77850500D01*
X129740716Y-77870185D01*
X129786471Y-77922989D01*
X129796415Y-77992147D01*
X129767390Y-78055703D01*
X129737828Y-78080616D01*
X129714814Y-78094528D01*
X129714810Y-78094531D01*
X129594530Y-78214811D01*
X129506522Y-78360393D01*
X129455913Y-78522807D01*
X129449500Y-78593386D01*
X129449500Y-79606613D01*
X129455913Y-79677192D01*
X129455913Y-79677194D01*
X129455914Y-79677196D01*
X129506522Y-79839606D01*
X129594528Y-79985185D01*
X129713182Y-80103839D01*
X129746666Y-80165160D01*
X129749500Y-80191519D01*
X129749500Y-83013330D01*
X129749499Y-83013348D01*
X129749499Y-83179054D01*
X129749498Y-83179054D01*
X129749533Y-83179185D01*
X129790423Y-83331785D01*
X129816219Y-83376465D01*
X129869477Y-83468712D01*
X129869481Y-83468717D01*
X129988349Y-83587585D01*
X129988355Y-83587590D01*
X131900381Y-85499616D01*
X131933866Y-85560939D01*
X131936700Y-85587297D01*
X131936700Y-87863034D01*
X131917015Y-87930073D01*
X131915802Y-87931925D01*
X131827809Y-88063614D01*
X131827802Y-88063627D01*
X131767464Y-88209298D01*
X131767461Y-88209310D01*
X131736700Y-88363953D01*
X131736700Y-88521646D01*
X131767461Y-88676289D01*
X131767464Y-88676301D01*
X131827802Y-88821972D01*
X131827809Y-88821985D01*
X131915410Y-88953088D01*
X131915413Y-88953092D01*
X132026907Y-89064586D01*
X132026911Y-89064589D01*
X132158014Y-89152190D01*
X132158027Y-89152197D01*
X132303698Y-89212535D01*
X132303703Y-89212537D01*
X132412610Y-89234200D01*
X132458353Y-89243299D01*
X132458356Y-89243300D01*
X132458358Y-89243300D01*
X132616044Y-89243300D01*
X132616045Y-89243299D01*
X132770697Y-89212537D01*
X132916379Y-89152194D01*
X133047489Y-89064589D01*
X133158989Y-88953089D01*
X133246594Y-88821979D01*
X133252420Y-88807915D01*
X133306935Y-88676301D01*
X133306937Y-88676297D01*
X133337700Y-88521642D01*
X133337700Y-88363958D01*
X133337700Y-88363955D01*
X133337699Y-88363953D01*
X133306938Y-88209310D01*
X133306937Y-88209303D01*
X133287319Y-88161940D01*
X133246597Y-88063627D01*
X133246590Y-88063614D01*
X133158598Y-87931925D01*
X133137720Y-87865247D01*
X133137700Y-87863034D01*
X133137700Y-85376259D01*
X133137701Y-85376246D01*
X133137701Y-85208145D01*
X133137701Y-85208143D01*
X133096777Y-85055415D01*
X133058465Y-84989057D01*
X133017720Y-84918484D01*
X132905916Y-84806680D01*
X132905915Y-84806679D01*
X132901585Y-84802349D01*
X132901574Y-84802339D01*
X130986819Y-82887584D01*
X130953334Y-82826261D01*
X130950500Y-82799903D01*
X130950500Y-80231027D01*
X130970185Y-80163988D01*
X131022989Y-80118233D01*
X131092147Y-80108289D01*
X131143388Y-80127924D01*
X131173453Y-80148013D01*
X131337334Y-80215894D01*
X131337336Y-80215894D01*
X131337341Y-80215896D01*
X131511304Y-80250499D01*
X131511307Y-80250500D01*
X131511309Y-80250500D01*
X131688693Y-80250500D01*
X131688694Y-80250499D01*
X131786588Y-80231027D01*
X131862658Y-80215896D01*
X131862661Y-80215894D01*
X131862666Y-80215894D01*
X132026547Y-80148013D01*
X132156109Y-80061442D01*
X132222786Y-80040564D01*
X132290166Y-80059048D01*
X132293891Y-80061442D01*
X132423446Y-80148008D01*
X132423453Y-80148013D01*
X132423455Y-80148014D01*
X132423459Y-80148016D01*
X132471018Y-80167715D01*
X132587334Y-80215894D01*
X132587336Y-80215894D01*
X132587341Y-80215896D01*
X132761304Y-80250499D01*
X132761307Y-80250500D01*
X132761309Y-80250500D01*
X132938693Y-80250500D01*
X132938694Y-80250499D01*
X133036588Y-80231027D01*
X133112658Y-80215896D01*
X133112661Y-80215894D01*
X133112666Y-80215894D01*
X133276547Y-80148013D01*
X133276552Y-80148009D01*
X133276555Y-80148008D01*
X133340214Y-80105472D01*
X133406558Y-80061141D01*
X133473234Y-80040263D01*
X133540615Y-80058747D01*
X133544340Y-80061141D01*
X133673683Y-80147566D01*
X133673693Y-80147571D01*
X133837476Y-80215412D01*
X133837483Y-80215415D01*
X133850000Y-80217904D01*
X133850000Y-80217903D01*
X134350000Y-80217903D01*
X134362516Y-80215415D01*
X134362523Y-80215412D01*
X134526306Y-80147571D01*
X134526316Y-80147566D01*
X134673716Y-80049076D01*
X134673720Y-80049073D01*
X134799073Y-79923720D01*
X134799076Y-79923716D01*
X134897566Y-79776316D01*
X134897571Y-79776307D01*
X134965413Y-79612520D01*
X134965415Y-79612512D01*
X134999999Y-79438646D01*
X135000000Y-79438643D01*
X135000000Y-79350000D01*
X134350000Y-79350000D01*
X134350000Y-80217903D01*
X133850000Y-80217903D01*
X133850000Y-79149728D01*
X133888060Y-79241614D01*
X133958386Y-79311940D01*
X134050272Y-79350000D01*
X134149728Y-79350000D01*
X134241614Y-79311940D01*
X134311940Y-79241614D01*
X134350000Y-79149728D01*
X134350000Y-79050272D01*
X134311940Y-78958386D01*
X134241614Y-78888060D01*
X134149728Y-78850000D01*
X134350000Y-78850000D01*
X135000000Y-78850000D01*
X135000000Y-78761357D01*
X134999999Y-78761353D01*
X134965415Y-78587487D01*
X134965413Y-78587479D01*
X134897571Y-78423692D01*
X134897566Y-78423683D01*
X134799076Y-78276283D01*
X134799073Y-78276279D01*
X134673720Y-78150926D01*
X134673716Y-78150923D01*
X134526316Y-78052433D01*
X134526307Y-78052428D01*
X134362519Y-77984585D01*
X134350000Y-77982094D01*
X134350000Y-78850000D01*
X134149728Y-78850000D01*
X134050272Y-78850000D01*
X133958386Y-78888060D01*
X133888060Y-78958386D01*
X133850000Y-79050272D01*
X133850000Y-77982095D01*
X133849999Y-77982094D01*
X133837480Y-77984585D01*
X133673692Y-78052428D01*
X133673683Y-78052433D01*
X133544340Y-78138858D01*
X133477662Y-78159736D01*
X133410282Y-78141251D01*
X133406558Y-78138858D01*
X133276552Y-78051990D01*
X133276540Y-78051983D01*
X133112667Y-77984106D01*
X133112658Y-77984103D01*
X132938694Y-77949500D01*
X132938691Y-77949500D01*
X132761309Y-77949500D01*
X132761306Y-77949500D01*
X132587341Y-77984103D01*
X132587332Y-77984106D01*
X132423459Y-78051983D01*
X132423446Y-78051990D01*
X132293891Y-78138557D01*
X132227213Y-78159435D01*
X132159833Y-78140950D01*
X132156109Y-78138557D01*
X132026553Y-78051990D01*
X132026540Y-78051983D01*
X131862667Y-77984106D01*
X131862658Y-77984103D01*
X131800536Y-77971747D01*
X131738625Y-77939362D01*
X131737046Y-77937811D01*
X130687590Y-76888355D01*
X130687588Y-76888352D01*
X130568717Y-76769481D01*
X130568709Y-76769475D01*
X130447445Y-76699464D01*
X130447445Y-76699463D01*
X130447441Y-76699462D01*
X130431785Y-76690423D01*
X130279057Y-76649499D01*
X130120943Y-76649499D01*
X130113347Y-76649499D01*
X130113331Y-76649500D01*
X125386670Y-76649500D01*
X125386654Y-76649499D01*
X125379058Y-76649499D01*
X125220943Y-76649499D01*
X125144579Y-76669961D01*
X125068214Y-76690423D01*
X125068209Y-76690426D01*
X124931290Y-76769475D01*
X124931282Y-76769481D01*
X123954479Y-77746284D01*
X123940499Y-77770500D01*
X123930959Y-77787024D01*
X123875423Y-77883215D01*
X123834499Y-78035943D01*
X123834499Y-78035945D01*
X123834499Y-78204046D01*
X123834500Y-78204059D01*
X123834500Y-87241212D01*
X123814815Y-87308251D01*
X123762011Y-87354006D01*
X123692853Y-87363950D01*
X123629297Y-87334925D01*
X123592115Y-87278103D01*
X123579251Y-87236822D01*
X123579250Y-87236820D01*
X123492443Y-87093222D01*
X123492439Y-87093217D01*
X123373782Y-86974560D01*
X123373777Y-86974556D01*
X123230180Y-86887750D01*
X123230179Y-86887749D01*
X123230178Y-86887749D01*
X123069971Y-86837827D01*
X123069969Y-86837826D01*
X123069967Y-86837826D01*
X123021221Y-86833396D01*
X123000347Y-86831500D01*
X123000344Y-86831500D01*
X121999644Y-86831500D01*
X121999643Y-86831501D01*
X121965719Y-86834583D01*
X121897173Y-86821045D01*
X121846829Y-86772597D01*
X121830500Y-86711092D01*
X121830500Y-82270945D01*
X121830499Y-82270941D01*
X121821368Y-82236864D01*
X121811357Y-82199499D01*
X121789577Y-82118215D01*
X121760639Y-82068095D01*
X121710520Y-81981284D01*
X121598716Y-81869480D01*
X121598715Y-81869479D01*
X121594385Y-81865149D01*
X121594374Y-81865139D01*
X117710915Y-77981680D01*
X117677430Y-77920357D01*
X117682414Y-77850665D01*
X117724286Y-77794732D01*
X117789750Y-77770315D01*
X117798596Y-77769999D01*
X117920307Y-77769999D01*
X117989875Y-77763678D01*
X117989883Y-77763676D01*
X118149970Y-77713791D01*
X118149972Y-77713790D01*
X118293467Y-77627045D01*
X118293471Y-77627042D01*
X118412042Y-77508471D01*
X118412045Y-77508467D01*
X118498789Y-77364973D01*
X118548677Y-77204876D01*
X118555000Y-77135298D01*
X118555000Y-76250000D01*
X117735686Y-76250000D01*
X117740080Y-76245606D01*
X117792741Y-76154394D01*
X117820000Y-76052661D01*
X117820000Y-75947339D01*
X117792741Y-75845606D01*
X117740080Y-75754394D01*
X117735686Y-75750000D01*
X118554999Y-75750000D01*
X118554999Y-74864691D01*
X118554996Y-74864655D01*
X118824500Y-74864655D01*
X118824500Y-77135354D01*
X118830825Y-77204966D01*
X118830828Y-77204977D01*
X118880747Y-77365175D01*
X118880749Y-77365179D01*
X118967556Y-77508777D01*
X118967560Y-77508782D01*
X119086217Y-77627439D01*
X119086222Y-77627443D01*
X119199418Y-77695871D01*
X119229822Y-77714251D01*
X119390029Y-77764173D01*
X119459653Y-77770500D01*
X120460346Y-77770499D01*
X120460353Y-77770499D01*
X120529966Y-77764174D01*
X120529969Y-77764173D01*
X120529971Y-77764173D01*
X120690178Y-77714251D01*
X120770432Y-77665736D01*
X120833777Y-77627443D01*
X120833778Y-77627441D01*
X120833783Y-77627439D01*
X120952439Y-77508783D01*
X121039251Y-77365178D01*
X121089173Y-77204971D01*
X121095500Y-77135347D01*
X121095499Y-74864655D01*
X121364500Y-74864655D01*
X121364500Y-77135354D01*
X121370825Y-77204966D01*
X121370828Y-77204977D01*
X121420747Y-77365175D01*
X121420749Y-77365179D01*
X121507556Y-77508777D01*
X121507560Y-77508782D01*
X121626217Y-77627439D01*
X121626222Y-77627443D01*
X121739418Y-77695871D01*
X121769822Y-77714251D01*
X121930029Y-77764173D01*
X121999653Y-77770500D01*
X123000346Y-77770499D01*
X123000353Y-77770499D01*
X123069966Y-77764174D01*
X123069969Y-77764173D01*
X123069971Y-77764173D01*
X123230178Y-77714251D01*
X123310432Y-77665736D01*
X123373777Y-77627443D01*
X123373778Y-77627441D01*
X123373783Y-77627439D01*
X123492439Y-77508783D01*
X123579251Y-77365178D01*
X123629173Y-77204971D01*
X123635500Y-77135347D01*
X123635499Y-74864654D01*
X123635499Y-74864653D01*
X123635499Y-74864645D01*
X123629174Y-74795033D01*
X123629171Y-74795022D01*
X123579252Y-74634824D01*
X123579250Y-74634820D01*
X123492443Y-74491222D01*
X123492439Y-74491217D01*
X123373782Y-74372560D01*
X123373777Y-74372556D01*
X123230180Y-74285750D01*
X123230179Y-74285749D01*
X123230178Y-74285749D01*
X123069971Y-74235827D01*
X123069969Y-74235826D01*
X123069967Y-74235826D01*
X123021221Y-74231396D01*
X123000347Y-74229500D01*
X123000344Y-74229500D01*
X121999645Y-74229500D01*
X121930033Y-74235825D01*
X121930022Y-74235828D01*
X121769824Y-74285747D01*
X121769820Y-74285749D01*
X121626222Y-74372556D01*
X121626217Y-74372560D01*
X121507560Y-74491217D01*
X121507556Y-74491222D01*
X121420750Y-74634819D01*
X121420750Y-74634820D01*
X121420749Y-74634822D01*
X121395788Y-74714925D01*
X121370826Y-74795032D01*
X121364500Y-74864655D01*
X121095499Y-74864655D01*
X121095499Y-74864654D01*
X121095499Y-74864653D01*
X121095499Y-74864645D01*
X121089174Y-74795033D01*
X121089171Y-74795022D01*
X121039252Y-74634824D01*
X121039250Y-74634820D01*
X120952443Y-74491222D01*
X120952439Y-74491217D01*
X120833782Y-74372560D01*
X120833777Y-74372556D01*
X120690180Y-74285750D01*
X120690179Y-74285749D01*
X120690178Y-74285749D01*
X120529971Y-74235827D01*
X120529969Y-74235826D01*
X120529967Y-74235826D01*
X120481221Y-74231396D01*
X120460347Y-74229500D01*
X120460344Y-74229500D01*
X119459645Y-74229500D01*
X119390033Y-74235825D01*
X119390022Y-74235828D01*
X119229824Y-74285747D01*
X119229820Y-74285749D01*
X119086222Y-74372556D01*
X119086217Y-74372560D01*
X118967560Y-74491217D01*
X118967556Y-74491222D01*
X118880750Y-74634819D01*
X118880750Y-74634820D01*
X118880749Y-74634822D01*
X118855788Y-74714925D01*
X118830826Y-74795032D01*
X118824500Y-74864655D01*
X118554996Y-74864655D01*
X118548678Y-74795124D01*
X118548676Y-74795116D01*
X118498791Y-74635029D01*
X118498790Y-74635027D01*
X118412045Y-74491532D01*
X118412042Y-74491528D01*
X118293471Y-74372957D01*
X118293467Y-74372954D01*
X118149973Y-74286210D01*
X117989876Y-74236322D01*
X117920298Y-74230000D01*
X117670000Y-74230000D01*
X117670000Y-75684314D01*
X117665606Y-75679920D01*
X117574394Y-75627259D01*
X117472661Y-75600000D01*
X117367339Y-75600000D01*
X117265606Y-75627259D01*
X117174394Y-75679920D01*
X117170000Y-75684314D01*
X117170000Y-74230000D01*
X116919691Y-74230000D01*
X116850123Y-74236321D01*
X116850116Y-74236323D01*
X116690029Y-74286208D01*
X116690027Y-74286209D01*
X116546532Y-74372954D01*
X116546528Y-74372957D01*
X116427957Y-74491528D01*
X116427954Y-74491532D01*
X116341210Y-74635026D01*
X116291322Y-74795123D01*
X116285000Y-74864701D01*
X116285000Y-75750000D01*
X117104314Y-75750000D01*
X117099920Y-75754394D01*
X117047259Y-75845606D01*
X117020000Y-75947339D01*
X117020000Y-76052661D01*
X117047259Y-76154394D01*
X117099920Y-76245606D01*
X117104314Y-76250000D01*
X116285002Y-76250000D01*
X116285000Y-76250001D01*
X116285000Y-76256405D01*
X116278761Y-76277649D01*
X116277182Y-76299737D01*
X116269108Y-76310521D01*
X116265314Y-76323444D01*
X116248580Y-76337943D01*
X116235310Y-76355670D01*
X116222690Y-76360376D01*
X116212510Y-76369198D01*
X116190591Y-76372349D01*
X116169846Y-76380087D01*
X116156684Y-76377223D01*
X116143351Y-76379141D01*
X116123207Y-76369941D01*
X116101573Y-76365235D01*
X116083846Y-76351964D01*
X116079796Y-76350115D01*
X116073319Y-76344084D01*
X116051818Y-76322583D01*
X116018333Y-76261260D01*
X116015499Y-76234902D01*
X116015499Y-74864645D01*
X116009174Y-74795033D01*
X116009171Y-74795022D01*
X115959252Y-74634824D01*
X115959250Y-74634820D01*
X115872443Y-74491222D01*
X115872439Y-74491217D01*
X115753782Y-74372560D01*
X115753777Y-74372556D01*
X115610180Y-74285750D01*
X115610179Y-74285749D01*
X115610178Y-74285749D01*
X115449971Y-74235827D01*
X115449969Y-74235826D01*
X115449967Y-74235826D01*
X115401221Y-74231396D01*
X115380347Y-74229500D01*
X115380344Y-74229500D01*
X114379645Y-74229500D01*
X114310033Y-74235825D01*
X114310022Y-74235828D01*
X114149824Y-74285747D01*
X114149820Y-74285749D01*
X114006222Y-74372556D01*
X114006217Y-74372560D01*
X113887560Y-74491217D01*
X113887556Y-74491222D01*
X113800750Y-74634819D01*
X113800750Y-74634820D01*
X113800749Y-74634822D01*
X113775788Y-74714925D01*
X113750826Y-74795032D01*
X113744500Y-74864655D01*
X113744500Y-76255937D01*
X113738261Y-76277183D01*
X113736681Y-76299273D01*
X113728608Y-76310055D01*
X113724815Y-76322976D01*
X113708081Y-76337475D01*
X113694808Y-76355206D01*
X113682187Y-76359912D01*
X113672011Y-76368731D01*
X113650092Y-76371882D01*
X113629343Y-76379621D01*
X113616184Y-76376758D01*
X113602853Y-76378675D01*
X113582708Y-76369475D01*
X113561071Y-76364768D01*
X113543348Y-76351500D01*
X113539297Y-76349650D01*
X113532817Y-76343616D01*
X113511816Y-76322614D01*
X113478332Y-76261290D01*
X113475499Y-76234935D01*
X113475499Y-74864645D01*
X113469174Y-74795033D01*
X113469171Y-74795022D01*
X113419252Y-74634824D01*
X113419250Y-74634820D01*
X113332443Y-74491222D01*
X113332439Y-74491217D01*
X113213782Y-74372560D01*
X113213777Y-74372556D01*
X113070180Y-74285750D01*
X113070179Y-74285749D01*
X113070178Y-74285749D01*
X112909971Y-74235827D01*
X112909969Y-74235826D01*
X112909967Y-74235826D01*
X112861221Y-74231396D01*
X112840347Y-74229500D01*
X112840344Y-74229500D01*
X111839645Y-74229500D01*
X111770033Y-74235825D01*
X111770022Y-74235828D01*
X111609824Y-74285747D01*
X111609820Y-74285749D01*
X111466222Y-74372556D01*
X111466217Y-74372560D01*
X111347560Y-74491217D01*
X111347556Y-74491222D01*
X111260750Y-74634819D01*
X111260750Y-74634820D01*
X111260749Y-74634822D01*
X111235788Y-74714925D01*
X111210826Y-74795032D01*
X111204500Y-74864655D01*
X111204500Y-77135354D01*
X111210825Y-77204966D01*
X111210828Y-77204977D01*
X111260747Y-77365175D01*
X111260749Y-77365179D01*
X111347556Y-77508777D01*
X111347560Y-77508782D01*
X111466217Y-77627439D01*
X111466222Y-77627443D01*
X111579418Y-77695871D01*
X111609822Y-77714251D01*
X111770029Y-77764173D01*
X111839653Y-77770500D01*
X112840346Y-77770499D01*
X112840353Y-77770499D01*
X112909966Y-77764174D01*
X112909969Y-77764173D01*
X112909971Y-77764173D01*
X113070178Y-77714251D01*
X113071037Y-77713731D01*
X113071751Y-77713542D01*
X113077017Y-77711173D01*
X113077410Y-77712048D01*
X113138589Y-77695893D01*
X113205064Y-77717407D01*
X113222872Y-77732166D01*
X118318511Y-82828034D01*
X118375183Y-82884708D01*
X118408667Y-82946032D01*
X118411500Y-82972387D01*
X118411500Y-86002902D01*
X118391815Y-86069941D01*
X118339011Y-86115696D01*
X118269853Y-86125640D01*
X118206297Y-86096615D01*
X118199819Y-86090583D01*
X110091415Y-77982180D01*
X110057930Y-77920857D01*
X110062914Y-77851165D01*
X110104786Y-77795232D01*
X110170250Y-77770815D01*
X110179096Y-77770499D01*
X110300353Y-77770499D01*
X110369966Y-77764174D01*
X110369969Y-77764173D01*
X110369971Y-77764173D01*
X110530178Y-77714251D01*
X110610432Y-77665736D01*
X110673777Y-77627443D01*
X110673778Y-77627441D01*
X110673783Y-77627439D01*
X110792439Y-77508783D01*
X110879251Y-77365178D01*
X110929173Y-77204971D01*
X110935500Y-77135347D01*
X110935499Y-74864654D01*
X110935499Y-74864653D01*
X110935499Y-74864645D01*
X110929174Y-74795033D01*
X110929171Y-74795022D01*
X110879252Y-74634824D01*
X110879250Y-74634820D01*
X110792443Y-74491222D01*
X110792439Y-74491217D01*
X110673782Y-74372560D01*
X110673777Y-74372556D01*
X110530180Y-74285750D01*
X110530179Y-74285749D01*
X110530178Y-74285749D01*
X110369971Y-74235827D01*
X110369969Y-74235826D01*
X110369967Y-74235826D01*
X110321221Y-74231396D01*
X110300347Y-74229500D01*
X110300344Y-74229500D01*
X109299645Y-74229500D01*
X109230033Y-74235825D01*
X109230022Y-74235828D01*
X109069824Y-74285747D01*
X109069820Y-74285749D01*
X108926222Y-74372556D01*
X108926217Y-74372560D01*
X108807560Y-74491217D01*
X108807556Y-74491222D01*
X108720750Y-74634819D01*
X108720750Y-74634820D01*
X108720749Y-74634822D01*
X108695788Y-74714925D01*
X108670826Y-74795032D01*
X108664500Y-74864655D01*
X108664500Y-76255903D01*
X108658261Y-76277148D01*
X108656682Y-76299237D01*
X108648609Y-76310020D01*
X108644815Y-76322942D01*
X108628081Y-76337441D01*
X108614810Y-76355170D01*
X108602189Y-76359877D01*
X108592011Y-76368697D01*
X108570093Y-76371848D01*
X108549346Y-76379587D01*
X108536185Y-76376724D01*
X108522853Y-76378641D01*
X108502709Y-76369441D01*
X108481073Y-76364735D01*
X108463347Y-76351466D01*
X108459297Y-76349616D01*
X108452819Y-76343584D01*
X108431818Y-76322583D01*
X108398333Y-76261260D01*
X108395499Y-76234902D01*
X108395499Y-74864645D01*
X108389174Y-74795033D01*
X108389171Y-74795022D01*
X108339252Y-74634824D01*
X108339250Y-74634820D01*
X108252443Y-74491222D01*
X108252439Y-74491217D01*
X108133782Y-74372560D01*
X108133777Y-74372556D01*
X107990180Y-74285750D01*
X107990179Y-74285749D01*
X107990178Y-74285749D01*
X107829971Y-74235827D01*
X107829969Y-74235826D01*
X107829967Y-74235826D01*
X107781221Y-74231396D01*
X107760347Y-74229500D01*
X107760344Y-74229500D01*
X106759645Y-74229500D01*
X106690033Y-74235825D01*
X106690022Y-74235828D01*
X106529824Y-74285747D01*
X106529820Y-74285749D01*
X106386222Y-74372556D01*
X106386217Y-74372560D01*
X106267560Y-74491217D01*
X106267556Y-74491222D01*
X106180750Y-74634819D01*
X106180750Y-74634820D01*
X106180749Y-74634822D01*
X106155788Y-74714925D01*
X106130826Y-74795032D01*
X106124500Y-74864655D01*
X106124500Y-77135354D01*
X106130825Y-77204966D01*
X106130828Y-77204977D01*
X106180747Y-77365175D01*
X106180749Y-77365179D01*
X106267556Y-77508777D01*
X106267560Y-77508782D01*
X106386217Y-77627439D01*
X106386222Y-77627443D01*
X106499418Y-77695871D01*
X106529822Y-77714251D01*
X106690029Y-77764173D01*
X106759653Y-77770500D01*
X107760346Y-77770499D01*
X107760353Y-77770499D01*
X107829966Y-77764174D01*
X107829969Y-77764173D01*
X107829971Y-77764173D01*
X107990178Y-77714251D01*
X107991076Y-77713707D01*
X107991822Y-77713510D01*
X107997017Y-77711173D01*
X107997405Y-77712036D01*
X108058630Y-77695871D01*
X108125104Y-77717388D01*
X108142908Y-77732143D01*
X112322212Y-81911447D01*
X112355697Y-81972770D01*
X112350713Y-82042462D01*
X112308841Y-82098395D01*
X112303423Y-82102230D01*
X112189707Y-82178213D01*
X112078213Y-82289707D01*
X112078210Y-82289711D01*
X111990609Y-82420814D01*
X111990602Y-82420827D01*
X111930264Y-82566498D01*
X111930261Y-82566510D01*
X111899500Y-82721153D01*
X111899500Y-82878846D01*
X111930261Y-83033489D01*
X111930264Y-83033501D01*
X111990602Y-83179172D01*
X111990609Y-83179185D01*
X112078210Y-83310288D01*
X112078213Y-83310292D01*
X112189707Y-83421786D01*
X112189711Y-83421789D01*
X112320814Y-83509390D01*
X112320827Y-83509397D01*
X112466498Y-83569735D01*
X112466503Y-83569737D01*
X112531147Y-83582595D01*
X112621849Y-83600638D01*
X112683760Y-83633023D01*
X112685339Y-83634574D01*
X113106272Y-84055507D01*
X113139757Y-84116830D01*
X113134773Y-84186522D01*
X113092901Y-84242455D01*
X113087483Y-84246289D01*
X113039713Y-84278208D01*
X113039707Y-84278213D01*
X112928213Y-84389707D01*
X112928210Y-84389711D01*
X112840609Y-84520814D01*
X112840602Y-84520827D01*
X112780264Y-84666498D01*
X112780261Y-84666510D01*
X112749500Y-84821153D01*
X112749500Y-84978846D01*
X112780261Y-85133489D01*
X112780264Y-85133501D01*
X112840602Y-85279172D01*
X112840609Y-85279185D01*
X112918602Y-85395908D01*
X112939480Y-85462585D01*
X112939500Y-85464799D01*
X112939500Y-86707500D01*
X112919815Y-86774539D01*
X112867011Y-86820294D01*
X112815500Y-86831500D01*
X111839645Y-86831500D01*
X111770033Y-86837825D01*
X111770022Y-86837828D01*
X111609824Y-86887747D01*
X111609820Y-86887749D01*
X111466222Y-86974556D01*
X111466217Y-86974560D01*
X111347560Y-87093217D01*
X111347556Y-87093222D01*
X111260750Y-87236819D01*
X111210826Y-87397032D01*
X111206614Y-87443386D01*
X111205054Y-87460563D01*
X111204500Y-87466655D01*
X111204500Y-89737354D01*
X111210825Y-89806966D01*
X111210828Y-89806977D01*
X111260747Y-89967175D01*
X111260749Y-89967179D01*
X111347556Y-90110777D01*
X111347560Y-90110782D01*
X111466217Y-90229439D01*
X111466222Y-90229443D01*
X111565623Y-90289532D01*
X111609822Y-90316251D01*
X111770029Y-90366173D01*
X111839653Y-90372500D01*
X112821158Y-90372499D01*
X112888197Y-90392183D01*
X112933952Y-90444987D01*
X112940933Y-90464405D01*
X112980423Y-90611785D01*
X112980426Y-90611790D01*
X113059475Y-90748709D01*
X113059479Y-90748714D01*
X113059480Y-90748716D01*
X113171284Y-90860520D01*
X113171285Y-90860521D01*
X113171287Y-90860522D01*
X113195457Y-90874476D01*
X113228127Y-90893338D01*
X113253809Y-90913044D01*
X114173181Y-91832416D01*
X114206666Y-91893739D01*
X114209500Y-91920097D01*
X114209500Y-92305429D01*
X114189815Y-92372468D01*
X114137011Y-92418223D01*
X114067853Y-92428167D01*
X114016611Y-92408532D01*
X113993923Y-92393373D01*
X113993907Y-92393364D01*
X113811839Y-92317950D01*
X113811829Y-92317947D01*
X113618543Y-92279500D01*
X113618541Y-92279500D01*
X113421459Y-92279500D01*
X113421457Y-92279500D01*
X113228170Y-92317947D01*
X113228160Y-92317950D01*
X113046092Y-92393364D01*
X113046079Y-92393371D01*
X112882218Y-92502860D01*
X112882214Y-92502863D01*
X112742863Y-92642214D01*
X112742860Y-92642218D01*
X112633371Y-92806079D01*
X112633364Y-92806092D01*
X112557950Y-92988160D01*
X112557947Y-92988170D01*
X112519500Y-93181456D01*
X112519500Y-93181459D01*
X112519500Y-94378541D01*
X112519500Y-94378543D01*
X112519499Y-94378543D01*
X112557947Y-94571829D01*
X112557950Y-94571839D01*
X112633364Y-94753907D01*
X112633371Y-94753920D01*
X112742860Y-94917781D01*
X112742863Y-94917785D01*
X112882214Y-95057136D01*
X112882218Y-95057139D01*
X113046079Y-95166628D01*
X113046092Y-95166635D01*
X113190952Y-95226637D01*
X113228165Y-95242051D01*
X113228169Y-95242051D01*
X113228170Y-95242052D01*
X113421456Y-95280500D01*
X113421459Y-95280500D01*
X113618543Y-95280500D01*
X113748898Y-95254570D01*
X113811835Y-95242051D01*
X113993914Y-95166632D01*
X114016609Y-95151467D01*
X114083286Y-95130590D01*
X114150666Y-95149074D01*
X114197356Y-95201052D01*
X114209500Y-95254570D01*
X114209500Y-109929903D01*
X114189815Y-109996942D01*
X114173181Y-110017584D01*
X113457584Y-110733181D01*
X113396261Y-110766666D01*
X113369903Y-110769500D01*
X102966670Y-110769500D01*
X102966654Y-110769499D01*
X102959058Y-110769499D01*
X102800943Y-110769499D01*
X102724579Y-110789961D01*
X102648214Y-110810423D01*
X102648209Y-110810426D01*
X102511290Y-110889475D01*
X102511282Y-110889481D01*
X102143808Y-111256955D01*
X102118128Y-111276661D01*
X102061284Y-111309480D01*
X102061281Y-111309482D01*
X101679481Y-111691282D01*
X101679479Y-111691285D01*
X101629361Y-111778094D01*
X101629358Y-111778099D01*
X101610002Y-111811622D01*
X101559433Y-111859835D01*
X101490826Y-111873056D01*
X101446322Y-111860103D01*
X101319029Y-111795244D01*
X101124413Y-111732009D01*
X101070000Y-111723390D01*
X101070000Y-113366988D01*
X101012993Y-113334075D01*
X100885826Y-113300000D01*
X100754174Y-113300000D01*
X100627007Y-113334075D01*
X100570000Y-113366988D01*
X100570000Y-111723390D01*
X100515586Y-111732009D01*
X100320970Y-111795244D01*
X100138650Y-111888140D01*
X99973105Y-112008417D01*
X99973104Y-112008417D01*
X99828417Y-112153104D01*
X99828417Y-112153105D01*
X99708140Y-112318650D01*
X99615244Y-112500968D01*
X99552010Y-112695581D01*
X99522124Y-112884269D01*
X99492194Y-112947403D01*
X99432883Y-112984334D01*
X99363020Y-112983336D01*
X99304788Y-112944726D01*
X99278034Y-112889061D01*
X99242052Y-112708172D01*
X99242052Y-112708170D01*
X99242051Y-112708165D01*
X99236839Y-112695581D01*
X99166635Y-112526092D01*
X99166628Y-112526079D01*
X99057139Y-112362218D01*
X99057136Y-112362214D01*
X98917785Y-112222863D01*
X98917781Y-112222860D01*
X98753920Y-112113371D01*
X98753907Y-112113364D01*
X98571839Y-112037950D01*
X98571829Y-112037947D01*
X98378543Y-111999500D01*
X98378541Y-111999500D01*
X98181459Y-111999500D01*
X98181457Y-111999500D01*
X97988170Y-112037947D01*
X97988160Y-112037950D01*
X97806092Y-112113364D01*
X97806079Y-112113371D01*
X97642218Y-112222860D01*
X97642214Y-112222863D01*
X97502863Y-112362214D01*
X97502860Y-112362218D01*
X97393371Y-112526079D01*
X97393364Y-112526092D01*
X97317950Y-112708160D01*
X97317947Y-112708170D01*
X97279500Y-112901456D01*
X97279500Y-112901459D01*
X97279500Y-114098541D01*
X97279500Y-114098543D01*
X97279499Y-114098543D01*
X97317947Y-114291829D01*
X97317950Y-114291839D01*
X97333777Y-114330048D01*
X97341246Y-114399517D01*
X97309971Y-114461996D01*
X97249882Y-114497648D01*
X97219216Y-114501500D01*
X96800784Y-114501500D01*
X96733745Y-114481815D01*
X96687990Y-114429011D01*
X96678046Y-114359853D01*
X96686223Y-114330048D01*
X96692384Y-114315172D01*
X96702051Y-114291835D01*
X96738816Y-114107007D01*
X96740500Y-114098543D01*
X96740500Y-112901456D01*
X96702052Y-112708170D01*
X96702051Y-112708169D01*
X96702051Y-112708165D01*
X96696839Y-112695581D01*
X96626635Y-112526092D01*
X96626628Y-112526079D01*
X96517139Y-112362218D01*
X96517136Y-112362214D01*
X96377785Y-112222863D01*
X96377781Y-112222860D01*
X96213920Y-112113371D01*
X96213907Y-112113364D01*
X96031839Y-112037950D01*
X96031829Y-112037947D01*
X95838543Y-111999500D01*
X95838541Y-111999500D01*
X95641459Y-111999500D01*
X95641457Y-111999500D01*
X95448170Y-112037947D01*
X95448160Y-112037950D01*
X95266092Y-112113364D01*
X95266079Y-112113371D01*
X95102218Y-112222860D01*
X95102214Y-112222863D01*
X94962863Y-112362214D01*
X94962860Y-112362218D01*
X94853371Y-112526079D01*
X94853364Y-112526092D01*
X94777950Y-112708160D01*
X94777947Y-112708170D01*
X94739500Y-112901456D01*
X94739500Y-112901459D01*
X94739500Y-114098541D01*
X94739500Y-114098543D01*
X94739499Y-114098543D01*
X94777947Y-114291829D01*
X94777950Y-114291839D01*
X94853364Y-114473907D01*
X94853371Y-114473920D01*
X94962860Y-114637781D01*
X94962863Y-114637785D01*
X95103181Y-114778103D01*
X95136666Y-114839426D01*
X95139500Y-114865784D01*
X95139500Y-115181056D01*
X95182527Y-115341635D01*
X95179592Y-115342421D01*
X95185516Y-115397516D01*
X95154241Y-115459995D01*
X95094153Y-115495648D01*
X95063486Y-115499500D01*
X87505413Y-115499500D01*
X87494605Y-115499028D01*
X87337248Y-115485260D01*
X87315963Y-115481507D01*
X87262952Y-115467303D01*
X87203291Y-115430938D01*
X87172762Y-115368091D01*
X87171046Y-115348039D01*
X87171020Y-115341635D01*
X87158868Y-112395730D01*
X92199500Y-112395730D01*
X92199500Y-114604269D01*
X92202353Y-114634699D01*
X92202353Y-114634701D01*
X92236976Y-114733644D01*
X92247207Y-114762882D01*
X92327850Y-114872150D01*
X92437118Y-114952793D01*
X92463576Y-114962051D01*
X92565299Y-114997646D01*
X92595730Y-115000500D01*
X92595734Y-115000500D01*
X93804270Y-115000500D01*
X93834699Y-114997646D01*
X93834701Y-114997646D01*
X93898790Y-114975219D01*
X93962882Y-114952793D01*
X94072150Y-114872150D01*
X94152793Y-114762882D01*
X94176100Y-114696273D01*
X94197646Y-114634701D01*
X94197646Y-114634699D01*
X94200500Y-114604269D01*
X94200500Y-112395730D01*
X94197646Y-112365300D01*
X94197646Y-112365298D01*
X94152793Y-112237119D01*
X94152792Y-112237117D01*
X94136838Y-112215500D01*
X94072150Y-112127850D01*
X93962882Y-112047207D01*
X93962880Y-112047206D01*
X93834700Y-112002353D01*
X93804270Y-111999500D01*
X93804266Y-111999500D01*
X92595734Y-111999500D01*
X92595730Y-111999500D01*
X92565300Y-112002353D01*
X92565298Y-112002353D01*
X92437119Y-112047206D01*
X92437117Y-112047207D01*
X92327850Y-112127850D01*
X92247207Y-112237117D01*
X92247206Y-112237119D01*
X92202353Y-112365298D01*
X92202353Y-112365300D01*
X92199500Y-112395730D01*
X87158868Y-112395730D01*
X87030095Y-81177648D01*
X87599500Y-81177648D01*
X87599500Y-81382351D01*
X87631522Y-81584534D01*
X87694781Y-81779223D01*
X87787715Y-81961613D01*
X87908028Y-82127213D01*
X88052786Y-82271971D01*
X88183197Y-82366718D01*
X88218390Y-82392287D01*
X88313068Y-82440528D01*
X88400776Y-82485218D01*
X88400778Y-82485218D01*
X88400781Y-82485220D01*
X88475818Y-82509601D01*
X88595465Y-82548477D01*
X88614697Y-82551523D01*
X88797648Y-82580500D01*
X88797649Y-82580500D01*
X89002351Y-82580500D01*
X89002352Y-82580500D01*
X89204534Y-82548477D01*
X89218842Y-82543827D01*
X89288682Y-82541831D01*
X89344842Y-82574077D01*
X92363181Y-85592416D01*
X92396666Y-85653739D01*
X92399500Y-85680097D01*
X92399500Y-86858480D01*
X92379815Y-86925519D01*
X92363181Y-86946161D01*
X92244531Y-87064810D01*
X92244530Y-87064811D01*
X92156522Y-87210393D01*
X92105913Y-87372807D01*
X92099500Y-87443386D01*
X92099500Y-88456613D01*
X92105913Y-88527192D01*
X92105913Y-88527194D01*
X92105914Y-88527196D01*
X92156522Y-88689606D01*
X92236540Y-88821972D01*
X92244530Y-88835188D01*
X92364811Y-88955469D01*
X92364813Y-88955470D01*
X92364815Y-88955472D01*
X92510394Y-89043478D01*
X92672804Y-89094086D01*
X92743384Y-89100500D01*
X92743387Y-89100500D01*
X93256613Y-89100500D01*
X93256616Y-89100500D01*
X93327196Y-89094086D01*
X93489606Y-89043478D01*
X93633597Y-88956431D01*
X93701148Y-88938596D01*
X93766636Y-88959447D01*
X93823689Y-88997569D01*
X93823693Y-88997571D01*
X93987476Y-89065412D01*
X93987483Y-89065415D01*
X94000000Y-89067904D01*
X94000000Y-89067903D01*
X94500000Y-89067903D01*
X94512516Y-89065415D01*
X94512523Y-89065412D01*
X94676306Y-88997571D01*
X94676316Y-88997566D01*
X94823716Y-88899076D01*
X94823720Y-88899073D01*
X94949073Y-88773720D01*
X94949076Y-88773716D01*
X95047566Y-88626316D01*
X95047571Y-88626307D01*
X95115413Y-88462520D01*
X95115415Y-88462512D01*
X95149999Y-88288646D01*
X95150000Y-88288643D01*
X95150000Y-88200000D01*
X94500000Y-88200000D01*
X94500000Y-89067903D01*
X94000000Y-89067903D01*
X94000000Y-87999728D01*
X94038060Y-88091614D01*
X94108386Y-88161940D01*
X94200272Y-88200000D01*
X94299728Y-88200000D01*
X94391614Y-88161940D01*
X94461940Y-88091614D01*
X94500000Y-87999728D01*
X94500000Y-87900272D01*
X94461940Y-87808386D01*
X94391614Y-87738060D01*
X94299728Y-87700000D01*
X94500000Y-87700000D01*
X95150000Y-87700000D01*
X95150000Y-87611357D01*
X95149999Y-87611353D01*
X95115415Y-87437487D01*
X95115413Y-87437479D01*
X95047571Y-87273692D01*
X95047566Y-87273683D01*
X94949076Y-87126283D01*
X94949073Y-87126279D01*
X94823720Y-87000926D01*
X94823716Y-87000923D01*
X94676316Y-86902433D01*
X94676307Y-86902428D01*
X94512519Y-86834585D01*
X94500000Y-86832094D01*
X94500000Y-87700000D01*
X94299728Y-87700000D01*
X94200272Y-87700000D01*
X94108386Y-87738060D01*
X94038060Y-87808386D01*
X94000000Y-87900272D01*
X94000000Y-86832095D01*
X93999999Y-86832094D01*
X93987480Y-86834585D01*
X93823690Y-86902429D01*
X93793388Y-86922676D01*
X93726711Y-86943552D01*
X93659331Y-86925066D01*
X93612642Y-86873086D01*
X93600500Y-86819572D01*
X93600500Y-85469060D01*
X93600501Y-85469047D01*
X93600501Y-85300944D01*
X93587287Y-85251630D01*
X93559577Y-85148216D01*
X93551079Y-85133497D01*
X93480524Y-85011290D01*
X93480518Y-85011282D01*
X90194077Y-81724842D01*
X90160592Y-81663519D01*
X90163828Y-81598841D01*
X90168477Y-81584534D01*
X90200500Y-81382352D01*
X90200500Y-81177648D01*
X95219500Y-81177648D01*
X95219500Y-81382351D01*
X95251522Y-81584534D01*
X95314781Y-81779223D01*
X95407715Y-81961613D01*
X95528028Y-82127213D01*
X95528034Y-82127219D01*
X95672781Y-82271966D01*
X95838390Y-82392287D01*
X95851793Y-82399116D01*
X95902589Y-82447088D01*
X95919500Y-82509601D01*
X95919500Y-85251630D01*
X95919499Y-85251648D01*
X95919499Y-85417354D01*
X95919498Y-85417354D01*
X95960423Y-85570086D01*
X95960424Y-85570087D01*
X95983118Y-85609394D01*
X96023938Y-85680097D01*
X96039481Y-85707017D01*
X96158349Y-85825885D01*
X96158355Y-85825890D01*
X102691090Y-92358625D01*
X102724575Y-92419948D01*
X102719591Y-92489640D01*
X102691091Y-92533987D01*
X102582860Y-92642218D01*
X102473371Y-92806079D01*
X102473364Y-92806092D01*
X102397950Y-92988160D01*
X102397947Y-92988170D01*
X102359500Y-93181456D01*
X102359500Y-93181459D01*
X102359500Y-94378541D01*
X102359500Y-94378543D01*
X102359499Y-94378543D01*
X102397947Y-94571829D01*
X102397950Y-94571839D01*
X102473364Y-94753907D01*
X102473371Y-94753920D01*
X102582860Y-94917781D01*
X102582863Y-94917785D01*
X102722214Y-95057136D01*
X102722218Y-95057139D01*
X102886079Y-95166628D01*
X102886092Y-95166635D01*
X103030952Y-95226637D01*
X103068165Y-95242051D01*
X103068169Y-95242051D01*
X103068170Y-95242052D01*
X103261456Y-95280500D01*
X103261459Y-95280500D01*
X103458543Y-95280500D01*
X103588898Y-95254570D01*
X103651835Y-95242051D01*
X103833914Y-95166632D01*
X103997782Y-95057139D01*
X104137139Y-94917782D01*
X104246632Y-94753914D01*
X104322051Y-94571835D01*
X104360500Y-94378543D01*
X104899499Y-94378543D01*
X104937947Y-94571829D01*
X104937950Y-94571839D01*
X105013364Y-94753907D01*
X105013371Y-94753920D01*
X105122860Y-94917781D01*
X105122863Y-94917785D01*
X105262214Y-95057136D01*
X105262218Y-95057139D01*
X105426079Y-95166628D01*
X105426092Y-95166635D01*
X105570952Y-95226637D01*
X105608165Y-95242051D01*
X105608169Y-95242051D01*
X105608170Y-95242052D01*
X105801456Y-95280500D01*
X105801459Y-95280500D01*
X105998543Y-95280500D01*
X106128898Y-95254570D01*
X106191835Y-95242051D01*
X106373914Y-95166632D01*
X106537782Y-95057139D01*
X106677139Y-94917782D01*
X106786632Y-94753914D01*
X106862051Y-94571835D01*
X106900500Y-94378543D01*
X107439499Y-94378543D01*
X107477947Y-94571829D01*
X107477950Y-94571839D01*
X107553364Y-94753907D01*
X107553371Y-94753920D01*
X107662860Y-94917781D01*
X107662863Y-94917785D01*
X107802214Y-95057136D01*
X107802218Y-95057139D01*
X107966079Y-95166628D01*
X107966092Y-95166635D01*
X108110952Y-95226637D01*
X108148165Y-95242051D01*
X108148169Y-95242051D01*
X108148170Y-95242052D01*
X108341456Y-95280500D01*
X108341459Y-95280500D01*
X108538543Y-95280500D01*
X108668898Y-95254570D01*
X108731835Y-95242051D01*
X108913914Y-95166632D01*
X109077782Y-95057139D01*
X109217139Y-94917782D01*
X109326632Y-94753914D01*
X109402051Y-94571835D01*
X109440500Y-94378543D01*
X109979499Y-94378543D01*
X110017947Y-94571829D01*
X110017950Y-94571839D01*
X110093364Y-94753907D01*
X110093371Y-94753920D01*
X110202860Y-94917781D01*
X110202863Y-94917785D01*
X110342214Y-95057136D01*
X110342218Y-95057139D01*
X110506079Y-95166628D01*
X110506092Y-95166635D01*
X110650952Y-95226637D01*
X110688165Y-95242051D01*
X110688169Y-95242051D01*
X110688170Y-95242052D01*
X110881456Y-95280500D01*
X110881459Y-95280500D01*
X111078543Y-95280500D01*
X111208898Y-95254570D01*
X111271835Y-95242051D01*
X111453914Y-95166632D01*
X111617782Y-95057139D01*
X111757139Y-94917782D01*
X111866632Y-94753914D01*
X111942051Y-94571835D01*
X111980500Y-94378541D01*
X111980500Y-93181459D01*
X111980500Y-93181456D01*
X111942052Y-92988170D01*
X111942051Y-92988169D01*
X111942051Y-92988165D01*
X111942049Y-92988160D01*
X111866635Y-92806092D01*
X111866628Y-92806079D01*
X111757139Y-92642218D01*
X111757136Y-92642214D01*
X111617785Y-92502863D01*
X111617781Y-92502860D01*
X111453920Y-92393371D01*
X111453907Y-92393364D01*
X111271839Y-92317950D01*
X111271829Y-92317947D01*
X111078543Y-92279500D01*
X111078541Y-92279500D01*
X110881459Y-92279500D01*
X110881457Y-92279500D01*
X110688170Y-92317947D01*
X110688160Y-92317950D01*
X110506092Y-92393364D01*
X110506079Y-92393371D01*
X110342218Y-92502860D01*
X110342214Y-92502863D01*
X110202863Y-92642214D01*
X110202860Y-92642218D01*
X110093371Y-92806079D01*
X110093364Y-92806092D01*
X110017950Y-92988160D01*
X110017947Y-92988170D01*
X109979500Y-93181456D01*
X109979500Y-93181459D01*
X109979500Y-94378541D01*
X109979500Y-94378543D01*
X109979499Y-94378543D01*
X109440500Y-94378543D01*
X109440500Y-94378541D01*
X109440500Y-93181459D01*
X109440500Y-93181456D01*
X109402052Y-92988170D01*
X109402051Y-92988169D01*
X109402051Y-92988165D01*
X109402049Y-92988160D01*
X109326635Y-92806092D01*
X109326628Y-92806079D01*
X109217139Y-92642218D01*
X109217136Y-92642214D01*
X109077785Y-92502863D01*
X109077781Y-92502860D01*
X108913920Y-92393371D01*
X108913907Y-92393364D01*
X108731839Y-92317950D01*
X108731829Y-92317947D01*
X108538543Y-92279500D01*
X108538541Y-92279500D01*
X108341459Y-92279500D01*
X108341457Y-92279500D01*
X108148170Y-92317947D01*
X108148160Y-92317950D01*
X107966092Y-92393364D01*
X107966079Y-92393371D01*
X107802218Y-92502860D01*
X107802214Y-92502863D01*
X107662863Y-92642214D01*
X107662860Y-92642218D01*
X107553371Y-92806079D01*
X107553364Y-92806092D01*
X107477950Y-92988160D01*
X107477947Y-92988170D01*
X107439500Y-93181456D01*
X107439500Y-93181459D01*
X107439500Y-94378541D01*
X107439500Y-94378543D01*
X107439499Y-94378543D01*
X106900500Y-94378543D01*
X106900500Y-94378541D01*
X106900500Y-93181459D01*
X106900500Y-93181456D01*
X106862052Y-92988170D01*
X106862051Y-92988169D01*
X106862051Y-92988165D01*
X106862049Y-92988160D01*
X106786635Y-92806092D01*
X106786628Y-92806079D01*
X106677139Y-92642218D01*
X106677136Y-92642214D01*
X106537785Y-92502863D01*
X106537781Y-92502860D01*
X106373920Y-92393371D01*
X106373907Y-92393364D01*
X106191839Y-92317950D01*
X106191829Y-92317947D01*
X105998543Y-92279500D01*
X105998541Y-92279500D01*
X105801459Y-92279500D01*
X105801457Y-92279500D01*
X105608170Y-92317947D01*
X105608160Y-92317950D01*
X105426092Y-92393364D01*
X105426079Y-92393371D01*
X105262218Y-92502860D01*
X105262214Y-92502863D01*
X105122863Y-92642214D01*
X105122860Y-92642218D01*
X105013371Y-92806079D01*
X105013364Y-92806092D01*
X104937950Y-92988160D01*
X104937947Y-92988170D01*
X104899500Y-93181456D01*
X104899500Y-93181459D01*
X104899500Y-94378541D01*
X104899500Y-94378543D01*
X104899499Y-94378543D01*
X104360500Y-94378543D01*
X104360500Y-94378541D01*
X104360500Y-93181459D01*
X104360500Y-93181456D01*
X104322052Y-92988170D01*
X104322051Y-92988169D01*
X104322051Y-92988165D01*
X104322049Y-92988160D01*
X104246635Y-92806092D01*
X104246628Y-92806079D01*
X104137139Y-92642218D01*
X104137136Y-92642214D01*
X103996819Y-92501897D01*
X103982115Y-92474969D01*
X103965523Y-92449151D01*
X103964631Y-92442950D01*
X103963334Y-92440574D01*
X103960500Y-92414216D01*
X103960500Y-92267360D01*
X103960501Y-92267347D01*
X103960501Y-92099244D01*
X103960501Y-92099243D01*
X103919577Y-91946516D01*
X103904324Y-91920097D01*
X103840524Y-91809590D01*
X103840518Y-91809582D01*
X102613714Y-90582778D01*
X102580229Y-90521455D01*
X102585213Y-90451763D01*
X102627085Y-90395830D01*
X102690176Y-90371606D01*
X102749966Y-90366174D01*
X102749969Y-90366173D01*
X102749971Y-90366173D01*
X102910178Y-90316251D01*
X102984089Y-90271570D01*
X103053777Y-90229443D01*
X103053778Y-90229441D01*
X103053783Y-90229439D01*
X103172439Y-90110783D01*
X103259251Y-89967178D01*
X103309173Y-89806971D01*
X103315500Y-89737347D01*
X103315499Y-87466655D01*
X103584500Y-87466655D01*
X103584500Y-89737354D01*
X103590825Y-89806966D01*
X103590828Y-89806977D01*
X103640747Y-89967175D01*
X103640749Y-89967179D01*
X103727556Y-90110777D01*
X103727560Y-90110782D01*
X103846217Y-90229439D01*
X103846222Y-90229443D01*
X103945623Y-90289532D01*
X103989822Y-90316251D01*
X104150029Y-90366173D01*
X104219653Y-90372500D01*
X105220346Y-90372499D01*
X105220353Y-90372499D01*
X105289966Y-90366174D01*
X105289969Y-90366173D01*
X105289971Y-90366173D01*
X105450178Y-90316251D01*
X105524089Y-90271570D01*
X105593777Y-90229443D01*
X105593778Y-90229441D01*
X105593783Y-90229439D01*
X105712439Y-90110783D01*
X105799251Y-89967178D01*
X105849173Y-89806971D01*
X105855500Y-89737347D01*
X105855499Y-87466655D01*
X106124500Y-87466655D01*
X106124500Y-89737354D01*
X106130825Y-89806966D01*
X106130828Y-89806977D01*
X106180747Y-89967175D01*
X106180749Y-89967179D01*
X106267556Y-90110777D01*
X106267560Y-90110782D01*
X106386217Y-90229439D01*
X106386222Y-90229443D01*
X106485623Y-90289532D01*
X106529822Y-90316251D01*
X106690029Y-90366173D01*
X106759653Y-90372500D01*
X107760346Y-90372499D01*
X107760353Y-90372499D01*
X107829966Y-90366174D01*
X107829969Y-90366173D01*
X107829971Y-90366173D01*
X107990178Y-90316251D01*
X108064089Y-90271570D01*
X108133777Y-90229443D01*
X108133778Y-90229441D01*
X108133783Y-90229439D01*
X108252439Y-90110783D01*
X108339251Y-89967178D01*
X108389173Y-89806971D01*
X108395500Y-89737347D01*
X108395499Y-87466655D01*
X108664500Y-87466655D01*
X108664500Y-89737354D01*
X108670825Y-89806966D01*
X108670828Y-89806977D01*
X108720747Y-89967175D01*
X108720749Y-89967179D01*
X108807556Y-90110777D01*
X108807560Y-90110782D01*
X108926217Y-90229439D01*
X108926222Y-90229443D01*
X109025623Y-90289532D01*
X109069822Y-90316251D01*
X109230029Y-90366173D01*
X109299653Y-90372500D01*
X110300346Y-90372499D01*
X110300353Y-90372499D01*
X110369966Y-90366174D01*
X110369969Y-90366173D01*
X110369971Y-90366173D01*
X110530178Y-90316251D01*
X110604089Y-90271570D01*
X110673777Y-90229443D01*
X110673778Y-90229441D01*
X110673783Y-90229439D01*
X110792439Y-90110783D01*
X110879251Y-89967178D01*
X110929173Y-89806971D01*
X110935500Y-89737347D01*
X110935499Y-87466654D01*
X110935499Y-87466653D01*
X110935499Y-87466645D01*
X110929174Y-87397033D01*
X110929171Y-87397022D01*
X110879252Y-87236824D01*
X110879250Y-87236820D01*
X110792443Y-87093222D01*
X110792439Y-87093217D01*
X110673782Y-86974560D01*
X110673777Y-86974556D01*
X110530180Y-86887750D01*
X110530179Y-86887749D01*
X110530178Y-86887749D01*
X110369971Y-86837827D01*
X110369969Y-86837826D01*
X110369967Y-86837826D01*
X110321221Y-86833396D01*
X110300347Y-86831500D01*
X110300344Y-86831500D01*
X109299645Y-86831500D01*
X109230033Y-86837825D01*
X109230022Y-86837828D01*
X109069824Y-86887747D01*
X109069820Y-86887749D01*
X108926222Y-86974556D01*
X108926217Y-86974560D01*
X108807560Y-87093217D01*
X108807556Y-87093222D01*
X108720750Y-87236819D01*
X108670826Y-87397032D01*
X108666614Y-87443386D01*
X108665054Y-87460563D01*
X108664500Y-87466655D01*
X108395499Y-87466655D01*
X108395499Y-87466654D01*
X108395499Y-87466653D01*
X108395499Y-87466645D01*
X108389174Y-87397033D01*
X108389171Y-87397022D01*
X108339252Y-87236824D01*
X108339250Y-87236820D01*
X108252443Y-87093222D01*
X108252439Y-87093217D01*
X108133782Y-86974560D01*
X108133777Y-86974556D01*
X107990180Y-86887750D01*
X107990179Y-86887749D01*
X107990178Y-86887749D01*
X107829971Y-86837827D01*
X107829969Y-86837826D01*
X107829967Y-86837826D01*
X107781221Y-86833396D01*
X107760347Y-86831500D01*
X107760344Y-86831500D01*
X106759645Y-86831500D01*
X106690033Y-86837825D01*
X106690022Y-86837828D01*
X106529824Y-86887747D01*
X106529820Y-86887749D01*
X106386222Y-86974556D01*
X106386217Y-86974560D01*
X106267560Y-87093217D01*
X106267556Y-87093222D01*
X106180750Y-87236819D01*
X106130826Y-87397032D01*
X106126614Y-87443386D01*
X106125054Y-87460563D01*
X106124500Y-87466655D01*
X105855499Y-87466655D01*
X105855499Y-87466654D01*
X105855499Y-87466653D01*
X105855499Y-87466645D01*
X105849174Y-87397033D01*
X105849171Y-87397022D01*
X105799252Y-87236824D01*
X105799250Y-87236820D01*
X105712443Y-87093222D01*
X105712439Y-87093217D01*
X105593782Y-86974560D01*
X105593777Y-86974556D01*
X105450180Y-86887750D01*
X105450179Y-86887749D01*
X105450178Y-86887749D01*
X105289971Y-86837827D01*
X105289969Y-86837826D01*
X105289967Y-86837826D01*
X105241221Y-86833396D01*
X105220347Y-86831500D01*
X105220344Y-86831500D01*
X104219645Y-86831500D01*
X104150033Y-86837825D01*
X104150022Y-86837828D01*
X103989824Y-86887747D01*
X103989820Y-86887749D01*
X103846222Y-86974556D01*
X103846217Y-86974560D01*
X103727560Y-87093217D01*
X103727556Y-87093222D01*
X103640750Y-87236819D01*
X103590826Y-87397032D01*
X103586614Y-87443386D01*
X103585054Y-87460563D01*
X103584500Y-87466655D01*
X103315499Y-87466655D01*
X103315499Y-87466654D01*
X103315499Y-87466653D01*
X103315499Y-87466645D01*
X103309174Y-87397033D01*
X103309171Y-87397022D01*
X103259252Y-87236824D01*
X103259250Y-87236820D01*
X103172443Y-87093222D01*
X103172439Y-87093217D01*
X103053782Y-86974560D01*
X103053777Y-86974556D01*
X102910180Y-86887750D01*
X102910179Y-86887749D01*
X102910178Y-86887749D01*
X102749971Y-86837827D01*
X102749969Y-86837826D01*
X102749967Y-86837826D01*
X102701221Y-86833396D01*
X102680347Y-86831500D01*
X102680344Y-86831500D01*
X101679645Y-86831500D01*
X101610033Y-86837825D01*
X101610022Y-86837828D01*
X101449824Y-86887747D01*
X101449820Y-86887749D01*
X101306222Y-86974556D01*
X101306217Y-86974560D01*
X101187560Y-87093217D01*
X101187556Y-87093222D01*
X101100750Y-87236819D01*
X101050826Y-87397032D01*
X101046614Y-87443386D01*
X101045054Y-87460563D01*
X101044500Y-87466655D01*
X101044500Y-88714202D01*
X101024815Y-88781241D01*
X100972011Y-88826996D01*
X100902853Y-88836940D01*
X100839297Y-88807915D01*
X100832819Y-88801883D01*
X97156819Y-85125883D01*
X97123334Y-85064560D01*
X97120500Y-85038202D01*
X97120500Y-82509601D01*
X97140185Y-82442562D01*
X97188206Y-82399116D01*
X97201610Y-82392287D01*
X97367219Y-82271966D01*
X97511966Y-82127219D01*
X97511968Y-82127215D01*
X97511971Y-82127213D01*
X97617992Y-81981285D01*
X97632287Y-81961610D01*
X97725220Y-81779219D01*
X97788477Y-81584534D01*
X97820500Y-81382352D01*
X97820500Y-81177648D01*
X97788477Y-80975466D01*
X97725220Y-80780781D01*
X97725218Y-80780778D01*
X97725218Y-80780776D01*
X97691503Y-80714607D01*
X97632287Y-80598390D01*
X97624556Y-80587749D01*
X97511971Y-80432786D01*
X97367213Y-80288028D01*
X97201613Y-80167715D01*
X97201612Y-80167714D01*
X97201610Y-80167713D01*
X97123524Y-80127926D01*
X97019223Y-80074781D01*
X96824534Y-80011522D01*
X96649995Y-79983878D01*
X96622352Y-79979500D01*
X96417648Y-79979500D01*
X96393329Y-79983351D01*
X96215465Y-80011522D01*
X96020776Y-80074781D01*
X95838386Y-80167715D01*
X95672786Y-80288028D01*
X95528028Y-80432786D01*
X95407715Y-80598386D01*
X95314781Y-80780776D01*
X95251522Y-80975465D01*
X95219500Y-81177648D01*
X90200500Y-81177648D01*
X90168477Y-80975466D01*
X90105220Y-80780781D01*
X90105218Y-80780778D01*
X90105218Y-80780776D01*
X90071503Y-80714607D01*
X90012287Y-80598390D01*
X90004556Y-80587749D01*
X89891971Y-80432786D01*
X89747213Y-80288028D01*
X89581613Y-80167715D01*
X89581612Y-80167714D01*
X89581610Y-80167713D01*
X89503524Y-80127926D01*
X89399223Y-80074781D01*
X89204534Y-80011522D01*
X89029995Y-79983878D01*
X89002352Y-79979500D01*
X88797648Y-79979500D01*
X88773329Y-79983351D01*
X88595465Y-80011522D01*
X88400776Y-80074781D01*
X88218386Y-80167715D01*
X88052786Y-80288028D01*
X87908028Y-80432786D01*
X87787715Y-80598386D01*
X87694781Y-80780776D01*
X87631522Y-80975465D01*
X87599500Y-81177648D01*
X87030095Y-81177648D01*
X87008748Y-76002511D01*
X88548100Y-76002511D01*
X88548100Y-76245088D01*
X88579761Y-76485585D01*
X88642547Y-76719904D01*
X88663083Y-76769481D01*
X88735376Y-76944012D01*
X88856664Y-77154089D01*
X88856666Y-77154092D01*
X88856667Y-77154093D01*
X89004333Y-77346536D01*
X89004339Y-77346543D01*
X89175856Y-77518060D01*
X89175862Y-77518065D01*
X89368311Y-77665736D01*
X89578388Y-77787024D01*
X89578390Y-77787025D01*
X89733238Y-77851165D01*
X89802500Y-77879854D01*
X90036811Y-77942638D01*
X90202181Y-77964409D01*
X90277311Y-77974300D01*
X90277312Y-77974300D01*
X90519889Y-77974300D01*
X90567988Y-77967967D01*
X90760389Y-77942638D01*
X90994700Y-77879854D01*
X91199001Y-77795230D01*
X91218810Y-77787025D01*
X91218810Y-77787024D01*
X91218812Y-77787024D01*
X91428889Y-77665736D01*
X91621338Y-77518065D01*
X91792865Y-77346538D01*
X91940536Y-77154089D01*
X92061824Y-76944012D01*
X92154654Y-76719900D01*
X92217438Y-76485589D01*
X92249100Y-76245088D01*
X92249100Y-76002512D01*
X92217438Y-75762011D01*
X92154654Y-75527700D01*
X92061824Y-75303588D01*
X91940536Y-75093511D01*
X91792865Y-74901062D01*
X91792860Y-74901056D01*
X91756459Y-74864655D01*
X101044500Y-74864655D01*
X101044500Y-77135354D01*
X101050825Y-77204966D01*
X101050828Y-77204977D01*
X101100747Y-77365175D01*
X101100749Y-77365179D01*
X101187556Y-77508777D01*
X101187560Y-77508782D01*
X101306217Y-77627439D01*
X101306222Y-77627443D01*
X101419418Y-77695871D01*
X101449822Y-77714251D01*
X101610029Y-77764173D01*
X101679653Y-77770500D01*
X102680346Y-77770499D01*
X102680353Y-77770499D01*
X102749966Y-77764174D01*
X102749969Y-77764173D01*
X102749971Y-77764173D01*
X102910178Y-77714251D01*
X102990432Y-77665736D01*
X103053777Y-77627443D01*
X103053778Y-77627441D01*
X103053783Y-77627439D01*
X103172439Y-77508783D01*
X103259251Y-77365178D01*
X103309173Y-77204971D01*
X103315500Y-77135347D01*
X103315499Y-74864655D01*
X103584500Y-74864655D01*
X103584500Y-77135354D01*
X103590825Y-77204966D01*
X103590828Y-77204977D01*
X103640747Y-77365175D01*
X103640749Y-77365179D01*
X103727556Y-77508777D01*
X103727560Y-77508782D01*
X103846217Y-77627439D01*
X103846222Y-77627443D01*
X103959418Y-77695871D01*
X103989822Y-77714251D01*
X104150029Y-77764173D01*
X104219653Y-77770500D01*
X105220346Y-77770499D01*
X105220353Y-77770499D01*
X105289966Y-77764174D01*
X105289969Y-77764173D01*
X105289971Y-77764173D01*
X105450178Y-77714251D01*
X105530432Y-77665736D01*
X105593777Y-77627443D01*
X105593778Y-77627441D01*
X105593783Y-77627439D01*
X105712439Y-77508783D01*
X105799251Y-77365178D01*
X105849173Y-77204971D01*
X105855500Y-77135347D01*
X105855499Y-74864654D01*
X105855499Y-74864653D01*
X105855499Y-74864645D01*
X105849174Y-74795033D01*
X105849171Y-74795022D01*
X105799252Y-74634824D01*
X105799250Y-74634820D01*
X105712443Y-74491222D01*
X105712439Y-74491217D01*
X105593782Y-74372560D01*
X105593777Y-74372556D01*
X105450180Y-74285750D01*
X105450179Y-74285749D01*
X105450178Y-74285749D01*
X105289971Y-74235827D01*
X105289969Y-74235826D01*
X105289967Y-74235826D01*
X105241221Y-74231396D01*
X105220347Y-74229500D01*
X105220344Y-74229500D01*
X104219645Y-74229500D01*
X104150033Y-74235825D01*
X104150022Y-74235828D01*
X103989824Y-74285747D01*
X103989820Y-74285749D01*
X103846222Y-74372556D01*
X103846217Y-74372560D01*
X103727560Y-74491217D01*
X103727556Y-74491222D01*
X103640750Y-74634819D01*
X103640750Y-74634820D01*
X103640749Y-74634822D01*
X103615788Y-74714925D01*
X103590826Y-74795032D01*
X103584500Y-74864655D01*
X103315499Y-74864655D01*
X103315499Y-74864654D01*
X103315499Y-74864653D01*
X103315499Y-74864645D01*
X103309174Y-74795033D01*
X103309171Y-74795022D01*
X103259252Y-74634824D01*
X103259250Y-74634820D01*
X103172443Y-74491222D01*
X103172439Y-74491217D01*
X103053782Y-74372560D01*
X103053777Y-74372556D01*
X102910180Y-74285750D01*
X102910179Y-74285749D01*
X102910178Y-74285749D01*
X102749971Y-74235827D01*
X102749969Y-74235826D01*
X102749967Y-74235826D01*
X102701221Y-74231396D01*
X102680347Y-74229500D01*
X102680344Y-74229500D01*
X101679645Y-74229500D01*
X101610033Y-74235825D01*
X101610022Y-74235828D01*
X101449824Y-74285747D01*
X101449820Y-74285749D01*
X101306222Y-74372556D01*
X101306217Y-74372560D01*
X101187560Y-74491217D01*
X101187556Y-74491222D01*
X101100750Y-74634819D01*
X101100750Y-74634820D01*
X101100749Y-74634822D01*
X101075788Y-74714925D01*
X101050826Y-74795032D01*
X101044500Y-74864655D01*
X91756459Y-74864655D01*
X91621343Y-74729539D01*
X91621336Y-74729533D01*
X91428893Y-74581867D01*
X91428892Y-74581866D01*
X91428889Y-74581864D01*
X91218812Y-74460576D01*
X91218805Y-74460573D01*
X90994704Y-74367747D01*
X90760385Y-74304961D01*
X90519889Y-74273300D01*
X90519888Y-74273300D01*
X90277312Y-74273300D01*
X90277311Y-74273300D01*
X90036814Y-74304961D01*
X89802495Y-74367747D01*
X89578394Y-74460573D01*
X89578385Y-74460577D01*
X89368306Y-74581867D01*
X89175863Y-74729533D01*
X89175856Y-74729539D01*
X89004339Y-74901056D01*
X89004333Y-74901063D01*
X88856667Y-75093506D01*
X88735377Y-75303585D01*
X88735373Y-75303594D01*
X88642547Y-75527695D01*
X88579761Y-75762014D01*
X88548100Y-76002511D01*
X87008748Y-76002511D01*
X86996808Y-73107926D01*
X87001696Y-73091025D01*
X87001556Y-73073432D01*
X87011198Y-73058161D01*
X87016216Y-73040810D01*
X87029529Y-73029132D01*
X87038861Y-73014355D01*
X87068393Y-72995042D01*
X87145194Y-72959227D01*
X87165488Y-72951840D01*
X87312831Y-72912357D01*
X87334107Y-72908604D01*
X87490902Y-72894881D01*
X87501704Y-72894410D01*
X87571193Y-72894408D01*
X87571363Y-72894395D01*
X137043894Y-72886590D01*
X137054681Y-72887061D01*
G37*
%TD.AperFunction*%
%TD*%
M02*
