M48
; DRILL file {KiCad 9.0.7} date 2026-06-02T13:48:10-0700
; FORMAT={-:-/ absolute / metric / decimal}
; #@! TF.CreationDate,2026-06-02T13:48:10-07:00
; #@! TF.GenerationSoftware,Kicad,Pcbnew,9.0.7
; #@! TF.FileFunction,Plated,1,2,PTH
FMAT,2
METRIC
; #@! TA.AperFunction,Plated,PTH,ViaDrill
T1C0.300
; #@! TA.AperFunction,Plated,PTH,ComponentDrill
T2C0.500
; #@! TA.AperFunction,Plated,PTH,ComponentDrill
T3C0.800
; #@! TA.AperFunction,Plated,PTH,ComponentDrill
T4C1.000
%
G90
G05
T1
X65.45Y-57.2
X82.7Y-61.8
X115.9Y-61.8
X115.95Y-61.8
T2
X108.35Y-37.15
X109.6Y-37.15
X110.85Y-37.15
X112.1Y-37.15
X114.5Y-66.5
X115.75Y-66.5
X117.0Y-66.5
X124.0Y-66.5
X125.25Y-66.5
X126.5Y-66.5
X127.75Y-66.5
T3
X78.74Y-66.4
X81.28Y-66.4
X83.82Y-66.4
X86.36Y-66.4
X88.9Y-66.4
X91.44Y-66.4
X93.98Y-66.4
X96.52Y-66.4
X99.06Y-66.4
T4
X30.0Y-63.0
X32.54Y-63.0
X35.08Y-63.0
X37.62Y-63.0
X40.16Y-42.68
X40.16Y-63.0
X42.7Y-42.68
X42.7Y-63.0
X45.24Y-42.68
X45.24Y-63.0
X47.78Y-42.68
X47.78Y-63.0
X50.32Y-42.68
X50.32Y-63.0
X52.86Y-42.68
X52.86Y-63.0
X55.4Y-42.68
X55.4Y-63.0
X57.94Y-42.68
X57.94Y-63.0
X60.48Y-42.68
X60.48Y-63.0
X63.02Y-42.68
X63.02Y-63.0
X65.56Y-42.68
X65.56Y-63.0
X68.1Y-42.68
X68.1Y-63.0
X111.52Y-44.37
X111.52Y-46.91
X111.52Y-49.45
X111.52Y-51.99
X111.52Y-54.53
M30
