%TF.GenerationSoftware,KiCad,Pcbnew,9.0.7*%
%TF.CreationDate,2026-09-19T09:21:46-07:00*%
%TF.ProjectId,nav_board,6e61765f-626f-4617-9264-2e6b69636164,rev?*%
%TF.SameCoordinates,Original*%
%TF.FileFunction,Copper,L1,Top*%
%TF.FilePolarity,Positive*%
%FSLAX46Y46*%
G04 Gerber Fmt 4.6, Leading zero omitted, Abs format (unit mm)*
G04 Created by KiCad (PCBNEW 9.0.7) date 2026-09-19 09:21:46*
%MOMM*%
%LPD*%
G01*
G04 APERTURE LIST*
G04 Aperture macros list*
%AMRoundRect*
0 Rectangle with rounded corners*
0 $1 Rounding radius*
0 $2 $3 $4 $5 $6 $7 $8 $9 X,Y pos of 4 corners*
0 Add a 4 corners polygon primitive as box body*
4,1,4,$2,$3,$4,$5,$6,$7,$8,$9,$2,$3,0*
0 Add four circle primitives for the rounded corners*
1,1,$1+$1,$2,$3*
1,1,$1+$1,$4,$5*
1,1,$1+$1,$6,$7*
1,1,$1+$1,$8,$9*
0 Add four rect primitives between the rounded corners*
20,1,$1+$1,$2,$3,$4,$5,0*
20,1,$1+$1,$4,$5,$6,$7,0*
20,1,$1+$1,$6,$7,$8,$9,0*
20,1,$1+$1,$8,$9,$2,$3,0*%
G04 Aperture macros list end*
%TA.AperFunction,ComponentPad*%
%ADD10C,2.020000*%
%TD*%
%TA.AperFunction,ComponentPad*%
%ADD11RoundRect,0.200000X0.450000X-0.200000X0.450000X0.200000X-0.450000X0.200000X-0.450000X-0.200000X0*%
%TD*%
%TA.AperFunction,ComponentPad*%
%ADD12O,1.300000X0.800000*%
%TD*%
%TA.AperFunction,ComponentPad*%
%ADD13RoundRect,0.250000X0.550000X-1.050000X0.550000X1.050000X-0.550000X1.050000X-0.550000X-1.050000X0*%
%TD*%
%TA.AperFunction,ComponentPad*%
%ADD14O,1.600000X2.600000*%
%TD*%
%TA.AperFunction,ComponentPad*%
%ADD15RoundRect,0.190500X0.762000X0.444500X-0.762000X0.444500X-0.762000X-0.444500X0.762000X-0.444500X0*%
%TD*%
%TA.AperFunction,ViaPad*%
%ADD16C,0.600000*%
%TD*%
%TA.AperFunction,Conductor*%
%ADD17C,0.200000*%
%TD*%
%TA.AperFunction,Conductor*%
%ADD18C,0.500000*%
%TD*%
G04 APERTURE END LIST*
D10*
%TO.P,J5,1*%
%TO.N,+5V*%
X44290000Y-37350000D03*
%TO.P,J5,2*%
%TO.N,Net-(A1-VBAT)*%
X41750000Y-37350000D03*
%TD*%
D11*
%TO.P,J1,1,Pin_1*%
%TO.N,Net-(A1-DAC2{slash}A0)*%
X87550000Y-64150000D03*
D12*
%TO.P,J1,2,Pin_2*%
%TO.N,Net-(A1-DAC1{slash}A1)*%
X87550000Y-62900000D03*
%TO.P,J1,3,Pin_3*%
%TO.N,+5V*%
X87550000Y-61650000D03*
%TO.P,J1,4,Pin_4*%
%TO.N,GND*%
X87550000Y-60400000D03*
%TD*%
D11*
%TO.P,J3,1*%
%TO.N,Net-(A1-SDA{slash}IO23)*%
X87500000Y-41800000D03*
D12*
%TO.P,J3,2*%
%TO.N,Net-(A1-SCL{slash}IO22)*%
X87500000Y-40550000D03*
%TO.P,J3,3*%
%TO.N,+5V*%
X87500000Y-39300000D03*
%TO.P,J3,4*%
%TO.N,GND*%
X87500000Y-38050000D03*
%TD*%
D13*
%TO.P,A1,1,~{RESET}*%
%TO.N,unconnected-(A1-~{RESET}-Pad1)*%
X30000000Y-62700000D03*
D14*
%TO.P,A1,2,3V3*%
%TO.N,unconnected-(A1-3V3-Pad2)*%
X32540000Y-62700000D03*
%TO.P,A1,3,NC*%
%TO.N,unconnected-(A1-NC-Pad3)*%
X35080000Y-62700000D03*
%TO.P,A1,4,GND*%
%TO.N,GND*%
X37620000Y-62700000D03*
%TO.P,A1,5,DAC2/A0*%
%TO.N,Net-(A1-DAC2{slash}A0)*%
X40160000Y-62700000D03*
%TO.P,A1,6,DAC1/A1*%
%TO.N,Net-(A1-DAC1{slash}A1)*%
X42700000Y-62700000D03*
%TO.P,A1,7,I34/A2*%
%TO.N,Net-(A1-I34{slash}A2)*%
X45240000Y-62700000D03*
%TO.P,A1,8,I39/A3*%
%TO.N,unconnected-(A1-I39{slash}A3-Pad8)*%
X47780000Y-62700000D03*
%TO.P,A1,9,IO36/A4*%
%TO.N,unconnected-(A1-IO36{slash}A4-Pad9)*%
X50320000Y-62700000D03*
%TO.P,A1,10,IO4/A5*%
%TO.N,unconnected-(A1-IO4{slash}A5-Pad10)*%
X52860000Y-62700000D03*
%TO.P,A1,11,SCK/IO5*%
%TO.N,unconnected-(A1-SCK{slash}IO5-Pad11)*%
X55400000Y-62700000D03*
%TO.P,A1,12,MOSI/IO18*%
%TO.N,unconnected-(A1-MOSI{slash}IO18-Pad12)*%
X57940000Y-62700000D03*
%TO.P,A1,13,MISO/IO19*%
%TO.N,unconnected-(A1-MISO{slash}IO19-Pad13)*%
X60480000Y-62700000D03*
%TO.P,A1,14,RX/IO16*%
%TO.N,Net-(A1-RX{slash}IO16)*%
X63020000Y-62700000D03*
%TO.P,A1,15,TX/IO17*%
%TO.N,Net-(A1-TX{slash}IO17)*%
X65560000Y-62700000D03*
%TO.P,A1,16,IO21*%
%TO.N,unconnected-(A1-IO21-Pad16)*%
X68100000Y-62700000D03*
%TO.P,A1,17,SDA/IO23*%
%TO.N,Net-(A1-SDA{slash}IO23)*%
X68100000Y-42980000D03*
%TO.P,A1,18,SCL/IO22*%
%TO.N,Net-(A1-SCL{slash}IO22)*%
X65560000Y-42980000D03*
%TO.P,A1,19,A6/IO14*%
%TO.N,unconnected-(A1-A6{slash}IO14-Pad19)*%
X63020000Y-42980000D03*
%TO.P,A1,20,A7/IO32*%
%TO.N,unconnected-(A1-A7{slash}IO32-Pad20)*%
X60480000Y-42980000D03*
%TO.P,A1,21,A8/IO15*%
%TO.N,unconnected-(A1-A8{slash}IO15-Pad21)*%
X57940000Y-42980000D03*
%TO.P,A1,22,A9/IO33*%
%TO.N,unconnected-(A1-A9{slash}IO33-Pad22)*%
X55400000Y-42980000D03*
%TO.P,A1,23,A10/IO27*%
%TO.N,unconnected-(A1-A10{slash}IO27-Pad23)*%
X52860000Y-42980000D03*
%TO.P,A1,24,A11/IO12*%
%TO.N,unconnected-(A1-A11{slash}IO12-Pad24)*%
X50320000Y-42980000D03*
%TO.P,A1,25,A12/IO13*%
%TO.N,unconnected-(A1-A12{slash}IO13-Pad25)*%
X47780000Y-42980000D03*
%TO.P,A1,26,USB*%
%TO.N,+5V*%
X45240000Y-42980000D03*
%TO.P,A1,27,EN*%
%TO.N,unconnected-(A1-EN-Pad27)*%
X42700000Y-42980000D03*
%TO.P,A1,28,VBAT*%
%TO.N,Net-(A1-VBAT)*%
X40160000Y-42980000D03*
%TD*%
D11*
%TO.P,J2,1,Pin_1*%
%TO.N,+5V*%
X79840000Y-58020000D03*
D12*
%TO.P,J2,2,Pin_2*%
%TO.N,GND*%
X79840000Y-56770000D03*
%TO.P,J2,3,Pin_3*%
%TO.N,Net-(A1-I34{slash}A2)*%
X79840000Y-55520000D03*
%TD*%
D11*
%TO.P,J4,1,Pin_1*%
%TO.N,Net-(A1-TX{slash}IO17)*%
X80035400Y-47193200D03*
D12*
%TO.P,J4,2,Pin_2*%
%TO.N,Net-(A1-RX{slash}IO16)*%
X80035400Y-45943200D03*
%TO.P,J4,3,Pin_3*%
%TO.N,+5V*%
X80035400Y-44693200D03*
%TO.P,J4,4,Pin_4*%
%TO.N,GND*%
X80035400Y-43443200D03*
%TD*%
D15*
%TO.P,U2,1,VDD*%
%TO.N,unconnected-(U2-VDD-Pad1)*%
X100270000Y-46870000D03*
%TO.P,U2,2,Vin*%
%TO.N,+5V*%
X100270000Y-49410000D03*
%TO.P,U2,3,GND*%
%TO.N,GND*%
X100270000Y-51950000D03*
%TO.P,U2,4,SDA*%
%TO.N,Net-(A1-SDA{slash}IO23)*%
X100270000Y-54490000D03*
%TO.P,U2,5,SCL*%
%TO.N,Net-(A1-SCL{slash}IO22)*%
X100270000Y-57030000D03*
%TD*%
D16*
%TO.N,Net-(A1-RX{slash}IO16)*%
X62800000Y-51600000D03*
%TO.N,Net-(A1-TX{slash}IO17)*%
X65250000Y-51750000D03*
%TD*%
D17*
%TO.N,Net-(A1-DAC2{slash}A0)*%
X84253000Y-64150000D02*
X87550000Y-64150000D01*
X81853000Y-66550000D02*
X84253000Y-64150000D01*
%TO.N,Net-(A1-DAC1{slash}A1)*%
X83301300Y-62900000D02*
X87550000Y-62900000D01*
X80751300Y-65450000D02*
X83301300Y-62900000D01*
D18*
%TO.N,+5V*%
X87550000Y-61650000D02*
X83470000Y-61650000D01*
X83470000Y-61650000D02*
X79840000Y-58020000D01*
D17*
%TO.N,Net-(A1-SCL{slash}IO22)*%
X71150000Y-35550000D02*
X67645000Y-39055000D01*
X89650000Y-35800000D02*
X89400000Y-35550000D01*
X67645000Y-39055000D02*
X67645000Y-40595000D01*
X89650000Y-39600000D02*
X89650000Y-35800000D01*
X88700000Y-40550000D02*
X89650000Y-39600000D01*
X89400000Y-35550000D02*
X71150000Y-35550000D01*
X87500000Y-40550000D02*
X88700000Y-40550000D01*
X67645000Y-40595000D02*
X65560000Y-42680000D01*
D18*
%TO.N,+5V*%
X82650000Y-40700000D02*
X84050000Y-39300000D01*
X82650000Y-44693200D02*
X82650000Y-40700000D01*
X82650000Y-44693200D02*
X80035400Y-44693200D01*
X84050000Y-39300000D02*
X87500000Y-39300000D01*
D17*
%TO.N,Net-(A1-SCL{slash}IO22)*%
X97328433Y-40550000D02*
X87500000Y-40550000D01*
X102300000Y-45521567D02*
X97328433Y-40550000D01*
X102300000Y-55000000D02*
X102300000Y-45521567D01*
X100270000Y-57030000D02*
X102300000Y-55000000D01*
D18*
%TO.N,+5V*%
X93420000Y-50600000D02*
X99080000Y-50600000D01*
X93390000Y-50570000D02*
X93420000Y-50600000D01*
X83150000Y-50570000D02*
X93390000Y-50570000D01*
X99080000Y-50600000D02*
X100270000Y-49410000D01*
X44290000Y-41730000D02*
X44290000Y-37350000D01*
X45240000Y-42680000D02*
X44290000Y-41730000D01*
%TO.N,Net-(A1-VBAT)*%
X40160000Y-42680000D02*
X40160000Y-38940000D01*
X40160000Y-38940000D02*
X41750000Y-37350000D01*
D17*
%TO.N,Net-(A1-RX{slash}IO16)*%
X62800000Y-51600000D02*
X62800000Y-62780000D01*
X62800000Y-62780000D02*
X63020000Y-63000000D01*
%TO.N,Net-(A1-DAC2{slash}A0)*%
X81853000Y-66550000D02*
X40160000Y-66550000D01*
X40160000Y-66550000D02*
X40160000Y-63000000D01*
%TO.N,Net-(A1-DAC1{slash}A1)*%
X80751300Y-65450000D02*
X42700000Y-65450000D01*
X42700000Y-65450000D02*
X42700000Y-63000000D01*
D18*
%TO.N,+5V*%
X77010000Y-50570000D02*
X83150000Y-50570000D01*
X77160000Y-58130000D02*
X77160000Y-50720000D01*
X79840000Y-58020000D02*
X77270000Y-58020000D01*
X45240000Y-42980000D02*
X45240000Y-42680000D01*
X83100000Y-44650000D02*
X83056800Y-44693200D01*
X77270000Y-58020000D02*
X77160000Y-58130000D01*
X83150000Y-44700000D02*
X83100000Y-44650000D01*
X45240000Y-42980000D02*
X45070000Y-43150000D01*
X83150000Y-50570000D02*
X83150000Y-44700000D01*
X45070000Y-50570000D02*
X77010000Y-50570000D01*
X83056800Y-44693200D02*
X82650000Y-44693200D01*
X45070000Y-43150000D02*
X45070000Y-50570000D01*
X77160000Y-50720000D02*
X77010000Y-50570000D01*
D17*
%TO.N,Net-(A1-TX{slash}IO17)*%
X65250000Y-62690000D02*
X65560000Y-63000000D01*
X65250000Y-51750000D02*
X65250000Y-62690000D01*
%TD*%
M02*
