%TF.GenerationSoftware,KiCad,Pcbnew,9.0.7*%
%TF.CreationDate,2026-06-02T13:44:40-07:00*%
%TF.ProjectId,nav_board,6e61765f-626f-4617-9264-2e6b69636164,rev?*%
%TF.SameCoordinates,Original*%
%TF.FileFunction,Soldermask,Bot*%
%TF.FilePolarity,Negative*%
%FSLAX46Y46*%
G04 Gerber Fmt 4.6, Leading zero omitted, Abs format (unit mm)*
G04 Created by KiCad (PCBNEW 9.0.7) date 2026-06-02 13:44:40*
%MOMM*%
%LPD*%
G01*
G04 APERTURE LIST*
G04 Aperture macros list*
%AMRoundRect*
0 Rectangle with rounded corners*
0 $1 Rounding radius*
0 $2 $3 $4 $5 $6 $7 $8 $9 X,Y pos of 4 corners*
0 Add a 4 corners polygon primitive as box body*
4,1,4,$2,$3,$4,$5,$6,$7,$8,$9,$2,$3,0*
0 Add four circle primitives for the rounded corners*
1,1,$1+$1,$2,$3*
1,1,$1+$1,$4,$5*
1,1,$1+$1,$6,$7*
1,1,$1+$1,$8,$9*
0 Add four rect primitives between the rounded corners*
20,1,$1+$1,$2,$3,$4,$5,0*
20,1,$1+$1,$4,$5,$6,$7,0*
20,1,$1+$1,$6,$7,$8,$9,0*
20,1,$1+$1,$8,$9,$2,$3,0*%
G04 Aperture macros list end*
%ADD10RoundRect,0.200000X-0.200000X-0.450000X0.200000X-0.450000X0.200000X0.450000X-0.200000X0.450000X0*%
%ADD11O,0.800000X1.300000*%
%ADD12RoundRect,0.250000X0.550000X-1.050000X0.550000X1.050000X-0.550000X1.050000X-0.550000X-1.050000X0*%
%ADD13O,1.600000X2.600000*%
%ADD14RoundRect,0.190500X0.444500X-1.079500X0.444500X1.079500X-0.444500X1.079500X-0.444500X-1.079500X0*%
%ADD15RoundRect,0.190500X0.762000X0.444500X-0.762000X0.444500X-0.762000X-0.444500X0.762000X-0.444500X0*%
G04 APERTURE END LIST*
D10*
%TO.C,J3*%
X108350000Y-37150000D03*
D11*
X109600000Y-37150000D03*
X110850000Y-37150000D03*
X112100000Y-37150000D03*
%TD*%
D10*
%TO.C,J1*%
X124000000Y-66500000D03*
D11*
X125250000Y-66500000D03*
X126500000Y-66500000D03*
X127750000Y-66500000D03*
%TD*%
D12*
%TO.C,A1*%
X30000000Y-62700000D03*
D13*
X32540000Y-62700000D03*
X35080000Y-62700000D03*
X37620000Y-62700000D03*
X40160000Y-62700000D03*
X42700000Y-62700000D03*
X45240000Y-62700000D03*
X47780000Y-62700000D03*
X50320000Y-62700000D03*
X52860000Y-62700000D03*
X55400000Y-62700000D03*
X57940000Y-62700000D03*
X60480000Y-62700000D03*
X63020000Y-62700000D03*
X65560000Y-62700000D03*
X68100000Y-62700000D03*
X68100000Y-42980000D03*
X65560000Y-42980000D03*
X63020000Y-42980000D03*
X60480000Y-42980000D03*
X57940000Y-42980000D03*
X55400000Y-42980000D03*
X52860000Y-42980000D03*
X50320000Y-42980000D03*
X47780000Y-42980000D03*
X45240000Y-42980000D03*
X42700000Y-42980000D03*
X40160000Y-42980000D03*
%TD*%
D10*
%TO.C,J2*%
X114500000Y-66500000D03*
D11*
X115750000Y-66500000D03*
X117000000Y-66500000D03*
%TD*%
D14*
%TO.C,U1*%
X99060000Y-66400000D03*
X96520000Y-66400000D03*
X93980000Y-66400000D03*
X91440000Y-66400000D03*
X88900000Y-66400000D03*
X86360000Y-66400000D03*
X83820000Y-66400000D03*
X81280000Y-66400000D03*
X78740000Y-66400000D03*
%TD*%
D15*
%TO.C,U2*%
X111520000Y-44370000D03*
X111520000Y-46910000D03*
X111520000Y-49450000D03*
X111520000Y-51990000D03*
X111520000Y-54530000D03*
%TD*%
M02*
