%TF.GenerationSoftware,KiCad,Pcbnew,9.0.7*%
%TF.CreationDate,2026-06-02T13:44:40-07:00*%
%TF.ProjectId,nav_board,6e61765f-626f-4617-9264-2e6b69636164,rev?*%
%TF.SameCoordinates,Original*%
%TF.FileFunction,Legend,Top*%
%TF.FilePolarity,Positive*%
%FSLAX46Y46*%
G04 Gerber Fmt 4.6, Leading zero omitted, Abs format (unit mm)*
G04 Created by KiCad (PCBNEW 9.0.7) date 2026-06-02 13:44:40*
%MOMM*%
%LPD*%
G01*
G04 APERTURE LIST*
%ADD10C,0.100000*%
%ADD11C,0.150000*%
%ADD12C,0.120000*%
G04 APERTURE END LIST*
D10*
X111009800Y-34238972D02*
X111033609Y-34167544D01*
X111033609Y-34167544D02*
X111033609Y-34048496D01*
X111033609Y-34048496D02*
X111009800Y-34000877D01*
X111009800Y-34000877D02*
X110985990Y-33977068D01*
X110985990Y-33977068D02*
X110938371Y-33953258D01*
X110938371Y-33953258D02*
X110890752Y-33953258D01*
X110890752Y-33953258D02*
X110843133Y-33977068D01*
X110843133Y-33977068D02*
X110819323Y-34000877D01*
X110819323Y-34000877D02*
X110795514Y-34048496D01*
X110795514Y-34048496D02*
X110771704Y-34143734D01*
X110771704Y-34143734D02*
X110747895Y-34191353D01*
X110747895Y-34191353D02*
X110724085Y-34215163D01*
X110724085Y-34215163D02*
X110676466Y-34238972D01*
X110676466Y-34238972D02*
X110628847Y-34238972D01*
X110628847Y-34238972D02*
X110581228Y-34215163D01*
X110581228Y-34215163D02*
X110557419Y-34191353D01*
X110557419Y-34191353D02*
X110533609Y-34143734D01*
X110533609Y-34143734D02*
X110533609Y-34024687D01*
X110533609Y-34024687D02*
X110557419Y-33953258D01*
X111033609Y-33738973D02*
X110533609Y-33738973D01*
X110533609Y-33738973D02*
X110533609Y-33619925D01*
X110533609Y-33619925D02*
X110557419Y-33548497D01*
X110557419Y-33548497D02*
X110605038Y-33500878D01*
X110605038Y-33500878D02*
X110652657Y-33477068D01*
X110652657Y-33477068D02*
X110747895Y-33453259D01*
X110747895Y-33453259D02*
X110819323Y-33453259D01*
X110819323Y-33453259D02*
X110914561Y-33477068D01*
X110914561Y-33477068D02*
X110962180Y-33500878D01*
X110962180Y-33500878D02*
X111009800Y-33548497D01*
X111009800Y-33548497D02*
X111033609Y-33619925D01*
X111033609Y-33619925D02*
X111033609Y-33738973D01*
X110890752Y-33262782D02*
X110890752Y-33024687D01*
X111033609Y-33310401D02*
X110533609Y-33143735D01*
X110533609Y-33143735D02*
X111033609Y-32977068D01*
X109759800Y-34188972D02*
X109783609Y-34117544D01*
X109783609Y-34117544D02*
X109783609Y-33998496D01*
X109783609Y-33998496D02*
X109759800Y-33950877D01*
X109759800Y-33950877D02*
X109735990Y-33927068D01*
X109735990Y-33927068D02*
X109688371Y-33903258D01*
X109688371Y-33903258D02*
X109640752Y-33903258D01*
X109640752Y-33903258D02*
X109593133Y-33927068D01*
X109593133Y-33927068D02*
X109569323Y-33950877D01*
X109569323Y-33950877D02*
X109545514Y-33998496D01*
X109545514Y-33998496D02*
X109521704Y-34093734D01*
X109521704Y-34093734D02*
X109497895Y-34141353D01*
X109497895Y-34141353D02*
X109474085Y-34165163D01*
X109474085Y-34165163D02*
X109426466Y-34188972D01*
X109426466Y-34188972D02*
X109378847Y-34188972D01*
X109378847Y-34188972D02*
X109331228Y-34165163D01*
X109331228Y-34165163D02*
X109307419Y-34141353D01*
X109307419Y-34141353D02*
X109283609Y-34093734D01*
X109283609Y-34093734D02*
X109283609Y-33974687D01*
X109283609Y-33974687D02*
X109307419Y-33903258D01*
X109735990Y-33403259D02*
X109759800Y-33427068D01*
X109759800Y-33427068D02*
X109783609Y-33498497D01*
X109783609Y-33498497D02*
X109783609Y-33546116D01*
X109783609Y-33546116D02*
X109759800Y-33617544D01*
X109759800Y-33617544D02*
X109712180Y-33665163D01*
X109712180Y-33665163D02*
X109664561Y-33688973D01*
X109664561Y-33688973D02*
X109569323Y-33712782D01*
X109569323Y-33712782D02*
X109497895Y-33712782D01*
X109497895Y-33712782D02*
X109402657Y-33688973D01*
X109402657Y-33688973D02*
X109355038Y-33665163D01*
X109355038Y-33665163D02*
X109307419Y-33617544D01*
X109307419Y-33617544D02*
X109283609Y-33546116D01*
X109283609Y-33546116D02*
X109283609Y-33498497D01*
X109283609Y-33498497D02*
X109307419Y-33427068D01*
X109307419Y-33427068D02*
X109331228Y-33403259D01*
X109783609Y-32950878D02*
X109783609Y-33188973D01*
X109783609Y-33188973D02*
X109283609Y-33188973D01*
X111907419Y-33953258D02*
X111883609Y-34000877D01*
X111883609Y-34000877D02*
X111883609Y-34072306D01*
X111883609Y-34072306D02*
X111907419Y-34143734D01*
X111907419Y-34143734D02*
X111955038Y-34191353D01*
X111955038Y-34191353D02*
X112002657Y-34215163D01*
X112002657Y-34215163D02*
X112097895Y-34238972D01*
X112097895Y-34238972D02*
X112169323Y-34238972D01*
X112169323Y-34238972D02*
X112264561Y-34215163D01*
X112264561Y-34215163D02*
X112312180Y-34191353D01*
X112312180Y-34191353D02*
X112359800Y-34143734D01*
X112359800Y-34143734D02*
X112383609Y-34072306D01*
X112383609Y-34072306D02*
X112383609Y-34024687D01*
X112383609Y-34024687D02*
X112359800Y-33953258D01*
X112359800Y-33953258D02*
X112335990Y-33929449D01*
X112335990Y-33929449D02*
X112169323Y-33929449D01*
X112169323Y-33929449D02*
X112169323Y-34024687D01*
X112383609Y-33715163D02*
X111883609Y-33715163D01*
X111883609Y-33715163D02*
X112383609Y-33429449D01*
X112383609Y-33429449D02*
X111883609Y-33429449D01*
X112383609Y-33191353D02*
X111883609Y-33191353D01*
X111883609Y-33191353D02*
X111883609Y-33072305D01*
X111883609Y-33072305D02*
X111907419Y-33000877D01*
X111907419Y-33000877D02*
X111955038Y-32953258D01*
X111955038Y-32953258D02*
X112002657Y-32929448D01*
X112002657Y-32929448D02*
X112097895Y-32905639D01*
X112097895Y-32905639D02*
X112169323Y-32905639D01*
X112169323Y-32905639D02*
X112264561Y-32929448D01*
X112264561Y-32929448D02*
X112312180Y-32953258D01*
X112312180Y-32953258D02*
X112359800Y-33000877D01*
X112359800Y-33000877D02*
X112383609Y-33072305D01*
X112383609Y-33072305D02*
X112383609Y-33191353D01*
X108033609Y-33877068D02*
X108033609Y-34115163D01*
X108033609Y-34115163D02*
X108271704Y-34138972D01*
X108271704Y-34138972D02*
X108247895Y-34115163D01*
X108247895Y-34115163D02*
X108224085Y-34067544D01*
X108224085Y-34067544D02*
X108224085Y-33948496D01*
X108224085Y-33948496D02*
X108247895Y-33900877D01*
X108247895Y-33900877D02*
X108271704Y-33877068D01*
X108271704Y-33877068D02*
X108319323Y-33853258D01*
X108319323Y-33853258D02*
X108438371Y-33853258D01*
X108438371Y-33853258D02*
X108485990Y-33877068D01*
X108485990Y-33877068D02*
X108509800Y-33900877D01*
X108509800Y-33900877D02*
X108533609Y-33948496D01*
X108533609Y-33948496D02*
X108533609Y-34067544D01*
X108533609Y-34067544D02*
X108509800Y-34115163D01*
X108509800Y-34115163D02*
X108485990Y-34138972D01*
X108033609Y-33710401D02*
X108533609Y-33543735D01*
X108533609Y-33543735D02*
X108033609Y-33377068D01*
X117446741Y-68457419D02*
X117399122Y-68433609D01*
X117399122Y-68433609D02*
X117327693Y-68433609D01*
X117327693Y-68433609D02*
X117256265Y-68457419D01*
X117256265Y-68457419D02*
X117208646Y-68505038D01*
X117208646Y-68505038D02*
X117184836Y-68552657D01*
X117184836Y-68552657D02*
X117161027Y-68647895D01*
X117161027Y-68647895D02*
X117161027Y-68719323D01*
X117161027Y-68719323D02*
X117184836Y-68814561D01*
X117184836Y-68814561D02*
X117208646Y-68862180D01*
X117208646Y-68862180D02*
X117256265Y-68909800D01*
X117256265Y-68909800D02*
X117327693Y-68933609D01*
X117327693Y-68933609D02*
X117375312Y-68933609D01*
X117375312Y-68933609D02*
X117446741Y-68909800D01*
X117446741Y-68909800D02*
X117470550Y-68885990D01*
X117470550Y-68885990D02*
X117470550Y-68719323D01*
X117470550Y-68719323D02*
X117375312Y-68719323D01*
X117684836Y-68933609D02*
X117684836Y-68433609D01*
X117684836Y-68433609D02*
X117970550Y-68933609D01*
X117970550Y-68933609D02*
X117970550Y-68433609D01*
X118208646Y-68933609D02*
X118208646Y-68433609D01*
X118208646Y-68433609D02*
X118327694Y-68433609D01*
X118327694Y-68433609D02*
X118399122Y-68457419D01*
X118399122Y-68457419D02*
X118446741Y-68505038D01*
X118446741Y-68505038D02*
X118470551Y-68552657D01*
X118470551Y-68552657D02*
X118494360Y-68647895D01*
X118494360Y-68647895D02*
X118494360Y-68719323D01*
X118494360Y-68719323D02*
X118470551Y-68814561D01*
X118470551Y-68814561D02*
X118446741Y-68862180D01*
X118446741Y-68862180D02*
X118399122Y-68909800D01*
X118399122Y-68909800D02*
X118327694Y-68933609D01*
X118327694Y-68933609D02*
X118208646Y-68933609D01*
X128946741Y-68457419D02*
X128899122Y-68433609D01*
X128899122Y-68433609D02*
X128827693Y-68433609D01*
X128827693Y-68433609D02*
X128756265Y-68457419D01*
X128756265Y-68457419D02*
X128708646Y-68505038D01*
X128708646Y-68505038D02*
X128684836Y-68552657D01*
X128684836Y-68552657D02*
X128661027Y-68647895D01*
X128661027Y-68647895D02*
X128661027Y-68719323D01*
X128661027Y-68719323D02*
X128684836Y-68814561D01*
X128684836Y-68814561D02*
X128708646Y-68862180D01*
X128708646Y-68862180D02*
X128756265Y-68909800D01*
X128756265Y-68909800D02*
X128827693Y-68933609D01*
X128827693Y-68933609D02*
X128875312Y-68933609D01*
X128875312Y-68933609D02*
X128946741Y-68909800D01*
X128946741Y-68909800D02*
X128970550Y-68885990D01*
X128970550Y-68885990D02*
X128970550Y-68719323D01*
X128970550Y-68719323D02*
X128875312Y-68719323D01*
X129184836Y-68933609D02*
X129184836Y-68433609D01*
X129184836Y-68433609D02*
X129470550Y-68933609D01*
X129470550Y-68933609D02*
X129470550Y-68433609D01*
X129708646Y-68933609D02*
X129708646Y-68433609D01*
X129708646Y-68433609D02*
X129827694Y-68433609D01*
X129827694Y-68433609D02*
X129899122Y-68457419D01*
X129899122Y-68457419D02*
X129946741Y-68505038D01*
X129946741Y-68505038D02*
X129970551Y-68552657D01*
X129970551Y-68552657D02*
X129994360Y-68647895D01*
X129994360Y-68647895D02*
X129994360Y-68719323D01*
X129994360Y-68719323D02*
X129970551Y-68814561D01*
X129970551Y-68814561D02*
X129946741Y-68862180D01*
X129946741Y-68862180D02*
X129899122Y-68909800D01*
X129899122Y-68909800D02*
X129827694Y-68933609D01*
X129827694Y-68933609D02*
X129708646Y-68933609D01*
X114851503Y-68671704D02*
X114684836Y-68671704D01*
X114684836Y-68933609D02*
X114684836Y-68433609D01*
X114684836Y-68433609D02*
X114922931Y-68433609D01*
X115184836Y-68933609D02*
X115137217Y-68909800D01*
X115137217Y-68909800D02*
X115113407Y-68862180D01*
X115113407Y-68862180D02*
X115113407Y-68433609D01*
X115446741Y-68933609D02*
X115399122Y-68909800D01*
X115399122Y-68909800D02*
X115375312Y-68885990D01*
X115375312Y-68885990D02*
X115351503Y-68838371D01*
X115351503Y-68838371D02*
X115351503Y-68695514D01*
X115351503Y-68695514D02*
X115375312Y-68647895D01*
X115375312Y-68647895D02*
X115399122Y-68624085D01*
X115399122Y-68624085D02*
X115446741Y-68600276D01*
X115446741Y-68600276D02*
X115518169Y-68600276D01*
X115518169Y-68600276D02*
X115565788Y-68624085D01*
X115565788Y-68624085D02*
X115589598Y-68647895D01*
X115589598Y-68647895D02*
X115613407Y-68695514D01*
X115613407Y-68695514D02*
X115613407Y-68838371D01*
X115613407Y-68838371D02*
X115589598Y-68885990D01*
X115589598Y-68885990D02*
X115565788Y-68909800D01*
X115565788Y-68909800D02*
X115518169Y-68933609D01*
X115518169Y-68933609D02*
X115446741Y-68933609D01*
X115780074Y-68600276D02*
X115875312Y-68933609D01*
X115875312Y-68933609D02*
X115970550Y-68695514D01*
X115970550Y-68695514D02*
X116065788Y-68933609D01*
X116065788Y-68933609D02*
X116161026Y-68600276D01*
X124613408Y-68433609D02*
X124899122Y-68433609D01*
X124756265Y-68933609D02*
X124756265Y-68433609D01*
X125018169Y-68433609D02*
X125351502Y-68933609D01*
X125351502Y-68433609D02*
X125018169Y-68933609D01*
X122970550Y-68933609D02*
X122803884Y-68695514D01*
X122684836Y-68933609D02*
X122684836Y-68433609D01*
X122684836Y-68433609D02*
X122875312Y-68433609D01*
X122875312Y-68433609D02*
X122922931Y-68457419D01*
X122922931Y-68457419D02*
X122946741Y-68481228D01*
X122946741Y-68481228D02*
X122970550Y-68528847D01*
X122970550Y-68528847D02*
X122970550Y-68600276D01*
X122970550Y-68600276D02*
X122946741Y-68647895D01*
X122946741Y-68647895D02*
X122922931Y-68671704D01*
X122922931Y-68671704D02*
X122875312Y-68695514D01*
X122875312Y-68695514D02*
X122684836Y-68695514D01*
X123137217Y-68433609D02*
X123470550Y-68933609D01*
X123470550Y-68433609D02*
X123137217Y-68933609D01*
X126184836Y-68743133D02*
X126565789Y-68743133D01*
X126375312Y-68933609D02*
X126375312Y-68552657D01*
X127041979Y-68433609D02*
X126803884Y-68433609D01*
X126803884Y-68433609D02*
X126780075Y-68671704D01*
X126780075Y-68671704D02*
X126803884Y-68647895D01*
X126803884Y-68647895D02*
X126851503Y-68624085D01*
X126851503Y-68624085D02*
X126970551Y-68624085D01*
X126970551Y-68624085D02*
X127018170Y-68647895D01*
X127018170Y-68647895D02*
X127041979Y-68671704D01*
X127041979Y-68671704D02*
X127065789Y-68719323D01*
X127065789Y-68719323D02*
X127065789Y-68838371D01*
X127065789Y-68838371D02*
X127041979Y-68885990D01*
X127041979Y-68885990D02*
X127018170Y-68909800D01*
X127018170Y-68909800D02*
X126970551Y-68933609D01*
X126970551Y-68933609D02*
X126851503Y-68933609D01*
X126851503Y-68933609D02*
X126803884Y-68909800D01*
X126803884Y-68909800D02*
X126780075Y-68885990D01*
X127208646Y-68433609D02*
X127375312Y-68933609D01*
X127375312Y-68933609D02*
X127541979Y-68433609D01*
X112184836Y-68743133D02*
X112565789Y-68743133D01*
X112375312Y-68933609D02*
X112375312Y-68552657D01*
X113041979Y-68433609D02*
X112803884Y-68433609D01*
X112803884Y-68433609D02*
X112780075Y-68671704D01*
X112780075Y-68671704D02*
X112803884Y-68647895D01*
X112803884Y-68647895D02*
X112851503Y-68624085D01*
X112851503Y-68624085D02*
X112970551Y-68624085D01*
X112970551Y-68624085D02*
X113018170Y-68647895D01*
X113018170Y-68647895D02*
X113041979Y-68671704D01*
X113041979Y-68671704D02*
X113065789Y-68719323D01*
X113065789Y-68719323D02*
X113065789Y-68838371D01*
X113065789Y-68838371D02*
X113041979Y-68885990D01*
X113041979Y-68885990D02*
X113018170Y-68909800D01*
X113018170Y-68909800D02*
X112970551Y-68933609D01*
X112970551Y-68933609D02*
X112851503Y-68933609D01*
X112851503Y-68933609D02*
X112803884Y-68909800D01*
X112803884Y-68909800D02*
X112780075Y-68885990D01*
X113208646Y-68433609D02*
X113375312Y-68933609D01*
X113375312Y-68933609D02*
X113541979Y-68433609D01*
D11*
X114916666Y-36604819D02*
X114916666Y-37319104D01*
X114916666Y-37319104D02*
X114869047Y-37461961D01*
X114869047Y-37461961D02*
X114773809Y-37557200D01*
X114773809Y-37557200D02*
X114630952Y-37604819D01*
X114630952Y-37604819D02*
X114535714Y-37604819D01*
X115297619Y-36604819D02*
X115916666Y-36604819D01*
X115916666Y-36604819D02*
X115583333Y-36985771D01*
X115583333Y-36985771D02*
X115726190Y-36985771D01*
X115726190Y-36985771D02*
X115821428Y-37033390D01*
X115821428Y-37033390D02*
X115869047Y-37081009D01*
X115869047Y-37081009D02*
X115916666Y-37176247D01*
X115916666Y-37176247D02*
X115916666Y-37414342D01*
X115916666Y-37414342D02*
X115869047Y-37509580D01*
X115869047Y-37509580D02*
X115821428Y-37557200D01*
X115821428Y-37557200D02*
X115726190Y-37604819D01*
X115726190Y-37604819D02*
X115440476Y-37604819D01*
X115440476Y-37604819D02*
X115345238Y-37557200D01*
X115345238Y-37557200D02*
X115297619Y-37509580D01*
X125546666Y-62694819D02*
X125546666Y-63409104D01*
X125546666Y-63409104D02*
X125499047Y-63551961D01*
X125499047Y-63551961D02*
X125403809Y-63647200D01*
X125403809Y-63647200D02*
X125260952Y-63694819D01*
X125260952Y-63694819D02*
X125165714Y-63694819D01*
X126546666Y-63694819D02*
X125975238Y-63694819D01*
X126260952Y-63694819D02*
X126260952Y-62694819D01*
X126260952Y-62694819D02*
X126165714Y-62837676D01*
X126165714Y-62837676D02*
X126070476Y-62932914D01*
X126070476Y-62932914D02*
X125975238Y-62980533D01*
X22549104Y-53554285D02*
X22549104Y-53078095D01*
X22834819Y-53649523D02*
X21834819Y-53316190D01*
X21834819Y-53316190D02*
X22834819Y-52982857D01*
X22834819Y-52125714D02*
X22834819Y-52697142D01*
X22834819Y-52411428D02*
X21834819Y-52411428D01*
X21834819Y-52411428D02*
X21977676Y-52506666D01*
X21977676Y-52506666D02*
X22072914Y-52601904D01*
X22072914Y-52601904D02*
X22120533Y-52697142D01*
X115416666Y-62694819D02*
X115416666Y-63409104D01*
X115416666Y-63409104D02*
X115369047Y-63551961D01*
X115369047Y-63551961D02*
X115273809Y-63647200D01*
X115273809Y-63647200D02*
X115130952Y-63694819D01*
X115130952Y-63694819D02*
X115035714Y-63694819D01*
X115845238Y-62790057D02*
X115892857Y-62742438D01*
X115892857Y-62742438D02*
X115988095Y-62694819D01*
X115988095Y-62694819D02*
X116226190Y-62694819D01*
X116226190Y-62694819D02*
X116321428Y-62742438D01*
X116321428Y-62742438D02*
X116369047Y-62790057D01*
X116369047Y-62790057D02*
X116416666Y-62885295D01*
X116416666Y-62885295D02*
X116416666Y-62980533D01*
X116416666Y-62980533D02*
X116369047Y-63123390D01*
X116369047Y-63123390D02*
X115797619Y-63694819D01*
X115797619Y-63694819D02*
X116416666Y-63694819D01*
D10*
X100557419Y-69161904D02*
X101366942Y-69161904D01*
X101366942Y-69161904D02*
X101462180Y-69114285D01*
X101462180Y-69114285D02*
X101509800Y-69066666D01*
X101509800Y-69066666D02*
X101557419Y-68971428D01*
X101557419Y-68971428D02*
X101557419Y-68780952D01*
X101557419Y-68780952D02*
X101509800Y-68685714D01*
X101509800Y-68685714D02*
X101462180Y-68638095D01*
X101462180Y-68638095D02*
X101366942Y-68590476D01*
X101366942Y-68590476D02*
X100557419Y-68590476D01*
X101557419Y-67590476D02*
X101557419Y-68161904D01*
X101557419Y-67876190D02*
X100557419Y-67876190D01*
X100557419Y-67876190D02*
X100700276Y-67971428D01*
X100700276Y-67971428D02*
X100795514Y-68066666D01*
X100795514Y-68066666D02*
X100843133Y-68161904D01*
X88105752Y-62254211D02*
X88391466Y-63016115D01*
X88391466Y-63016115D02*
X88677180Y-62254211D01*
X87772419Y-61920877D02*
X87772419Y-61349449D01*
X88772419Y-61635163D02*
X87772419Y-61635163D01*
X87772419Y-61111353D02*
X88772419Y-60444687D01*
X87772419Y-60444687D02*
X88772419Y-61111353D01*
X92900038Y-62492306D02*
X92852419Y-62587544D01*
X92852419Y-62587544D02*
X92852419Y-62730401D01*
X92852419Y-62730401D02*
X92900038Y-62873258D01*
X92900038Y-62873258D02*
X92995276Y-62968496D01*
X92995276Y-62968496D02*
X93090514Y-63016115D01*
X93090514Y-63016115D02*
X93280990Y-63063734D01*
X93280990Y-63063734D02*
X93423847Y-63063734D01*
X93423847Y-63063734D02*
X93614323Y-63016115D01*
X93614323Y-63016115D02*
X93709561Y-62968496D01*
X93709561Y-62968496D02*
X93804800Y-62873258D01*
X93804800Y-62873258D02*
X93852419Y-62730401D01*
X93852419Y-62730401D02*
X93852419Y-62635163D01*
X93852419Y-62635163D02*
X93804800Y-62492306D01*
X93804800Y-62492306D02*
X93757180Y-62444687D01*
X93757180Y-62444687D02*
X93423847Y-62444687D01*
X93423847Y-62444687D02*
X93423847Y-62635163D01*
X93852419Y-62016115D02*
X92852419Y-62016115D01*
X92852419Y-62016115D02*
X93852419Y-61444687D01*
X93852419Y-61444687D02*
X92852419Y-61444687D01*
X93852419Y-60968496D02*
X92852419Y-60968496D01*
X92852419Y-60968496D02*
X92852419Y-60730401D01*
X92852419Y-60730401D02*
X92900038Y-60587544D01*
X92900038Y-60587544D02*
X92995276Y-60492306D01*
X92995276Y-60492306D02*
X93090514Y-60444687D01*
X93090514Y-60444687D02*
X93280990Y-60397068D01*
X93280990Y-60397068D02*
X93423847Y-60397068D01*
X93423847Y-60397068D02*
X93614323Y-60444687D01*
X93614323Y-60444687D02*
X93709561Y-60492306D01*
X93709561Y-60492306D02*
X93804800Y-60587544D01*
X93804800Y-60587544D02*
X93852419Y-60730401D01*
X93852419Y-60730401D02*
X93852419Y-60968496D01*
X77945752Y-62254211D02*
X78231466Y-63016115D01*
X78231466Y-63016115D02*
X78517180Y-62254211D01*
X77612419Y-61873258D02*
X77612419Y-61254211D01*
X77612419Y-61254211D02*
X77993371Y-61587544D01*
X77993371Y-61587544D02*
X77993371Y-61444687D01*
X77993371Y-61444687D02*
X78040990Y-61349449D01*
X78040990Y-61349449D02*
X78088609Y-61301830D01*
X78088609Y-61301830D02*
X78183847Y-61254211D01*
X78183847Y-61254211D02*
X78421942Y-61254211D01*
X78421942Y-61254211D02*
X78517180Y-61301830D01*
X78517180Y-61301830D02*
X78564800Y-61349449D01*
X78564800Y-61349449D02*
X78612419Y-61444687D01*
X78612419Y-61444687D02*
X78612419Y-61730401D01*
X78612419Y-61730401D02*
X78564800Y-61825639D01*
X78564800Y-61825639D02*
X78517180Y-61873258D01*
X78517180Y-60825639D02*
X78564800Y-60778020D01*
X78564800Y-60778020D02*
X78612419Y-60825639D01*
X78612419Y-60825639D02*
X78564800Y-60873258D01*
X78564800Y-60873258D02*
X78517180Y-60825639D01*
X78517180Y-60825639D02*
X78612419Y-60825639D01*
X77612419Y-60444687D02*
X77612419Y-59825640D01*
X77612419Y-59825640D02*
X77993371Y-60158973D01*
X77993371Y-60158973D02*
X77993371Y-60016116D01*
X77993371Y-60016116D02*
X78040990Y-59920878D01*
X78040990Y-59920878D02*
X78088609Y-59873259D01*
X78088609Y-59873259D02*
X78183847Y-59825640D01*
X78183847Y-59825640D02*
X78421942Y-59825640D01*
X78421942Y-59825640D02*
X78517180Y-59873259D01*
X78517180Y-59873259D02*
X78564800Y-59920878D01*
X78564800Y-59920878D02*
X78612419Y-60016116D01*
X78612419Y-60016116D02*
X78612419Y-60301830D01*
X78612419Y-60301830D02*
X78564800Y-60397068D01*
X78564800Y-60397068D02*
X78517180Y-60444687D01*
X77612419Y-59539925D02*
X78612419Y-59206592D01*
X78612419Y-59206592D02*
X77612419Y-58873259D01*
X90645752Y-63016115D02*
X90931466Y-62254211D01*
X90931466Y-62254211D02*
X91217180Y-63016115D01*
X91312419Y-61206592D02*
X90836228Y-61539925D01*
X91312419Y-61778020D02*
X90312419Y-61778020D01*
X90312419Y-61778020D02*
X90312419Y-61397068D01*
X90312419Y-61397068D02*
X90360038Y-61301830D01*
X90360038Y-61301830D02*
X90407657Y-61254211D01*
X90407657Y-61254211D02*
X90502895Y-61206592D01*
X90502895Y-61206592D02*
X90645752Y-61206592D01*
X90645752Y-61206592D02*
X90740990Y-61254211D01*
X90740990Y-61254211D02*
X90788609Y-61301830D01*
X90788609Y-61301830D02*
X90836228Y-61397068D01*
X90836228Y-61397068D02*
X90836228Y-61778020D01*
X90312419Y-60873258D02*
X91312419Y-60206592D01*
X90312419Y-60206592D02*
X91312419Y-60873258D01*
X95392419Y-63158972D02*
X96392419Y-62825639D01*
X96392419Y-62825639D02*
X95392419Y-62492306D01*
X96392419Y-62158972D02*
X95392419Y-62158972D01*
X96392419Y-61682782D02*
X95392419Y-61682782D01*
X95392419Y-61682782D02*
X96392419Y-61111354D01*
X96392419Y-61111354D02*
X95392419Y-61111354D01*
X80485752Y-63016115D02*
X80771466Y-62254211D01*
X80771466Y-62254211D02*
X81057180Y-63016115D01*
X80628609Y-61778020D02*
X80628609Y-61444687D01*
X81152419Y-61301830D02*
X81152419Y-61778020D01*
X81152419Y-61778020D02*
X80152419Y-61778020D01*
X80152419Y-61778020D02*
X80152419Y-61301830D01*
X81152419Y-60873258D02*
X80152419Y-60873258D01*
X80152419Y-60873258D02*
X81152419Y-60301830D01*
X81152419Y-60301830D02*
X80152419Y-60301830D01*
X82692419Y-63158972D02*
X83692419Y-62825639D01*
X83692419Y-62825639D02*
X82692419Y-62492306D01*
X83168609Y-61825639D02*
X83216228Y-61682782D01*
X83216228Y-61682782D02*
X83263847Y-61635163D01*
X83263847Y-61635163D02*
X83359085Y-61587544D01*
X83359085Y-61587544D02*
X83501942Y-61587544D01*
X83501942Y-61587544D02*
X83597180Y-61635163D01*
X83597180Y-61635163D02*
X83644800Y-61682782D01*
X83644800Y-61682782D02*
X83692419Y-61778020D01*
X83692419Y-61778020D02*
X83692419Y-62158972D01*
X83692419Y-62158972D02*
X82692419Y-62158972D01*
X82692419Y-62158972D02*
X82692419Y-61825639D01*
X82692419Y-61825639D02*
X82740038Y-61730401D01*
X82740038Y-61730401D02*
X82787657Y-61682782D01*
X82787657Y-61682782D02*
X82882895Y-61635163D01*
X82882895Y-61635163D02*
X82978133Y-61635163D01*
X82978133Y-61635163D02*
X83073371Y-61682782D01*
X83073371Y-61682782D02*
X83120990Y-61730401D01*
X83120990Y-61730401D02*
X83168609Y-61825639D01*
X83168609Y-61825639D02*
X83168609Y-62158972D01*
X83406704Y-61206591D02*
X83406704Y-60730401D01*
X83692419Y-61301829D02*
X82692419Y-60968496D01*
X82692419Y-60968496D02*
X83692419Y-60635163D01*
X82692419Y-60444686D02*
X82692419Y-59873258D01*
X83692419Y-60158972D02*
X82692419Y-60158972D01*
X85708609Y-62682782D02*
X85708609Y-63016115D01*
X86232419Y-63016115D02*
X85232419Y-63016115D01*
X85232419Y-63016115D02*
X85232419Y-62539925D01*
X86232419Y-62158972D02*
X85232419Y-62158972D01*
X85232419Y-61778020D02*
X86232419Y-61111354D01*
X85232419Y-61111354D02*
X86232419Y-61778020D01*
X98265752Y-62254211D02*
X98551466Y-63016115D01*
X98551466Y-63016115D02*
X98837180Y-62254211D01*
X98932419Y-61778020D02*
X97932419Y-61778020D01*
X97932419Y-61778020D02*
X97932419Y-61397068D01*
X97932419Y-61397068D02*
X97980038Y-61301830D01*
X97980038Y-61301830D02*
X98027657Y-61254211D01*
X98027657Y-61254211D02*
X98122895Y-61206592D01*
X98122895Y-61206592D02*
X98265752Y-61206592D01*
X98265752Y-61206592D02*
X98360990Y-61254211D01*
X98360990Y-61254211D02*
X98408609Y-61301830D01*
X98408609Y-61301830D02*
X98456228Y-61397068D01*
X98456228Y-61397068D02*
X98456228Y-61778020D01*
X98932419Y-60778020D02*
X97932419Y-60778020D01*
X97932419Y-60778020D02*
X97932419Y-60397068D01*
X97932419Y-60397068D02*
X97980038Y-60301830D01*
X97980038Y-60301830D02*
X98027657Y-60254211D01*
X98027657Y-60254211D02*
X98122895Y-60206592D01*
X98122895Y-60206592D02*
X98265752Y-60206592D01*
X98265752Y-60206592D02*
X98360990Y-60254211D01*
X98360990Y-60254211D02*
X98408609Y-60301830D01*
X98408609Y-60301830D02*
X98456228Y-60397068D01*
X98456228Y-60397068D02*
X98456228Y-60778020D01*
X98884800Y-59825639D02*
X98932419Y-59682782D01*
X98932419Y-59682782D02*
X98932419Y-59444687D01*
X98932419Y-59444687D02*
X98884800Y-59349449D01*
X98884800Y-59349449D02*
X98837180Y-59301830D01*
X98837180Y-59301830D02*
X98741942Y-59254211D01*
X98741942Y-59254211D02*
X98646704Y-59254211D01*
X98646704Y-59254211D02*
X98551466Y-59301830D01*
X98551466Y-59301830D02*
X98503847Y-59349449D01*
X98503847Y-59349449D02*
X98456228Y-59444687D01*
X98456228Y-59444687D02*
X98408609Y-59635163D01*
X98408609Y-59635163D02*
X98360990Y-59730401D01*
X98360990Y-59730401D02*
X98313371Y-59778020D01*
X98313371Y-59778020D02*
X98218133Y-59825639D01*
X98218133Y-59825639D02*
X98122895Y-59825639D01*
X98122895Y-59825639D02*
X98027657Y-59778020D01*
X98027657Y-59778020D02*
X97980038Y-59730401D01*
X97980038Y-59730401D02*
X97932419Y-59635163D01*
X97932419Y-59635163D02*
X97932419Y-59397068D01*
X97932419Y-59397068D02*
X97980038Y-59254211D01*
X136411904Y-44142580D02*
X136411904Y-43333057D01*
X136411904Y-43333057D02*
X136364285Y-43237819D01*
X136364285Y-43237819D02*
X136316666Y-43190200D01*
X136316666Y-43190200D02*
X136221428Y-43142580D01*
X136221428Y-43142580D02*
X136030952Y-43142580D01*
X136030952Y-43142580D02*
X135935714Y-43190200D01*
X135935714Y-43190200D02*
X135888095Y-43237819D01*
X135888095Y-43237819D02*
X135840476Y-43333057D01*
X135840476Y-43333057D02*
X135840476Y-44142580D01*
X135411904Y-44047342D02*
X135364285Y-44094961D01*
X135364285Y-44094961D02*
X135269047Y-44142580D01*
X135269047Y-44142580D02*
X135030952Y-44142580D01*
X135030952Y-44142580D02*
X134935714Y-44094961D01*
X134935714Y-44094961D02*
X134888095Y-44047342D01*
X134888095Y-44047342D02*
X134840476Y-43952104D01*
X134840476Y-43952104D02*
X134840476Y-43856866D01*
X134840476Y-43856866D02*
X134888095Y-43714009D01*
X134888095Y-43714009D02*
X135459523Y-43142580D01*
X135459523Y-43142580D02*
X134840476Y-43142580D01*
X116438972Y-44227580D02*
X116105639Y-43227580D01*
X116105639Y-43227580D02*
X115772306Y-44227580D01*
X115438972Y-43227580D02*
X115438972Y-44227580D01*
X115438972Y-44227580D02*
X115200877Y-44227580D01*
X115200877Y-44227580D02*
X115058020Y-44179961D01*
X115058020Y-44179961D02*
X114962782Y-44084723D01*
X114962782Y-44084723D02*
X114915163Y-43989485D01*
X114915163Y-43989485D02*
X114867544Y-43799009D01*
X114867544Y-43799009D02*
X114867544Y-43656152D01*
X114867544Y-43656152D02*
X114915163Y-43465676D01*
X114915163Y-43465676D02*
X114962782Y-43370438D01*
X114962782Y-43370438D02*
X115058020Y-43275200D01*
X115058020Y-43275200D02*
X115200877Y-43227580D01*
X115200877Y-43227580D02*
X115438972Y-43227580D01*
X114438972Y-43227580D02*
X114438972Y-44227580D01*
X114438972Y-44227580D02*
X114200877Y-44227580D01*
X114200877Y-44227580D02*
X114058020Y-44179961D01*
X114058020Y-44179961D02*
X113962782Y-44084723D01*
X113962782Y-44084723D02*
X113915163Y-43989485D01*
X113915163Y-43989485D02*
X113867544Y-43799009D01*
X113867544Y-43799009D02*
X113867544Y-43656152D01*
X113867544Y-43656152D02*
X113915163Y-43465676D01*
X113915163Y-43465676D02*
X113962782Y-43370438D01*
X113962782Y-43370438D02*
X114058020Y-43275200D01*
X114058020Y-43275200D02*
X114200877Y-43227580D01*
X114200877Y-43227580D02*
X114438972Y-43227580D01*
X116343734Y-53435200D02*
X116200877Y-53387580D01*
X116200877Y-53387580D02*
X115962782Y-53387580D01*
X115962782Y-53387580D02*
X115867544Y-53435200D01*
X115867544Y-53435200D02*
X115819925Y-53482819D01*
X115819925Y-53482819D02*
X115772306Y-53578057D01*
X115772306Y-53578057D02*
X115772306Y-53673295D01*
X115772306Y-53673295D02*
X115819925Y-53768533D01*
X115819925Y-53768533D02*
X115867544Y-53816152D01*
X115867544Y-53816152D02*
X115962782Y-53863771D01*
X115962782Y-53863771D02*
X116153258Y-53911390D01*
X116153258Y-53911390D02*
X116248496Y-53959009D01*
X116248496Y-53959009D02*
X116296115Y-54006628D01*
X116296115Y-54006628D02*
X116343734Y-54101866D01*
X116343734Y-54101866D02*
X116343734Y-54197104D01*
X116343734Y-54197104D02*
X116296115Y-54292342D01*
X116296115Y-54292342D02*
X116248496Y-54339961D01*
X116248496Y-54339961D02*
X116153258Y-54387580D01*
X116153258Y-54387580D02*
X115915163Y-54387580D01*
X115915163Y-54387580D02*
X115772306Y-54339961D01*
X114772306Y-53482819D02*
X114819925Y-53435200D01*
X114819925Y-53435200D02*
X114962782Y-53387580D01*
X114962782Y-53387580D02*
X115058020Y-53387580D01*
X115058020Y-53387580D02*
X115200877Y-53435200D01*
X115200877Y-53435200D02*
X115296115Y-53530438D01*
X115296115Y-53530438D02*
X115343734Y-53625676D01*
X115343734Y-53625676D02*
X115391353Y-53816152D01*
X115391353Y-53816152D02*
X115391353Y-53959009D01*
X115391353Y-53959009D02*
X115343734Y-54149485D01*
X115343734Y-54149485D02*
X115296115Y-54244723D01*
X115296115Y-54244723D02*
X115200877Y-54339961D01*
X115200877Y-54339961D02*
X115058020Y-54387580D01*
X115058020Y-54387580D02*
X114962782Y-54387580D01*
X114962782Y-54387580D02*
X114819925Y-54339961D01*
X114819925Y-54339961D02*
X114772306Y-54292342D01*
X113867544Y-53387580D02*
X114343734Y-53387580D01*
X114343734Y-53387580D02*
X114343734Y-54387580D01*
X116438972Y-46767580D02*
X116105639Y-45767580D01*
X116105639Y-45767580D02*
X115772306Y-46767580D01*
X115438972Y-45767580D02*
X115438972Y-46434247D01*
X115438972Y-46767580D02*
X115486591Y-46719961D01*
X115486591Y-46719961D02*
X115438972Y-46672342D01*
X115438972Y-46672342D02*
X115391353Y-46719961D01*
X115391353Y-46719961D02*
X115438972Y-46767580D01*
X115438972Y-46767580D02*
X115438972Y-46672342D01*
X114962782Y-46434247D02*
X114962782Y-45767580D01*
X114962782Y-46339009D02*
X114915163Y-46386628D01*
X114915163Y-46386628D02*
X114819925Y-46434247D01*
X114819925Y-46434247D02*
X114677068Y-46434247D01*
X114677068Y-46434247D02*
X114581830Y-46386628D01*
X114581830Y-46386628D02*
X114534211Y-46291390D01*
X114534211Y-46291390D02*
X114534211Y-45767580D01*
X115772306Y-49259961D02*
X115867544Y-49307580D01*
X115867544Y-49307580D02*
X116010401Y-49307580D01*
X116010401Y-49307580D02*
X116153258Y-49259961D01*
X116153258Y-49259961D02*
X116248496Y-49164723D01*
X116248496Y-49164723D02*
X116296115Y-49069485D01*
X116296115Y-49069485D02*
X116343734Y-48879009D01*
X116343734Y-48879009D02*
X116343734Y-48736152D01*
X116343734Y-48736152D02*
X116296115Y-48545676D01*
X116296115Y-48545676D02*
X116248496Y-48450438D01*
X116248496Y-48450438D02*
X116153258Y-48355200D01*
X116153258Y-48355200D02*
X116010401Y-48307580D01*
X116010401Y-48307580D02*
X115915163Y-48307580D01*
X115915163Y-48307580D02*
X115772306Y-48355200D01*
X115772306Y-48355200D02*
X115724687Y-48402819D01*
X115724687Y-48402819D02*
X115724687Y-48736152D01*
X115724687Y-48736152D02*
X115915163Y-48736152D01*
X115296115Y-48307580D02*
X115296115Y-49307580D01*
X115296115Y-49307580D02*
X114724687Y-48307580D01*
X114724687Y-48307580D02*
X114724687Y-49307580D01*
X114248496Y-48307580D02*
X114248496Y-49307580D01*
X114248496Y-49307580D02*
X114010401Y-49307580D01*
X114010401Y-49307580D02*
X113867544Y-49259961D01*
X113867544Y-49259961D02*
X113772306Y-49164723D01*
X113772306Y-49164723D02*
X113724687Y-49069485D01*
X113724687Y-49069485D02*
X113677068Y-48879009D01*
X113677068Y-48879009D02*
X113677068Y-48736152D01*
X113677068Y-48736152D02*
X113724687Y-48545676D01*
X113724687Y-48545676D02*
X113772306Y-48450438D01*
X113772306Y-48450438D02*
X113867544Y-48355200D01*
X113867544Y-48355200D02*
X114010401Y-48307580D01*
X114010401Y-48307580D02*
X114248496Y-48307580D01*
X116343734Y-50895200D02*
X116200877Y-50847580D01*
X116200877Y-50847580D02*
X115962782Y-50847580D01*
X115962782Y-50847580D02*
X115867544Y-50895200D01*
X115867544Y-50895200D02*
X115819925Y-50942819D01*
X115819925Y-50942819D02*
X115772306Y-51038057D01*
X115772306Y-51038057D02*
X115772306Y-51133295D01*
X115772306Y-51133295D02*
X115819925Y-51228533D01*
X115819925Y-51228533D02*
X115867544Y-51276152D01*
X115867544Y-51276152D02*
X115962782Y-51323771D01*
X115962782Y-51323771D02*
X116153258Y-51371390D01*
X116153258Y-51371390D02*
X116248496Y-51419009D01*
X116248496Y-51419009D02*
X116296115Y-51466628D01*
X116296115Y-51466628D02*
X116343734Y-51561866D01*
X116343734Y-51561866D02*
X116343734Y-51657104D01*
X116343734Y-51657104D02*
X116296115Y-51752342D01*
X116296115Y-51752342D02*
X116248496Y-51799961D01*
X116248496Y-51799961D02*
X116153258Y-51847580D01*
X116153258Y-51847580D02*
X115915163Y-51847580D01*
X115915163Y-51847580D02*
X115772306Y-51799961D01*
X115343734Y-50847580D02*
X115343734Y-51847580D01*
X115343734Y-51847580D02*
X115105639Y-51847580D01*
X115105639Y-51847580D02*
X114962782Y-51799961D01*
X114962782Y-51799961D02*
X114867544Y-51704723D01*
X114867544Y-51704723D02*
X114819925Y-51609485D01*
X114819925Y-51609485D02*
X114772306Y-51419009D01*
X114772306Y-51419009D02*
X114772306Y-51276152D01*
X114772306Y-51276152D02*
X114819925Y-51085676D01*
X114819925Y-51085676D02*
X114867544Y-50990438D01*
X114867544Y-50990438D02*
X114962782Y-50895200D01*
X114962782Y-50895200D02*
X115105639Y-50847580D01*
X115105639Y-50847580D02*
X115343734Y-50847580D01*
X114391353Y-51133295D02*
X113915163Y-51133295D01*
X114486591Y-50847580D02*
X114153258Y-51847580D01*
X114153258Y-51847580D02*
X113819925Y-50847580D01*
D12*
%TO.C,J3*%
X106450000Y-38700000D02*
X106450000Y-37700000D01*
X106450000Y-38700000D02*
X107450000Y-38700000D01*
X107050000Y-36350000D02*
X107250000Y-36350000D01*
X107050000Y-37150000D02*
X107050000Y-36350000D01*
X107250000Y-35500000D02*
X110225000Y-35500000D01*
X107250000Y-36350000D02*
X107250000Y-35500000D01*
X107250000Y-37150000D02*
X107050000Y-37150000D01*
X107250000Y-37900000D02*
X107250000Y-37150000D01*
X110225000Y-37900000D02*
X107250000Y-37900000D01*
X110225000Y-37900000D02*
X113200000Y-37900000D01*
X113200000Y-35500000D02*
X110225000Y-35500000D01*
X113200000Y-36350000D02*
X113200000Y-35500000D01*
X113200000Y-37150000D02*
X113400000Y-37150000D01*
X113200000Y-37900000D02*
X113200000Y-37150000D01*
X113400000Y-36350000D02*
X113200000Y-36350000D01*
X113400000Y-37150000D02*
X113400000Y-36350000D01*
X106740000Y-34990000D02*
X113710000Y-34990000D01*
X113710000Y-38410000D01*
X106740000Y-38410000D01*
X106740000Y-34990000D01*
%TO.C,J1*%
X122100000Y-68050000D02*
X122100000Y-67050000D01*
X122100000Y-68050000D02*
X123100000Y-68050000D01*
X122700000Y-65700000D02*
X122900000Y-65700000D01*
X122700000Y-66500000D02*
X122700000Y-65700000D01*
X122900000Y-64850000D02*
X125875000Y-64850000D01*
X122900000Y-65700000D02*
X122900000Y-64850000D01*
X122900000Y-66500000D02*
X122700000Y-66500000D01*
X122900000Y-67250000D02*
X122900000Y-66500000D01*
X125875000Y-67250000D02*
X122900000Y-67250000D01*
X125875000Y-67250000D02*
X128850000Y-67250000D01*
X128850000Y-64850000D02*
X125875000Y-64850000D01*
X128850000Y-65700000D02*
X128850000Y-64850000D01*
X128850000Y-66500000D02*
X129050000Y-66500000D01*
X128850000Y-67250000D02*
X128850000Y-66500000D01*
X129050000Y-65700000D02*
X128850000Y-65700000D01*
X129050000Y-66500000D02*
X129050000Y-65700000D01*
X122390000Y-64340000D02*
X129360000Y-64340000D01*
X129360000Y-67760000D01*
X122390000Y-67760000D01*
X122390000Y-64340000D01*
%TO.C,A1*%
X23540000Y-43950000D02*
X23540000Y-61730000D01*
X26190000Y-41300000D02*
X71910000Y-41300000D01*
X26190000Y-64380000D02*
X71910000Y-64380000D01*
X31000000Y-64700000D02*
X29000000Y-64700000D01*
X74560000Y-43950000D02*
X74560000Y-61730000D01*
X23540000Y-43950000D02*
G75*
G02*
X26190000Y-41300000I2650000J0D01*
G01*
X26190000Y-64380000D02*
G75*
G02*
X23540000Y-61730000I0J2650000D01*
G01*
X71910000Y-41300000D02*
G75*
G02*
X74560000Y-43950000I0J-2650000D01*
G01*
X74560000Y-61730000D02*
G75*
G02*
X71910000Y-64380000I-2650000J0D01*
G01*
%TO.C,J2*%
X112600000Y-68050000D02*
X112600000Y-67050000D01*
X112600000Y-68050000D02*
X113600000Y-68050000D01*
X113200000Y-65700000D02*
X113400000Y-65700000D01*
X113200000Y-66500000D02*
X113200000Y-65700000D01*
X113400000Y-64850000D02*
X115750000Y-64850000D01*
X113400000Y-65700000D02*
X113400000Y-64850000D01*
X113400000Y-66500000D02*
X113200000Y-66500000D01*
X113400000Y-67250000D02*
X113400000Y-66500000D01*
X115750000Y-67250000D02*
X113400000Y-67250000D01*
X115750000Y-67250000D02*
X118100000Y-67250000D01*
X118100000Y-64850000D02*
X115750000Y-64850000D01*
X118100000Y-65700000D02*
X118100000Y-64850000D01*
X118100000Y-66500000D02*
X118300000Y-66500000D01*
X118100000Y-67250000D02*
X118100000Y-66500000D01*
X118300000Y-65700000D02*
X118100000Y-65700000D01*
X118300000Y-66500000D02*
X118300000Y-65700000D01*
X112890000Y-64340000D02*
X118610000Y-64340000D01*
X118610000Y-67760000D01*
X112890000Y-67760000D01*
X112890000Y-64340000D01*
%TO.C,U1*%
D10*
X76200000Y-68400000D02*
X101600000Y-68400000D01*
X101600000Y-33400000D01*
X76200000Y-33400000D01*
X76200000Y-68400000D01*
%TO.C,U2*%
X135650000Y-56100000D02*
X109150000Y-56100000D01*
X109150000Y-43100000D01*
X135650000Y-43100000D01*
X135650000Y-56100000D01*
X129130000Y-53260000D02*
G75*
G02*
X126930000Y-53260000I-1100000J0D01*
G01*
X126930000Y-53260000D02*
G75*
G02*
X129130000Y-53260000I1100000J0D01*
G01*
X134210000Y-45640000D02*
G75*
G02*
X132010000Y-45640000I-1100000J0D01*
G01*
X132010000Y-45640000D02*
G75*
G02*
X134210000Y-45640000I1100000J0D01*
G01*
%TD*%
M02*
