M48
; DRILL file {KiCad 9.0.7} date 2026-09-19T09:21:42-0700
; FORMAT={-:-/ absolute / metric / decimal}
; #@! TF.CreationDate,2026-09-19T09:21:42-07:00
; #@! TF.GenerationSoftware,Kicad,Pcbnew,9.0.7
; #@! TF.FileFunction,Plated,1,2,PTH
FMAT,2
METRIC
; #@! TA.AperFunction,Plated,PTH,ViaDrill
T1C0.300
; #@! TA.AperFunction,Plated,PTH,ComponentDrill
T2C0.500
; #@! TA.AperFunction,Plated,PTH,ComponentDrill
T3C1.000
; #@! TA.AperFunction,Plated,PTH,ComponentDrill
T4C1.020
%
G90
G05
T1
X62.8Y-51.6
X65.25Y-51.75
T2
X79.84Y-55.52
X79.84Y-56.77
X79.84Y-58.02
X80.035Y-43.443
X80.035Y-44.693
X80.035Y-45.943
X80.035Y-47.193
X87.5Y-38.05
X87.5Y-39.3
X87.5Y-40.55
X87.5Y-41.8
X87.55Y-60.4
X87.55Y-61.65
X87.55Y-62.9
X87.55Y-64.15
T3
X30.0Y-63.0
X32.54Y-63.0
X35.08Y-63.0
X37.62Y-63.0
X40.16Y-42.68
X40.16Y-63.0
X42.7Y-42.68
X42.7Y-63.0
X45.24Y-42.68
X45.24Y-63.0
X47.78Y-42.68
X47.78Y-63.0
X50.32Y-42.68
X50.32Y-63.0
X52.86Y-42.68
X52.86Y-63.0
X55.4Y-42.68
X55.4Y-63.0
X57.94Y-42.68
X57.94Y-63.0
X60.48Y-42.68
X60.48Y-63.0
X63.02Y-42.68
X63.02Y-63.0
X65.56Y-42.68
X65.56Y-63.0
X68.1Y-42.68
X68.1Y-63.0
X100.27Y-46.87
X100.27Y-49.41
X100.27Y-51.95
X100.27Y-54.49
X100.27Y-57.03
T4
X41.75Y-37.35
X44.29Y-37.35
M30
