%TF.GenerationSoftware,KiCad,Pcbnew,9.0.7*%
%TF.CreationDate,2026-09-19T09:21:46-07:00*%
%TF.ProjectId,nav_board,6e61765f-626f-4617-9264-2e6b69636164,rev?*%
%TF.SameCoordinates,Original*%
%TF.FileFunction,Soldermask,Top*%
%TF.FilePolarity,Negative*%
%FSLAX46Y46*%
G04 Gerber Fmt 4.6, Leading zero omitted, Abs format (unit mm)*
G04 Created by KiCad (PCBNEW 9.0.7) date 2026-09-19 09:21:46*
%MOMM*%
%LPD*%
G01*
G04 APERTURE LIST*
G04 Aperture macros list*
%AMRoundRect*
0 Rectangle with rounded corners*
0 $1 Rounding radius*
0 $2 $3 $4 $5 $6 $7 $8 $9 X,Y pos of 4 corners*
0 Add a 4 corners polygon primitive as box body*
4,1,4,$2,$3,$4,$5,$6,$7,$8,$9,$2,$3,0*
0 Add four circle primitives for the rounded corners*
1,1,$1+$1,$2,$3*
1,1,$1+$1,$4,$5*
1,1,$1+$1,$6,$7*
1,1,$1+$1,$8,$9*
0 Add four rect primitives between the rounded corners*
20,1,$1+$1,$2,$3,$4,$5,0*
20,1,$1+$1,$4,$5,$6,$7,0*
20,1,$1+$1,$6,$7,$8,$9,0*
20,1,$1+$1,$8,$9,$2,$3,0*%
G04 Aperture macros list end*
%ADD10C,2.020000*%
%ADD11RoundRect,0.200000X0.450000X-0.200000X0.450000X0.200000X-0.450000X0.200000X-0.450000X-0.200000X0*%
%ADD12O,1.300000X0.800000*%
%ADD13RoundRect,0.250000X0.550000X-1.050000X0.550000X1.050000X-0.550000X1.050000X-0.550000X-1.050000X0*%
%ADD14O,1.600000X2.600000*%
%ADD15RoundRect,0.190500X0.762000X0.444500X-0.762000X0.444500X-0.762000X-0.444500X0.762000X-0.444500X0*%
G04 APERTURE END LIST*
D10*
%TO.C,J5*%
X44290000Y-37350000D03*
X41750000Y-37350000D03*
%TD*%
D11*
%TO.C,J1*%
X87550000Y-64150000D03*
D12*
X87550000Y-62900000D03*
X87550000Y-61650000D03*
X87550000Y-60400000D03*
%TD*%
D11*
%TO.C,J3*%
X87500000Y-41800000D03*
D12*
X87500000Y-40550000D03*
X87500000Y-39300000D03*
X87500000Y-38050000D03*
%TD*%
D13*
%TO.C,A1*%
X30000000Y-62700000D03*
D14*
X32540000Y-62700000D03*
X35080000Y-62700000D03*
X37620000Y-62700000D03*
X40160000Y-62700000D03*
X42700000Y-62700000D03*
X45240000Y-62700000D03*
X47780000Y-62700000D03*
X50320000Y-62700000D03*
X52860000Y-62700000D03*
X55400000Y-62700000D03*
X57940000Y-62700000D03*
X60480000Y-62700000D03*
X63020000Y-62700000D03*
X65560000Y-62700000D03*
X68100000Y-62700000D03*
X68100000Y-42980000D03*
X65560000Y-42980000D03*
X63020000Y-42980000D03*
X60480000Y-42980000D03*
X57940000Y-42980000D03*
X55400000Y-42980000D03*
X52860000Y-42980000D03*
X50320000Y-42980000D03*
X47780000Y-42980000D03*
X45240000Y-42980000D03*
X42700000Y-42980000D03*
X40160000Y-42980000D03*
%TD*%
D11*
%TO.C,J2*%
X79840000Y-58020000D03*
D12*
X79840000Y-56770000D03*
X79840000Y-55520000D03*
%TD*%
D11*
%TO.C,J4*%
X80035400Y-47193200D03*
D12*
X80035400Y-45943200D03*
X80035400Y-44693200D03*
X80035400Y-43443200D03*
%TD*%
D15*
%TO.C,U2*%
X100270000Y-46870000D03*
X100270000Y-49410000D03*
X100270000Y-51950000D03*
X100270000Y-54490000D03*
X100270000Y-57030000D03*
%TD*%
M02*
