%TF.GenerationSoftware,KiCad,Pcbnew,9.0.7*%
%TF.CreationDate,2026-09-19T09:21:46-07:00*%
%TF.ProjectId,nav_board,6e61765f-626f-4617-9264-2e6b69636164,rev?*%
%TF.SameCoordinates,Original*%
%TF.FileFunction,Copper,L2,Bot*%
%TF.FilePolarity,Positive*%
%FSLAX46Y46*%
G04 Gerber Fmt 4.6, Leading zero omitted, Abs format (unit mm)*
G04 Created by KiCad (PCBNEW 9.0.7) date 2026-09-19 09:21:46*
%MOMM*%
%LPD*%
G01*
G04 APERTURE LIST*
G04 Aperture macros list*
%AMRoundRect*
0 Rectangle with rounded corners*
0 $1 Rounding radius*
0 $2 $3 $4 $5 $6 $7 $8 $9 X,Y pos of 4 corners*
0 Add a 4 corners polygon primitive as box body*
4,1,4,$2,$3,$4,$5,$6,$7,$8,$9,$2,$3,0*
0 Add four circle primitives for the rounded corners*
1,1,$1+$1,$2,$3*
1,1,$1+$1,$4,$5*
1,1,$1+$1,$6,$7*
1,1,$1+$1,$8,$9*
0 Add four rect primitives between the rounded corners*
20,1,$1+$1,$2,$3,$4,$5,0*
20,1,$1+$1,$4,$5,$6,$7,0*
20,1,$1+$1,$6,$7,$8,$9,0*
20,1,$1+$1,$8,$9,$2,$3,0*%
G04 Aperture macros list end*
%TA.AperFunction,ComponentPad*%
%ADD10C,2.020000*%
%TD*%
%TA.AperFunction,ComponentPad*%
%ADD11RoundRect,0.200000X0.450000X-0.200000X0.450000X0.200000X-0.450000X0.200000X-0.450000X-0.200000X0*%
%TD*%
%TA.AperFunction,ComponentPad*%
%ADD12O,1.300000X0.800000*%
%TD*%
%TA.AperFunction,ComponentPad*%
%ADD13RoundRect,0.250000X0.550000X-1.050000X0.550000X1.050000X-0.550000X1.050000X-0.550000X-1.050000X0*%
%TD*%
%TA.AperFunction,ComponentPad*%
%ADD14O,1.600000X2.600000*%
%TD*%
%TA.AperFunction,ComponentPad*%
%ADD15RoundRect,0.190500X0.762000X0.444500X-0.762000X0.444500X-0.762000X-0.444500X0.762000X-0.444500X0*%
%TD*%
%TA.AperFunction,ViaPad*%
%ADD16C,0.600000*%
%TD*%
%TA.AperFunction,Conductor*%
%ADD17C,0.200000*%
%TD*%
%TA.AperFunction,Conductor*%
%ADD18C,0.500000*%
%TD*%
G04 APERTURE END LIST*
D10*
%TO.P,J5,1*%
%TO.N,+5V*%
X44290000Y-37350000D03*
%TO.P,J5,2*%
%TO.N,Net-(A1-VBAT)*%
X41750000Y-37350000D03*
%TD*%
D11*
%TO.P,J1,1,Pin_1*%
%TO.N,Net-(A1-DAC2{slash}A0)*%
X87550000Y-64150000D03*
D12*
%TO.P,J1,2,Pin_2*%
%TO.N,Net-(A1-DAC1{slash}A1)*%
X87550000Y-62900000D03*
%TO.P,J1,3,Pin_3*%
%TO.N,+5V*%
X87550000Y-61650000D03*
%TO.P,J1,4,Pin_4*%
%TO.N,GND*%
X87550000Y-60400000D03*
%TD*%
D11*
%TO.P,J3,1*%
%TO.N,Net-(A1-SDA{slash}IO23)*%
X87500000Y-41800000D03*
D12*
%TO.P,J3,2*%
%TO.N,Net-(A1-SCL{slash}IO22)*%
X87500000Y-40550000D03*
%TO.P,J3,3*%
%TO.N,+5V*%
X87500000Y-39300000D03*
%TO.P,J3,4*%
%TO.N,GND*%
X87500000Y-38050000D03*
%TD*%
D13*
%TO.P,A1,1,~{RESET}*%
%TO.N,unconnected-(A1-~{RESET}-Pad1)*%
X30000000Y-62700000D03*
D14*
%TO.P,A1,2,3V3*%
%TO.N,unconnected-(A1-3V3-Pad2)*%
X32540000Y-62700000D03*
%TO.P,A1,3,NC*%
%TO.N,unconnected-(A1-NC-Pad3)*%
X35080000Y-62700000D03*
%TO.P,A1,4,GND*%
%TO.N,GND*%
X37620000Y-62700000D03*
%TO.P,A1,5,DAC2/A0*%
%TO.N,Net-(A1-DAC2{slash}A0)*%
X40160000Y-62700000D03*
%TO.P,A1,6,DAC1/A1*%
%TO.N,Net-(A1-DAC1{slash}A1)*%
X42700000Y-62700000D03*
%TO.P,A1,7,I34/A2*%
%TO.N,Net-(A1-I34{slash}A2)*%
X45240000Y-62700000D03*
%TO.P,A1,8,I39/A3*%
%TO.N,unconnected-(A1-I39{slash}A3-Pad8)*%
X47780000Y-62700000D03*
%TO.P,A1,9,IO36/A4*%
%TO.N,unconnected-(A1-IO36{slash}A4-Pad9)*%
X50320000Y-62700000D03*
%TO.P,A1,10,IO4/A5*%
%TO.N,unconnected-(A1-IO4{slash}A5-Pad10)*%
X52860000Y-62700000D03*
%TO.P,A1,11,SCK/IO5*%
%TO.N,unconnected-(A1-SCK{slash}IO5-Pad11)*%
X55400000Y-62700000D03*
%TO.P,A1,12,MOSI/IO18*%
%TO.N,unconnected-(A1-MOSI{slash}IO18-Pad12)*%
X57940000Y-62700000D03*
%TO.P,A1,13,MISO/IO19*%
%TO.N,unconnected-(A1-MISO{slash}IO19-Pad13)*%
X60480000Y-62700000D03*
%TO.P,A1,14,RX/IO16*%
%TO.N,Net-(A1-RX{slash}IO16)*%
X63020000Y-62700000D03*
%TO.P,A1,15,TX/IO17*%
%TO.N,Net-(A1-TX{slash}IO17)*%
X65560000Y-62700000D03*
%TO.P,A1,16,IO21*%
%TO.N,unconnected-(A1-IO21-Pad16)*%
X68100000Y-62700000D03*
%TO.P,A1,17,SDA/IO23*%
%TO.N,Net-(A1-SDA{slash}IO23)*%
X68100000Y-42980000D03*
%TO.P,A1,18,SCL/IO22*%
%TO.N,Net-(A1-SCL{slash}IO22)*%
X65560000Y-42980000D03*
%TO.P,A1,19,A6/IO14*%
%TO.N,unconnected-(A1-A6{slash}IO14-Pad19)*%
X63020000Y-42980000D03*
%TO.P,A1,20,A7/IO32*%
%TO.N,unconnected-(A1-A7{slash}IO32-Pad20)*%
X60480000Y-42980000D03*
%TO.P,A1,21,A8/IO15*%
%TO.N,unconnected-(A1-A8{slash}IO15-Pad21)*%
X57940000Y-42980000D03*
%TO.P,A1,22,A9/IO33*%
%TO.N,unconnected-(A1-A9{slash}IO33-Pad22)*%
X55400000Y-42980000D03*
%TO.P,A1,23,A10/IO27*%
%TO.N,unconnected-(A1-A10{slash}IO27-Pad23)*%
X52860000Y-42980000D03*
%TO.P,A1,24,A11/IO12*%
%TO.N,unconnected-(A1-A11{slash}IO12-Pad24)*%
X50320000Y-42980000D03*
%TO.P,A1,25,A12/IO13*%
%TO.N,unconnected-(A1-A12{slash}IO13-Pad25)*%
X47780000Y-42980000D03*
%TO.P,A1,26,USB*%
%TO.N,+5V*%
X45240000Y-42980000D03*
%TO.P,A1,27,EN*%
%TO.N,unconnected-(A1-EN-Pad27)*%
X42700000Y-42980000D03*
%TO.P,A1,28,VBAT*%
%TO.N,Net-(A1-VBAT)*%
X40160000Y-42980000D03*
%TD*%
D11*
%TO.P,J2,1,Pin_1*%
%TO.N,+5V*%
X79840000Y-58020000D03*
D12*
%TO.P,J2,2,Pin_2*%
%TO.N,GND*%
X79840000Y-56770000D03*
%TO.P,J2,3,Pin_3*%
%TO.N,Net-(A1-I34{slash}A2)*%
X79840000Y-55520000D03*
%TD*%
D11*
%TO.P,J4,1,Pin_1*%
%TO.N,Net-(A1-TX{slash}IO17)*%
X80035400Y-47193200D03*
D12*
%TO.P,J4,2,Pin_2*%
%TO.N,Net-(A1-RX{slash}IO16)*%
X80035400Y-45943200D03*
%TO.P,J4,3,Pin_3*%
%TO.N,+5V*%
X80035400Y-44693200D03*
%TO.P,J4,4,Pin_4*%
%TO.N,GND*%
X80035400Y-43443200D03*
%TD*%
D15*
%TO.P,U2,1,VDD*%
%TO.N,unconnected-(U2-VDD-Pad1)*%
X100270000Y-46870000D03*
%TO.P,U2,2,Vin*%
%TO.N,+5V*%
X100270000Y-49410000D03*
%TO.P,U2,3,GND*%
%TO.N,GND*%
X100270000Y-51950000D03*
%TO.P,U2,4,SDA*%
%TO.N,Net-(A1-SDA{slash}IO23)*%
X100270000Y-54490000D03*
%TO.P,U2,5,SCL*%
%TO.N,Net-(A1-SCL{slash}IO22)*%
X100270000Y-57030000D03*
%TD*%
D16*
%TO.N,Net-(A1-RX{slash}IO16)*%
X62800000Y-51600000D03*
%TO.N,Net-(A1-TX{slash}IO17)*%
X65250000Y-51750000D03*
%TD*%
D17*
%TO.N,Net-(A1-SDA{slash}IO23)*%
X88950000Y-35550000D02*
X75230000Y-35550000D01*
X90050000Y-36650000D02*
X88950000Y-35550000D01*
X75230000Y-35550000D02*
X68100000Y-42680000D01*
X90050000Y-39250000D02*
X90050000Y-36650000D01*
X87500000Y-41800000D02*
X90050000Y-39250000D01*
X102060000Y-54490000D02*
X100270000Y-54490000D01*
X103200000Y-44700000D02*
X103200000Y-53250000D01*
X103250000Y-53300000D02*
X102060000Y-54490000D01*
X100300000Y-41800000D02*
X103200000Y-44700000D01*
X103200000Y-53250000D02*
X103250000Y-53300000D01*
X87500000Y-41800000D02*
X100300000Y-41800000D01*
D18*
%TO.N,GND*%
X85960000Y-60400000D02*
X87550000Y-60400000D01*
X82330000Y-56770000D02*
X85960000Y-60400000D01*
X98170000Y-51950000D02*
X100270000Y-51950000D01*
X98087600Y-51867600D02*
X98170000Y-51950000D01*
X84950000Y-38050000D02*
X87500000Y-38050000D01*
X84100000Y-38900000D02*
X84950000Y-38050000D01*
X84100000Y-43950000D02*
X84100000Y-38900000D01*
X84100000Y-43950000D02*
X84100000Y-43800000D01*
X83743200Y-43443200D02*
X80035400Y-43443200D01*
X84100000Y-43800000D02*
X83743200Y-43443200D01*
D17*
%TO.N,Net-(A1-RX{slash}IO16)*%
X62900000Y-51500000D02*
X62800000Y-51600000D01*
X80035400Y-45943200D02*
X66056800Y-45943200D01*
X66056800Y-45943200D02*
X62900000Y-49100000D01*
X62900000Y-49100000D02*
X62900000Y-51500000D01*
D18*
%TO.N,GND*%
X84100000Y-51867600D02*
X84100000Y-43950000D01*
X37740000Y-52850000D02*
X81337600Y-52850000D01*
X89330000Y-51867600D02*
X98087600Y-51867600D01*
X81337600Y-52850000D02*
X82320000Y-51867600D01*
X84100000Y-51867600D02*
X89330000Y-51867600D01*
X82330000Y-56770000D02*
X79840000Y-56770000D01*
X82320000Y-51867600D02*
X82320000Y-56620000D01*
X37620000Y-52970000D02*
X37740000Y-52850000D01*
X82320000Y-51867600D02*
X84100000Y-51867600D01*
X37620000Y-62700000D02*
X37620000Y-52970000D01*
X82320000Y-56620000D02*
X82400000Y-56700000D01*
X82400000Y-56700000D02*
X82330000Y-56770000D01*
D17*
%TO.N,Net-(A1-I34{slash}A2)*%
X45240000Y-63000000D02*
X45240000Y-61098300D01*
X52238300Y-54100000D02*
X78420000Y-54100000D01*
X78420000Y-54100000D02*
X79840000Y-55520000D01*
X45240000Y-61098300D02*
X52238300Y-54100000D01*
%TO.N,Net-(A1-TX{slash}IO17)*%
X65900000Y-48650000D02*
X65250000Y-49300000D01*
X80035400Y-47193200D02*
X67356800Y-47193200D01*
X65900000Y-48650000D02*
X65350000Y-49200000D01*
X65250000Y-49300000D02*
X65250000Y-51750000D01*
X67356800Y-47193200D02*
X65900000Y-48650000D01*
%TD*%
%TA.AperFunction,Conductor*%
%TO.N,GND*%
G36*
X28239612Y-35330185D02*
G01*
X28285367Y-35382989D01*
X28295311Y-35452147D01*
X28266286Y-35515703D01*
X28213528Y-35551541D01*
X27971588Y-35636200D01*
X27718557Y-35758053D01*
X27480753Y-35907476D01*
X27261175Y-36082583D01*
X27062583Y-36281175D01*
X26887476Y-36500753D01*
X26738053Y-36738557D01*
X26616200Y-36991588D01*
X26523443Y-37256670D01*
X26523439Y-37256682D01*
X26460945Y-37530487D01*
X26460942Y-37530505D01*
X26429500Y-37809568D01*
X26429500Y-38090431D01*
X26460942Y-38369494D01*
X26460945Y-38369512D01*
X26523439Y-38643317D01*
X26523443Y-38643329D01*
X26616200Y-38908411D01*
X26738053Y-39161442D01*
X26738055Y-39161445D01*
X26887477Y-39399248D01*
X27062584Y-39618825D01*
X27261175Y-39817416D01*
X27480752Y-39992523D01*
X27718555Y-40141945D01*
X27971592Y-40263801D01*
X28170680Y-40333465D01*
X28236670Y-40356556D01*
X28236682Y-40356560D01*
X28510491Y-40419055D01*
X28510497Y-40419055D01*
X28510505Y-40419057D01*
X28696547Y-40440018D01*
X28789569Y-40450499D01*
X28789572Y-40450500D01*
X28789575Y-40450500D01*
X29070428Y-40450500D01*
X29070429Y-40450499D01*
X29213055Y-40434429D01*
X29349494Y-40419057D01*
X29349499Y-40419056D01*
X29349509Y-40419055D01*
X29623318Y-40356560D01*
X29888408Y-40263801D01*
X30141445Y-40141945D01*
X30379248Y-39992523D01*
X30598825Y-39817416D01*
X30797416Y-39618825D01*
X30972523Y-39399248D01*
X31121945Y-39161445D01*
X31243801Y-38908408D01*
X31336560Y-38643318D01*
X31399055Y-38369509D01*
X31404202Y-38323834D01*
X31421591Y-38169494D01*
X31430500Y-38090425D01*
X31430500Y-37809575D01*
X31402010Y-37556716D01*
X31399057Y-37530505D01*
X31399054Y-37530487D01*
X31380195Y-37447862D01*
X31353406Y-37330491D01*
X31336561Y-37256686D01*
X31336556Y-37256670D01*
X31327614Y-37231115D01*
X40239500Y-37231115D01*
X40239500Y-37468884D01*
X40265391Y-37632351D01*
X40276693Y-37703710D01*
X40350165Y-37929831D01*
X40458104Y-38141675D01*
X40597855Y-38334025D01*
X40765975Y-38502145D01*
X40958325Y-38641896D01*
X41170169Y-38749835D01*
X41396290Y-38823307D01*
X41484351Y-38837254D01*
X41631116Y-38860500D01*
X41631121Y-38860500D01*
X41868884Y-38860500D01*
X41999340Y-38839837D01*
X42103710Y-38823307D01*
X42329831Y-38749835D01*
X42541675Y-38641896D01*
X42734025Y-38502145D01*
X42902145Y-38334025D01*
X42919684Y-38309884D01*
X42975011Y-38267221D01*
X43044624Y-38261242D01*
X43106420Y-38293847D01*
X43120310Y-38309877D01*
X43137855Y-38334025D01*
X43305975Y-38502145D01*
X43498325Y-38641896D01*
X43710169Y-38749835D01*
X43936290Y-38823307D01*
X44024351Y-38837254D01*
X44171116Y-38860500D01*
X44171121Y-38860500D01*
X44408884Y-38860500D01*
X44539340Y-38839837D01*
X44643710Y-38823307D01*
X44869831Y-38749835D01*
X45081675Y-38641896D01*
X45274025Y-38502145D01*
X45442145Y-38334025D01*
X45581896Y-38141675D01*
X45689835Y-37929831D01*
X45763307Y-37703710D01*
X45790742Y-37530491D01*
X45800500Y-37468884D01*
X45800500Y-37231115D01*
X45763307Y-36996293D01*
X45763307Y-36996290D01*
X45689835Y-36770169D01*
X45581896Y-36558325D01*
X45442145Y-36365975D01*
X45274025Y-36197855D01*
X45081675Y-36058104D01*
X44869831Y-35950165D01*
X44643710Y-35876693D01*
X44643708Y-35876692D01*
X44643706Y-35876692D01*
X44408884Y-35839500D01*
X44408879Y-35839500D01*
X44171121Y-35839500D01*
X44171116Y-35839500D01*
X43936293Y-35876692D01*
X43710166Y-35950166D01*
X43498324Y-36058104D01*
X43464631Y-36082584D01*
X43305975Y-36197855D01*
X43305973Y-36197857D01*
X43305972Y-36197857D01*
X43137857Y-36365972D01*
X43137850Y-36365981D01*
X43120317Y-36390113D01*
X43064987Y-36432779D01*
X42995374Y-36438757D01*
X42933579Y-36406151D01*
X42919683Y-36390113D01*
X42902149Y-36365981D01*
X42902145Y-36365975D01*
X42734025Y-36197855D01*
X42541675Y-36058104D01*
X42329831Y-35950165D01*
X42103710Y-35876693D01*
X42103708Y-35876692D01*
X42103706Y-35876692D01*
X41868884Y-35839500D01*
X41868879Y-35839500D01*
X41631121Y-35839500D01*
X41631116Y-35839500D01*
X41396293Y-35876692D01*
X41170166Y-35950166D01*
X40958324Y-36058104D01*
X40924631Y-36082584D01*
X40765975Y-36197855D01*
X40765973Y-36197857D01*
X40765972Y-36197857D01*
X40597857Y-36365972D01*
X40597857Y-36365973D01*
X40597855Y-36365975D01*
X40559902Y-36418213D01*
X40458104Y-36558324D01*
X40350166Y-36770166D01*
X40276692Y-36996293D01*
X40239500Y-37231115D01*
X31327614Y-37231115D01*
X31308386Y-37176166D01*
X31243801Y-36991592D01*
X31121945Y-36738555D01*
X30972523Y-36500752D01*
X30797416Y-36281175D01*
X30598825Y-36082584D01*
X30379248Y-35907477D01*
X30141445Y-35758055D01*
X30141442Y-35758053D01*
X29888411Y-35636200D01*
X29646472Y-35551541D01*
X29589696Y-35510819D01*
X29563949Y-35445867D01*
X29577405Y-35377305D01*
X29625793Y-35326902D01*
X29687427Y-35310500D01*
X74320902Y-35310500D01*
X74387941Y-35330185D01*
X74433696Y-35382989D01*
X74443640Y-35452147D01*
X74414615Y-35515703D01*
X74408583Y-35522181D01*
X68456201Y-41474562D01*
X68394878Y-41508047D01*
X68344329Y-41508498D01*
X68198545Y-41479500D01*
X68198541Y-41479500D01*
X68001459Y-41479500D01*
X68001457Y-41479500D01*
X67808170Y-41517947D01*
X67808160Y-41517950D01*
X67626092Y-41593364D01*
X67626079Y-41593371D01*
X67462218Y-41702860D01*
X67462214Y-41702863D01*
X67322863Y-41842214D01*
X67322860Y-41842218D01*
X67213371Y-42006079D01*
X67213364Y-42006092D01*
X67137950Y-42188160D01*
X67137947Y-42188170D01*
X67099500Y-42381456D01*
X67099500Y-42381459D01*
X67099500Y-43578541D01*
X67099500Y-43578543D01*
X67099499Y-43578543D01*
X67137947Y-43771829D01*
X67137950Y-43771839D01*
X67213364Y-43953907D01*
X67213371Y-43953920D01*
X67322860Y-44117781D01*
X67322863Y-44117785D01*
X67462214Y-44257136D01*
X67462218Y-44257139D01*
X67626079Y-44366628D01*
X67626092Y-44366635D01*
X67780355Y-44430532D01*
X67808165Y-44442051D01*
X67808169Y-44442051D01*
X67808170Y-44442052D01*
X68001456Y-44480500D01*
X68001459Y-44480500D01*
X68198543Y-44480500D01*
X68328582Y-44454632D01*
X68391835Y-44442051D01*
X68573914Y-44366632D01*
X68737782Y-44257139D01*
X68877139Y-44117782D01*
X68986632Y-43953914D01*
X69062051Y-43771835D01*
X69077693Y-43693200D01*
X69100500Y-43578543D01*
X69100500Y-43193200D01*
X78917496Y-43193200D01*
X79785400Y-43193200D01*
X79785400Y-42543200D01*
X79696753Y-42543200D01*
X79522887Y-42577784D01*
X79522879Y-42577786D01*
X79359092Y-42645628D01*
X79359083Y-42645633D01*
X79211683Y-42744123D01*
X79211679Y-42744126D01*
X79086326Y-42869479D01*
X79086323Y-42869483D01*
X78987833Y-43016883D01*
X78987828Y-43016893D01*
X78919987Y-43180676D01*
X78919984Y-43180683D01*
X78917496Y-43193200D01*
X69100500Y-43193200D01*
X69100500Y-42580097D01*
X69120185Y-42513058D01*
X69136819Y-42492416D01*
X73829236Y-37800000D01*
X86382096Y-37800000D01*
X87250000Y-37800000D01*
X87250000Y-37150000D01*
X87161353Y-37150000D01*
X86987487Y-37184584D01*
X86987479Y-37184586D01*
X86823692Y-37252428D01*
X86823683Y-37252433D01*
X86676283Y-37350923D01*
X86676279Y-37350926D01*
X86550926Y-37476279D01*
X86550923Y-37476283D01*
X86452433Y-37623683D01*
X86452428Y-37623693D01*
X86384587Y-37787476D01*
X86384584Y-37787483D01*
X86382096Y-37800000D01*
X73829236Y-37800000D01*
X73883585Y-37745651D01*
X75442417Y-36186819D01*
X75503740Y-36153334D01*
X75530098Y-36150500D01*
X88649903Y-36150500D01*
X88716942Y-36170185D01*
X88737584Y-36186819D01*
X89413181Y-36862416D01*
X89446666Y-36923739D01*
X89449500Y-36950097D01*
X89449500Y-38949902D01*
X89429815Y-39016941D01*
X89413181Y-39037583D01*
X88837351Y-39613412D01*
X88776028Y-39646897D01*
X88706336Y-39641913D01*
X88650403Y-39600041D01*
X88625986Y-39534577D01*
X88628053Y-39501539D01*
X88650500Y-39388693D01*
X88650500Y-39211306D01*
X88650499Y-39211304D01*
X88615896Y-39037341D01*
X88615893Y-39037332D01*
X88548016Y-38873459D01*
X88548014Y-38873455D01*
X88548013Y-38873453D01*
X88461140Y-38743440D01*
X88440263Y-38676764D01*
X88458747Y-38609384D01*
X88461141Y-38605659D01*
X88547566Y-38476315D01*
X88547571Y-38476306D01*
X88615412Y-38312523D01*
X88615415Y-38312516D01*
X88617904Y-38300000D01*
X87549728Y-38300000D01*
X87641614Y-38261940D01*
X87711940Y-38191614D01*
X87750000Y-38099728D01*
X87750000Y-38000272D01*
X87711940Y-37908386D01*
X87641614Y-37838060D01*
X87549728Y-37800000D01*
X87750000Y-37800000D01*
X88617904Y-37800000D01*
X88615415Y-37787483D01*
X88615412Y-37787476D01*
X88547571Y-37623693D01*
X88547566Y-37623683D01*
X88449076Y-37476283D01*
X88449073Y-37476279D01*
X88323720Y-37350926D01*
X88323716Y-37350923D01*
X88176316Y-37252433D01*
X88176307Y-37252428D01*
X88012520Y-37184586D01*
X88012512Y-37184584D01*
X87838646Y-37150000D01*
X87750000Y-37150000D01*
X87750000Y-37800000D01*
X87549728Y-37800000D01*
X87450272Y-37800000D01*
X87358386Y-37838060D01*
X87288060Y-37908386D01*
X87250000Y-38000272D01*
X87250000Y-38099728D01*
X87288060Y-38191614D01*
X87358386Y-38261940D01*
X87450272Y-38300000D01*
X86382096Y-38300000D01*
X86384584Y-38312516D01*
X86384587Y-38312523D01*
X86452428Y-38476306D01*
X86452433Y-38476316D01*
X86538858Y-38605659D01*
X86559736Y-38672336D01*
X86541252Y-38739717D01*
X86538858Y-38743441D01*
X86451990Y-38873446D01*
X86451983Y-38873459D01*
X86384106Y-39037332D01*
X86384103Y-39037341D01*
X86349500Y-39211304D01*
X86349500Y-39388695D01*
X86384103Y-39562658D01*
X86384106Y-39562667D01*
X86451983Y-39726540D01*
X86451990Y-39726553D01*
X86538557Y-39856109D01*
X86559435Y-39922787D01*
X86540950Y-39990167D01*
X86538557Y-39993891D01*
X86451990Y-40123446D01*
X86451983Y-40123459D01*
X86384106Y-40287332D01*
X86384103Y-40287341D01*
X86349500Y-40461304D01*
X86349500Y-40638695D01*
X86384103Y-40812658D01*
X86384106Y-40812667D01*
X86451983Y-40976540D01*
X86451991Y-40976555D01*
X86490265Y-41033834D01*
X86511144Y-41100511D01*
X86493281Y-41166875D01*
X86406523Y-41310391D01*
X86355913Y-41472807D01*
X86349500Y-41543386D01*
X86349500Y-42056613D01*
X86355913Y-42127192D01*
X86406522Y-42289606D01*
X86494530Y-42435188D01*
X86614811Y-42555469D01*
X86614813Y-42555470D01*
X86614815Y-42555472D01*
X86760394Y-42643478D01*
X86922804Y-42694086D01*
X86993384Y-42700500D01*
X86993387Y-42700500D01*
X88006613Y-42700500D01*
X88006616Y-42700500D01*
X88077196Y-42694086D01*
X88239606Y-42643478D01*
X88385185Y-42555472D01*
X88427599Y-42513058D01*
X88503839Y-42436819D01*
X88565162Y-42403334D01*
X88591520Y-42400500D01*
X99999903Y-42400500D01*
X100066942Y-42420185D01*
X100087584Y-42436819D01*
X102563181Y-44912416D01*
X102596666Y-44973739D01*
X102599500Y-45000097D01*
X102599500Y-53049903D01*
X102579815Y-53116942D01*
X102563181Y-53137584D01*
X101876935Y-53823829D01*
X101815612Y-53857314D01*
X101745920Y-53852330D01*
X101689987Y-53810458D01*
X101670870Y-53773041D01*
X101666751Y-53759822D01*
X101611676Y-53668716D01*
X101579943Y-53616222D01*
X101579939Y-53616217D01*
X101461282Y-53497560D01*
X101461277Y-53497556D01*
X101317680Y-53410750D01*
X101317679Y-53410749D01*
X101317678Y-53410749D01*
X101157471Y-53360827D01*
X101157469Y-53360826D01*
X101157467Y-53360826D01*
X101108721Y-53356396D01*
X101087847Y-53354500D01*
X101087844Y-53354500D01*
X99452145Y-53354500D01*
X99382533Y-53360825D01*
X99382522Y-53360828D01*
X99222324Y-53410747D01*
X99222320Y-53410749D01*
X99078722Y-53497556D01*
X99078717Y-53497560D01*
X98960060Y-53616217D01*
X98960056Y-53616222D01*
X98873250Y-53759819D01*
X98823326Y-53920032D01*
X98817000Y-53989655D01*
X98817000Y-54990354D01*
X98823325Y-55059966D01*
X98823328Y-55059977D01*
X98873247Y-55220175D01*
X98873249Y-55220179D01*
X98960056Y-55363777D01*
X98960060Y-55363782D01*
X99078717Y-55482439D01*
X99078722Y-55482443D01*
X99199315Y-55555343D01*
X99222322Y-55569251D01*
X99382529Y-55619173D01*
X99452153Y-55625500D01*
X101087846Y-55625499D01*
X101087853Y-55625499D01*
X101136951Y-55621038D01*
X115091388Y-55621038D01*
X115091388Y-55687503D01*
X115091388Y-55878962D01*
X115116508Y-56037561D01*
X115131736Y-56133709D01*
X115211440Y-56379013D01*
X115328533Y-56608820D01*
X115480137Y-56817484D01*
X115662516Y-56999863D01*
X115871180Y-57151467D01*
X115959186Y-57196308D01*
X116100986Y-57268559D01*
X116100988Y-57268559D01*
X116100991Y-57268561D01*
X116346291Y-57348264D01*
X116601038Y-57388612D01*
X116601039Y-57388612D01*
X116858961Y-57388612D01*
X116858962Y-57388612D01*
X117113709Y-57348264D01*
X117359009Y-57268561D01*
X117588820Y-57151467D01*
X117797484Y-56999863D01*
X117979863Y-56817484D01*
X118131467Y-56608820D01*
X118248561Y-56379009D01*
X118328264Y-56133709D01*
X118368612Y-55878962D01*
X118368612Y-55621038D01*
X118328264Y-55366291D01*
X118248561Y-55120991D01*
X118248559Y-55120988D01*
X118248559Y-55120986D01*
X118181994Y-54990346D01*
X118131467Y-54891180D01*
X117979863Y-54682516D01*
X117797484Y-54500137D01*
X117588820Y-54348533D01*
X117359013Y-54231440D01*
X117113709Y-54151736D01*
X116858962Y-54111388D01*
X116601038Y-54111388D01*
X116473664Y-54131562D01*
X116346290Y-54151736D01*
X116100986Y-54231440D01*
X115871179Y-54348533D01*
X115752128Y-54435029D01*
X115662516Y-54500137D01*
X115662514Y-54500139D01*
X115662513Y-54500139D01*
X115480139Y-54682513D01*
X115480139Y-54682514D01*
X115480137Y-54682516D01*
X115415029Y-54772128D01*
X115328533Y-54891179D01*
X115211440Y-55120986D01*
X115147099Y-55319008D01*
X115131736Y-55366291D01*
X115091388Y-55621038D01*
X101136951Y-55621038D01*
X101157466Y-55619174D01*
X101157469Y-55619173D01*
X101157471Y-55619173D01*
X101317678Y-55569251D01*
X101357418Y-55545227D01*
X101415608Y-55510051D01*
X101415611Y-55510049D01*
X101461281Y-55482440D01*
X101461280Y-55482440D01*
X101461283Y-55482439D01*
X101579939Y-55363783D01*
X101666751Y-55220178D01*
X101680016Y-55177608D01*
X101694120Y-55156437D01*
X101704688Y-55133297D01*
X101713165Y-55127848D01*
X101718753Y-55119462D01*
X101742065Y-55109276D01*
X101763466Y-55095523D01*
X101778485Y-55093363D01*
X101782778Y-55091488D01*
X101798401Y-55090500D01*
X101973331Y-55090500D01*
X101973347Y-55090501D01*
X101980943Y-55090501D01*
X102139054Y-55090501D01*
X102139057Y-55090501D01*
X102291785Y-55049577D01*
X102341904Y-55020639D01*
X102428716Y-54970520D01*
X102540520Y-54858716D01*
X102540520Y-54858714D01*
X102550728Y-54848507D01*
X102550730Y-54848504D01*
X103608506Y-53790728D01*
X103608511Y-53790724D01*
X103618714Y-53780520D01*
X103618716Y-53780520D01*
X103730520Y-53668716D01*
X103809577Y-53531785D01*
X103850501Y-53379058D01*
X103850501Y-53220943D01*
X103809577Y-53068216D01*
X103809577Y-53068215D01*
X103809531Y-53068136D01*
X103805339Y-53053570D01*
X103805423Y-53037641D01*
X103800500Y-53019267D01*
X103800500Y-44620945D01*
X103800500Y-44620943D01*
X103759577Y-44468216D01*
X103737826Y-44430541D01*
X103680524Y-44331290D01*
X103680521Y-44331286D01*
X103680520Y-44331284D01*
X103568716Y-44219480D01*
X103568715Y-44219479D01*
X103564385Y-44215149D01*
X103564374Y-44215139D01*
X100787590Y-41438355D01*
X100787588Y-41438352D01*
X100668717Y-41319481D01*
X100668709Y-41319475D01*
X100547445Y-41249464D01*
X100547445Y-41249463D01*
X100547441Y-41249462D01*
X100531785Y-41240423D01*
X100379057Y-41199499D01*
X100220943Y-41199499D01*
X100213347Y-41199499D01*
X100213331Y-41199500D01*
X89249097Y-41199500D01*
X89182058Y-41179815D01*
X89136303Y-41127011D01*
X89126359Y-41057853D01*
X89155384Y-40994297D01*
X89161416Y-40987819D01*
X89730181Y-40419054D01*
X90530520Y-39618716D01*
X90609577Y-39481784D01*
X90650501Y-39329057D01*
X90650501Y-39170942D01*
X90650501Y-39163347D01*
X90650500Y-39163329D01*
X90650500Y-36739059D01*
X90650501Y-36739046D01*
X90650501Y-36570945D01*
X90650501Y-36570943D01*
X90609577Y-36418215D01*
X90578647Y-36364643D01*
X90530520Y-36281284D01*
X90418716Y-36169480D01*
X90418715Y-36169479D01*
X90414385Y-36165149D01*
X90414374Y-36165139D01*
X89771416Y-35522181D01*
X89737931Y-35460858D01*
X89742915Y-35391166D01*
X89784787Y-35335233D01*
X89850251Y-35310816D01*
X89859097Y-35310500D01*
X119429328Y-35310500D01*
X119496367Y-35330185D01*
X119542122Y-35382989D01*
X119552066Y-35452147D01*
X119523041Y-35515703D01*
X119483130Y-35546220D01*
X119458557Y-35558053D01*
X119220753Y-35707476D01*
X119001175Y-35882583D01*
X118802583Y-36081175D01*
X118627476Y-36300753D01*
X118478053Y-36538557D01*
X118356200Y-36791588D01*
X118263443Y-37056670D01*
X118263439Y-37056682D01*
X118200945Y-37330487D01*
X118200942Y-37330505D01*
X118169500Y-37609568D01*
X118169500Y-37890431D01*
X118200942Y-38169494D01*
X118200945Y-38169512D01*
X118263439Y-38443317D01*
X118263443Y-38443329D01*
X118356200Y-38708411D01*
X118478053Y-38961442D01*
X118478055Y-38961445D01*
X118627477Y-39199248D01*
X118758113Y-39363060D01*
X118778554Y-39388693D01*
X118802584Y-39418825D01*
X119001175Y-39617416D01*
X119220752Y-39792523D01*
X119458555Y-39941945D01*
X119711592Y-40063801D01*
X119882048Y-40123446D01*
X119976670Y-40156556D01*
X119976682Y-40156560D01*
X120250491Y-40219055D01*
X120250497Y-40219055D01*
X120250505Y-40219057D01*
X120436547Y-40240018D01*
X120529569Y-40250499D01*
X120529572Y-40250500D01*
X120529575Y-40250500D01*
X120810428Y-40250500D01*
X120810429Y-40250499D01*
X120953055Y-40234429D01*
X121089494Y-40219057D01*
X121089499Y-40219056D01*
X121089509Y-40219055D01*
X121363318Y-40156560D01*
X121628408Y-40063801D01*
X121881445Y-39941945D01*
X122119248Y-39792523D01*
X122338825Y-39617416D01*
X122537416Y-39418825D01*
X122712523Y-39199248D01*
X122861945Y-38961445D01*
X122983801Y-38708408D01*
X123076560Y-38443318D01*
X123139055Y-38169509D01*
X123146881Y-38100051D01*
X123152280Y-38052138D01*
X123179346Y-37987724D01*
X123236941Y-37948168D01*
X123306778Y-37946031D01*
X123366685Y-37981989D01*
X123397640Y-38044627D01*
X123399500Y-38066021D01*
X123399500Y-47032560D01*
X123379815Y-47099599D01*
X123327011Y-47145354D01*
X123257853Y-47155298D01*
X123194297Y-47126273D01*
X123175183Y-47105446D01*
X123137277Y-47053275D01*
X123137273Y-47053269D01*
X122956731Y-46872727D01*
X122750169Y-46722650D01*
X122730602Y-46712680D01*
X122522673Y-46606734D01*
X122522670Y-46606733D01*
X122279845Y-46527836D01*
X122153753Y-46507865D01*
X122027663Y-46487894D01*
X121772337Y-46487894D01*
X121688276Y-46501208D01*
X121520154Y-46527836D01*
X121277329Y-46606733D01*
X121277326Y-46606734D01*
X121049830Y-46722650D01*
X120931978Y-46808275D01*
X120843269Y-46872727D01*
X120843267Y-46872729D01*
X120843266Y-46872729D01*
X120662729Y-47053266D01*
X120662729Y-47053267D01*
X120662727Y-47053269D01*
X120662723Y-47053275D01*
X120512650Y-47259830D01*
X120396734Y-47487326D01*
X120396733Y-47487329D01*
X120317836Y-47730154D01*
X120283134Y-47949251D01*
X120277894Y-47982337D01*
X120277894Y-48049121D01*
X120277894Y-48237663D01*
X120284731Y-48280827D01*
X120317836Y-48489845D01*
X120396733Y-48732670D01*
X120396734Y-48732673D01*
X120465796Y-48868213D01*
X120512650Y-48960169D01*
X120662727Y-49166731D01*
X120843269Y-49347273D01*
X121049831Y-49497350D01*
X121079400Y-49512416D01*
X121277326Y-49613265D01*
X121277329Y-49613266D01*
X121398741Y-49652714D01*
X121520156Y-49692164D01*
X121772337Y-49732106D01*
X121772338Y-49732106D01*
X122027662Y-49732106D01*
X122027663Y-49732106D01*
X122279844Y-49692164D01*
X122522673Y-49613265D01*
X122750169Y-49497350D01*
X122956731Y-49347273D01*
X123137273Y-49166731D01*
X123175183Y-49114551D01*
X123230512Y-49071888D01*
X123300125Y-49065909D01*
X123361920Y-49098515D01*
X123396278Y-49159354D01*
X123399500Y-49187439D01*
X123399500Y-67114354D01*
X123379815Y-67181393D01*
X123327011Y-67227148D01*
X123257853Y-67237092D01*
X123194297Y-67208067D01*
X123156523Y-67149289D01*
X123154609Y-67141947D01*
X123146559Y-67106678D01*
X123146556Y-67106670D01*
X123118382Y-67026153D01*
X123053801Y-66841592D01*
X122931945Y-66588555D01*
X122782523Y-66350752D01*
X122607416Y-66131175D01*
X122408825Y-65932584D01*
X122189248Y-65757477D01*
X121951445Y-65608055D01*
X121951442Y-65608053D01*
X121698411Y-65486200D01*
X121433329Y-65393443D01*
X121433317Y-65393439D01*
X121159512Y-65330945D01*
X121159494Y-65330942D01*
X120880431Y-65299500D01*
X120880425Y-65299500D01*
X120599575Y-65299500D01*
X120599568Y-65299500D01*
X120320505Y-65330942D01*
X120320487Y-65330945D01*
X120046682Y-65393439D01*
X120046670Y-65393443D01*
X119781588Y-65486200D01*
X119528557Y-65608053D01*
X119290753Y-65757476D01*
X119071175Y-65932583D01*
X118872583Y-66131175D01*
X118697476Y-66350753D01*
X118548053Y-66588557D01*
X118426200Y-66841588D01*
X118333443Y-67106670D01*
X118333439Y-67106682D01*
X118270945Y-67380487D01*
X118270942Y-67380505D01*
X118239500Y-67659568D01*
X118239500Y-67940431D01*
X118270942Y-68219494D01*
X118270945Y-68219512D01*
X118333439Y-68493317D01*
X118333443Y-68493329D01*
X118426200Y-68758411D01*
X118548053Y-69011442D01*
X118548055Y-69011445D01*
X118697477Y-69249248D01*
X118872584Y-69468825D01*
X119071175Y-69667416D01*
X119290752Y-69842523D01*
X119528555Y-69991945D01*
X119781592Y-70113801D01*
X119922450Y-70163089D01*
X120019137Y-70196922D01*
X120075913Y-70237643D01*
X120101660Y-70302596D01*
X120088204Y-70371158D01*
X120039816Y-70421560D01*
X119978462Y-70437963D01*
X92689909Y-70499500D01*
X30116080Y-70499500D01*
X30049041Y-70479815D01*
X30003286Y-70427011D01*
X29993342Y-70357853D01*
X30022367Y-70294297D01*
X30062279Y-70263780D01*
X30211439Y-70191948D01*
X30211439Y-70191947D01*
X30211445Y-70191945D01*
X30449248Y-70042523D01*
X30668825Y-69867416D01*
X30867416Y-69668825D01*
X31042523Y-69449248D01*
X31191945Y-69211445D01*
X31313801Y-68958408D01*
X31406560Y-68693318D01*
X31469055Y-68419509D01*
X31474202Y-68373834D01*
X31500499Y-68140431D01*
X31500500Y-68140427D01*
X31500500Y-67859572D01*
X31500499Y-67859568D01*
X31469057Y-67580505D01*
X31469054Y-67580487D01*
X31406560Y-67306682D01*
X31406556Y-67306670D01*
X31378386Y-67226166D01*
X31313801Y-67041592D01*
X31191945Y-66788555D01*
X31042523Y-66550752D01*
X30867416Y-66331175D01*
X30668825Y-66132584D01*
X30449248Y-65957477D01*
X30211445Y-65808055D01*
X30211442Y-65808053D01*
X29958411Y-65686200D01*
X29693329Y-65593443D01*
X29693317Y-65593439D01*
X29419512Y-65530945D01*
X29419494Y-65530942D01*
X29140431Y-65499500D01*
X29140425Y-65499500D01*
X28859575Y-65499500D01*
X28859568Y-65499500D01*
X28580505Y-65530942D01*
X28580487Y-65530945D01*
X28306682Y-65593439D01*
X28306670Y-65593443D01*
X28041588Y-65686200D01*
X27788557Y-65808053D01*
X27550753Y-65957476D01*
X27331175Y-66132583D01*
X27132583Y-66331175D01*
X26957476Y-66550753D01*
X26808053Y-66788557D01*
X26686200Y-67041588D01*
X26593443Y-67306670D01*
X26593439Y-67306682D01*
X26530945Y-67580487D01*
X26530942Y-67580505D01*
X26499500Y-67859568D01*
X26499500Y-68140431D01*
X26530942Y-68419494D01*
X26530945Y-68419512D01*
X26593439Y-68693317D01*
X26593443Y-68693329D01*
X26686200Y-68958411D01*
X26808053Y-69211442D01*
X26808055Y-69211445D01*
X26957477Y-69449248D01*
X27132584Y-69668825D01*
X27331175Y-69867416D01*
X27550752Y-70042523D01*
X27788555Y-70191945D01*
X27788560Y-70191948D01*
X27937721Y-70263780D01*
X27989581Y-70310602D01*
X28007894Y-70378029D01*
X27986846Y-70444653D01*
X27933120Y-70489322D01*
X27883920Y-70499500D01*
X26124500Y-70499500D01*
X26057461Y-70479815D01*
X26011706Y-70427011D01*
X26000500Y-70375500D01*
X26000500Y-61595730D01*
X28999500Y-61595730D01*
X28999500Y-63804269D01*
X29002353Y-63834699D01*
X29002353Y-63834701D01*
X29047206Y-63962880D01*
X29047207Y-63962882D01*
X29127850Y-64072150D01*
X29237118Y-64152793D01*
X29263576Y-64162051D01*
X29365299Y-64197646D01*
X29395730Y-64200500D01*
X29395734Y-64200500D01*
X30604270Y-64200500D01*
X30634699Y-64197646D01*
X30634701Y-64197646D01*
X30698790Y-64175219D01*
X30762882Y-64152793D01*
X30872150Y-64072150D01*
X30952793Y-63962882D01*
X30981323Y-63881349D01*
X30997646Y-63834701D01*
X30997646Y-63834699D01*
X31000500Y-63804269D01*
X31000500Y-63298543D01*
X31539499Y-63298543D01*
X31577947Y-63491829D01*
X31577950Y-63491839D01*
X31653364Y-63673907D01*
X31653371Y-63673920D01*
X31762860Y-63837781D01*
X31762863Y-63837785D01*
X31902214Y-63977136D01*
X31902218Y-63977139D01*
X32066079Y-64086628D01*
X32066092Y-64086635D01*
X32225814Y-64152793D01*
X32248165Y-64162051D01*
X32248169Y-64162051D01*
X32248170Y-64162052D01*
X32441456Y-64200500D01*
X32441459Y-64200500D01*
X32638543Y-64200500D01*
X32768582Y-64174632D01*
X32831835Y-64162051D01*
X33013914Y-64086632D01*
X33177782Y-63977139D01*
X33317139Y-63837782D01*
X33426632Y-63673914D01*
X33502051Y-63491835D01*
X33534928Y-63326555D01*
X33540500Y-63298543D01*
X34079499Y-63298543D01*
X34117947Y-63491829D01*
X34117950Y-63491839D01*
X34193364Y-63673907D01*
X34193371Y-63673920D01*
X34302860Y-63837781D01*
X34302863Y-63837785D01*
X34442214Y-63977136D01*
X34442218Y-63977139D01*
X34606079Y-64086628D01*
X34606092Y-64086635D01*
X34765814Y-64152793D01*
X34788165Y-64162051D01*
X34788169Y-64162051D01*
X34788170Y-64162052D01*
X34981456Y-64200500D01*
X34981459Y-64200500D01*
X35178543Y-64200500D01*
X35308582Y-64174632D01*
X35371835Y-64162051D01*
X35553914Y-64086632D01*
X35717782Y-63977139D01*
X35857139Y-63837782D01*
X35966632Y-63673914D01*
X36042051Y-63491835D01*
X36078034Y-63310937D01*
X36110419Y-63249027D01*
X36171134Y-63214453D01*
X36240904Y-63218192D01*
X36297576Y-63259059D01*
X36322124Y-63315731D01*
X36352009Y-63504417D01*
X36415244Y-63699031D01*
X36508140Y-63881349D01*
X36628417Y-64046894D01*
X36628417Y-64046895D01*
X36773104Y-64191582D01*
X36938650Y-64311859D01*
X37120968Y-64404754D01*
X37315578Y-64467988D01*
X37370000Y-64476607D01*
X37370000Y-63433012D01*
X37427007Y-63465925D01*
X37554174Y-63500000D01*
X37685826Y-63500000D01*
X37812993Y-63465925D01*
X37870000Y-63433012D01*
X37870000Y-64476606D01*
X37924421Y-64467988D01*
X38119031Y-64404754D01*
X38301349Y-64311859D01*
X38466894Y-64191582D01*
X38466895Y-64191582D01*
X38611582Y-64046895D01*
X38611582Y-64046894D01*
X38731859Y-63881349D01*
X38824755Y-63699031D01*
X38887990Y-63504417D01*
X38917875Y-63315731D01*
X38947804Y-63252596D01*
X39007116Y-63215665D01*
X39076978Y-63216663D01*
X39135211Y-63255273D01*
X39161965Y-63310937D01*
X39197947Y-63491829D01*
X39197950Y-63491839D01*
X39273364Y-63673907D01*
X39273371Y-63673920D01*
X39382860Y-63837781D01*
X39382863Y-63837785D01*
X39522214Y-63977136D01*
X39522218Y-63977139D01*
X39686079Y-64086628D01*
X39686092Y-64086635D01*
X39845814Y-64152793D01*
X39868165Y-64162051D01*
X39868169Y-64162051D01*
X39868170Y-64162052D01*
X40061456Y-64200500D01*
X40061459Y-64200500D01*
X40258543Y-64200500D01*
X40388582Y-64174632D01*
X40451835Y-64162051D01*
X40633914Y-64086632D01*
X40797782Y-63977139D01*
X40937139Y-63837782D01*
X41046632Y-63673914D01*
X41122051Y-63491835D01*
X41154928Y-63326555D01*
X41160500Y-63298543D01*
X41699499Y-63298543D01*
X41737947Y-63491829D01*
X41737950Y-63491839D01*
X41813364Y-63673907D01*
X41813371Y-63673920D01*
X41922860Y-63837781D01*
X41922863Y-63837785D01*
X42062214Y-63977136D01*
X42062218Y-63977139D01*
X42226079Y-64086628D01*
X42226092Y-64086635D01*
X42385814Y-64152793D01*
X42408165Y-64162051D01*
X42408169Y-64162051D01*
X42408170Y-64162052D01*
X42601456Y-64200500D01*
X42601459Y-64200500D01*
X42798543Y-64200500D01*
X42928582Y-64174632D01*
X42991835Y-64162051D01*
X43173914Y-64086632D01*
X43337782Y-63977139D01*
X43477139Y-63837782D01*
X43586632Y-63673914D01*
X43662051Y-63491835D01*
X43694928Y-63326555D01*
X43700500Y-63298543D01*
X44239499Y-63298543D01*
X44277947Y-63491829D01*
X44277950Y-63491839D01*
X44353364Y-63673907D01*
X44353371Y-63673920D01*
X44462860Y-63837781D01*
X44462863Y-63837785D01*
X44602214Y-63977136D01*
X44602218Y-63977139D01*
X44766079Y-64086628D01*
X44766092Y-64086635D01*
X44925814Y-64152793D01*
X44948165Y-64162051D01*
X44948169Y-64162051D01*
X44948170Y-64162052D01*
X45141456Y-64200500D01*
X45141459Y-64200500D01*
X45338543Y-64200500D01*
X45468582Y-64174632D01*
X45531835Y-64162051D01*
X45713914Y-64086632D01*
X45877782Y-63977139D01*
X46017139Y-63837782D01*
X46126632Y-63673914D01*
X46202051Y-63491835D01*
X46234928Y-63326555D01*
X46240500Y-63298543D01*
X46779499Y-63298543D01*
X46817947Y-63491829D01*
X46817950Y-63491839D01*
X46893364Y-63673907D01*
X46893371Y-63673920D01*
X47002860Y-63837781D01*
X47002863Y-63837785D01*
X47142214Y-63977136D01*
X47142218Y-63977139D01*
X47306079Y-64086628D01*
X47306092Y-64086635D01*
X47465814Y-64152793D01*
X47488165Y-64162051D01*
X47488169Y-64162051D01*
X47488170Y-64162052D01*
X47681456Y-64200500D01*
X47681459Y-64200500D01*
X47878543Y-64200500D01*
X48008582Y-64174632D01*
X48071835Y-64162051D01*
X48253914Y-64086632D01*
X48417782Y-63977139D01*
X48557139Y-63837782D01*
X48666632Y-63673914D01*
X48742051Y-63491835D01*
X48774928Y-63326555D01*
X48780500Y-63298543D01*
X49319499Y-63298543D01*
X49357947Y-63491829D01*
X49357950Y-63491839D01*
X49433364Y-63673907D01*
X49433371Y-63673920D01*
X49542860Y-63837781D01*
X49542863Y-63837785D01*
X49682214Y-63977136D01*
X49682218Y-63977139D01*
X49846079Y-64086628D01*
X49846092Y-64086635D01*
X50005814Y-64152793D01*
X50028165Y-64162051D01*
X50028169Y-64162051D01*
X50028170Y-64162052D01*
X50221456Y-64200500D01*
X50221459Y-64200500D01*
X50418543Y-64200500D01*
X50548582Y-64174632D01*
X50611835Y-64162051D01*
X50793914Y-64086632D01*
X50957782Y-63977139D01*
X51097139Y-63837782D01*
X51206632Y-63673914D01*
X51282051Y-63491835D01*
X51314928Y-63326555D01*
X51320500Y-63298543D01*
X51859499Y-63298543D01*
X51897947Y-63491829D01*
X51897950Y-63491839D01*
X51973364Y-63673907D01*
X51973371Y-63673920D01*
X52082860Y-63837781D01*
X52082863Y-63837785D01*
X52222214Y-63977136D01*
X52222218Y-63977139D01*
X52386079Y-64086628D01*
X52386092Y-64086635D01*
X52545814Y-64152793D01*
X52568165Y-64162051D01*
X52568169Y-64162051D01*
X52568170Y-64162052D01*
X52761456Y-64200500D01*
X52761459Y-64200500D01*
X52958543Y-64200500D01*
X53088582Y-64174632D01*
X53151835Y-64162051D01*
X53333914Y-64086632D01*
X53497782Y-63977139D01*
X53637139Y-63837782D01*
X53746632Y-63673914D01*
X53822051Y-63491835D01*
X53854928Y-63326555D01*
X53860500Y-63298543D01*
X54399499Y-63298543D01*
X54437947Y-63491829D01*
X54437950Y-63491839D01*
X54513364Y-63673907D01*
X54513371Y-63673920D01*
X54622860Y-63837781D01*
X54622863Y-63837785D01*
X54762214Y-63977136D01*
X54762218Y-63977139D01*
X54926079Y-64086628D01*
X54926092Y-64086635D01*
X55085814Y-64152793D01*
X55108165Y-64162051D01*
X55108169Y-64162051D01*
X55108170Y-64162052D01*
X55301456Y-64200500D01*
X55301459Y-64200500D01*
X55498543Y-64200500D01*
X55628582Y-64174632D01*
X55691835Y-64162051D01*
X55873914Y-64086632D01*
X56037782Y-63977139D01*
X56177139Y-63837782D01*
X56286632Y-63673914D01*
X56362051Y-63491835D01*
X56394928Y-63326555D01*
X56400500Y-63298543D01*
X56939499Y-63298543D01*
X56977947Y-63491829D01*
X56977950Y-63491839D01*
X57053364Y-63673907D01*
X57053371Y-63673920D01*
X57162860Y-63837781D01*
X57162863Y-63837785D01*
X57302214Y-63977136D01*
X57302218Y-63977139D01*
X57466079Y-64086628D01*
X57466092Y-64086635D01*
X57625814Y-64152793D01*
X57648165Y-64162051D01*
X57648169Y-64162051D01*
X57648170Y-64162052D01*
X57841456Y-64200500D01*
X57841459Y-64200500D01*
X58038543Y-64200500D01*
X58168582Y-64174632D01*
X58231835Y-64162051D01*
X58413914Y-64086632D01*
X58577782Y-63977139D01*
X58717139Y-63837782D01*
X58826632Y-63673914D01*
X58902051Y-63491835D01*
X58934928Y-63326555D01*
X58940500Y-63298543D01*
X59479499Y-63298543D01*
X59517947Y-63491829D01*
X59517950Y-63491839D01*
X59593364Y-63673907D01*
X59593371Y-63673920D01*
X59702860Y-63837781D01*
X59702863Y-63837785D01*
X59842214Y-63977136D01*
X59842218Y-63977139D01*
X60006079Y-64086628D01*
X60006092Y-64086635D01*
X60165814Y-64152793D01*
X60188165Y-64162051D01*
X60188169Y-64162051D01*
X60188170Y-64162052D01*
X60381456Y-64200500D01*
X60381459Y-64200500D01*
X60578543Y-64200500D01*
X60708582Y-64174632D01*
X60771835Y-64162051D01*
X60953914Y-64086632D01*
X61117782Y-63977139D01*
X61257139Y-63837782D01*
X61366632Y-63673914D01*
X61442051Y-63491835D01*
X61474928Y-63326555D01*
X61480500Y-63298543D01*
X62019499Y-63298543D01*
X62057947Y-63491829D01*
X62057950Y-63491839D01*
X62133364Y-63673907D01*
X62133371Y-63673920D01*
X62242860Y-63837781D01*
X62242863Y-63837785D01*
X62382214Y-63977136D01*
X62382218Y-63977139D01*
X62546079Y-64086628D01*
X62546092Y-64086635D01*
X62705814Y-64152793D01*
X62728165Y-64162051D01*
X62728169Y-64162051D01*
X62728170Y-64162052D01*
X62921456Y-64200500D01*
X62921459Y-64200500D01*
X63118543Y-64200500D01*
X63248582Y-64174632D01*
X63311835Y-64162051D01*
X63493914Y-64086632D01*
X63657782Y-63977139D01*
X63797139Y-63837782D01*
X63906632Y-63673914D01*
X63982051Y-63491835D01*
X64014928Y-63326555D01*
X64020500Y-63298543D01*
X64559499Y-63298543D01*
X64597947Y-63491829D01*
X64597950Y-63491839D01*
X64673364Y-63673907D01*
X64673371Y-63673920D01*
X64782860Y-63837781D01*
X64782863Y-63837785D01*
X64922214Y-63977136D01*
X64922218Y-63977139D01*
X65086079Y-64086628D01*
X65086092Y-64086635D01*
X65245814Y-64152793D01*
X65268165Y-64162051D01*
X65268169Y-64162051D01*
X65268170Y-64162052D01*
X65461456Y-64200500D01*
X65461459Y-64200500D01*
X65658543Y-64200500D01*
X65788582Y-64174632D01*
X65851835Y-64162051D01*
X66033914Y-64086632D01*
X66197782Y-63977139D01*
X66337139Y-63837782D01*
X66446632Y-63673914D01*
X66522051Y-63491835D01*
X66554928Y-63326555D01*
X66560500Y-63298543D01*
X67099499Y-63298543D01*
X67137947Y-63491829D01*
X67137950Y-63491839D01*
X67213364Y-63673907D01*
X67213371Y-63673920D01*
X67322860Y-63837781D01*
X67322863Y-63837785D01*
X67462214Y-63977136D01*
X67462218Y-63977139D01*
X67626079Y-64086628D01*
X67626092Y-64086635D01*
X67785814Y-64152793D01*
X67808165Y-64162051D01*
X67808169Y-64162051D01*
X67808170Y-64162052D01*
X68001456Y-64200500D01*
X68001459Y-64200500D01*
X68198543Y-64200500D01*
X68328582Y-64174632D01*
X68391835Y-64162051D01*
X68573914Y-64086632D01*
X68737782Y-63977139D01*
X68877139Y-63837782D01*
X68986632Y-63673914D01*
X69062051Y-63491835D01*
X69094928Y-63326555D01*
X69100500Y-63298543D01*
X69100500Y-62101456D01*
X69062052Y-61908170D01*
X69062051Y-61908169D01*
X69062051Y-61908165D01*
X68991854Y-61738693D01*
X68986635Y-61726092D01*
X68986628Y-61726079D01*
X68918493Y-61624108D01*
X68877139Y-61562218D01*
X68877136Y-61562214D01*
X68876226Y-61561304D01*
X86399500Y-61561304D01*
X86399500Y-61738695D01*
X86434103Y-61912658D01*
X86434106Y-61912667D01*
X86501983Y-62076540D01*
X86501990Y-62076553D01*
X86588557Y-62206109D01*
X86609435Y-62272787D01*
X86590950Y-62340167D01*
X86588557Y-62343891D01*
X86501990Y-62473446D01*
X86501983Y-62473459D01*
X86434106Y-62637332D01*
X86434103Y-62637341D01*
X86399500Y-62811304D01*
X86399500Y-62988695D01*
X86434103Y-63162658D01*
X86434106Y-63162667D01*
X86501983Y-63326540D01*
X86501991Y-63326555D01*
X86540265Y-63383834D01*
X86561144Y-63450511D01*
X86543281Y-63516875D01*
X86456523Y-63660391D01*
X86405913Y-63822807D01*
X86399500Y-63893386D01*
X86399500Y-64406613D01*
X86405913Y-64477192D01*
X86456522Y-64639606D01*
X86544530Y-64785188D01*
X86664811Y-64905469D01*
X86664813Y-64905470D01*
X86664815Y-64905472D01*
X86810394Y-64993478D01*
X86972804Y-65044086D01*
X87043384Y-65050500D01*
X87043387Y-65050500D01*
X88056613Y-65050500D01*
X88056616Y-65050500D01*
X88127196Y-65044086D01*
X88289606Y-64993478D01*
X88435185Y-64905472D01*
X88555472Y-64785185D01*
X88643478Y-64639606D01*
X88694086Y-64477196D01*
X88700500Y-64406616D01*
X88700500Y-63893384D01*
X88694086Y-63822804D01*
X88643478Y-63660394D01*
X88556716Y-63516873D01*
X88538881Y-63449322D01*
X88559731Y-63383839D01*
X88598013Y-63326547D01*
X88665894Y-63162666D01*
X88700500Y-62988691D01*
X88700500Y-62811309D01*
X88700500Y-62811306D01*
X88700499Y-62811304D01*
X88665896Y-62637341D01*
X88665893Y-62637332D01*
X88598016Y-62473459D01*
X88598014Y-62473455D01*
X88598013Y-62473453D01*
X88511442Y-62343891D01*
X88490564Y-62277214D01*
X88509048Y-62209834D01*
X88511442Y-62206109D01*
X88552457Y-62144726D01*
X88598013Y-62076547D01*
X88665894Y-61912666D01*
X88666789Y-61908170D01*
X88700499Y-61738695D01*
X88700500Y-61738693D01*
X88700500Y-61561306D01*
X88700499Y-61561304D01*
X88665896Y-61387341D01*
X88665893Y-61387332D01*
X88598016Y-61223459D01*
X88598014Y-61223455D01*
X88598013Y-61223453D01*
X88511140Y-61093440D01*
X88490263Y-61026764D01*
X88508747Y-60959384D01*
X88511141Y-60955659D01*
X88597566Y-60826315D01*
X88597571Y-60826306D01*
X88665412Y-60662523D01*
X88665415Y-60662516D01*
X88667904Y-60650000D01*
X87599728Y-60650000D01*
X87691614Y-60611940D01*
X87761940Y-60541614D01*
X87800000Y-60449728D01*
X87800000Y-60350272D01*
X87761940Y-60258386D01*
X87691614Y-60188060D01*
X87599728Y-60150000D01*
X87800000Y-60150000D01*
X88667904Y-60150000D01*
X88665415Y-60137483D01*
X88665412Y-60137476D01*
X88597571Y-59973693D01*
X88597566Y-59973683D01*
X88499076Y-59826283D01*
X88499073Y-59826279D01*
X88373720Y-59700926D01*
X88373716Y-59700923D01*
X88226316Y-59602433D01*
X88226307Y-59602428D01*
X88062520Y-59534586D01*
X88062512Y-59534584D01*
X87888646Y-59500000D01*
X87800000Y-59500000D01*
X87800000Y-60150000D01*
X87599728Y-60150000D01*
X87500272Y-60150000D01*
X87408386Y-60188060D01*
X87338060Y-60258386D01*
X87300000Y-60350272D01*
X87300000Y-60449728D01*
X87338060Y-60541614D01*
X87408386Y-60611940D01*
X87500272Y-60650000D01*
X86432096Y-60650000D01*
X86434584Y-60662516D01*
X86434587Y-60662523D01*
X86502428Y-60826306D01*
X86502433Y-60826316D01*
X86588858Y-60955659D01*
X86609736Y-61022336D01*
X86591252Y-61089717D01*
X86588858Y-61093441D01*
X86501990Y-61223446D01*
X86501983Y-61223459D01*
X86434106Y-61387332D01*
X86434103Y-61387341D01*
X86399500Y-61561304D01*
X68876226Y-61561304D01*
X68737785Y-61422863D01*
X68737781Y-61422860D01*
X68573920Y-61313371D01*
X68573907Y-61313364D01*
X68391839Y-61237950D01*
X68391829Y-61237947D01*
X68198543Y-61199500D01*
X68198541Y-61199500D01*
X68001459Y-61199500D01*
X68001457Y-61199500D01*
X67808170Y-61237947D01*
X67808160Y-61237950D01*
X67626092Y-61313364D01*
X67626079Y-61313371D01*
X67462218Y-61422860D01*
X67462214Y-61422863D01*
X67322863Y-61562214D01*
X67322860Y-61562218D01*
X67213371Y-61726079D01*
X67213364Y-61726092D01*
X67137950Y-61908160D01*
X67137947Y-61908170D01*
X67099500Y-62101456D01*
X67099500Y-62101459D01*
X67099500Y-63298541D01*
X67099500Y-63298543D01*
X67099499Y-63298543D01*
X66560500Y-63298543D01*
X66560500Y-62101456D01*
X66522052Y-61908170D01*
X66522051Y-61908169D01*
X66522051Y-61908165D01*
X66451854Y-61738693D01*
X66446635Y-61726092D01*
X66446628Y-61726079D01*
X66337139Y-61562218D01*
X66337136Y-61562214D01*
X66197785Y-61422863D01*
X66197781Y-61422860D01*
X66033920Y-61313371D01*
X66033907Y-61313364D01*
X65851839Y-61237950D01*
X65851829Y-61237947D01*
X65658543Y-61199500D01*
X65658541Y-61199500D01*
X65461459Y-61199500D01*
X65461457Y-61199500D01*
X65268170Y-61237947D01*
X65268160Y-61237950D01*
X65086092Y-61313364D01*
X65086079Y-61313371D01*
X64922218Y-61422860D01*
X64922214Y-61422863D01*
X64782863Y-61562214D01*
X64782860Y-61562218D01*
X64673371Y-61726079D01*
X64673364Y-61726092D01*
X64597950Y-61908160D01*
X64597947Y-61908170D01*
X64559500Y-62101456D01*
X64559500Y-62101459D01*
X64559500Y-63298541D01*
X64559500Y-63298543D01*
X64559499Y-63298543D01*
X64020500Y-63298543D01*
X64020500Y-62101456D01*
X63982052Y-61908170D01*
X63982051Y-61908169D01*
X63982051Y-61908165D01*
X63911854Y-61738693D01*
X63906635Y-61726092D01*
X63906628Y-61726079D01*
X63797139Y-61562218D01*
X63797136Y-61562214D01*
X63657785Y-61422863D01*
X63657781Y-61422860D01*
X63493920Y-61313371D01*
X63493907Y-61313364D01*
X63311839Y-61237950D01*
X63311829Y-61237947D01*
X63118543Y-61199500D01*
X63118541Y-61199500D01*
X62921459Y-61199500D01*
X62921457Y-61199500D01*
X62728170Y-61237947D01*
X62728160Y-61237950D01*
X62546092Y-61313364D01*
X62546079Y-61313371D01*
X62382218Y-61422860D01*
X62382214Y-61422863D01*
X62242863Y-61562214D01*
X62242860Y-61562218D01*
X62133371Y-61726079D01*
X62133364Y-61726092D01*
X62057950Y-61908160D01*
X62057947Y-61908170D01*
X62019500Y-62101456D01*
X62019500Y-62101459D01*
X62019500Y-63298541D01*
X62019500Y-63298543D01*
X62019499Y-63298543D01*
X61480500Y-63298543D01*
X61480500Y-62101456D01*
X61442052Y-61908170D01*
X61442051Y-61908169D01*
X61442051Y-61908165D01*
X61371854Y-61738693D01*
X61366635Y-61726092D01*
X61366628Y-61726079D01*
X61257139Y-61562218D01*
X61257136Y-61562214D01*
X61117785Y-61422863D01*
X61117781Y-61422860D01*
X60953920Y-61313371D01*
X60953907Y-61313364D01*
X60771839Y-61237950D01*
X60771829Y-61237947D01*
X60578543Y-61199500D01*
X60578541Y-61199500D01*
X60381459Y-61199500D01*
X60381457Y-61199500D01*
X60188170Y-61237947D01*
X60188160Y-61237950D01*
X60006092Y-61313364D01*
X60006079Y-61313371D01*
X59842218Y-61422860D01*
X59842214Y-61422863D01*
X59702863Y-61562214D01*
X59702860Y-61562218D01*
X59593371Y-61726079D01*
X59593364Y-61726092D01*
X59517950Y-61908160D01*
X59517947Y-61908170D01*
X59479500Y-62101456D01*
X59479500Y-62101459D01*
X59479500Y-63298541D01*
X59479500Y-63298543D01*
X59479499Y-63298543D01*
X58940500Y-63298543D01*
X58940500Y-62101456D01*
X58902052Y-61908170D01*
X58902051Y-61908169D01*
X58902051Y-61908165D01*
X58831854Y-61738693D01*
X58826635Y-61726092D01*
X58826628Y-61726079D01*
X58717139Y-61562218D01*
X58717136Y-61562214D01*
X58577785Y-61422863D01*
X58577781Y-61422860D01*
X58413920Y-61313371D01*
X58413907Y-61313364D01*
X58231839Y-61237950D01*
X58231829Y-61237947D01*
X58038543Y-61199500D01*
X58038541Y-61199500D01*
X57841459Y-61199500D01*
X57841457Y-61199500D01*
X57648170Y-61237947D01*
X57648160Y-61237950D01*
X57466092Y-61313364D01*
X57466079Y-61313371D01*
X57302218Y-61422860D01*
X57302214Y-61422863D01*
X57162863Y-61562214D01*
X57162860Y-61562218D01*
X57053371Y-61726079D01*
X57053364Y-61726092D01*
X56977950Y-61908160D01*
X56977947Y-61908170D01*
X56939500Y-62101456D01*
X56939500Y-62101459D01*
X56939500Y-63298541D01*
X56939500Y-63298543D01*
X56939499Y-63298543D01*
X56400500Y-63298543D01*
X56400500Y-62101456D01*
X56362052Y-61908170D01*
X56362051Y-61908169D01*
X56362051Y-61908165D01*
X56291854Y-61738693D01*
X56286635Y-61726092D01*
X56286628Y-61726079D01*
X56177139Y-61562218D01*
X56177136Y-61562214D01*
X56037785Y-61422863D01*
X56037781Y-61422860D01*
X55873920Y-61313371D01*
X55873907Y-61313364D01*
X55691839Y-61237950D01*
X55691829Y-61237947D01*
X55498543Y-61199500D01*
X55498541Y-61199500D01*
X55301459Y-61199500D01*
X55301457Y-61199500D01*
X55108170Y-61237947D01*
X55108160Y-61237950D01*
X54926092Y-61313364D01*
X54926079Y-61313371D01*
X54762218Y-61422860D01*
X54762214Y-61422863D01*
X54622863Y-61562214D01*
X54622860Y-61562218D01*
X54513371Y-61726079D01*
X54513364Y-61726092D01*
X54437950Y-61908160D01*
X54437947Y-61908170D01*
X54399500Y-62101456D01*
X54399500Y-62101459D01*
X54399500Y-63298541D01*
X54399500Y-63298543D01*
X54399499Y-63298543D01*
X53860500Y-63298543D01*
X53860500Y-62101456D01*
X53822052Y-61908170D01*
X53822051Y-61908169D01*
X53822051Y-61908165D01*
X53751854Y-61738693D01*
X53746635Y-61726092D01*
X53746628Y-61726079D01*
X53637139Y-61562218D01*
X53637136Y-61562214D01*
X53497785Y-61422863D01*
X53497781Y-61422860D01*
X53333920Y-61313371D01*
X53333907Y-61313364D01*
X53151839Y-61237950D01*
X53151829Y-61237947D01*
X52958543Y-61199500D01*
X52958541Y-61199500D01*
X52761459Y-61199500D01*
X52761457Y-61199500D01*
X52568170Y-61237947D01*
X52568160Y-61237950D01*
X52386092Y-61313364D01*
X52386079Y-61313371D01*
X52222218Y-61422860D01*
X52222214Y-61422863D01*
X52082863Y-61562214D01*
X52082860Y-61562218D01*
X51973371Y-61726079D01*
X51973364Y-61726092D01*
X51897950Y-61908160D01*
X51897947Y-61908170D01*
X51859500Y-62101456D01*
X51859500Y-62101459D01*
X51859500Y-63298541D01*
X51859500Y-63298543D01*
X51859499Y-63298543D01*
X51320500Y-63298543D01*
X51320500Y-62101456D01*
X51282052Y-61908170D01*
X51282051Y-61908169D01*
X51282051Y-61908165D01*
X51211854Y-61738693D01*
X51206635Y-61726092D01*
X51206628Y-61726079D01*
X51097139Y-61562218D01*
X51097136Y-61562214D01*
X50957785Y-61422863D01*
X50957781Y-61422860D01*
X50793920Y-61313371D01*
X50793907Y-61313364D01*
X50611839Y-61237950D01*
X50611829Y-61237947D01*
X50418543Y-61199500D01*
X50418541Y-61199500D01*
X50221459Y-61199500D01*
X50221457Y-61199500D01*
X50028170Y-61237947D01*
X50028160Y-61237950D01*
X49846092Y-61313364D01*
X49846079Y-61313371D01*
X49682218Y-61422860D01*
X49682214Y-61422863D01*
X49542863Y-61562214D01*
X49542860Y-61562218D01*
X49433371Y-61726079D01*
X49433364Y-61726092D01*
X49357950Y-61908160D01*
X49357947Y-61908170D01*
X49319500Y-62101456D01*
X49319500Y-62101459D01*
X49319500Y-63298541D01*
X49319500Y-63298543D01*
X49319499Y-63298543D01*
X48780500Y-63298543D01*
X48780500Y-62101456D01*
X48742052Y-61908170D01*
X48742051Y-61908169D01*
X48742051Y-61908165D01*
X48671854Y-61738693D01*
X48666635Y-61726092D01*
X48666628Y-61726079D01*
X48557139Y-61562218D01*
X48557136Y-61562214D01*
X48417785Y-61422863D01*
X48417781Y-61422860D01*
X48253920Y-61313371D01*
X48253907Y-61313364D01*
X48071839Y-61237950D01*
X48071829Y-61237947D01*
X47878543Y-61199500D01*
X47878541Y-61199500D01*
X47681459Y-61199500D01*
X47681457Y-61199500D01*
X47488170Y-61237947D01*
X47488160Y-61237950D01*
X47306092Y-61313364D01*
X47306079Y-61313371D01*
X47142218Y-61422860D01*
X47142214Y-61422863D01*
X47002863Y-61562214D01*
X47002860Y-61562218D01*
X46893371Y-61726079D01*
X46893364Y-61726092D01*
X46817950Y-61908160D01*
X46817947Y-61908170D01*
X46779500Y-62101456D01*
X46779500Y-62101459D01*
X46779500Y-63298541D01*
X46779500Y-63298543D01*
X46779499Y-63298543D01*
X46240500Y-63298543D01*
X46240500Y-62101456D01*
X46202052Y-61908170D01*
X46202051Y-61908169D01*
X46202051Y-61908165D01*
X46131854Y-61738693D01*
X46126635Y-61726092D01*
X46126628Y-61726079D01*
X46017139Y-61562218D01*
X46017136Y-61562214D01*
X45908909Y-61453987D01*
X45875424Y-61392664D01*
X45880408Y-61322972D01*
X45908907Y-61278627D01*
X47037534Y-60150000D01*
X86432096Y-60150000D01*
X87300000Y-60150000D01*
X87300000Y-59500000D01*
X87211353Y-59500000D01*
X87037487Y-59534584D01*
X87037479Y-59534586D01*
X86873692Y-59602428D01*
X86873683Y-59602433D01*
X86726283Y-59700923D01*
X86726279Y-59700926D01*
X86600926Y-59826279D01*
X86600923Y-59826283D01*
X86502433Y-59973683D01*
X86502428Y-59973693D01*
X86434587Y-60137476D01*
X86434584Y-60137483D01*
X86432096Y-60150000D01*
X47037534Y-60150000D01*
X52450717Y-54736819D01*
X52512040Y-54703334D01*
X52538398Y-54700500D01*
X78119903Y-54700500D01*
X78186942Y-54720185D01*
X78207584Y-54736819D01*
X78677901Y-55207136D01*
X78711386Y-55268459D01*
X78711837Y-55319008D01*
X78689500Y-55431304D01*
X78689500Y-55608695D01*
X78724103Y-55782658D01*
X78724106Y-55782667D01*
X78791983Y-55946540D01*
X78791990Y-55946552D01*
X78878858Y-56076558D01*
X78899736Y-56143235D01*
X78881252Y-56210615D01*
X78878858Y-56214340D01*
X78792433Y-56343683D01*
X78792428Y-56343693D01*
X78724587Y-56507476D01*
X78724584Y-56507483D01*
X78722096Y-56520000D01*
X79790272Y-56520000D01*
X79698386Y-56558060D01*
X79628060Y-56628386D01*
X79590000Y-56720272D01*
X79590000Y-56819728D01*
X79628060Y-56911614D01*
X79698386Y-56981940D01*
X79790272Y-57020000D01*
X78722096Y-57020000D01*
X78724584Y-57032516D01*
X78724587Y-57032523D01*
X78792429Y-57196308D01*
X78830552Y-57253364D01*
X78851429Y-57320042D01*
X78833566Y-57386403D01*
X78746523Y-57530391D01*
X78695913Y-57692807D01*
X78689500Y-57763386D01*
X78689500Y-58276613D01*
X78695913Y-58347192D01*
X78746522Y-58509606D01*
X78834530Y-58655188D01*
X78954811Y-58775469D01*
X78954813Y-58775470D01*
X78954815Y-58775472D01*
X79100394Y-58863478D01*
X79262804Y-58914086D01*
X79333384Y-58920500D01*
X79333387Y-58920500D01*
X80346613Y-58920500D01*
X80346616Y-58920500D01*
X80417196Y-58914086D01*
X80579606Y-58863478D01*
X80725185Y-58775472D01*
X80845472Y-58655185D01*
X80933478Y-58509606D01*
X80984086Y-58347196D01*
X80990500Y-58276616D01*
X80990500Y-57763384D01*
X80984086Y-57692804D01*
X80933478Y-57530394D01*
X80846431Y-57386402D01*
X80828596Y-57318850D01*
X80849448Y-57253362D01*
X80887570Y-57196308D01*
X80955412Y-57032523D01*
X80955415Y-57032516D01*
X80957904Y-57020000D01*
X79889728Y-57020000D01*
X79981614Y-56981940D01*
X80051940Y-56911614D01*
X80090000Y-56819728D01*
X80090000Y-56720272D01*
X80051940Y-56628386D01*
X79981614Y-56558060D01*
X79913037Y-56529655D01*
X98817000Y-56529655D01*
X98817000Y-57530354D01*
X98823325Y-57599966D01*
X98823328Y-57599977D01*
X98873247Y-57760175D01*
X98873249Y-57760179D01*
X98960056Y-57903777D01*
X98960060Y-57903782D01*
X99078717Y-58022439D01*
X99078722Y-58022443D01*
X99199315Y-58095343D01*
X99222322Y-58109251D01*
X99382529Y-58159173D01*
X99452153Y-58165500D01*
X101087846Y-58165499D01*
X101087853Y-58165499D01*
X101157466Y-58159174D01*
X101157469Y-58159173D01*
X101157471Y-58159173D01*
X101317678Y-58109251D01*
X101391589Y-58064570D01*
X101461277Y-58022443D01*
X101461278Y-58022441D01*
X101461283Y-58022439D01*
X101579939Y-57903783D01*
X101666751Y-57760178D01*
X101716673Y-57599971D01*
X101723000Y-57530347D01*
X101722999Y-56529654D01*
X101722999Y-56529653D01*
X101722999Y-56529645D01*
X101716674Y-56460033D01*
X101716671Y-56460022D01*
X101666752Y-56299824D01*
X101666750Y-56299820D01*
X101579943Y-56156222D01*
X101579939Y-56156217D01*
X101461282Y-56037560D01*
X101461277Y-56037556D01*
X101317680Y-55950750D01*
X101317679Y-55950749D01*
X101317678Y-55950749D01*
X101157471Y-55900827D01*
X101157469Y-55900826D01*
X101157467Y-55900826D01*
X101108721Y-55896396D01*
X101087847Y-55894500D01*
X101087844Y-55894500D01*
X99452145Y-55894500D01*
X99382533Y-55900825D01*
X99382522Y-55900828D01*
X99222324Y-55950747D01*
X99222320Y-55950749D01*
X99078722Y-56037556D01*
X99078717Y-56037560D01*
X98960060Y-56156217D01*
X98960056Y-56156222D01*
X98873250Y-56299819D01*
X98823326Y-56460032D01*
X98817000Y-56529655D01*
X79913037Y-56529655D01*
X79889728Y-56520000D01*
X80957904Y-56520000D01*
X80955415Y-56507483D01*
X80955412Y-56507476D01*
X80887571Y-56343693D01*
X80887566Y-56343683D01*
X80801141Y-56214340D01*
X80780263Y-56147663D01*
X80798747Y-56080283D01*
X80801129Y-56076576D01*
X80885205Y-55950750D01*
X80888008Y-55946555D01*
X80888009Y-55946552D01*
X80888013Y-55946547D01*
X80955894Y-55782666D01*
X80990500Y-55608691D01*
X80990500Y-55431309D01*
X80990500Y-55431306D01*
X80990499Y-55431304D01*
X80955896Y-55257341D01*
X80955893Y-55257332D01*
X80888016Y-55093459D01*
X80888009Y-55093446D01*
X80789464Y-54945965D01*
X80789461Y-54945961D01*
X80664038Y-54820538D01*
X80664034Y-54820535D01*
X80516553Y-54721990D01*
X80516540Y-54721983D01*
X80352667Y-54654106D01*
X80352658Y-54654103D01*
X80178694Y-54619500D01*
X80178691Y-54619500D01*
X79840097Y-54619500D01*
X79773058Y-54599815D01*
X79752416Y-54583181D01*
X78907590Y-53738355D01*
X78907588Y-53738352D01*
X78788717Y-53619481D01*
X78788716Y-53619480D01*
X78701904Y-53569360D01*
X78701904Y-53569359D01*
X78701900Y-53569358D01*
X78651785Y-53540423D01*
X78499057Y-53499499D01*
X78340943Y-53499499D01*
X78333347Y-53499499D01*
X78333331Y-53499500D01*
X52324970Y-53499500D01*
X52324954Y-53499499D01*
X52317358Y-53499499D01*
X52159243Y-53499499D01*
X52082879Y-53519961D01*
X52006514Y-53540423D01*
X52006509Y-53540426D01*
X51869590Y-53619475D01*
X51869582Y-53619481D01*
X44873392Y-60615671D01*
X44873382Y-60615681D01*
X44871286Y-60617778D01*
X44871284Y-60617780D01*
X44759480Y-60729584D01*
X44747982Y-60749500D01*
X44741325Y-60761029D01*
X44741325Y-60761030D01*
X44703633Y-60826315D01*
X44680423Y-60866515D01*
X44639499Y-61019243D01*
X44639499Y-61019245D01*
X44639499Y-61187346D01*
X44639500Y-61187359D01*
X44639500Y-61334216D01*
X44619815Y-61401255D01*
X44603181Y-61421897D01*
X44462863Y-61562214D01*
X44462860Y-61562218D01*
X44353371Y-61726079D01*
X44353364Y-61726092D01*
X44277950Y-61908160D01*
X44277947Y-61908170D01*
X44239500Y-62101456D01*
X44239500Y-62101459D01*
X44239500Y-63298541D01*
X44239500Y-63298543D01*
X44239499Y-63298543D01*
X43700500Y-63298543D01*
X43700500Y-62101456D01*
X43662052Y-61908170D01*
X43662051Y-61908169D01*
X43662051Y-61908165D01*
X43591854Y-61738693D01*
X43586635Y-61726092D01*
X43586628Y-61726079D01*
X43477139Y-61562218D01*
X43477136Y-61562214D01*
X43337785Y-61422863D01*
X43337781Y-61422860D01*
X43173920Y-61313371D01*
X43173907Y-61313364D01*
X42991839Y-61237950D01*
X42991829Y-61237947D01*
X42798543Y-61199500D01*
X42798541Y-61199500D01*
X42601459Y-61199500D01*
X42601457Y-61199500D01*
X42408170Y-61237947D01*
X42408160Y-61237950D01*
X42226092Y-61313364D01*
X42226079Y-61313371D01*
X42062218Y-61422860D01*
X42062214Y-61422863D01*
X41922863Y-61562214D01*
X41922860Y-61562218D01*
X41813371Y-61726079D01*
X41813364Y-61726092D01*
X41737950Y-61908160D01*
X41737947Y-61908170D01*
X41699500Y-62101456D01*
X41699500Y-62101459D01*
X41699500Y-63298541D01*
X41699500Y-63298543D01*
X41699499Y-63298543D01*
X41160500Y-63298543D01*
X41160500Y-62101456D01*
X41122052Y-61908170D01*
X41122051Y-61908169D01*
X41122051Y-61908165D01*
X41051854Y-61738693D01*
X41046635Y-61726092D01*
X41046628Y-61726079D01*
X40937139Y-61562218D01*
X40937136Y-61562214D01*
X40797785Y-61422863D01*
X40797781Y-61422860D01*
X40633920Y-61313371D01*
X40633907Y-61313364D01*
X40451839Y-61237950D01*
X40451829Y-61237947D01*
X40258543Y-61199500D01*
X40258541Y-61199500D01*
X40061459Y-61199500D01*
X40061457Y-61199500D01*
X39868170Y-61237947D01*
X39868160Y-61237950D01*
X39686092Y-61313364D01*
X39686079Y-61313371D01*
X39522218Y-61422860D01*
X39522214Y-61422863D01*
X39382863Y-61562214D01*
X39382860Y-61562218D01*
X39273371Y-61726079D01*
X39273364Y-61726092D01*
X39197950Y-61908160D01*
X39197947Y-61908170D01*
X39161965Y-62089062D01*
X39129580Y-62150973D01*
X39068864Y-62185547D01*
X38999094Y-62181806D01*
X38942423Y-62140940D01*
X38917875Y-62084268D01*
X38887990Y-61895582D01*
X38824755Y-61700968D01*
X38731859Y-61518650D01*
X38611582Y-61353105D01*
X38611582Y-61353104D01*
X38466895Y-61208417D01*
X38301349Y-61088140D01*
X38119029Y-60995244D01*
X37924413Y-60932009D01*
X37870000Y-60923390D01*
X37870000Y-62566988D01*
X37812993Y-62534075D01*
X37685826Y-62500000D01*
X37554174Y-62500000D01*
X37427007Y-62534075D01*
X37370000Y-62566988D01*
X37370000Y-60923390D01*
X37315586Y-60932009D01*
X37120970Y-60995244D01*
X36938650Y-61088140D01*
X36773105Y-61208417D01*
X36773104Y-61208417D01*
X36628417Y-61353104D01*
X36628417Y-61353105D01*
X36508140Y-61518650D01*
X36415244Y-61700968D01*
X36352010Y-61895581D01*
X36322124Y-62084269D01*
X36292194Y-62147403D01*
X36232883Y-62184334D01*
X36163020Y-62183336D01*
X36104788Y-62144726D01*
X36078034Y-62089061D01*
X36068409Y-62040674D01*
X36042051Y-61908165D01*
X35971854Y-61738693D01*
X35966635Y-61726092D01*
X35966628Y-61726079D01*
X35857139Y-61562218D01*
X35857136Y-61562214D01*
X35717785Y-61422863D01*
X35717781Y-61422860D01*
X35553920Y-61313371D01*
X35553907Y-61313364D01*
X35371839Y-61237950D01*
X35371829Y-61237947D01*
X35178543Y-61199500D01*
X35178541Y-61199500D01*
X34981459Y-61199500D01*
X34981457Y-61199500D01*
X34788170Y-61237947D01*
X34788160Y-61237950D01*
X34606092Y-61313364D01*
X34606079Y-61313371D01*
X34442218Y-61422860D01*
X34442214Y-61422863D01*
X34302863Y-61562214D01*
X34302860Y-61562218D01*
X34193371Y-61726079D01*
X34193364Y-61726092D01*
X34117950Y-61908160D01*
X34117947Y-61908170D01*
X34079500Y-62101456D01*
X34079500Y-62101459D01*
X34079500Y-63298541D01*
X34079500Y-63298543D01*
X34079499Y-63298543D01*
X33540500Y-63298543D01*
X33540500Y-62101456D01*
X33502052Y-61908170D01*
X33502051Y-61908169D01*
X33502051Y-61908165D01*
X33431854Y-61738693D01*
X33426635Y-61726092D01*
X33426628Y-61726079D01*
X33317139Y-61562218D01*
X33317136Y-61562214D01*
X33177785Y-61422863D01*
X33177781Y-61422860D01*
X33013920Y-61313371D01*
X33013907Y-61313364D01*
X32831839Y-61237950D01*
X32831829Y-61237947D01*
X32638543Y-61199500D01*
X32638541Y-61199500D01*
X32441459Y-61199500D01*
X32441457Y-61199500D01*
X32248170Y-61237947D01*
X32248160Y-61237950D01*
X32066092Y-61313364D01*
X32066079Y-61313371D01*
X31902218Y-61422860D01*
X31902214Y-61422863D01*
X31762863Y-61562214D01*
X31762860Y-61562218D01*
X31653371Y-61726079D01*
X31653364Y-61726092D01*
X31577950Y-61908160D01*
X31577947Y-61908170D01*
X31539500Y-62101456D01*
X31539500Y-62101459D01*
X31539500Y-63298541D01*
X31539500Y-63298543D01*
X31539499Y-63298543D01*
X31000500Y-63298543D01*
X31000500Y-61595730D01*
X30997646Y-61565300D01*
X30997646Y-61565298D01*
X30952793Y-61437119D01*
X30952792Y-61437117D01*
X30923885Y-61397949D01*
X30872150Y-61327850D01*
X30762882Y-61247207D01*
X30762880Y-61247206D01*
X30634700Y-61202353D01*
X30604270Y-61199500D01*
X30604266Y-61199500D01*
X29395734Y-61199500D01*
X29395730Y-61199500D01*
X29365300Y-61202353D01*
X29365298Y-61202353D01*
X29237119Y-61247206D01*
X29237117Y-61247207D01*
X29127850Y-61327850D01*
X29047207Y-61437117D01*
X29047206Y-61437119D01*
X29002353Y-61565298D01*
X29002353Y-61565300D01*
X28999500Y-61595730D01*
X26000500Y-61595730D01*
X26000500Y-52788150D01*
X26001683Y-52369735D01*
X26004082Y-51521153D01*
X61999500Y-51521153D01*
X61999500Y-51678846D01*
X62030261Y-51833489D01*
X62030264Y-51833501D01*
X62090602Y-51979172D01*
X62090609Y-51979185D01*
X62178210Y-52110288D01*
X62178213Y-52110292D01*
X62289707Y-52221786D01*
X62289711Y-52221789D01*
X62420814Y-52309390D01*
X62420827Y-52309397D01*
X62519092Y-52350099D01*
X62566503Y-52369737D01*
X62721153Y-52400499D01*
X62721156Y-52400500D01*
X62721158Y-52400500D01*
X62878844Y-52400500D01*
X62878845Y-52400499D01*
X63033497Y-52369737D01*
X63179179Y-52309394D01*
X63310289Y-52221789D01*
X63421789Y-52110289D01*
X63509394Y-51979179D01*
X63569737Y-51833497D01*
X63600500Y-51678842D01*
X63600500Y-51521158D01*
X63600500Y-51521155D01*
X63600499Y-51521153D01*
X63599573Y-51516498D01*
X63569737Y-51366503D01*
X63569735Y-51366498D01*
X63509939Y-51222136D01*
X63500500Y-51174684D01*
X63500500Y-49400097D01*
X63520185Y-49333058D01*
X63536819Y-49312416D01*
X66269216Y-46580019D01*
X66330539Y-46546534D01*
X66356897Y-46543700D01*
X66857702Y-46543700D01*
X66924741Y-46563385D01*
X66970496Y-46616189D01*
X66980440Y-46685347D01*
X66951415Y-46748903D01*
X66945383Y-46755381D01*
X66876278Y-46824486D01*
X65531284Y-48169481D01*
X64881286Y-48819478D01*
X64769481Y-48931282D01*
X64769479Y-48931285D01*
X64719361Y-49018094D01*
X64719359Y-49018096D01*
X64690425Y-49068209D01*
X64690424Y-49068210D01*
X64674544Y-49127472D01*
X64649499Y-49220943D01*
X64649499Y-49220945D01*
X64649499Y-49389046D01*
X64649500Y-49389059D01*
X64649500Y-51170234D01*
X64629815Y-51237273D01*
X64628602Y-51239125D01*
X64540609Y-51370814D01*
X64540602Y-51370827D01*
X64480264Y-51516498D01*
X64480261Y-51516510D01*
X64449500Y-51671153D01*
X64449500Y-51828846D01*
X64480261Y-51983489D01*
X64480264Y-51983501D01*
X64540602Y-52129172D01*
X64540609Y-52129185D01*
X64628210Y-52260288D01*
X64628213Y-52260292D01*
X64739707Y-52371786D01*
X64739711Y-52371789D01*
X64870814Y-52459390D01*
X64870827Y-52459397D01*
X65016498Y-52519735D01*
X65016503Y-52519737D01*
X65171153Y-52550499D01*
X65171156Y-52550500D01*
X65171158Y-52550500D01*
X65328844Y-52550500D01*
X65328845Y-52550499D01*
X65483497Y-52519737D01*
X65629179Y-52459394D01*
X65760289Y-52371789D01*
X65871789Y-52260289D01*
X65959394Y-52129179D01*
X66019737Y-51983497D01*
X66050500Y-51828842D01*
X66050500Y-51671158D01*
X66050500Y-51671155D01*
X66050499Y-51671153D01*
X66019738Y-51516510D01*
X66019737Y-51516503D01*
X65992067Y-51449701D01*
X98817500Y-51449701D01*
X98817500Y-51700000D01*
X99836988Y-51700000D01*
X99804075Y-51757007D01*
X99770000Y-51884174D01*
X99770000Y-52015826D01*
X99804075Y-52142993D01*
X99836988Y-52200000D01*
X98817501Y-52200000D01*
X98817501Y-52450308D01*
X98823821Y-52519875D01*
X98823823Y-52519883D01*
X98873708Y-52679970D01*
X98873709Y-52679972D01*
X98960454Y-52823467D01*
X98960457Y-52823471D01*
X99079028Y-52942042D01*
X99079032Y-52942045D01*
X99222526Y-53028789D01*
X99382623Y-53078677D01*
X99452201Y-53084999D01*
X100019999Y-53084999D01*
X100020000Y-53084998D01*
X100020000Y-52383012D01*
X100077007Y-52415925D01*
X100204174Y-52450000D01*
X100335826Y-52450000D01*
X100462993Y-52415925D01*
X100520000Y-52383012D01*
X100520000Y-53084999D01*
X101087807Y-53084999D01*
X101157375Y-53078678D01*
X101157383Y-53078676D01*
X101317470Y-53028791D01*
X101317472Y-53028790D01*
X101460967Y-52942045D01*
X101460971Y-52942042D01*
X101579542Y-52823471D01*
X101579545Y-52823467D01*
X101666289Y-52679973D01*
X101716177Y-52519876D01*
X101722500Y-52450298D01*
X101722500Y-52200000D01*
X100703012Y-52200000D01*
X100735925Y-52142993D01*
X100770000Y-52015826D01*
X100770000Y-51884174D01*
X100735925Y-51757007D01*
X100703012Y-51700000D01*
X101722499Y-51700000D01*
X101722499Y-51449691D01*
X101716178Y-51380124D01*
X101716176Y-51380116D01*
X101666291Y-51220029D01*
X101666290Y-51220027D01*
X101579545Y-51076532D01*
X101579542Y-51076528D01*
X101460971Y-50957957D01*
X101460967Y-50957954D01*
X101317473Y-50871210D01*
X101157376Y-50821322D01*
X101087798Y-50815000D01*
X100520000Y-50815000D01*
X100520000Y-51516988D01*
X100462993Y-51484075D01*
X100335826Y-51450000D01*
X100204174Y-51450000D01*
X100077007Y-51484075D01*
X100020000Y-51516988D01*
X100020000Y-50815000D01*
X99452191Y-50815000D01*
X99382623Y-50821321D01*
X99382616Y-50821323D01*
X99222529Y-50871208D01*
X99222527Y-50871209D01*
X99079032Y-50957954D01*
X99079028Y-50957957D01*
X98960457Y-51076528D01*
X98960454Y-51076532D01*
X98873710Y-51220026D01*
X98823822Y-51380123D01*
X98817500Y-51449701D01*
X65992067Y-51449701D01*
X65973733Y-51405440D01*
X65959395Y-51370823D01*
X65959390Y-51370814D01*
X65871398Y-51239125D01*
X65850520Y-51172447D01*
X65850500Y-51170234D01*
X65850500Y-49600097D01*
X65870185Y-49533058D01*
X65886819Y-49512416D01*
X66489580Y-48909655D01*
X98817000Y-48909655D01*
X98817000Y-49910354D01*
X98823325Y-49979966D01*
X98823328Y-49979977D01*
X98873247Y-50140175D01*
X98873249Y-50140179D01*
X98960056Y-50283777D01*
X98960060Y-50283782D01*
X99078717Y-50402439D01*
X99078722Y-50402443D01*
X99199315Y-50475343D01*
X99222322Y-50489251D01*
X99382529Y-50539173D01*
X99452153Y-50545500D01*
X101087846Y-50545499D01*
X101087853Y-50545499D01*
X101157466Y-50539174D01*
X101157469Y-50539173D01*
X101157471Y-50539173D01*
X101317678Y-50489251D01*
X101391589Y-50444570D01*
X101461277Y-50402443D01*
X101461278Y-50402441D01*
X101461283Y-50402439D01*
X101579939Y-50283783D01*
X101666751Y-50140178D01*
X101716673Y-49979971D01*
X101723000Y-49910347D01*
X101722999Y-48909654D01*
X101722999Y-48909653D01*
X101722999Y-48909645D01*
X101716674Y-48840033D01*
X101716671Y-48840022D01*
X101666752Y-48679824D01*
X101666750Y-48679820D01*
X101579943Y-48536222D01*
X101579939Y-48536217D01*
X101461282Y-48417560D01*
X101461277Y-48417556D01*
X101317680Y-48330750D01*
X101317679Y-48330749D01*
X101317678Y-48330749D01*
X101157471Y-48280827D01*
X101157469Y-48280826D01*
X101157467Y-48280826D01*
X101108721Y-48276396D01*
X101087847Y-48274500D01*
X101087844Y-48274500D01*
X99452145Y-48274500D01*
X99382533Y-48280825D01*
X99382522Y-48280828D01*
X99222324Y-48330747D01*
X99222320Y-48330749D01*
X99078722Y-48417556D01*
X99078717Y-48417560D01*
X98960060Y-48536217D01*
X98960056Y-48536222D01*
X98873250Y-48679819D01*
X98823326Y-48840032D01*
X98817000Y-48909655D01*
X66489580Y-48909655D01*
X67569216Y-47830019D01*
X67630539Y-47796534D01*
X67656897Y-47793700D01*
X78943880Y-47793700D01*
X79010919Y-47813385D01*
X79031561Y-47830019D01*
X79150211Y-47948669D01*
X79150213Y-47948670D01*
X79150215Y-47948672D01*
X79295794Y-48036678D01*
X79458204Y-48087286D01*
X79528784Y-48093700D01*
X79528787Y-48093700D01*
X80542013Y-48093700D01*
X80542016Y-48093700D01*
X80612596Y-48087286D01*
X80775006Y-48036678D01*
X80920585Y-47948672D01*
X81040872Y-47828385D01*
X81128878Y-47682806D01*
X81179486Y-47520396D01*
X81185900Y-47449816D01*
X81185900Y-46936584D01*
X81179486Y-46866004D01*
X81128878Y-46703594D01*
X81042116Y-46560073D01*
X81039099Y-46548647D01*
X81032023Y-46539181D01*
X81030344Y-46515488D01*
X81024281Y-46492522D01*
X81027796Y-46479514D01*
X81027086Y-46469486D01*
X81036478Y-46447392D01*
X81039442Y-46436426D01*
X81042072Y-46431617D01*
X81083413Y-46369747D01*
X81083451Y-46369655D01*
X98817000Y-46369655D01*
X98817000Y-47370354D01*
X98823325Y-47439966D01*
X98823328Y-47439977D01*
X98873247Y-47600175D01*
X98873249Y-47600179D01*
X98960056Y-47743777D01*
X98960060Y-47743782D01*
X99078717Y-47862439D01*
X99078722Y-47862443D01*
X99189984Y-47929702D01*
X99222322Y-47949251D01*
X99382529Y-47999173D01*
X99452153Y-48005500D01*
X101087846Y-48005499D01*
X101087853Y-48005499D01*
X101157466Y-47999174D01*
X101157469Y-47999173D01*
X101157471Y-47999173D01*
X101317678Y-47949251D01*
X101391589Y-47904570D01*
X101461277Y-47862443D01*
X101461278Y-47862441D01*
X101461283Y-47862439D01*
X101579939Y-47743783D01*
X101596750Y-47715975D01*
X101648796Y-47629879D01*
X101666751Y-47600178D01*
X101716673Y-47439971D01*
X101723000Y-47370347D01*
X101722999Y-46369654D01*
X101722999Y-46369653D01*
X101722999Y-46369645D01*
X101716674Y-46300033D01*
X101716671Y-46300022D01*
X101666752Y-46139824D01*
X101666750Y-46139820D01*
X101579943Y-45996222D01*
X101579939Y-45996217D01*
X101461282Y-45877560D01*
X101461277Y-45877556D01*
X101317680Y-45790750D01*
X101317679Y-45790749D01*
X101317678Y-45790749D01*
X101157471Y-45740827D01*
X101157469Y-45740826D01*
X101157467Y-45740826D01*
X101108721Y-45736396D01*
X101087847Y-45734500D01*
X101087844Y-45734500D01*
X99452145Y-45734500D01*
X99382533Y-45740825D01*
X99382522Y-45740828D01*
X99222324Y-45790747D01*
X99222320Y-45790749D01*
X99078722Y-45877556D01*
X99078717Y-45877560D01*
X98960060Y-45996217D01*
X98960056Y-45996222D01*
X98873250Y-46139819D01*
X98823326Y-46300032D01*
X98817000Y-46369655D01*
X81083451Y-46369655D01*
X81151294Y-46205866D01*
X81164432Y-46139820D01*
X81185899Y-46031895D01*
X81185900Y-46031893D01*
X81185900Y-45854506D01*
X81185899Y-45854504D01*
X81151296Y-45680541D01*
X81151293Y-45680532D01*
X81083416Y-45516659D01*
X81083414Y-45516655D01*
X81083413Y-45516653D01*
X80996842Y-45387091D01*
X80975964Y-45320414D01*
X80994448Y-45253034D01*
X80996842Y-45249309D01*
X81063325Y-45149810D01*
X81083413Y-45119747D01*
X81151294Y-44955866D01*
X81152713Y-44948735D01*
X81185899Y-44781895D01*
X81185900Y-44781893D01*
X81185900Y-44604506D01*
X81185899Y-44604500D01*
X81151296Y-44430541D01*
X81151293Y-44430532D01*
X81083416Y-44266659D01*
X81083414Y-44266655D01*
X81083413Y-44266653D01*
X80996540Y-44136640D01*
X80975663Y-44069964D01*
X80994147Y-44002584D01*
X80996541Y-43998859D01*
X81082966Y-43869515D01*
X81082971Y-43869506D01*
X81150812Y-43705723D01*
X81150815Y-43705716D01*
X81153304Y-43693200D01*
X80085128Y-43693200D01*
X80177014Y-43655140D01*
X80247340Y-43584814D01*
X80285400Y-43492928D01*
X80285400Y-43393472D01*
X80247340Y-43301586D01*
X80177014Y-43231260D01*
X80085128Y-43193200D01*
X80285400Y-43193200D01*
X81153304Y-43193200D01*
X81150815Y-43180683D01*
X81150812Y-43180676D01*
X81082971Y-43016893D01*
X81082966Y-43016883D01*
X80984476Y-42869483D01*
X80984473Y-42869479D01*
X80859120Y-42744126D01*
X80859116Y-42744123D01*
X80711716Y-42645633D01*
X80711707Y-42645628D01*
X80547920Y-42577786D01*
X80547912Y-42577784D01*
X80374046Y-42543200D01*
X80285400Y-42543200D01*
X80285400Y-43193200D01*
X80085128Y-43193200D01*
X79985672Y-43193200D01*
X79893786Y-43231260D01*
X79823460Y-43301586D01*
X79785400Y-43393472D01*
X79785400Y-43492928D01*
X79823460Y-43584814D01*
X79893786Y-43655140D01*
X79985672Y-43693200D01*
X78917496Y-43693200D01*
X78919984Y-43705716D01*
X78919987Y-43705723D01*
X78987828Y-43869506D01*
X78987833Y-43869516D01*
X79074258Y-43998859D01*
X79095136Y-44065536D01*
X79076652Y-44132917D01*
X79074258Y-44136641D01*
X78987390Y-44266646D01*
X78987383Y-44266659D01*
X78919506Y-44430532D01*
X78919503Y-44430541D01*
X78884901Y-44604500D01*
X78884900Y-44604506D01*
X78884900Y-44781895D01*
X78919503Y-44955858D01*
X78919506Y-44955867D01*
X78987383Y-45119740D01*
X78987393Y-45119758D01*
X79007473Y-45149810D01*
X79028351Y-45216487D01*
X79009866Y-45283867D01*
X78957887Y-45330557D01*
X78904371Y-45342700D01*
X65977740Y-45342700D01*
X65936819Y-45353664D01*
X65936819Y-45353665D01*
X65899551Y-45363651D01*
X65825014Y-45383623D01*
X65825009Y-45383626D01*
X65688090Y-45462675D01*
X65688082Y-45462681D01*
X62419479Y-48731284D01*
X62402868Y-48760056D01*
X62395847Y-48772218D01*
X62340423Y-48868215D01*
X62299499Y-49020943D01*
X62299499Y-49020945D01*
X62299499Y-49189046D01*
X62299500Y-49189059D01*
X62299500Y-50917059D01*
X62279815Y-50984098D01*
X62263181Y-51004740D01*
X62178213Y-51089707D01*
X62178210Y-51089711D01*
X62090609Y-51220814D01*
X62090602Y-51220827D01*
X62030264Y-51366498D01*
X62030261Y-51366510D01*
X61999500Y-51521153D01*
X26004082Y-51521153D01*
X26026538Y-43578543D01*
X39159499Y-43578543D01*
X39197947Y-43771829D01*
X39197950Y-43771839D01*
X39273364Y-43953907D01*
X39273371Y-43953920D01*
X39382860Y-44117781D01*
X39382863Y-44117785D01*
X39522214Y-44257136D01*
X39522218Y-44257139D01*
X39686079Y-44366628D01*
X39686092Y-44366635D01*
X39840355Y-44430532D01*
X39868165Y-44442051D01*
X39868169Y-44442051D01*
X39868170Y-44442052D01*
X40061456Y-44480500D01*
X40061459Y-44480500D01*
X40258543Y-44480500D01*
X40388582Y-44454632D01*
X40451835Y-44442051D01*
X40633914Y-44366632D01*
X40797782Y-44257139D01*
X40937139Y-44117782D01*
X41046632Y-43953914D01*
X41122051Y-43771835D01*
X41137693Y-43693200D01*
X41160500Y-43578543D01*
X41699499Y-43578543D01*
X41737947Y-43771829D01*
X41737950Y-43771839D01*
X41813364Y-43953907D01*
X41813371Y-43953920D01*
X41922860Y-44117781D01*
X41922863Y-44117785D01*
X42062214Y-44257136D01*
X42062218Y-44257139D01*
X42226079Y-44366628D01*
X42226092Y-44366635D01*
X42380355Y-44430532D01*
X42408165Y-44442051D01*
X42408169Y-44442051D01*
X42408170Y-44442052D01*
X42601456Y-44480500D01*
X42601459Y-44480500D01*
X42798543Y-44480500D01*
X42928582Y-44454632D01*
X42991835Y-44442051D01*
X43173914Y-44366632D01*
X43337782Y-44257139D01*
X43477139Y-44117782D01*
X43586632Y-43953914D01*
X43662051Y-43771835D01*
X43677693Y-43693200D01*
X43700500Y-43578543D01*
X44239499Y-43578543D01*
X44277947Y-43771829D01*
X44277950Y-43771839D01*
X44353364Y-43953907D01*
X44353371Y-43953920D01*
X44462860Y-44117781D01*
X44462863Y-44117785D01*
X44602214Y-44257136D01*
X44602218Y-44257139D01*
X44766079Y-44366628D01*
X44766092Y-44366635D01*
X44920355Y-44430532D01*
X44948165Y-44442051D01*
X44948169Y-44442051D01*
X44948170Y-44442052D01*
X45141456Y-44480500D01*
X45141459Y-44480500D01*
X45338543Y-44480500D01*
X45468582Y-44454632D01*
X45531835Y-44442051D01*
X45713914Y-44366632D01*
X45877782Y-44257139D01*
X46017139Y-44117782D01*
X46126632Y-43953914D01*
X46202051Y-43771835D01*
X46217693Y-43693200D01*
X46240500Y-43578543D01*
X46779499Y-43578543D01*
X46817947Y-43771829D01*
X46817950Y-43771839D01*
X46893364Y-43953907D01*
X46893371Y-43953920D01*
X47002860Y-44117781D01*
X47002863Y-44117785D01*
X47142214Y-44257136D01*
X47142218Y-44257139D01*
X47306079Y-44366628D01*
X47306092Y-44366635D01*
X47460355Y-44430532D01*
X47488165Y-44442051D01*
X47488169Y-44442051D01*
X47488170Y-44442052D01*
X47681456Y-44480500D01*
X47681459Y-44480500D01*
X47878543Y-44480500D01*
X48008582Y-44454632D01*
X48071835Y-44442051D01*
X48253914Y-44366632D01*
X48417782Y-44257139D01*
X48557139Y-44117782D01*
X48666632Y-43953914D01*
X48742051Y-43771835D01*
X48757693Y-43693200D01*
X48780500Y-43578543D01*
X49319499Y-43578543D01*
X49357947Y-43771829D01*
X49357950Y-43771839D01*
X49433364Y-43953907D01*
X49433371Y-43953920D01*
X49542860Y-44117781D01*
X49542863Y-44117785D01*
X49682214Y-44257136D01*
X49682218Y-44257139D01*
X49846079Y-44366628D01*
X49846092Y-44366635D01*
X50000355Y-44430532D01*
X50028165Y-44442051D01*
X50028169Y-44442051D01*
X50028170Y-44442052D01*
X50221456Y-44480500D01*
X50221459Y-44480500D01*
X50418543Y-44480500D01*
X50548582Y-44454632D01*
X50611835Y-44442051D01*
X50793914Y-44366632D01*
X50957782Y-44257139D01*
X51097139Y-44117782D01*
X51206632Y-43953914D01*
X51282051Y-43771835D01*
X51297693Y-43693200D01*
X51320500Y-43578543D01*
X51859499Y-43578543D01*
X51897947Y-43771829D01*
X51897950Y-43771839D01*
X51973364Y-43953907D01*
X51973371Y-43953920D01*
X52082860Y-44117781D01*
X52082863Y-44117785D01*
X52222214Y-44257136D01*
X52222218Y-44257139D01*
X52386079Y-44366628D01*
X52386092Y-44366635D01*
X52540355Y-44430532D01*
X52568165Y-44442051D01*
X52568169Y-44442051D01*
X52568170Y-44442052D01*
X52761456Y-44480500D01*
X52761459Y-44480500D01*
X52958543Y-44480500D01*
X53088582Y-44454632D01*
X53151835Y-44442051D01*
X53333914Y-44366632D01*
X53497782Y-44257139D01*
X53637139Y-44117782D01*
X53746632Y-43953914D01*
X53822051Y-43771835D01*
X53837693Y-43693200D01*
X53860500Y-43578543D01*
X54399499Y-43578543D01*
X54437947Y-43771829D01*
X54437950Y-43771839D01*
X54513364Y-43953907D01*
X54513371Y-43953920D01*
X54622860Y-44117781D01*
X54622863Y-44117785D01*
X54762214Y-44257136D01*
X54762218Y-44257139D01*
X54926079Y-44366628D01*
X54926092Y-44366635D01*
X55080355Y-44430532D01*
X55108165Y-44442051D01*
X55108169Y-44442051D01*
X55108170Y-44442052D01*
X55301456Y-44480500D01*
X55301459Y-44480500D01*
X55498543Y-44480500D01*
X55628582Y-44454632D01*
X55691835Y-44442051D01*
X55873914Y-44366632D01*
X56037782Y-44257139D01*
X56177139Y-44117782D01*
X56286632Y-43953914D01*
X56362051Y-43771835D01*
X56377693Y-43693200D01*
X56400500Y-43578543D01*
X56939499Y-43578543D01*
X56977947Y-43771829D01*
X56977950Y-43771839D01*
X57053364Y-43953907D01*
X57053371Y-43953920D01*
X57162860Y-44117781D01*
X57162863Y-44117785D01*
X57302214Y-44257136D01*
X57302218Y-44257139D01*
X57466079Y-44366628D01*
X57466092Y-44366635D01*
X57620355Y-44430532D01*
X57648165Y-44442051D01*
X57648169Y-44442051D01*
X57648170Y-44442052D01*
X57841456Y-44480500D01*
X57841459Y-44480500D01*
X58038543Y-44480500D01*
X58168582Y-44454632D01*
X58231835Y-44442051D01*
X58413914Y-44366632D01*
X58577782Y-44257139D01*
X58717139Y-44117782D01*
X58826632Y-43953914D01*
X58902051Y-43771835D01*
X58917693Y-43693200D01*
X58940500Y-43578543D01*
X59479499Y-43578543D01*
X59517947Y-43771829D01*
X59517950Y-43771839D01*
X59593364Y-43953907D01*
X59593371Y-43953920D01*
X59702860Y-44117781D01*
X59702863Y-44117785D01*
X59842214Y-44257136D01*
X59842218Y-44257139D01*
X60006079Y-44366628D01*
X60006092Y-44366635D01*
X60160355Y-44430532D01*
X60188165Y-44442051D01*
X60188169Y-44442051D01*
X60188170Y-44442052D01*
X60381456Y-44480500D01*
X60381459Y-44480500D01*
X60578543Y-44480500D01*
X60708582Y-44454632D01*
X60771835Y-44442051D01*
X60953914Y-44366632D01*
X61117782Y-44257139D01*
X61257139Y-44117782D01*
X61366632Y-43953914D01*
X61442051Y-43771835D01*
X61457693Y-43693200D01*
X61480500Y-43578543D01*
X62019499Y-43578543D01*
X62057947Y-43771829D01*
X62057950Y-43771839D01*
X62133364Y-43953907D01*
X62133371Y-43953920D01*
X62242860Y-44117781D01*
X62242863Y-44117785D01*
X62382214Y-44257136D01*
X62382218Y-44257139D01*
X62546079Y-44366628D01*
X62546092Y-44366635D01*
X62700355Y-44430532D01*
X62728165Y-44442051D01*
X62728169Y-44442051D01*
X62728170Y-44442052D01*
X62921456Y-44480500D01*
X62921459Y-44480500D01*
X63118543Y-44480500D01*
X63248582Y-44454632D01*
X63311835Y-44442051D01*
X63493914Y-44366632D01*
X63657782Y-44257139D01*
X63797139Y-44117782D01*
X63906632Y-43953914D01*
X63982051Y-43771835D01*
X63997693Y-43693200D01*
X64020500Y-43578543D01*
X64559499Y-43578543D01*
X64597947Y-43771829D01*
X64597950Y-43771839D01*
X64673364Y-43953907D01*
X64673371Y-43953920D01*
X64782860Y-44117781D01*
X64782863Y-44117785D01*
X64922214Y-44257136D01*
X64922218Y-44257139D01*
X65086079Y-44366628D01*
X65086092Y-44366635D01*
X65240355Y-44430532D01*
X65268165Y-44442051D01*
X65268169Y-44442051D01*
X65268170Y-44442052D01*
X65461456Y-44480500D01*
X65461459Y-44480500D01*
X65658543Y-44480500D01*
X65788582Y-44454632D01*
X65851835Y-44442051D01*
X66033914Y-44366632D01*
X66197782Y-44257139D01*
X66337139Y-44117782D01*
X66446632Y-43953914D01*
X66522051Y-43771835D01*
X66537693Y-43693200D01*
X66560500Y-43578543D01*
X66560500Y-42381456D01*
X66522052Y-42188170D01*
X66522051Y-42188169D01*
X66522051Y-42188165D01*
X66496797Y-42127196D01*
X66446635Y-42006092D01*
X66446628Y-42006079D01*
X66337139Y-41842218D01*
X66337136Y-41842214D01*
X66197785Y-41702863D01*
X66197781Y-41702860D01*
X66033920Y-41593371D01*
X66033907Y-41593364D01*
X65851839Y-41517950D01*
X65851829Y-41517947D01*
X65658543Y-41479500D01*
X65658541Y-41479500D01*
X65461459Y-41479500D01*
X65461457Y-41479500D01*
X65268170Y-41517947D01*
X65268160Y-41517950D01*
X65086092Y-41593364D01*
X65086079Y-41593371D01*
X64922218Y-41702860D01*
X64922214Y-41702863D01*
X64782863Y-41842214D01*
X64782860Y-41842218D01*
X64673371Y-42006079D01*
X64673364Y-42006092D01*
X64597950Y-42188160D01*
X64597947Y-42188170D01*
X64559500Y-42381456D01*
X64559500Y-42381459D01*
X64559500Y-43578541D01*
X64559500Y-43578543D01*
X64559499Y-43578543D01*
X64020500Y-43578543D01*
X64020500Y-42381456D01*
X63982052Y-42188170D01*
X63982051Y-42188169D01*
X63982051Y-42188165D01*
X63956797Y-42127196D01*
X63906635Y-42006092D01*
X63906628Y-42006079D01*
X63797139Y-41842218D01*
X63797136Y-41842214D01*
X63657785Y-41702863D01*
X63657781Y-41702860D01*
X63493920Y-41593371D01*
X63493907Y-41593364D01*
X63311839Y-41517950D01*
X63311829Y-41517947D01*
X63118543Y-41479500D01*
X63118541Y-41479500D01*
X62921459Y-41479500D01*
X62921457Y-41479500D01*
X62728170Y-41517947D01*
X62728160Y-41517950D01*
X62546092Y-41593364D01*
X62546079Y-41593371D01*
X62382218Y-41702860D01*
X62382214Y-41702863D01*
X62242863Y-41842214D01*
X62242860Y-41842218D01*
X62133371Y-42006079D01*
X62133364Y-42006092D01*
X62057950Y-42188160D01*
X62057947Y-42188170D01*
X62019500Y-42381456D01*
X62019500Y-42381459D01*
X62019500Y-43578541D01*
X62019500Y-43578543D01*
X62019499Y-43578543D01*
X61480500Y-43578543D01*
X61480500Y-42381456D01*
X61442052Y-42188170D01*
X61442051Y-42188169D01*
X61442051Y-42188165D01*
X61416797Y-42127196D01*
X61366635Y-42006092D01*
X61366628Y-42006079D01*
X61257139Y-41842218D01*
X61257136Y-41842214D01*
X61117785Y-41702863D01*
X61117781Y-41702860D01*
X60953920Y-41593371D01*
X60953907Y-41593364D01*
X60771839Y-41517950D01*
X60771829Y-41517947D01*
X60578543Y-41479500D01*
X60578541Y-41479500D01*
X60381459Y-41479500D01*
X60381457Y-41479500D01*
X60188170Y-41517947D01*
X60188160Y-41517950D01*
X60006092Y-41593364D01*
X60006079Y-41593371D01*
X59842218Y-41702860D01*
X59842214Y-41702863D01*
X59702863Y-41842214D01*
X59702860Y-41842218D01*
X59593371Y-42006079D01*
X59593364Y-42006092D01*
X59517950Y-42188160D01*
X59517947Y-42188170D01*
X59479500Y-42381456D01*
X59479500Y-42381459D01*
X59479500Y-43578541D01*
X59479500Y-43578543D01*
X59479499Y-43578543D01*
X58940500Y-43578543D01*
X58940500Y-42381456D01*
X58902052Y-42188170D01*
X58902051Y-42188169D01*
X58902051Y-42188165D01*
X58876797Y-42127196D01*
X58826635Y-42006092D01*
X58826628Y-42006079D01*
X58717139Y-41842218D01*
X58717136Y-41842214D01*
X58577785Y-41702863D01*
X58577781Y-41702860D01*
X58413920Y-41593371D01*
X58413907Y-41593364D01*
X58231839Y-41517950D01*
X58231829Y-41517947D01*
X58038543Y-41479500D01*
X58038541Y-41479500D01*
X57841459Y-41479500D01*
X57841457Y-41479500D01*
X57648170Y-41517947D01*
X57648160Y-41517950D01*
X57466092Y-41593364D01*
X57466079Y-41593371D01*
X57302218Y-41702860D01*
X57302214Y-41702863D01*
X57162863Y-41842214D01*
X57162860Y-41842218D01*
X57053371Y-42006079D01*
X57053364Y-42006092D01*
X56977950Y-42188160D01*
X56977947Y-42188170D01*
X56939500Y-42381456D01*
X56939500Y-42381459D01*
X56939500Y-43578541D01*
X56939500Y-43578543D01*
X56939499Y-43578543D01*
X56400500Y-43578543D01*
X56400500Y-42381456D01*
X56362052Y-42188170D01*
X56362051Y-42188169D01*
X56362051Y-42188165D01*
X56336797Y-42127196D01*
X56286635Y-42006092D01*
X56286628Y-42006079D01*
X56177139Y-41842218D01*
X56177136Y-41842214D01*
X56037785Y-41702863D01*
X56037781Y-41702860D01*
X55873920Y-41593371D01*
X55873907Y-41593364D01*
X55691839Y-41517950D01*
X55691829Y-41517947D01*
X55498543Y-41479500D01*
X55498541Y-41479500D01*
X55301459Y-41479500D01*
X55301457Y-41479500D01*
X55108170Y-41517947D01*
X55108160Y-41517950D01*
X54926092Y-41593364D01*
X54926079Y-41593371D01*
X54762218Y-41702860D01*
X54762214Y-41702863D01*
X54622863Y-41842214D01*
X54622860Y-41842218D01*
X54513371Y-42006079D01*
X54513364Y-42006092D01*
X54437950Y-42188160D01*
X54437947Y-42188170D01*
X54399500Y-42381456D01*
X54399500Y-42381459D01*
X54399500Y-43578541D01*
X54399500Y-43578543D01*
X54399499Y-43578543D01*
X53860500Y-43578543D01*
X53860500Y-42381456D01*
X53822052Y-42188170D01*
X53822051Y-42188169D01*
X53822051Y-42188165D01*
X53796797Y-42127196D01*
X53746635Y-42006092D01*
X53746628Y-42006079D01*
X53637139Y-41842218D01*
X53637136Y-41842214D01*
X53497785Y-41702863D01*
X53497781Y-41702860D01*
X53333920Y-41593371D01*
X53333907Y-41593364D01*
X53151839Y-41517950D01*
X53151829Y-41517947D01*
X52958543Y-41479500D01*
X52958541Y-41479500D01*
X52761459Y-41479500D01*
X52761457Y-41479500D01*
X52568170Y-41517947D01*
X52568160Y-41517950D01*
X52386092Y-41593364D01*
X52386079Y-41593371D01*
X52222218Y-41702860D01*
X52222214Y-41702863D01*
X52082863Y-41842214D01*
X52082860Y-41842218D01*
X51973371Y-42006079D01*
X51973364Y-42006092D01*
X51897950Y-42188160D01*
X51897947Y-42188170D01*
X51859500Y-42381456D01*
X51859500Y-42381459D01*
X51859500Y-43578541D01*
X51859500Y-43578543D01*
X51859499Y-43578543D01*
X51320500Y-43578543D01*
X51320500Y-42381456D01*
X51282052Y-42188170D01*
X51282051Y-42188169D01*
X51282051Y-42188165D01*
X51256797Y-42127196D01*
X51206635Y-42006092D01*
X51206628Y-42006079D01*
X51097139Y-41842218D01*
X51097136Y-41842214D01*
X50957785Y-41702863D01*
X50957781Y-41702860D01*
X50793920Y-41593371D01*
X50793907Y-41593364D01*
X50611839Y-41517950D01*
X50611829Y-41517947D01*
X50418543Y-41479500D01*
X50418541Y-41479500D01*
X50221459Y-41479500D01*
X50221457Y-41479500D01*
X50028170Y-41517947D01*
X50028160Y-41517950D01*
X49846092Y-41593364D01*
X49846079Y-41593371D01*
X49682218Y-41702860D01*
X49682214Y-41702863D01*
X49542863Y-41842214D01*
X49542860Y-41842218D01*
X49433371Y-42006079D01*
X49433364Y-42006092D01*
X49357950Y-42188160D01*
X49357947Y-42188170D01*
X49319500Y-42381456D01*
X49319500Y-42381459D01*
X49319500Y-43578541D01*
X49319500Y-43578543D01*
X49319499Y-43578543D01*
X48780500Y-43578543D01*
X48780500Y-42381456D01*
X48742052Y-42188170D01*
X48742051Y-42188169D01*
X48742051Y-42188165D01*
X48716797Y-42127196D01*
X48666635Y-42006092D01*
X48666628Y-42006079D01*
X48557139Y-41842218D01*
X48557136Y-41842214D01*
X48417785Y-41702863D01*
X48417781Y-41702860D01*
X48253920Y-41593371D01*
X48253907Y-41593364D01*
X48071839Y-41517950D01*
X48071829Y-41517947D01*
X47878543Y-41479500D01*
X47878541Y-41479500D01*
X47681459Y-41479500D01*
X47681457Y-41479500D01*
X47488170Y-41517947D01*
X47488160Y-41517950D01*
X47306092Y-41593364D01*
X47306079Y-41593371D01*
X47142218Y-41702860D01*
X47142214Y-41702863D01*
X47002863Y-41842214D01*
X47002860Y-41842218D01*
X46893371Y-42006079D01*
X46893364Y-42006092D01*
X46817950Y-42188160D01*
X46817947Y-42188170D01*
X46779500Y-42381456D01*
X46779500Y-42381459D01*
X46779500Y-43578541D01*
X46779500Y-43578543D01*
X46779499Y-43578543D01*
X46240500Y-43578543D01*
X46240500Y-42381456D01*
X46202052Y-42188170D01*
X46202051Y-42188169D01*
X46202051Y-42188165D01*
X46176797Y-42127196D01*
X46126635Y-42006092D01*
X46126628Y-42006079D01*
X46017139Y-41842218D01*
X46017136Y-41842214D01*
X45877785Y-41702863D01*
X45877781Y-41702860D01*
X45713920Y-41593371D01*
X45713907Y-41593364D01*
X45531839Y-41517950D01*
X45531829Y-41517947D01*
X45338543Y-41479500D01*
X45338541Y-41479500D01*
X45141459Y-41479500D01*
X45141457Y-41479500D01*
X44948170Y-41517947D01*
X44948160Y-41517950D01*
X44766092Y-41593364D01*
X44766079Y-41593371D01*
X44602218Y-41702860D01*
X44602214Y-41702863D01*
X44462863Y-41842214D01*
X44462860Y-41842218D01*
X44353371Y-42006079D01*
X44353364Y-42006092D01*
X44277950Y-42188160D01*
X44277947Y-42188170D01*
X44239500Y-42381456D01*
X44239500Y-42381459D01*
X44239500Y-43578541D01*
X44239500Y-43578543D01*
X44239499Y-43578543D01*
X43700500Y-43578543D01*
X43700500Y-42381456D01*
X43662052Y-42188170D01*
X43662051Y-42188169D01*
X43662051Y-42188165D01*
X43636797Y-42127196D01*
X43586635Y-42006092D01*
X43586628Y-42006079D01*
X43477139Y-41842218D01*
X43477136Y-41842214D01*
X43337785Y-41702863D01*
X43337781Y-41702860D01*
X43173920Y-41593371D01*
X43173907Y-41593364D01*
X42991839Y-41517950D01*
X42991829Y-41517947D01*
X42798543Y-41479500D01*
X42798541Y-41479500D01*
X42601459Y-41479500D01*
X42601457Y-41479500D01*
X42408170Y-41517947D01*
X42408160Y-41517950D01*
X42226092Y-41593364D01*
X42226079Y-41593371D01*
X42062218Y-41702860D01*
X42062214Y-41702863D01*
X41922863Y-41842214D01*
X41922860Y-41842218D01*
X41813371Y-42006079D01*
X41813364Y-42006092D01*
X41737950Y-42188160D01*
X41737947Y-42188170D01*
X41699500Y-42381456D01*
X41699500Y-42381459D01*
X41699500Y-43578541D01*
X41699500Y-43578543D01*
X41699499Y-43578543D01*
X41160500Y-43578543D01*
X41160500Y-42381456D01*
X41122052Y-42188170D01*
X41122051Y-42188169D01*
X41122051Y-42188165D01*
X41096797Y-42127196D01*
X41046635Y-42006092D01*
X41046628Y-42006079D01*
X40937139Y-41842218D01*
X40937136Y-41842214D01*
X40797785Y-41702863D01*
X40797781Y-41702860D01*
X40633920Y-41593371D01*
X40633907Y-41593364D01*
X40451839Y-41517950D01*
X40451829Y-41517947D01*
X40258543Y-41479500D01*
X40258541Y-41479500D01*
X40061459Y-41479500D01*
X40061457Y-41479500D01*
X39868170Y-41517947D01*
X39868160Y-41517950D01*
X39686092Y-41593364D01*
X39686079Y-41593371D01*
X39522218Y-41702860D01*
X39522214Y-41702863D01*
X39382863Y-41842214D01*
X39382860Y-41842218D01*
X39273371Y-42006079D01*
X39273364Y-42006092D01*
X39197950Y-42188160D01*
X39197947Y-42188170D01*
X39159500Y-42381456D01*
X39159500Y-42381459D01*
X39159500Y-43578541D01*
X39159500Y-43578543D01*
X39159499Y-43578543D01*
X26026538Y-43578543D01*
X26049564Y-35434148D01*
X26069439Y-35367166D01*
X26122372Y-35321560D01*
X26173564Y-35310500D01*
X28172573Y-35310500D01*
X28239612Y-35330185D01*
G37*
%TD.AperFunction*%
%TD*%
M02*
