M48
; DRILL file {KiCad 9.0.7} date 2026-03-19T19:02:53-0700
; FORMAT={-:-/ absolute / metric / decimal}
; #@! TF.CreationDate,2026-03-19T19:02:53-07:00
; #@! TF.GenerationSoftware,Kicad,Pcbnew,9.0.7
; #@! TF.FileFunction,Plated,1,2,PTH
FMAT,2
METRIC
; #@! TA.AperFunction,Plated,PTH,ViaDrill
T1C0.300
; #@! TA.AperFunction,Plated,PTH,ComponentDrill
T2C0.800
; #@! TA.AperFunction,Plated,PTH,ComponentDrill
T3C1.000
; #@! TA.AperFunction,Plated,PTH,ComponentDrill
T4C1.300
%
G90
G05
T1
X40.16Y-63.0
X45.0Y-67.5
X45.0Y-67.5
X63.02Y-53.52
X65.5Y-53.5
X65.5Y-53.5
X65.5Y-53.5
T2
X86.832Y-32.74
X86.832Y-35.28
X86.832Y-37.82
X86.832Y-40.36
X86.832Y-42.9
X86.832Y-45.44
X86.832Y-47.98
X86.832Y-50.52
X86.832Y-53.06
T3
X30.0Y-63.0
X32.54Y-63.0
X35.08Y-63.0
X37.62Y-63.0
X40.16Y-42.68
X40.16Y-63.0
X42.7Y-42.68
X42.7Y-63.0
X45.24Y-42.68
X45.24Y-63.0
X47.78Y-42.68
X47.78Y-63.0
X50.32Y-42.68
X50.32Y-63.0
X52.86Y-42.68
X52.86Y-63.0
X55.4Y-42.68
X55.4Y-63.0
X57.94Y-42.68
X57.94Y-63.0
X60.48Y-42.68
X60.48Y-63.0
X63.02Y-42.68
X63.02Y-63.0
X65.56Y-42.68
X65.56Y-63.0
X68.1Y-42.68
X68.1Y-63.0
X137.257Y-47.37
X137.257Y-49.91
X137.257Y-52.45
X137.257Y-54.99
X137.257Y-57.53
T4
X83.0Y-62.5
X88.0Y-62.5
X93.0Y-62.5
X105.0Y-62.5
X110.0Y-62.5
X115.0Y-62.5
X120.0Y-62.5
M30
