%TF.GenerationSoftware,KiCad,Pcbnew,9.0.7*%
%TF.CreationDate,2026-03-19T19:02:57-07:00*%
%TF.ProjectId,nav_board,6e61765f-626f-4617-9264-2e6b69636164,rev?*%
%TF.SameCoordinates,Original*%
%TF.FileFunction,Copper,L1,Top*%
%TF.FilePolarity,Positive*%
%FSLAX46Y46*%
G04 Gerber Fmt 4.6, Leading zero omitted, Abs format (unit mm)*
G04 Created by KiCad (PCBNEW 9.0.7) date 2026-03-19 19:02:57*
%MOMM*%
%LPD*%
G01*
G04 APERTURE LIST*
G04 Aperture macros list*
%AMRoundRect*
0 Rectangle with rounded corners*
0 $1 Rounding radius*
0 $2 $3 $4 $5 $6 $7 $8 $9 X,Y pos of 4 corners*
0 Add a 4 corners polygon primitive as box body*
4,1,4,$2,$3,$4,$5,$6,$7,$8,$9,$2,$3,0*
0 Add four circle primitives for the rounded corners*
1,1,$1+$1,$2,$3*
1,1,$1+$1,$4,$5*
1,1,$1+$1,$6,$7*
1,1,$1+$1,$8,$9*
0 Add four rect primitives between the rounded corners*
20,1,$1+$1,$2,$3,$4,$5,0*
20,1,$1+$1,$4,$5,$6,$7,0*
20,1,$1+$1,$6,$7,$8,$9,0*
20,1,$1+$1,$8,$9,$2,$3,0*%
G04 Aperture macros list end*
%TA.AperFunction,ComponentPad*%
%ADD10RoundRect,0.190500X0.762000X0.444500X-0.762000X0.444500X-0.762000X-0.444500X0.762000X-0.444500X0*%
%TD*%
%TA.AperFunction,ComponentPad*%
%ADD11RoundRect,0.250001X-1.149999X-1.149999X1.149999X-1.149999X1.149999X1.149999X-1.149999X1.149999X0*%
%TD*%
%TA.AperFunction,ComponentPad*%
%ADD12C,2.800000*%
%TD*%
%TA.AperFunction,ComponentPad*%
%ADD13RoundRect,0.250000X0.550000X-1.050000X0.550000X1.050000X-0.550000X1.050000X-0.550000X-1.050000X0*%
%TD*%
%TA.AperFunction,ComponentPad*%
%ADD14O,1.600000X2.600000*%
%TD*%
%TA.AperFunction,ComponentPad*%
%ADD15RoundRect,0.190500X-1.079500X-0.444500X1.079500X-0.444500X1.079500X0.444500X-1.079500X0.444500X0*%
%TD*%
%TA.AperFunction,ViaPad*%
%ADD16C,0.600000*%
%TD*%
%TA.AperFunction,Conductor*%
%ADD17C,0.200000*%
%TD*%
%TA.AperFunction,Conductor*%
%ADD18C,0.500000*%
%TD*%
G04 APERTURE END LIST*
D10*
%TO.P,U2,1,VDD*%
%TO.N,unconnected-(U2-VDD-Pad1)*%
X137257500Y-47370000D03*
%TO.P,U2,2,Vin*%
%TO.N,+5V*%
X137257500Y-49910000D03*
%TO.P,U2,3,GND*%
%TO.N,GND*%
X137257500Y-52450000D03*
%TO.P,U2,4,SDA*%
%TO.N,Net-(A1-SDA{slash}IO23)*%
X137257500Y-54990000D03*
%TO.P,U2,5,SCL*%
%TO.N,Net-(A1-SCL{slash}IO22)*%
X137257500Y-57530000D03*
%TD*%
D11*
%TO.P,J1,1,Pin_1*%
%TO.N,Net-(A1-DAC2{slash}A0)*%
X105000000Y-62500000D03*
D12*
%TO.P,J1,2,Pin_2*%
%TO.N,Net-(A1-DAC1{slash}A1)*%
X110000000Y-62500000D03*
%TO.P,J1,3,Pin_3*%
%TO.N,+5V*%
X115000000Y-62500000D03*
%TO.P,J1,4,Pin_4*%
%TO.N,GND*%
X120000000Y-62500000D03*
%TD*%
D13*
%TO.P,A1,1,~{RESET}*%
%TO.N,unconnected-(A1-~{RESET}-Pad1)*%
X30000000Y-62700000D03*
D14*
%TO.P,A1,2,3V3*%
%TO.N,unconnected-(A1-3V3-Pad2)*%
X32540000Y-62700000D03*
%TO.P,A1,3,NC*%
%TO.N,unconnected-(A1-NC-Pad3)*%
X35080000Y-62700000D03*
%TO.P,A1,4,GND*%
%TO.N,GND*%
X37620000Y-62700000D03*
%TO.P,A1,5,DAC2/A0*%
%TO.N,Net-(A1-DAC2{slash}A0)*%
X40160000Y-62700000D03*
%TO.P,A1,6,DAC1/A1*%
%TO.N,Net-(A1-DAC1{slash}A1)*%
X42700000Y-62700000D03*
%TO.P,A1,7,I34/A2*%
%TO.N,Net-(A1-I34{slash}A2)*%
X45240000Y-62700000D03*
%TO.P,A1,8,I39/A3*%
%TO.N,unconnected-(A1-I39{slash}A3-Pad8)*%
X47780000Y-62700000D03*
%TO.P,A1,9,IO36/A4*%
%TO.N,unconnected-(A1-IO36{slash}A4-Pad9)*%
X50320000Y-62700000D03*
%TO.P,A1,10,IO4/A5*%
%TO.N,unconnected-(A1-IO4{slash}A5-Pad10)*%
X52860000Y-62700000D03*
%TO.P,A1,11,SCK/IO5*%
%TO.N,unconnected-(A1-SCK{slash}IO5-Pad11)*%
X55400000Y-62700000D03*
%TO.P,A1,12,MOSI/IO18*%
%TO.N,unconnected-(A1-MOSI{slash}IO18-Pad12)*%
X57940000Y-62700000D03*
%TO.P,A1,13,MISO/IO19*%
%TO.N,unconnected-(A1-MISO{slash}IO19-Pad13)*%
X60480000Y-62700000D03*
%TO.P,A1,14,RX/IO16*%
%TO.N,Net-(A1-RX{slash}IO16)*%
X63020000Y-62700000D03*
%TO.P,A1,15,TX/IO17*%
%TO.N,Net-(A1-TX{slash}IO17)*%
X65560000Y-62700000D03*
%TO.P,A1,16,IO21*%
%TO.N,unconnected-(A1-IO21-Pad16)*%
X68100000Y-62700000D03*
%TO.P,A1,17,SDA/IO23*%
%TO.N,Net-(A1-SDA{slash}IO23)*%
X68100000Y-42980000D03*
%TO.P,A1,18,SCL/IO22*%
%TO.N,Net-(A1-SCL{slash}IO22)*%
X65560000Y-42980000D03*
%TO.P,A1,19,A6/IO14*%
%TO.N,unconnected-(A1-A6{slash}IO14-Pad19)*%
X63020000Y-42980000D03*
%TO.P,A1,20,A7/IO32*%
%TO.N,unconnected-(A1-A7{slash}IO32-Pad20)*%
X60480000Y-42980000D03*
%TO.P,A1,21,A8/IO15*%
%TO.N,unconnected-(A1-A8{slash}IO15-Pad21)*%
X57940000Y-42980000D03*
%TO.P,A1,22,A9/IO33*%
%TO.N,unconnected-(A1-A9{slash}IO33-Pad22)*%
X55400000Y-42980000D03*
%TO.P,A1,23,A10/IO27*%
%TO.N,unconnected-(A1-A10{slash}IO27-Pad23)*%
X52860000Y-42980000D03*
%TO.P,A1,24,A11/IO12*%
%TO.N,unconnected-(A1-A11{slash}IO12-Pad24)*%
X50320000Y-42980000D03*
%TO.P,A1,25,A12/IO13*%
%TO.N,unconnected-(A1-A12{slash}IO13-Pad25)*%
X47780000Y-42980000D03*
%TO.P,A1,26,USB*%
%TO.N,unconnected-(A1-USB-Pad26)*%
X45240000Y-42980000D03*
%TO.P,A1,27,EN*%
%TO.N,unconnected-(A1-EN-Pad27)*%
X42700000Y-42980000D03*
%TO.P,A1,28,VBAT*%
%TO.N,+5V*%
X40160000Y-42980000D03*
%TD*%
D11*
%TO.P,J2,1,Pin_1*%
%TO.N,+5V*%
X83000000Y-62500000D03*
D12*
%TO.P,J2,2,Pin_2*%
%TO.N,Net-(A1-I34{slash}A2)*%
X88000000Y-62500000D03*
%TO.P,J2,3,Pin_3*%
%TO.N,GND*%
X93000000Y-62500000D03*
%TD*%
D15*
%TO.P,U1,1,PPS*%
%TO.N,unconnected-(U1-PPS-Pad1)*%
X86832500Y-53060000D03*
%TO.P,U1,2,Vin*%
%TO.N,+5V*%
X86832500Y-50520000D03*
%TO.P,U1,3,GND*%
%TO.N,GND*%
X86832500Y-47980000D03*
%TO.P,U1,4,RX*%
%TO.N,Net-(A1-TX{slash}IO17)*%
X86832500Y-45440000D03*
%TO.P,U1,5,TX*%
%TO.N,Net-(A1-RX{slash}IO16)*%
X86832500Y-42900000D03*
%TO.P,U1,6,Fix*%
%TO.N,unconnected-(U1-Fix-Pad6)*%
X86832500Y-40360000D03*
%TO.P,U1,7,VBAT*%
%TO.N,unconnected-(U1-VBAT-Pad7)*%
X86832500Y-37820000D03*
%TO.P,U1,8,EN*%
%TO.N,unconnected-(U1-EN-Pad8)*%
X86832500Y-35280000D03*
%TO.P,U1,9,3.3V*%
%TO.N,unconnected-(U1-3.3V-Pad9)*%
X86832500Y-32740000D03*
%TD*%
D16*
%TO.N,Net-(A1-RX{slash}IO16)*%
X63020000Y-53520000D03*
%TO.N,Net-(A1-DAC2{slash}A0)*%
X45000000Y-67500000D03*
X40160000Y-63000000D03*
X45000000Y-67500000D03*
%TO.N,Net-(A1-TX{slash}IO17)*%
X65500000Y-53500000D03*
X65500000Y-53500000D03*
X65500000Y-53500000D03*
%TD*%
D17*
%TO.N,Net-(A1-DAC1{slash}A1)*%
X42700000Y-63000000D02*
X43500000Y-63800000D01*
X43500000Y-69000000D02*
X110000000Y-69000000D01*
X43500000Y-63800000D02*
X43500000Y-69000000D01*
X110000000Y-69000000D02*
X110000000Y-62500000D01*
%TO.N,Net-(A1-SCL{slash}IO22)*%
X65560000Y-42680000D02*
X78740000Y-29500000D01*
X78740000Y-29500000D02*
X127000000Y-29500000D01*
X127000000Y-29500000D02*
X141000000Y-43500000D01*
X141000000Y-43500000D02*
X141000000Y-57500000D01*
X140970000Y-57530000D02*
X137257500Y-57530000D01*
X141000000Y-57500000D02*
X140970000Y-57530000D01*
%TO.N,Net-(A1-SDA{slash}IO23)*%
X68100000Y-42680000D02*
X68820000Y-42680000D01*
X68820000Y-42680000D02*
X81000000Y-30500000D01*
X137257500Y-54990000D02*
X139490000Y-54990000D01*
X124500000Y-30500000D02*
X81000000Y-30500000D01*
X139490000Y-54990000D02*
X139500000Y-55000000D01*
X139500000Y-55000000D02*
X139500000Y-45500000D01*
X139500000Y-45500000D02*
X124500000Y-30500000D01*
%TO.N,Net-(A1-DAC1{slash}A1)*%
X42700000Y-63000000D02*
X42500000Y-63200000D01*
%TO.N,Net-(A1-DAC2{slash}A0)*%
X105000000Y-62500000D02*
X105000000Y-68000000D01*
X105000000Y-68000000D02*
X45500000Y-68000000D01*
X45500000Y-68000000D02*
X45000000Y-67500000D01*
%TO.N,Net-(A1-I34{slash}A2)*%
X87500000Y-66500000D02*
X88000000Y-66000000D01*
X88000000Y-66000000D02*
X88000000Y-62500000D01*
X45500000Y-66500000D02*
X45500000Y-63260000D01*
X45500000Y-63260000D02*
X45240000Y-63000000D01*
D18*
%TO.N,+5V*%
X115000000Y-62500000D02*
X115000000Y-58000000D01*
X82750000Y-50750000D02*
X82750000Y-51250000D01*
X82750000Y-51250000D02*
X83000000Y-51500000D01*
X83000000Y-51500000D02*
X83000000Y-62500000D01*
D17*
%TO.N,Net-(A1-RX{slash}IO16)*%
X63020000Y-63000000D02*
X63020000Y-53520000D01*
%TO.N,Net-(A1-I34{slash}A2)*%
X87500000Y-66500000D02*
X45500000Y-66500000D01*
D18*
%TO.N,+5V*%
X137257500Y-49910000D02*
X123090000Y-49910000D01*
X40160000Y-48160000D02*
X41500000Y-49500000D01*
X107980000Y-50520000D02*
X108000000Y-50500000D01*
X83000000Y-50500000D02*
X82750000Y-50750000D01*
X81500000Y-49500000D02*
X82750000Y-50750000D01*
X40160000Y-42680000D02*
X40160000Y-48160000D01*
X108000000Y-51000000D02*
X115000000Y-58000000D01*
X123090000Y-49910000D02*
X115000000Y-58000000D01*
X41500000Y-49500000D02*
X81500000Y-49500000D01*
X86832500Y-50520000D02*
X107980000Y-50520000D01*
X83020000Y-50520000D02*
X83000000Y-50500000D01*
X86832500Y-50520000D02*
X83020000Y-50520000D01*
X108000000Y-50500000D02*
X108000000Y-51000000D01*
D17*
%TO.N,Net-(A1-TX{slash}IO17)*%
X65500000Y-62940000D02*
X65500000Y-53500000D01*
X65560000Y-63000000D02*
X65500000Y-62940000D01*
%TD*%
M02*
