%TF.GenerationSoftware,KiCad,Pcbnew,9.0.7*%
%TF.CreationDate,2026-03-19T19:02:57-07:00*%
%TF.ProjectId,nav_board,6e61765f-626f-4617-9264-2e6b69636164,rev?*%
%TF.SameCoordinates,Original*%
%TF.FileFunction,Legend,Top*%
%TF.FilePolarity,Positive*%
%FSLAX46Y46*%
G04 Gerber Fmt 4.6, Leading zero omitted, Abs format (unit mm)*
G04 Created by KiCad (PCBNEW 9.0.7) date 2026-03-19 19:02:57*
%MOMM*%
%LPD*%
G01*
G04 APERTURE LIST*
%ADD10C,0.100000*%
%ADD11C,0.150000*%
%ADD12C,0.120000*%
G04 APERTURE END LIST*
D10*
X109171027Y-67362419D02*
X109742455Y-67362419D01*
X109456741Y-68362419D02*
X109456741Y-67362419D01*
X109980551Y-67362419D02*
X110647217Y-68362419D01*
X110647217Y-67362419D02*
X109980551Y-68362419D01*
X104895312Y-68362419D02*
X104561979Y-67886228D01*
X104323884Y-68362419D02*
X104323884Y-67362419D01*
X104323884Y-67362419D02*
X104704836Y-67362419D01*
X104704836Y-67362419D02*
X104800074Y-67410038D01*
X104800074Y-67410038D02*
X104847693Y-67457657D01*
X104847693Y-67457657D02*
X104895312Y-67552895D01*
X104895312Y-67552895D02*
X104895312Y-67695752D01*
X104895312Y-67695752D02*
X104847693Y-67790990D01*
X104847693Y-67790990D02*
X104800074Y-67838609D01*
X104800074Y-67838609D02*
X104704836Y-67886228D01*
X104704836Y-67886228D02*
X104323884Y-67886228D01*
X105228646Y-67362419D02*
X105895312Y-68362419D01*
X105895312Y-67362419D02*
X105228646Y-68362419D01*
X119287693Y-67230038D02*
X119192455Y-67182419D01*
X119192455Y-67182419D02*
X119049598Y-67182419D01*
X119049598Y-67182419D02*
X118906741Y-67230038D01*
X118906741Y-67230038D02*
X118811503Y-67325276D01*
X118811503Y-67325276D02*
X118763884Y-67420514D01*
X118763884Y-67420514D02*
X118716265Y-67610990D01*
X118716265Y-67610990D02*
X118716265Y-67753847D01*
X118716265Y-67753847D02*
X118763884Y-67944323D01*
X118763884Y-67944323D02*
X118811503Y-68039561D01*
X118811503Y-68039561D02*
X118906741Y-68134800D01*
X118906741Y-68134800D02*
X119049598Y-68182419D01*
X119049598Y-68182419D02*
X119144836Y-68182419D01*
X119144836Y-68182419D02*
X119287693Y-68134800D01*
X119287693Y-68134800D02*
X119335312Y-68087180D01*
X119335312Y-68087180D02*
X119335312Y-67753847D01*
X119335312Y-67753847D02*
X119144836Y-67753847D01*
X119763884Y-68182419D02*
X119763884Y-67182419D01*
X119763884Y-67182419D02*
X120335312Y-68182419D01*
X120335312Y-68182419D02*
X120335312Y-67182419D01*
X120811503Y-68182419D02*
X120811503Y-67182419D01*
X120811503Y-67182419D02*
X121049598Y-67182419D01*
X121049598Y-67182419D02*
X121192455Y-67230038D01*
X121192455Y-67230038D02*
X121287693Y-67325276D01*
X121287693Y-67325276D02*
X121335312Y-67420514D01*
X121335312Y-67420514D02*
X121382931Y-67610990D01*
X121382931Y-67610990D02*
X121382931Y-67753847D01*
X121382931Y-67753847D02*
X121335312Y-67944323D01*
X121335312Y-67944323D02*
X121287693Y-68039561D01*
X121287693Y-68039561D02*
X121192455Y-68134800D01*
X121192455Y-68134800D02*
X121049598Y-68182419D01*
X121049598Y-68182419D02*
X120811503Y-68182419D01*
X113713884Y-67901466D02*
X114475789Y-67901466D01*
X114094836Y-68282419D02*
X114094836Y-67520514D01*
X115428169Y-67282419D02*
X114951979Y-67282419D01*
X114951979Y-67282419D02*
X114904360Y-67758609D01*
X114904360Y-67758609D02*
X114951979Y-67710990D01*
X114951979Y-67710990D02*
X115047217Y-67663371D01*
X115047217Y-67663371D02*
X115285312Y-67663371D01*
X115285312Y-67663371D02*
X115380550Y-67710990D01*
X115380550Y-67710990D02*
X115428169Y-67758609D01*
X115428169Y-67758609D02*
X115475788Y-67853847D01*
X115475788Y-67853847D02*
X115475788Y-68091942D01*
X115475788Y-68091942D02*
X115428169Y-68187180D01*
X115428169Y-68187180D02*
X115380550Y-68234800D01*
X115380550Y-68234800D02*
X115285312Y-68282419D01*
X115285312Y-68282419D02*
X115047217Y-68282419D01*
X115047217Y-68282419D02*
X114951979Y-68234800D01*
X114951979Y-68234800D02*
X114904360Y-68187180D01*
X115761503Y-67282419D02*
X116094836Y-68282419D01*
X116094836Y-68282419D02*
X116428169Y-67282419D01*
X92247693Y-67520038D02*
X92152455Y-67472419D01*
X92152455Y-67472419D02*
X92009598Y-67472419D01*
X92009598Y-67472419D02*
X91866741Y-67520038D01*
X91866741Y-67520038D02*
X91771503Y-67615276D01*
X91771503Y-67615276D02*
X91723884Y-67710514D01*
X91723884Y-67710514D02*
X91676265Y-67900990D01*
X91676265Y-67900990D02*
X91676265Y-68043847D01*
X91676265Y-68043847D02*
X91723884Y-68234323D01*
X91723884Y-68234323D02*
X91771503Y-68329561D01*
X91771503Y-68329561D02*
X91866741Y-68424800D01*
X91866741Y-68424800D02*
X92009598Y-68472419D01*
X92009598Y-68472419D02*
X92104836Y-68472419D01*
X92104836Y-68472419D02*
X92247693Y-68424800D01*
X92247693Y-68424800D02*
X92295312Y-68377180D01*
X92295312Y-68377180D02*
X92295312Y-68043847D01*
X92295312Y-68043847D02*
X92104836Y-68043847D01*
X92723884Y-68472419D02*
X92723884Y-67472419D01*
X92723884Y-67472419D02*
X93295312Y-68472419D01*
X93295312Y-68472419D02*
X93295312Y-67472419D01*
X93771503Y-68472419D02*
X93771503Y-67472419D01*
X93771503Y-67472419D02*
X94009598Y-67472419D01*
X94009598Y-67472419D02*
X94152455Y-67520038D01*
X94152455Y-67520038D02*
X94247693Y-67615276D01*
X94247693Y-67615276D02*
X94295312Y-67710514D01*
X94295312Y-67710514D02*
X94342931Y-67900990D01*
X94342931Y-67900990D02*
X94342931Y-68043847D01*
X94342931Y-68043847D02*
X94295312Y-68234323D01*
X94295312Y-68234323D02*
X94247693Y-68329561D01*
X94247693Y-68329561D02*
X94152455Y-68424800D01*
X94152455Y-68424800D02*
X94009598Y-68472419D01*
X94009598Y-68472419D02*
X93771503Y-68472419D01*
X86757217Y-67818609D02*
X86423884Y-67818609D01*
X86423884Y-68342419D02*
X86423884Y-67342419D01*
X86423884Y-67342419D02*
X86900074Y-67342419D01*
X87423884Y-68342419D02*
X87328646Y-68294800D01*
X87328646Y-68294800D02*
X87281027Y-68199561D01*
X87281027Y-68199561D02*
X87281027Y-67342419D01*
X87947694Y-68342419D02*
X87852456Y-68294800D01*
X87852456Y-68294800D02*
X87804837Y-68247180D01*
X87804837Y-68247180D02*
X87757218Y-68151942D01*
X87757218Y-68151942D02*
X87757218Y-67866228D01*
X87757218Y-67866228D02*
X87804837Y-67770990D01*
X87804837Y-67770990D02*
X87852456Y-67723371D01*
X87852456Y-67723371D02*
X87947694Y-67675752D01*
X87947694Y-67675752D02*
X88090551Y-67675752D01*
X88090551Y-67675752D02*
X88185789Y-67723371D01*
X88185789Y-67723371D02*
X88233408Y-67770990D01*
X88233408Y-67770990D02*
X88281027Y-67866228D01*
X88281027Y-67866228D02*
X88281027Y-68151942D01*
X88281027Y-68151942D02*
X88233408Y-68247180D01*
X88233408Y-68247180D02*
X88185789Y-68294800D01*
X88185789Y-68294800D02*
X88090551Y-68342419D01*
X88090551Y-68342419D02*
X87947694Y-68342419D01*
X88614361Y-67675752D02*
X88804837Y-68342419D01*
X88804837Y-68342419D02*
X88995313Y-67866228D01*
X88995313Y-67866228D02*
X89185789Y-68342419D01*
X89185789Y-68342419D02*
X89376265Y-67675752D01*
X81163884Y-68031466D02*
X81925789Y-68031466D01*
X81544836Y-68412419D02*
X81544836Y-67650514D01*
X82878169Y-67412419D02*
X82401979Y-67412419D01*
X82401979Y-67412419D02*
X82354360Y-67888609D01*
X82354360Y-67888609D02*
X82401979Y-67840990D01*
X82401979Y-67840990D02*
X82497217Y-67793371D01*
X82497217Y-67793371D02*
X82735312Y-67793371D01*
X82735312Y-67793371D02*
X82830550Y-67840990D01*
X82830550Y-67840990D02*
X82878169Y-67888609D01*
X82878169Y-67888609D02*
X82925788Y-67983847D01*
X82925788Y-67983847D02*
X82925788Y-68221942D01*
X82925788Y-68221942D02*
X82878169Y-68317180D01*
X82878169Y-68317180D02*
X82830550Y-68364800D01*
X82830550Y-68364800D02*
X82735312Y-68412419D01*
X82735312Y-68412419D02*
X82497217Y-68412419D01*
X82497217Y-68412419D02*
X82401979Y-68364800D01*
X82401979Y-68364800D02*
X82354360Y-68317180D01*
X83211503Y-67412419D02*
X83544836Y-68412419D01*
X83544836Y-68412419D02*
X83878169Y-67412419D01*
X162149404Y-47142580D02*
X162149404Y-46333057D01*
X162149404Y-46333057D02*
X162101785Y-46237819D01*
X162101785Y-46237819D02*
X162054166Y-46190200D01*
X162054166Y-46190200D02*
X161958928Y-46142580D01*
X161958928Y-46142580D02*
X161768452Y-46142580D01*
X161768452Y-46142580D02*
X161673214Y-46190200D01*
X161673214Y-46190200D02*
X161625595Y-46237819D01*
X161625595Y-46237819D02*
X161577976Y-46333057D01*
X161577976Y-46333057D02*
X161577976Y-47142580D01*
X161149404Y-47047342D02*
X161101785Y-47094961D01*
X161101785Y-47094961D02*
X161006547Y-47142580D01*
X161006547Y-47142580D02*
X160768452Y-47142580D01*
X160768452Y-47142580D02*
X160673214Y-47094961D01*
X160673214Y-47094961D02*
X160625595Y-47047342D01*
X160625595Y-47047342D02*
X160577976Y-46952104D01*
X160577976Y-46952104D02*
X160577976Y-46856866D01*
X160577976Y-46856866D02*
X160625595Y-46714009D01*
X160625595Y-46714009D02*
X161197023Y-46142580D01*
X161197023Y-46142580D02*
X160577976Y-46142580D01*
X142176472Y-47227580D02*
X141843139Y-46227580D01*
X141843139Y-46227580D02*
X141509806Y-47227580D01*
X141176472Y-46227580D02*
X141176472Y-47227580D01*
X141176472Y-47227580D02*
X140938377Y-47227580D01*
X140938377Y-47227580D02*
X140795520Y-47179961D01*
X140795520Y-47179961D02*
X140700282Y-47084723D01*
X140700282Y-47084723D02*
X140652663Y-46989485D01*
X140652663Y-46989485D02*
X140605044Y-46799009D01*
X140605044Y-46799009D02*
X140605044Y-46656152D01*
X140605044Y-46656152D02*
X140652663Y-46465676D01*
X140652663Y-46465676D02*
X140700282Y-46370438D01*
X140700282Y-46370438D02*
X140795520Y-46275200D01*
X140795520Y-46275200D02*
X140938377Y-46227580D01*
X140938377Y-46227580D02*
X141176472Y-46227580D01*
X140176472Y-46227580D02*
X140176472Y-47227580D01*
X140176472Y-47227580D02*
X139938377Y-47227580D01*
X139938377Y-47227580D02*
X139795520Y-47179961D01*
X139795520Y-47179961D02*
X139700282Y-47084723D01*
X139700282Y-47084723D02*
X139652663Y-46989485D01*
X139652663Y-46989485D02*
X139605044Y-46799009D01*
X139605044Y-46799009D02*
X139605044Y-46656152D01*
X139605044Y-46656152D02*
X139652663Y-46465676D01*
X139652663Y-46465676D02*
X139700282Y-46370438D01*
X139700282Y-46370438D02*
X139795520Y-46275200D01*
X139795520Y-46275200D02*
X139938377Y-46227580D01*
X139938377Y-46227580D02*
X140176472Y-46227580D01*
X142081234Y-56435200D02*
X141938377Y-56387580D01*
X141938377Y-56387580D02*
X141700282Y-56387580D01*
X141700282Y-56387580D02*
X141605044Y-56435200D01*
X141605044Y-56435200D02*
X141557425Y-56482819D01*
X141557425Y-56482819D02*
X141509806Y-56578057D01*
X141509806Y-56578057D02*
X141509806Y-56673295D01*
X141509806Y-56673295D02*
X141557425Y-56768533D01*
X141557425Y-56768533D02*
X141605044Y-56816152D01*
X141605044Y-56816152D02*
X141700282Y-56863771D01*
X141700282Y-56863771D02*
X141890758Y-56911390D01*
X141890758Y-56911390D02*
X141985996Y-56959009D01*
X141985996Y-56959009D02*
X142033615Y-57006628D01*
X142033615Y-57006628D02*
X142081234Y-57101866D01*
X142081234Y-57101866D02*
X142081234Y-57197104D01*
X142081234Y-57197104D02*
X142033615Y-57292342D01*
X142033615Y-57292342D02*
X141985996Y-57339961D01*
X141985996Y-57339961D02*
X141890758Y-57387580D01*
X141890758Y-57387580D02*
X141652663Y-57387580D01*
X141652663Y-57387580D02*
X141509806Y-57339961D01*
X140509806Y-56482819D02*
X140557425Y-56435200D01*
X140557425Y-56435200D02*
X140700282Y-56387580D01*
X140700282Y-56387580D02*
X140795520Y-56387580D01*
X140795520Y-56387580D02*
X140938377Y-56435200D01*
X140938377Y-56435200D02*
X141033615Y-56530438D01*
X141033615Y-56530438D02*
X141081234Y-56625676D01*
X141081234Y-56625676D02*
X141128853Y-56816152D01*
X141128853Y-56816152D02*
X141128853Y-56959009D01*
X141128853Y-56959009D02*
X141081234Y-57149485D01*
X141081234Y-57149485D02*
X141033615Y-57244723D01*
X141033615Y-57244723D02*
X140938377Y-57339961D01*
X140938377Y-57339961D02*
X140795520Y-57387580D01*
X140795520Y-57387580D02*
X140700282Y-57387580D01*
X140700282Y-57387580D02*
X140557425Y-57339961D01*
X140557425Y-57339961D02*
X140509806Y-57292342D01*
X139605044Y-56387580D02*
X140081234Y-56387580D01*
X140081234Y-56387580D02*
X140081234Y-57387580D01*
X142176472Y-49767580D02*
X141843139Y-48767580D01*
X141843139Y-48767580D02*
X141509806Y-49767580D01*
X141176472Y-48767580D02*
X141176472Y-49434247D01*
X141176472Y-49767580D02*
X141224091Y-49719961D01*
X141224091Y-49719961D02*
X141176472Y-49672342D01*
X141176472Y-49672342D02*
X141128853Y-49719961D01*
X141128853Y-49719961D02*
X141176472Y-49767580D01*
X141176472Y-49767580D02*
X141176472Y-49672342D01*
X140700282Y-49434247D02*
X140700282Y-48767580D01*
X140700282Y-49339009D02*
X140652663Y-49386628D01*
X140652663Y-49386628D02*
X140557425Y-49434247D01*
X140557425Y-49434247D02*
X140414568Y-49434247D01*
X140414568Y-49434247D02*
X140319330Y-49386628D01*
X140319330Y-49386628D02*
X140271711Y-49291390D01*
X140271711Y-49291390D02*
X140271711Y-48767580D01*
X141509806Y-52259961D02*
X141605044Y-52307580D01*
X141605044Y-52307580D02*
X141747901Y-52307580D01*
X141747901Y-52307580D02*
X141890758Y-52259961D01*
X141890758Y-52259961D02*
X141985996Y-52164723D01*
X141985996Y-52164723D02*
X142033615Y-52069485D01*
X142033615Y-52069485D02*
X142081234Y-51879009D01*
X142081234Y-51879009D02*
X142081234Y-51736152D01*
X142081234Y-51736152D02*
X142033615Y-51545676D01*
X142033615Y-51545676D02*
X141985996Y-51450438D01*
X141985996Y-51450438D02*
X141890758Y-51355200D01*
X141890758Y-51355200D02*
X141747901Y-51307580D01*
X141747901Y-51307580D02*
X141652663Y-51307580D01*
X141652663Y-51307580D02*
X141509806Y-51355200D01*
X141509806Y-51355200D02*
X141462187Y-51402819D01*
X141462187Y-51402819D02*
X141462187Y-51736152D01*
X141462187Y-51736152D02*
X141652663Y-51736152D01*
X141033615Y-51307580D02*
X141033615Y-52307580D01*
X141033615Y-52307580D02*
X140462187Y-51307580D01*
X140462187Y-51307580D02*
X140462187Y-52307580D01*
X139985996Y-51307580D02*
X139985996Y-52307580D01*
X139985996Y-52307580D02*
X139747901Y-52307580D01*
X139747901Y-52307580D02*
X139605044Y-52259961D01*
X139605044Y-52259961D02*
X139509806Y-52164723D01*
X139509806Y-52164723D02*
X139462187Y-52069485D01*
X139462187Y-52069485D02*
X139414568Y-51879009D01*
X139414568Y-51879009D02*
X139414568Y-51736152D01*
X139414568Y-51736152D02*
X139462187Y-51545676D01*
X139462187Y-51545676D02*
X139509806Y-51450438D01*
X139509806Y-51450438D02*
X139605044Y-51355200D01*
X139605044Y-51355200D02*
X139747901Y-51307580D01*
X139747901Y-51307580D02*
X139985996Y-51307580D01*
X142081234Y-53895200D02*
X141938377Y-53847580D01*
X141938377Y-53847580D02*
X141700282Y-53847580D01*
X141700282Y-53847580D02*
X141605044Y-53895200D01*
X141605044Y-53895200D02*
X141557425Y-53942819D01*
X141557425Y-53942819D02*
X141509806Y-54038057D01*
X141509806Y-54038057D02*
X141509806Y-54133295D01*
X141509806Y-54133295D02*
X141557425Y-54228533D01*
X141557425Y-54228533D02*
X141605044Y-54276152D01*
X141605044Y-54276152D02*
X141700282Y-54323771D01*
X141700282Y-54323771D02*
X141890758Y-54371390D01*
X141890758Y-54371390D02*
X141985996Y-54419009D01*
X141985996Y-54419009D02*
X142033615Y-54466628D01*
X142033615Y-54466628D02*
X142081234Y-54561866D01*
X142081234Y-54561866D02*
X142081234Y-54657104D01*
X142081234Y-54657104D02*
X142033615Y-54752342D01*
X142033615Y-54752342D02*
X141985996Y-54799961D01*
X141985996Y-54799961D02*
X141890758Y-54847580D01*
X141890758Y-54847580D02*
X141652663Y-54847580D01*
X141652663Y-54847580D02*
X141509806Y-54799961D01*
X141081234Y-53847580D02*
X141081234Y-54847580D01*
X141081234Y-54847580D02*
X140843139Y-54847580D01*
X140843139Y-54847580D02*
X140700282Y-54799961D01*
X140700282Y-54799961D02*
X140605044Y-54704723D01*
X140605044Y-54704723D02*
X140557425Y-54609485D01*
X140557425Y-54609485D02*
X140509806Y-54419009D01*
X140509806Y-54419009D02*
X140509806Y-54276152D01*
X140509806Y-54276152D02*
X140557425Y-54085676D01*
X140557425Y-54085676D02*
X140605044Y-53990438D01*
X140605044Y-53990438D02*
X140700282Y-53895200D01*
X140700282Y-53895200D02*
X140843139Y-53847580D01*
X140843139Y-53847580D02*
X141081234Y-53847580D01*
X140128853Y-54133295D02*
X139652663Y-54133295D01*
X140224091Y-53847580D02*
X139890758Y-54847580D01*
X139890758Y-54847580D02*
X139557425Y-53847580D01*
D11*
X111916666Y-56834819D02*
X111916666Y-57549104D01*
X111916666Y-57549104D02*
X111869047Y-57691961D01*
X111869047Y-57691961D02*
X111773809Y-57787200D01*
X111773809Y-57787200D02*
X111630952Y-57834819D01*
X111630952Y-57834819D02*
X111535714Y-57834819D01*
X112916666Y-57834819D02*
X112345238Y-57834819D01*
X112630952Y-57834819D02*
X112630952Y-56834819D01*
X112630952Y-56834819D02*
X112535714Y-56977676D01*
X112535714Y-56977676D02*
X112440476Y-57072914D01*
X112440476Y-57072914D02*
X112345238Y-57120533D01*
X22549104Y-53554285D02*
X22549104Y-53078095D01*
X22834819Y-53649523D02*
X21834819Y-53316190D01*
X21834819Y-53316190D02*
X22834819Y-52982857D01*
X22834819Y-52125714D02*
X22834819Y-52697142D01*
X22834819Y-52411428D02*
X21834819Y-52411428D01*
X21834819Y-52411428D02*
X21977676Y-52506666D01*
X21977676Y-52506666D02*
X22072914Y-52601904D01*
X22072914Y-52601904D02*
X22120533Y-52697142D01*
X87416666Y-56834819D02*
X87416666Y-57549104D01*
X87416666Y-57549104D02*
X87369047Y-57691961D01*
X87369047Y-57691961D02*
X87273809Y-57787200D01*
X87273809Y-57787200D02*
X87130952Y-57834819D01*
X87130952Y-57834819D02*
X87035714Y-57834819D01*
X87845238Y-56930057D02*
X87892857Y-56882438D01*
X87892857Y-56882438D02*
X87988095Y-56834819D01*
X87988095Y-56834819D02*
X88226190Y-56834819D01*
X88226190Y-56834819D02*
X88321428Y-56882438D01*
X88321428Y-56882438D02*
X88369047Y-56930057D01*
X88369047Y-56930057D02*
X88416666Y-57025295D01*
X88416666Y-57025295D02*
X88416666Y-57120533D01*
X88416666Y-57120533D02*
X88369047Y-57263390D01*
X88369047Y-57263390D02*
X87797619Y-57834819D01*
X87797619Y-57834819D02*
X88416666Y-57834819D01*
D10*
X84070595Y-54557419D02*
X84070595Y-55366942D01*
X84070595Y-55366942D02*
X84118214Y-55462180D01*
X84118214Y-55462180D02*
X84165833Y-55509800D01*
X84165833Y-55509800D02*
X84261071Y-55557419D01*
X84261071Y-55557419D02*
X84451547Y-55557419D01*
X84451547Y-55557419D02*
X84546785Y-55509800D01*
X84546785Y-55509800D02*
X84594404Y-55462180D01*
X84594404Y-55462180D02*
X84642023Y-55366942D01*
X84642023Y-55366942D02*
X84642023Y-54557419D01*
X85642023Y-55557419D02*
X85070595Y-55557419D01*
X85356309Y-55557419D02*
X85356309Y-54557419D01*
X85356309Y-54557419D02*
X85261071Y-54700276D01*
X85261071Y-54700276D02*
X85165833Y-54795514D01*
X85165833Y-54795514D02*
X85070595Y-54843133D01*
X90978289Y-42105752D02*
X90216384Y-42391466D01*
X90216384Y-42391466D02*
X90978289Y-42677180D01*
X91311622Y-41772419D02*
X91883050Y-41772419D01*
X91597336Y-42772419D02*
X91597336Y-41772419D01*
X92121146Y-41772419D02*
X92787812Y-42772419D01*
X92787812Y-41772419D02*
X92121146Y-42772419D01*
X90740193Y-46900038D02*
X90644955Y-46852419D01*
X90644955Y-46852419D02*
X90502098Y-46852419D01*
X90502098Y-46852419D02*
X90359241Y-46900038D01*
X90359241Y-46900038D02*
X90264003Y-46995276D01*
X90264003Y-46995276D02*
X90216384Y-47090514D01*
X90216384Y-47090514D02*
X90168765Y-47280990D01*
X90168765Y-47280990D02*
X90168765Y-47423847D01*
X90168765Y-47423847D02*
X90216384Y-47614323D01*
X90216384Y-47614323D02*
X90264003Y-47709561D01*
X90264003Y-47709561D02*
X90359241Y-47804800D01*
X90359241Y-47804800D02*
X90502098Y-47852419D01*
X90502098Y-47852419D02*
X90597336Y-47852419D01*
X90597336Y-47852419D02*
X90740193Y-47804800D01*
X90740193Y-47804800D02*
X90787812Y-47757180D01*
X90787812Y-47757180D02*
X90787812Y-47423847D01*
X90787812Y-47423847D02*
X90597336Y-47423847D01*
X91216384Y-47852419D02*
X91216384Y-46852419D01*
X91216384Y-46852419D02*
X91787812Y-47852419D01*
X91787812Y-47852419D02*
X91787812Y-46852419D01*
X92264003Y-47852419D02*
X92264003Y-46852419D01*
X92264003Y-46852419D02*
X92502098Y-46852419D01*
X92502098Y-46852419D02*
X92644955Y-46900038D01*
X92644955Y-46900038D02*
X92740193Y-46995276D01*
X92740193Y-46995276D02*
X92787812Y-47090514D01*
X92787812Y-47090514D02*
X92835431Y-47280990D01*
X92835431Y-47280990D02*
X92835431Y-47423847D01*
X92835431Y-47423847D02*
X92787812Y-47614323D01*
X92787812Y-47614323D02*
X92740193Y-47709561D01*
X92740193Y-47709561D02*
X92644955Y-47804800D01*
X92644955Y-47804800D02*
X92502098Y-47852419D01*
X92502098Y-47852419D02*
X92264003Y-47852419D01*
X90978289Y-31945752D02*
X90216384Y-32231466D01*
X90216384Y-32231466D02*
X90978289Y-32517180D01*
X91359241Y-31612419D02*
X91978288Y-31612419D01*
X91978288Y-31612419D02*
X91644955Y-31993371D01*
X91644955Y-31993371D02*
X91787812Y-31993371D01*
X91787812Y-31993371D02*
X91883050Y-32040990D01*
X91883050Y-32040990D02*
X91930669Y-32088609D01*
X91930669Y-32088609D02*
X91978288Y-32183847D01*
X91978288Y-32183847D02*
X91978288Y-32421942D01*
X91978288Y-32421942D02*
X91930669Y-32517180D01*
X91930669Y-32517180D02*
X91883050Y-32564800D01*
X91883050Y-32564800D02*
X91787812Y-32612419D01*
X91787812Y-32612419D02*
X91502098Y-32612419D01*
X91502098Y-32612419D02*
X91406860Y-32564800D01*
X91406860Y-32564800D02*
X91359241Y-32517180D01*
X92406860Y-32517180D02*
X92454479Y-32564800D01*
X92454479Y-32564800D02*
X92406860Y-32612419D01*
X92406860Y-32612419D02*
X92359241Y-32564800D01*
X92359241Y-32564800D02*
X92406860Y-32517180D01*
X92406860Y-32517180D02*
X92406860Y-32612419D01*
X92787812Y-31612419D02*
X93406859Y-31612419D01*
X93406859Y-31612419D02*
X93073526Y-31993371D01*
X93073526Y-31993371D02*
X93216383Y-31993371D01*
X93216383Y-31993371D02*
X93311621Y-32040990D01*
X93311621Y-32040990D02*
X93359240Y-32088609D01*
X93359240Y-32088609D02*
X93406859Y-32183847D01*
X93406859Y-32183847D02*
X93406859Y-32421942D01*
X93406859Y-32421942D02*
X93359240Y-32517180D01*
X93359240Y-32517180D02*
X93311621Y-32564800D01*
X93311621Y-32564800D02*
X93216383Y-32612419D01*
X93216383Y-32612419D02*
X92930669Y-32612419D01*
X92930669Y-32612419D02*
X92835431Y-32564800D01*
X92835431Y-32564800D02*
X92787812Y-32517180D01*
X93692574Y-31612419D02*
X94025907Y-32612419D01*
X94025907Y-32612419D02*
X94359240Y-31612419D01*
X90216384Y-44645752D02*
X90978289Y-44931466D01*
X90978289Y-44931466D02*
X90216384Y-45217180D01*
X92025907Y-45312419D02*
X91692574Y-44836228D01*
X91454479Y-45312419D02*
X91454479Y-44312419D01*
X91454479Y-44312419D02*
X91835431Y-44312419D01*
X91835431Y-44312419D02*
X91930669Y-44360038D01*
X91930669Y-44360038D02*
X91978288Y-44407657D01*
X91978288Y-44407657D02*
X92025907Y-44502895D01*
X92025907Y-44502895D02*
X92025907Y-44645752D01*
X92025907Y-44645752D02*
X91978288Y-44740990D01*
X91978288Y-44740990D02*
X91930669Y-44788609D01*
X91930669Y-44788609D02*
X91835431Y-44836228D01*
X91835431Y-44836228D02*
X91454479Y-44836228D01*
X92359241Y-44312419D02*
X93025907Y-45312419D01*
X93025907Y-44312419D02*
X92359241Y-45312419D01*
X90073527Y-49392419D02*
X90406860Y-50392419D01*
X90406860Y-50392419D02*
X90740193Y-49392419D01*
X91073527Y-50392419D02*
X91073527Y-49392419D01*
X91549717Y-50392419D02*
X91549717Y-49392419D01*
X91549717Y-49392419D02*
X92121145Y-50392419D01*
X92121145Y-50392419D02*
X92121145Y-49392419D01*
X90216384Y-34485752D02*
X90978289Y-34771466D01*
X90978289Y-34771466D02*
X90216384Y-35057180D01*
X91454479Y-34628609D02*
X91787812Y-34628609D01*
X91930669Y-35152419D02*
X91454479Y-35152419D01*
X91454479Y-35152419D02*
X91454479Y-34152419D01*
X91454479Y-34152419D02*
X91930669Y-34152419D01*
X92359241Y-35152419D02*
X92359241Y-34152419D01*
X92359241Y-34152419D02*
X92930669Y-35152419D01*
X92930669Y-35152419D02*
X92930669Y-34152419D01*
X90073527Y-36692419D02*
X90406860Y-37692419D01*
X90406860Y-37692419D02*
X90740193Y-36692419D01*
X91406860Y-37168609D02*
X91549717Y-37216228D01*
X91549717Y-37216228D02*
X91597336Y-37263847D01*
X91597336Y-37263847D02*
X91644955Y-37359085D01*
X91644955Y-37359085D02*
X91644955Y-37501942D01*
X91644955Y-37501942D02*
X91597336Y-37597180D01*
X91597336Y-37597180D02*
X91549717Y-37644800D01*
X91549717Y-37644800D02*
X91454479Y-37692419D01*
X91454479Y-37692419D02*
X91073527Y-37692419D01*
X91073527Y-37692419D02*
X91073527Y-36692419D01*
X91073527Y-36692419D02*
X91406860Y-36692419D01*
X91406860Y-36692419D02*
X91502098Y-36740038D01*
X91502098Y-36740038D02*
X91549717Y-36787657D01*
X91549717Y-36787657D02*
X91597336Y-36882895D01*
X91597336Y-36882895D02*
X91597336Y-36978133D01*
X91597336Y-36978133D02*
X91549717Y-37073371D01*
X91549717Y-37073371D02*
X91502098Y-37120990D01*
X91502098Y-37120990D02*
X91406860Y-37168609D01*
X91406860Y-37168609D02*
X91073527Y-37168609D01*
X92025908Y-37406704D02*
X92502098Y-37406704D01*
X91930670Y-37692419D02*
X92264003Y-36692419D01*
X92264003Y-36692419D02*
X92597336Y-37692419D01*
X92787813Y-36692419D02*
X93359241Y-36692419D01*
X93073527Y-37692419D02*
X93073527Y-36692419D01*
X90549717Y-39708609D02*
X90216384Y-39708609D01*
X90216384Y-40232419D02*
X90216384Y-39232419D01*
X90216384Y-39232419D02*
X90692574Y-39232419D01*
X91073527Y-40232419D02*
X91073527Y-39232419D01*
X91454479Y-39232419D02*
X92121145Y-40232419D01*
X92121145Y-39232419D02*
X91454479Y-40232419D01*
X90978289Y-52265752D02*
X90216384Y-52551466D01*
X90216384Y-52551466D02*
X90978289Y-52837180D01*
X91454479Y-52932419D02*
X91454479Y-51932419D01*
X91454479Y-51932419D02*
X91835431Y-51932419D01*
X91835431Y-51932419D02*
X91930669Y-51980038D01*
X91930669Y-51980038D02*
X91978288Y-52027657D01*
X91978288Y-52027657D02*
X92025907Y-52122895D01*
X92025907Y-52122895D02*
X92025907Y-52265752D01*
X92025907Y-52265752D02*
X91978288Y-52360990D01*
X91978288Y-52360990D02*
X91930669Y-52408609D01*
X91930669Y-52408609D02*
X91835431Y-52456228D01*
X91835431Y-52456228D02*
X91454479Y-52456228D01*
X92454479Y-52932419D02*
X92454479Y-51932419D01*
X92454479Y-51932419D02*
X92835431Y-51932419D01*
X92835431Y-51932419D02*
X92930669Y-51980038D01*
X92930669Y-51980038D02*
X92978288Y-52027657D01*
X92978288Y-52027657D02*
X93025907Y-52122895D01*
X93025907Y-52122895D02*
X93025907Y-52265752D01*
X93025907Y-52265752D02*
X92978288Y-52360990D01*
X92978288Y-52360990D02*
X92930669Y-52408609D01*
X92930669Y-52408609D02*
X92835431Y-52456228D01*
X92835431Y-52456228D02*
X92454479Y-52456228D01*
X93406860Y-52884800D02*
X93549717Y-52932419D01*
X93549717Y-52932419D02*
X93787812Y-52932419D01*
X93787812Y-52932419D02*
X93883050Y-52884800D01*
X93883050Y-52884800D02*
X93930669Y-52837180D01*
X93930669Y-52837180D02*
X93978288Y-52741942D01*
X93978288Y-52741942D02*
X93978288Y-52646704D01*
X93978288Y-52646704D02*
X93930669Y-52551466D01*
X93930669Y-52551466D02*
X93883050Y-52503847D01*
X93883050Y-52503847D02*
X93787812Y-52456228D01*
X93787812Y-52456228D02*
X93597336Y-52408609D01*
X93597336Y-52408609D02*
X93502098Y-52360990D01*
X93502098Y-52360990D02*
X93454479Y-52313371D01*
X93454479Y-52313371D02*
X93406860Y-52218133D01*
X93406860Y-52218133D02*
X93406860Y-52122895D01*
X93406860Y-52122895D02*
X93454479Y-52027657D01*
X93454479Y-52027657D02*
X93502098Y-51980038D01*
X93502098Y-51980038D02*
X93597336Y-51932419D01*
X93597336Y-51932419D02*
X93835431Y-51932419D01*
X93835431Y-51932419D02*
X93978288Y-51980038D01*
%TO.C,U2*%
X154867500Y-56260000D02*
G75*
G02*
X152667500Y-56260000I-1100000J0D01*
G01*
X152667500Y-56260000D02*
G75*
G02*
X154867500Y-56260000I1100000J0D01*
G01*
X159947500Y-48640000D02*
G75*
G02*
X157747500Y-48640000I-1100000J0D01*
G01*
X157747500Y-48640000D02*
G75*
G02*
X159947500Y-48640000I1100000J0D01*
G01*
X161387500Y-59100000D02*
X134887500Y-59100000D01*
X134887500Y-46100000D01*
X161387500Y-46100000D01*
X161387500Y-59100000D01*
D12*
%TO.C,J1*%
X101880000Y-58380000D02*
X122620000Y-58380000D01*
X101880000Y-62000000D02*
X103120000Y-62000000D01*
X101880000Y-63000000D02*
X103120000Y-63000000D01*
X101880000Y-64300000D02*
X103120000Y-64300000D01*
X101880000Y-66420000D02*
X101880000Y-58380000D01*
X104700000Y-66420000D02*
X101880000Y-66420000D01*
X106880000Y-62000000D02*
X108188000Y-62000000D01*
X106880000Y-63000000D02*
X108188000Y-63000000D01*
X106880000Y-64300000D02*
X109457000Y-64300000D01*
X110543000Y-64300000D02*
X114457000Y-64300000D01*
X111812000Y-62000000D02*
X113188000Y-62000000D01*
X111812000Y-63000000D02*
X113188000Y-63000000D01*
X115543000Y-64300000D02*
X119457000Y-64300000D01*
X116812000Y-62000000D02*
X118188000Y-62000000D01*
X116812000Y-63000000D02*
X118188000Y-63000000D01*
X120543000Y-64300000D02*
X122620000Y-64300000D01*
X121812000Y-62000000D02*
X122620000Y-62000000D01*
X121812000Y-63000000D02*
X122620000Y-63000000D01*
X122620000Y-58380000D02*
X122620000Y-66420000D01*
X122620000Y-66420000D02*
X105300000Y-66420000D01*
X105440000Y-67030000D02*
X104560000Y-67030000D01*
X105000000Y-66420000D01*
X105440000Y-67030000D01*
G36*
X105440000Y-67030000D02*
G01*
X104560000Y-67030000D01*
X105000000Y-66420000D01*
X105440000Y-67030000D01*
G37*
%TO.C,A1*%
X23540000Y-43950000D02*
X23540000Y-61730000D01*
X26190000Y-41300000D02*
X71910000Y-41300000D01*
X26190000Y-64380000D02*
X71910000Y-64380000D01*
X31000000Y-64700000D02*
X29000000Y-64700000D01*
X74560000Y-43950000D02*
X74560000Y-61730000D01*
X23540000Y-43950000D02*
G75*
G02*
X26190000Y-41300000I2650000J0D01*
G01*
X26190000Y-64380000D02*
G75*
G02*
X23540000Y-61730000I0J2650000D01*
G01*
X71910000Y-41300000D02*
G75*
G02*
X74560000Y-43950000I0J-2650000D01*
G01*
X74560000Y-61730000D02*
G75*
G02*
X71910000Y-64380000I-2650000J0D01*
G01*
%TO.C,J2*%
X79880000Y-58380000D02*
X95620000Y-58380000D01*
X79880000Y-62000000D02*
X81120000Y-62000000D01*
X79880000Y-63000000D02*
X81120000Y-63000000D01*
X79880000Y-64300000D02*
X81120000Y-64300000D01*
X79880000Y-66420000D02*
X79880000Y-58380000D01*
X82700000Y-66420000D02*
X79880000Y-66420000D01*
X84880000Y-62000000D02*
X86188000Y-62000000D01*
X84880000Y-63000000D02*
X86188000Y-63000000D01*
X84880000Y-64300000D02*
X87457000Y-64300000D01*
X88543000Y-64300000D02*
X92457000Y-64300000D01*
X89812000Y-62000000D02*
X91188000Y-62000000D01*
X89812000Y-63000000D02*
X91188000Y-63000000D01*
X93543000Y-64300000D02*
X95620000Y-64300000D01*
X94812000Y-62000000D02*
X95620000Y-62000000D01*
X94812000Y-63000000D02*
X95620000Y-63000000D01*
X95620000Y-58380000D02*
X95620000Y-66420000D01*
X95620000Y-66420000D02*
X83300000Y-66420000D01*
X83440000Y-67030000D02*
X82560000Y-67030000D01*
X83000000Y-66420000D01*
X83440000Y-67030000D01*
G36*
X83440000Y-67030000D02*
G01*
X82560000Y-67030000D01*
X83000000Y-66420000D01*
X83440000Y-67030000D01*
G37*
%TO.C,U1*%
D10*
X84832500Y-30200000D02*
X119832500Y-30200000D01*
X119832500Y-55600000D01*
X84832500Y-55600000D01*
X84832500Y-30200000D01*
%TD*%
M02*
