%TF.GenerationSoftware,KiCad,Pcbnew,9.0.7*%
%TF.CreationDate,2026-04-16T07:21:19-07:00*%
%TF.ProjectId,display_board,64697370-6c61-4795-9f62-6f6172642e6b,rev?*%
%TF.SameCoordinates,Original*%
%TF.FileFunction,Copper,L2,Bot*%
%TF.FilePolarity,Positive*%
%FSLAX46Y46*%
G04 Gerber Fmt 4.6, Leading zero omitted, Abs format (unit mm)*
G04 Created by KiCad (PCBNEW 9.0.7) date 2026-04-16 07:21:19*
%MOMM*%
%LPD*%
G01*
G04 APERTURE LIST*
G04 Aperture macros list*
%AMRoundRect*
0 Rectangle with rounded corners*
0 $1 Rounding radius*
0 $2 $3 $4 $5 $6 $7 $8 $9 X,Y pos of 4 corners*
0 Add a 4 corners polygon primitive as box body*
4,1,4,$2,$3,$4,$5,$6,$7,$8,$9,$2,$3,0*
0 Add four circle primitives for the rounded corners*
1,1,$1+$1,$2,$3*
1,1,$1+$1,$4,$5*
1,1,$1+$1,$6,$7*
1,1,$1+$1,$8,$9*
0 Add four rect primitives between the rounded corners*
20,1,$1+$1,$2,$3,$4,$5,0*
20,1,$1+$1,$4,$5,$6,$7,0*
20,1,$1+$1,$6,$7,$8,$9,0*
20,1,$1+$1,$8,$9,$2,$3,0*%
G04 Aperture macros list end*
%TA.AperFunction,ComponentPad*%
%ADD10RoundRect,0.200000X-0.200000X-0.450000X0.200000X-0.450000X0.200000X0.450000X-0.200000X0.450000X0*%
%TD*%
%TA.AperFunction,ComponentPad*%
%ADD11O,0.800000X1.300000*%
%TD*%
%TA.AperFunction,ComponentPad*%
%ADD12RoundRect,0.250000X1.050000X0.550000X-1.050000X0.550000X-1.050000X-0.550000X1.050000X-0.550000X0*%
%TD*%
%TA.AperFunction,ComponentPad*%
%ADD13O,2.600000X1.600000*%
%TD*%
%TA.AperFunction,ComponentPad*%
%ADD14C,1.600000*%
%TD*%
%TA.AperFunction,ComponentPad*%
%ADD15RoundRect,0.190500X-0.444500X1.079500X-0.444500X-1.079500X0.444500X-1.079500X0.444500X1.079500X0*%
%TD*%
%TA.AperFunction,ViaPad*%
%ADD16C,0.600000*%
%TD*%
%TA.AperFunction,Conductor*%
%ADD17C,0.200000*%
%TD*%
%TA.AperFunction,Conductor*%
%ADD18C,0.500000*%
%TD*%
G04 APERTURE END LIST*
D10*
%TO.P,J1,1,Pin_1*%
%TO.N,Net-(A1-RX{slash}IO16)*%
X116500000Y-106955000D03*
D11*
%TO.P,J1,2,Pin_2*%
%TO.N,Net-(A1-TX{slash}IO17)*%
X117750000Y-106955000D03*
%TO.P,J1,3,Pin_3*%
%TO.N,+5V*%
X119000000Y-106955000D03*
%TO.P,J1,4,Pin_4*%
%TO.N,GND*%
X120250000Y-106955000D03*
%TD*%
D10*
%TO.P,SW2,1,1*%
%TO.N,Net-(A1-A12{slash}IO13)*%
X121875000Y-79500000D03*
D11*
%TO.P,SW2,2,2*%
%TO.N,GND*%
X123125000Y-79500000D03*
%TD*%
D12*
%TO.P,A1,1,~{RESET}*%
%TO.N,unconnected-(A1-~{RESET}-Pad1)*%
X108752500Y-110360000D03*
D13*
%TO.P,A1,2,3V3*%
%TO.N,/3V3*%
X108752500Y-107820000D03*
%TO.P,A1,3,NC*%
%TO.N,unconnected-(A1-NC-Pad3)*%
X108752500Y-105280000D03*
%TO.P,A1,4,GND*%
%TO.N,GND*%
X108752500Y-102740000D03*
%TO.P,A1,5,DAC2/A0*%
%TO.N,unconnected-(A1-DAC2{slash}A0-Pad5)*%
X108752500Y-100200000D03*
%TO.P,A1,6,DAC1/A1*%
%TO.N,unconnected-(A1-DAC1{slash}A1-Pad6)*%
X108752500Y-97660000D03*
%TO.P,A1,7,I34/A2*%
%TO.N,unconnected-(A1-I34{slash}A2-Pad7)*%
X108752500Y-95120000D03*
%TO.P,A1,8,I39/A3*%
%TO.N,unconnected-(A1-I39{slash}A3-Pad8)*%
X108752500Y-92580000D03*
%TO.P,A1,9,IO36/A4*%
%TO.N,unconnected-(A1-IO36{slash}A4-Pad9)*%
X108752500Y-90040000D03*
%TO.P,A1,10,IO4/A5*%
%TO.N,unconnected-(A1-IO4{slash}A5-Pad10)*%
X108752500Y-87500000D03*
%TO.P,A1,11,SCK/IO5*%
%TO.N,/MOSI*%
X108752500Y-84960000D03*
%TO.P,A1,12,MOSI/IO18*%
%TO.N,Net-(A1-MOSI{slash}IO18)*%
X108752500Y-82420000D03*
%TO.P,A1,13,MISO/IO19*%
%TO.N,unconnected-(A1-MISO{slash}IO19-Pad13)*%
X108752500Y-79880000D03*
%TO.P,A1,14,RX/IO16*%
%TO.N,Net-(A1-RX{slash}IO16)*%
X108752500Y-77340000D03*
%TO.P,A1,15,TX/IO17*%
%TO.N,Net-(A1-TX{slash}IO17)*%
X108752500Y-74800000D03*
%TO.P,A1,16,IO21*%
%TO.N,unconnected-(A1-IO21-Pad16)*%
X108752500Y-72260000D03*
%TO.P,A1,17,SDA/IO23*%
%TO.N,Net-(A1-SDA{slash}IO23)*%
X89032500Y-72260000D03*
%TO.P,A1,18,SCL/IO22*%
%TO.N,unconnected-(A1-SCL{slash}IO22-Pad18)*%
X89032500Y-74800000D03*
%TO.P,A1,19,A6/IO14*%
%TO.N,unconnected-(A1-A6{slash}IO14-Pad19)*%
X89032500Y-77340000D03*
%TO.P,A1,20,A7/IO32*%
%TO.N,unconnected-(A1-A7{slash}IO32-Pad20)*%
X89032500Y-79880000D03*
%TO.P,A1,21,A8/IO15*%
%TO.N,/DC*%
X89032500Y-82420000D03*
%TO.P,A1,22,A9/IO33*%
%TO.N,Net-(A1-A9{slash}IO33)*%
X89032500Y-84960000D03*
%TO.P,A1,23,A10/IO27*%
%TO.N,Net-(A1-A10{slash}IO27)*%
X89032500Y-87500000D03*
%TO.P,A1,24,A11/IO12*%
%TO.N,unconnected-(A1-A11{slash}IO12-Pad24)*%
X89032500Y-90040000D03*
%TO.P,A1,25,A12/IO13*%
%TO.N,Net-(A1-A12{slash}IO13)*%
X89032500Y-92580000D03*
%TO.P,A1,26,USB*%
%TO.N,unconnected-(A1-USB-Pad26)*%
X89032500Y-95120000D03*
%TO.P,A1,27,EN*%
%TO.N,unconnected-(A1-EN-Pad27)*%
X89032500Y-97660000D03*
%TO.P,A1,28,VBAT*%
%TO.N,+5V*%
X89032500Y-100200000D03*
%TD*%
D14*
%TO.P,R2,1*%
%TO.N,Net-(A1-A12{slash}IO13)*%
X114190000Y-73000000D03*
%TO.P,R2,2*%
%TO.N,+5V*%
X121810000Y-73000000D03*
%TD*%
D15*
%TO.P,U1,1,Vin*%
%TO.N,/3V3*%
X135250000Y-86398000D03*
%TO.P,U1,2,Lite*%
%TO.N,unconnected-(U1-Lite-Pad2)*%
X132710000Y-86398000D03*
%TO.P,U1,3,Gnd*%
%TO.N,GND*%
X130170000Y-86398000D03*
%TO.P,U1,4,SCK*%
%TO.N,/MOSI*%
X127630000Y-86398000D03*
%TO.P,U1,5,MOSI*%
%TO.N,Net-(A1-MOSI{slash}IO18)*%
X125090000Y-86398000D03*
%TO.P,U1,6,MISO*%
%TO.N,unconnected-(U1-MISO-Pad6)*%
X122550000Y-86398000D03*
%TO.P,U1,7,DC*%
%TO.N,Net-(A1-A9{slash}IO33)*%
X120010000Y-86398000D03*
%TO.P,U1,8,RST*%
%TO.N,Net-(A1-SDA{slash}IO23)*%
X117470000Y-86398000D03*
%TO.P,U1,9,TCS*%
%TO.N,/DC*%
X114930000Y-86398000D03*
%TO.P,U1,10,GP2*%
%TO.N,unconnected-(U1-GP2-Pad10)*%
X114930000Y-99000000D03*
%TO.P,U1,11,GP1*%
%TO.N,unconnected-(U1-GP1-Pad11)*%
X117470000Y-99000000D03*
%TO.P,U1,12,BUSY*%
%TO.N,unconnected-(U1-BUSY-Pad12)*%
X120010000Y-99000000D03*
%TO.P,U1,13,INT*%
%TO.N,unconnected-(U1-INT-Pad13)*%
X122550000Y-99000000D03*
%TO.P,U1,14,SDA*%
%TO.N,unconnected-(U1-SDA-Pad14)*%
X125090000Y-99000000D03*
%TO.P,U1,15,SCL*%
%TO.N,unconnected-(U1-SCL-Pad15)*%
X127630000Y-99000000D03*
%TO.P,U1,16,TSCS*%
%TO.N,unconnected-(U1-TSCS-Pad16)*%
X130170000Y-99000000D03*
%TO.P,U1,17,MEMCS*%
%TO.N,unconnected-(U1-MEMCS-Pad17)*%
X132710000Y-99000000D03*
%TO.P,U1,18,SDCS*%
%TO.N,unconnected-(U1-SDCS-Pad18)*%
X135250000Y-99000000D03*
%TD*%
D10*
%TO.P,SW1,1,1*%
%TO.N,Net-(A1-A10{slash}IO27)*%
X114500000Y-79500000D03*
D11*
%TO.P,SW1,2,2*%
%TO.N,GND*%
X115750000Y-79500000D03*
%TD*%
D14*
%TO.P,R1,1*%
%TO.N,Net-(A1-A10{slash}IO27)*%
X133620000Y-73000000D03*
%TO.P,R1,2*%
%TO.N,+5V*%
X126000000Y-73000000D03*
%TD*%
D16*
%TO.N,Net-(A1-SDA{slash}IO23)*%
X92000000Y-84000000D03*
X117500000Y-96000000D03*
%TO.N,Net-(A1-A9{slash}IO33)*%
X95500000Y-85000000D03*
X120000000Y-94500000D03*
%TO.N,Net-(A1-A12{slash}IO13)*%
X98500000Y-73500000D03*
%TO.N,/DC*%
X115000000Y-95500000D03*
%TD*%
D17*
%TO.N,Net-(A1-A12{slash}IO13)*%
X98420000Y-92580000D02*
X88732500Y-92580000D01*
X98500000Y-92500000D02*
X98420000Y-92580000D01*
X98500000Y-73500000D02*
X98500000Y-92500000D01*
%TO.N,Net-(A1-A10{slash}IO27)*%
X133620000Y-74880000D02*
X133620000Y-73000000D01*
X133500000Y-75000000D02*
X133620000Y-74880000D01*
X133500000Y-75500000D02*
X133500000Y-75000000D01*
X133500000Y-72500000D02*
X133620000Y-72380000D01*
X114500000Y-75500000D02*
X133500000Y-75500000D01*
X114500000Y-79500000D02*
X114500000Y-75500000D01*
X111500000Y-75500000D02*
X114500000Y-75500000D01*
X111500000Y-71000000D02*
X111500000Y-75500000D01*
X97500000Y-87500000D02*
X97500000Y-71000000D01*
X88732500Y-87500000D02*
X97500000Y-87500000D01*
X97500000Y-71000000D02*
X111500000Y-71000000D01*
%TO.N,Net-(A1-RX{slash}IO16)*%
X116500000Y-110000000D02*
X114500000Y-112000000D01*
X116500000Y-106955000D02*
X116500000Y-110000000D01*
%TO.N,Net-(A1-TX{slash}IO17)*%
X117750000Y-111750000D02*
X115500000Y-114000000D01*
X117750000Y-106955000D02*
X117750000Y-111750000D01*
%TO.N,GND*%
X120250000Y-102990000D02*
X120500000Y-102740000D01*
X120250000Y-106955000D02*
X120250000Y-102990000D01*
X120500000Y-102740000D02*
X126740000Y-102740000D01*
%TO.N,Net-(A1-TX{slash}IO17)*%
X105500000Y-114000000D02*
X115500000Y-114000000D01*
X105500000Y-113500000D02*
X105500000Y-114000000D01*
X108852500Y-75000000D02*
X106500000Y-75000000D01*
X106500000Y-75000000D02*
X104000000Y-77500000D01*
X109052500Y-74800000D02*
X108852500Y-75000000D01*
X104000000Y-77500000D02*
X104000000Y-112000000D01*
X104000000Y-112000000D02*
X105500000Y-113500000D01*
%TO.N,Net-(A1-RX{slash}IO16)*%
X107000000Y-112000000D02*
X114500000Y-112000000D01*
X106500000Y-78000000D02*
X106500000Y-111500000D01*
X107160000Y-77340000D02*
X106500000Y-78000000D01*
X109052500Y-77340000D02*
X107160000Y-77340000D01*
X106500000Y-111500000D02*
X107000000Y-112000000D01*
%TO.N,GND*%
X123125000Y-82125000D02*
X123500000Y-82500000D01*
X123125000Y-79500000D02*
X123125000Y-82125000D01*
X123500000Y-82500000D02*
X117000000Y-82500000D01*
X115750000Y-81250000D02*
X115750000Y-79500000D01*
X117000000Y-82500000D02*
X115750000Y-81250000D01*
X130750000Y-82500000D02*
X123500000Y-82500000D01*
X137500000Y-95500000D02*
X137500000Y-103500000D01*
X127500000Y-103500000D02*
X127000000Y-103000000D01*
X130170000Y-88170000D02*
X137500000Y-95500000D01*
X130170000Y-86398000D02*
X130750000Y-85818000D01*
X126740000Y-102740000D02*
X127000000Y-103000000D01*
X109052500Y-102740000D02*
X120500000Y-102740000D01*
X130750000Y-85818000D02*
X130750000Y-82500000D01*
X130170000Y-86398000D02*
X130170000Y-88170000D01*
X137500000Y-103500000D02*
X127500000Y-103500000D01*
%TO.N,Net-(A1-SDA{slash}IO23)*%
X117500000Y-95500000D02*
X117470000Y-95470000D01*
X117500000Y-96000000D02*
X117500000Y-95500000D01*
X117470000Y-95470000D02*
X117470000Y-86398000D01*
X92000000Y-72500000D02*
X88972500Y-72500000D01*
X88972500Y-72500000D02*
X88732500Y-72260000D01*
X92000000Y-84000000D02*
X92000000Y-72500000D01*
%TO.N,unconnected-(A1-A6{slash}IO14-Pad19)*%
X88732500Y-77340000D02*
X88892500Y-77500000D01*
%TO.N,Net-(A1-A9{slash}IO33)*%
X120000000Y-94500000D02*
X120000000Y-93500000D01*
X95460000Y-84960000D02*
X95500000Y-85000000D01*
X120010000Y-93490000D02*
X120010000Y-86398000D01*
X120000000Y-93500000D02*
X120010000Y-93490000D01*
X88732500Y-84960000D02*
X95460000Y-84960000D01*
D18*
%TO.N,Net-(A1-MOSI{slash}IO18)*%
X109172500Y-82500000D02*
X109052500Y-82620000D01*
D17*
%TO.N,/DC*%
X115000000Y-94500000D02*
X114930000Y-94430000D01*
X115000000Y-95500000D02*
X115000000Y-94500000D01*
X114930000Y-94430000D02*
X114930000Y-86398000D01*
D18*
%TO.N,/MOSI*%
X110512500Y-83500000D02*
X126000000Y-83500000D01*
X127630000Y-85130000D02*
X127630000Y-86398000D01*
X109052500Y-84960000D02*
X110512500Y-83500000D01*
X126000000Y-83500000D02*
X127630000Y-85130000D01*
%TD*%
%TA.AperFunction,Conductor*%
%TO.N,GND*%
G36*
X137009352Y-67501318D02*
G01*
X137162757Y-67514739D01*
X137184035Y-67518491D01*
X137301188Y-67549882D01*
X137331369Y-67557969D01*
X137351681Y-67565362D01*
X137428405Y-67601139D01*
X137480844Y-67647311D01*
X137500000Y-67713521D01*
X137500000Y-115286478D01*
X137480315Y-115353517D01*
X137428405Y-115398860D01*
X137351681Y-115434637D01*
X137331369Y-115442030D01*
X137184038Y-115481507D01*
X137162753Y-115485260D01*
X137005395Y-115499028D01*
X136994587Y-115499500D01*
X87505413Y-115499500D01*
X87494605Y-115499028D01*
X87337246Y-115485260D01*
X87315961Y-115481507D01*
X87168630Y-115442030D01*
X87148318Y-115434637D01*
X87071595Y-115398860D01*
X87019156Y-115352687D01*
X87000000Y-115286478D01*
X87000000Y-112079054D01*
X103399498Y-112079054D01*
X103440423Y-112231785D01*
X103469358Y-112281900D01*
X103469359Y-112281904D01*
X103469360Y-112281904D01*
X103513582Y-112358501D01*
X103519479Y-112368714D01*
X103519481Y-112368717D01*
X103638349Y-112487585D01*
X103638355Y-112487590D01*
X104863181Y-113712416D01*
X104896666Y-113773739D01*
X104899500Y-113800097D01*
X104899500Y-114079056D01*
X104940423Y-114231783D01*
X104940426Y-114231790D01*
X105019475Y-114368709D01*
X105019478Y-114368713D01*
X105019480Y-114368716D01*
X105131284Y-114480520D01*
X105131286Y-114480521D01*
X105131290Y-114480524D01*
X105268209Y-114559573D01*
X105268216Y-114559577D01*
X105420943Y-114600500D01*
X105579057Y-114600500D01*
X115413331Y-114600500D01*
X115413347Y-114600501D01*
X115420943Y-114600501D01*
X115579054Y-114600501D01*
X115579057Y-114600501D01*
X115731785Y-114559577D01*
X115781904Y-114530639D01*
X115868716Y-114480520D01*
X115980520Y-114368716D01*
X115980520Y-114368714D01*
X115990728Y-114358507D01*
X115990729Y-114358504D01*
X118230520Y-112118716D01*
X118309577Y-111981784D01*
X118350501Y-111829057D01*
X118350501Y-111670942D01*
X118350501Y-111663347D01*
X118350500Y-111663329D01*
X118350500Y-108086028D01*
X118370185Y-108018989D01*
X118422989Y-107973234D01*
X118492147Y-107963290D01*
X118543391Y-107982926D01*
X118573453Y-108003013D01*
X118573455Y-108003013D01*
X118573459Y-108003016D01*
X118678487Y-108046519D01*
X118737334Y-108070894D01*
X118737336Y-108070894D01*
X118737341Y-108070896D01*
X118911304Y-108105499D01*
X118911307Y-108105500D01*
X118911309Y-108105500D01*
X119088693Y-108105500D01*
X119088694Y-108105499D01*
X119186583Y-108086028D01*
X119262658Y-108070896D01*
X119262661Y-108070894D01*
X119262666Y-108070894D01*
X119426547Y-108003013D01*
X119426552Y-108003009D01*
X119426555Y-108003008D01*
X119490214Y-107960472D01*
X119556558Y-107916141D01*
X119623234Y-107895263D01*
X119690615Y-107913747D01*
X119694340Y-107916141D01*
X119823683Y-108002566D01*
X119823693Y-108002571D01*
X119987476Y-108070412D01*
X119987483Y-108070415D01*
X120000000Y-108072904D01*
X120000000Y-108072903D01*
X120500000Y-108072903D01*
X120512516Y-108070415D01*
X120512523Y-108070412D01*
X120676306Y-108002571D01*
X120676316Y-108002566D01*
X120823716Y-107904076D01*
X120823720Y-107904073D01*
X120949073Y-107778720D01*
X120949076Y-107778716D01*
X121047566Y-107631316D01*
X121047571Y-107631307D01*
X121115413Y-107467520D01*
X121115415Y-107467512D01*
X121149999Y-107293646D01*
X121150000Y-107293643D01*
X121150000Y-107205000D01*
X120500000Y-107205000D01*
X120500000Y-108072903D01*
X120000000Y-108072903D01*
X120000000Y-107004728D01*
X120038060Y-107096614D01*
X120108386Y-107166940D01*
X120200272Y-107205000D01*
X120299728Y-107205000D01*
X120391614Y-107166940D01*
X120461940Y-107096614D01*
X120500000Y-107004728D01*
X120500000Y-106905272D01*
X120461940Y-106813386D01*
X120391614Y-106743060D01*
X120299728Y-106705000D01*
X120500000Y-106705000D01*
X121150000Y-106705000D01*
X121150000Y-106616357D01*
X121149999Y-106616353D01*
X121115415Y-106442487D01*
X121115413Y-106442479D01*
X121047571Y-106278692D01*
X121047566Y-106278683D01*
X120949076Y-106131283D01*
X120949073Y-106131279D01*
X120823720Y-106005926D01*
X120823716Y-106005923D01*
X120676316Y-105907433D01*
X120676307Y-105907428D01*
X120512519Y-105839585D01*
X120500000Y-105837094D01*
X120500000Y-106705000D01*
X120299728Y-106705000D01*
X120200272Y-106705000D01*
X120108386Y-106743060D01*
X120038060Y-106813386D01*
X120000000Y-106905272D01*
X120000000Y-105837095D01*
X119999999Y-105837094D01*
X119987480Y-105839585D01*
X119823692Y-105907428D01*
X119823683Y-105907433D01*
X119694340Y-105993858D01*
X119627662Y-106014736D01*
X119560282Y-105996251D01*
X119556558Y-105993858D01*
X119426552Y-105906990D01*
X119426540Y-105906983D01*
X119262667Y-105839106D01*
X119262658Y-105839103D01*
X119088694Y-105804500D01*
X119088691Y-105804500D01*
X118911309Y-105804500D01*
X118911306Y-105804500D01*
X118737341Y-105839103D01*
X118737332Y-105839106D01*
X118573459Y-105906983D01*
X118573446Y-105906990D01*
X118443891Y-105993557D01*
X118377213Y-106014435D01*
X118309833Y-105995950D01*
X118306109Y-105993557D01*
X118176553Y-105906990D01*
X118176540Y-105906983D01*
X118012667Y-105839106D01*
X118012658Y-105839103D01*
X117838694Y-105804500D01*
X117838691Y-105804500D01*
X117661309Y-105804500D01*
X117661306Y-105804500D01*
X117487341Y-105839103D01*
X117487332Y-105839106D01*
X117323460Y-105906983D01*
X117323449Y-105906989D01*
X117266162Y-105945267D01*
X117199484Y-105966144D01*
X117133122Y-105948281D01*
X116989606Y-105861522D01*
X116911212Y-105837094D01*
X116827196Y-105810914D01*
X116827194Y-105810913D01*
X116827192Y-105810913D01*
X116777778Y-105806423D01*
X116756616Y-105804500D01*
X116243384Y-105804500D01*
X116224145Y-105806248D01*
X116172807Y-105810913D01*
X116010393Y-105861522D01*
X115864811Y-105949530D01*
X115744530Y-106069811D01*
X115656522Y-106215393D01*
X115605913Y-106377807D01*
X115600782Y-106434275D01*
X115599500Y-106448384D01*
X115599500Y-107461616D01*
X115600036Y-107467512D01*
X115605913Y-107532192D01*
X115605913Y-107532194D01*
X115605914Y-107532196D01*
X115656522Y-107694606D01*
X115744528Y-107840185D01*
X115863182Y-107958839D01*
X115896666Y-108020160D01*
X115899500Y-108046519D01*
X115899500Y-109699903D01*
X115879815Y-109766942D01*
X115863181Y-109787584D01*
X114287584Y-111363181D01*
X114226261Y-111396666D01*
X114199903Y-111399500D01*
X110246770Y-111399500D01*
X110179731Y-111379815D01*
X110133976Y-111327011D01*
X110124032Y-111257853D01*
X110147000Y-111201866D01*
X110205293Y-111122882D01*
X110227719Y-111058790D01*
X110250146Y-110994701D01*
X110250146Y-110994699D01*
X110253000Y-110964269D01*
X110253000Y-109755730D01*
X110250146Y-109725300D01*
X110250146Y-109725298D01*
X110205293Y-109597119D01*
X110205292Y-109597117D01*
X110191535Y-109578477D01*
X110124650Y-109487850D01*
X110015382Y-109407207D01*
X110015380Y-109407206D01*
X109887200Y-109362353D01*
X109856770Y-109359500D01*
X109856766Y-109359500D01*
X107648234Y-109359500D01*
X107648230Y-109359500D01*
X107617800Y-109362353D01*
X107617798Y-109362353D01*
X107489619Y-109407206D01*
X107489617Y-109407207D01*
X107380350Y-109487850D01*
X107324270Y-109563836D01*
X107268622Y-109606086D01*
X107198966Y-109611545D01*
X107137417Y-109578477D01*
X107103516Y-109517383D01*
X107100500Y-109490202D01*
X107100500Y-108276648D01*
X107120185Y-108209609D01*
X107172989Y-108163854D01*
X107242147Y-108153910D01*
X107305703Y-108182935D01*
X107339061Y-108229196D01*
X107365864Y-108293908D01*
X107365871Y-108293920D01*
X107475360Y-108457781D01*
X107475363Y-108457785D01*
X107614714Y-108597136D01*
X107614718Y-108597139D01*
X107778579Y-108706628D01*
X107778592Y-108706635D01*
X107960660Y-108782049D01*
X107960665Y-108782051D01*
X107960669Y-108782051D01*
X107960670Y-108782052D01*
X108153956Y-108820500D01*
X108153959Y-108820500D01*
X109351043Y-108820500D01*
X109481082Y-108794632D01*
X109544335Y-108782051D01*
X109726414Y-108706632D01*
X109890282Y-108597139D01*
X110029639Y-108457782D01*
X110139132Y-108293914D01*
X110214551Y-108111835D01*
X110227543Y-108046519D01*
X110253000Y-107918543D01*
X110253000Y-107721456D01*
X110214552Y-107528170D01*
X110214551Y-107528169D01*
X110214551Y-107528165D01*
X110186986Y-107461616D01*
X110139135Y-107346092D01*
X110139128Y-107346079D01*
X110029639Y-107182218D01*
X110029636Y-107182214D01*
X109890285Y-107042863D01*
X109890281Y-107042860D01*
X109726420Y-106933371D01*
X109726407Y-106933364D01*
X109544339Y-106857950D01*
X109544329Y-106857947D01*
X109351043Y-106819500D01*
X109351041Y-106819500D01*
X108153959Y-106819500D01*
X108153957Y-106819500D01*
X107960670Y-106857947D01*
X107960660Y-106857950D01*
X107778592Y-106933364D01*
X107778579Y-106933371D01*
X107614718Y-107042860D01*
X107614714Y-107042863D01*
X107475363Y-107182214D01*
X107475360Y-107182218D01*
X107365871Y-107346079D01*
X107365864Y-107346092D01*
X107339061Y-107410803D01*
X107295220Y-107465207D01*
X107228926Y-107487272D01*
X107161227Y-107469993D01*
X107113616Y-107418856D01*
X107100500Y-107363351D01*
X107100500Y-105736648D01*
X107120185Y-105669609D01*
X107172989Y-105623854D01*
X107242147Y-105613910D01*
X107305703Y-105642935D01*
X107339061Y-105689196D01*
X107365864Y-105753908D01*
X107365871Y-105753920D01*
X107475360Y-105917781D01*
X107475363Y-105917785D01*
X107614714Y-106057136D01*
X107614718Y-106057139D01*
X107778579Y-106166628D01*
X107778592Y-106166635D01*
X107960660Y-106242049D01*
X107960665Y-106242051D01*
X107960669Y-106242051D01*
X107960670Y-106242052D01*
X108153956Y-106280500D01*
X108153959Y-106280500D01*
X109351043Y-106280500D01*
X109481082Y-106254632D01*
X109544335Y-106242051D01*
X109726414Y-106166632D01*
X109890282Y-106057139D01*
X110029639Y-105917782D01*
X110139132Y-105753914D01*
X110214551Y-105571835D01*
X110253000Y-105378541D01*
X110253000Y-105181459D01*
X110253000Y-105181456D01*
X110214552Y-104988170D01*
X110214551Y-104988169D01*
X110214551Y-104988165D01*
X110169274Y-104878856D01*
X110139135Y-104806092D01*
X110139128Y-104806079D01*
X110029639Y-104642218D01*
X110029636Y-104642214D01*
X109890285Y-104502863D01*
X109890281Y-104502860D01*
X109726420Y-104393371D01*
X109726407Y-104393364D01*
X109544339Y-104317950D01*
X109544329Y-104317947D01*
X109363437Y-104281965D01*
X109301526Y-104249580D01*
X109266952Y-104188864D01*
X109270692Y-104119095D01*
X109311559Y-104062423D01*
X109368231Y-104037875D01*
X109556917Y-104007990D01*
X109751531Y-103944755D01*
X109933849Y-103851859D01*
X110099394Y-103731582D01*
X110099395Y-103731582D01*
X110244082Y-103586895D01*
X110244082Y-103586894D01*
X110364359Y-103421349D01*
X110457255Y-103239029D01*
X110520490Y-103044413D01*
X110529109Y-102990000D01*
X109485512Y-102990000D01*
X109518425Y-102932993D01*
X109552500Y-102805826D01*
X109552500Y-102674174D01*
X109518425Y-102547007D01*
X109485512Y-102490000D01*
X110529109Y-102490000D01*
X110520490Y-102435586D01*
X110457255Y-102240970D01*
X110364359Y-102058650D01*
X110244082Y-101893105D01*
X110244082Y-101893104D01*
X110099395Y-101748417D01*
X109933849Y-101628140D01*
X109751531Y-101535244D01*
X109556917Y-101472009D01*
X109368231Y-101442124D01*
X109305096Y-101412194D01*
X109268165Y-101352883D01*
X109269163Y-101283020D01*
X109307773Y-101224788D01*
X109363438Y-101198034D01*
X109544335Y-101162051D01*
X109726414Y-101086632D01*
X109890282Y-100977139D01*
X110029639Y-100837782D01*
X110139132Y-100673914D01*
X110214551Y-100491835D01*
X110253000Y-100298541D01*
X110253000Y-100101459D01*
X110253000Y-100101456D01*
X110214552Y-99908170D01*
X110214551Y-99908169D01*
X110214551Y-99908165D01*
X110169274Y-99798856D01*
X110139135Y-99726092D01*
X110139128Y-99726079D01*
X110029639Y-99562218D01*
X110029636Y-99562214D01*
X109890285Y-99422863D01*
X109890281Y-99422860D01*
X109726420Y-99313371D01*
X109726407Y-99313364D01*
X109544339Y-99237950D01*
X109544329Y-99237947D01*
X109351043Y-99199500D01*
X109351041Y-99199500D01*
X108153959Y-99199500D01*
X108153957Y-99199500D01*
X107960670Y-99237947D01*
X107960660Y-99237950D01*
X107778592Y-99313364D01*
X107778579Y-99313371D01*
X107614718Y-99422860D01*
X107614714Y-99422863D01*
X107475363Y-99562214D01*
X107475360Y-99562218D01*
X107365871Y-99726079D01*
X107365864Y-99726092D01*
X107339061Y-99790803D01*
X107295220Y-99845207D01*
X107228926Y-99867272D01*
X107161227Y-99849993D01*
X107113616Y-99798856D01*
X107100500Y-99743351D01*
X107100500Y-98116648D01*
X107120185Y-98049609D01*
X107172989Y-98003854D01*
X107242147Y-97993910D01*
X107305703Y-98022935D01*
X107339061Y-98069196D01*
X107365864Y-98133908D01*
X107365871Y-98133920D01*
X107475360Y-98297781D01*
X107475363Y-98297785D01*
X107614714Y-98437136D01*
X107614718Y-98437139D01*
X107778579Y-98546628D01*
X107778592Y-98546635D01*
X107960660Y-98622049D01*
X107960665Y-98622051D01*
X107960669Y-98622051D01*
X107960670Y-98622052D01*
X108153956Y-98660500D01*
X108153959Y-98660500D01*
X109351043Y-98660500D01*
X109481082Y-98634632D01*
X109544335Y-98622051D01*
X109726414Y-98546632D01*
X109890282Y-98437139D01*
X110029639Y-98297782D01*
X110139132Y-98133914D01*
X110214551Y-97951835D01*
X110231892Y-97864655D01*
X113794500Y-97864655D01*
X113794500Y-100135354D01*
X113800825Y-100204966D01*
X113800828Y-100204977D01*
X113850747Y-100365175D01*
X113850749Y-100365179D01*
X113937556Y-100508777D01*
X113937560Y-100508782D01*
X114056217Y-100627439D01*
X114056222Y-100627443D01*
X114133086Y-100673908D01*
X114199822Y-100714251D01*
X114360029Y-100764173D01*
X114429653Y-100770500D01*
X115430346Y-100770499D01*
X115430353Y-100770499D01*
X115499966Y-100764174D01*
X115499969Y-100764173D01*
X115499971Y-100764173D01*
X115660178Y-100714251D01*
X115755465Y-100656648D01*
X115803777Y-100627443D01*
X115803778Y-100627441D01*
X115803783Y-100627439D01*
X115922439Y-100508783D01*
X115932685Y-100491835D01*
X115950254Y-100462770D01*
X116009251Y-100365178D01*
X116059173Y-100204971D01*
X116065500Y-100135347D01*
X116065499Y-97864655D01*
X116334500Y-97864655D01*
X116334500Y-100135354D01*
X116340825Y-100204966D01*
X116340828Y-100204977D01*
X116390747Y-100365175D01*
X116390749Y-100365179D01*
X116477556Y-100508777D01*
X116477560Y-100508782D01*
X116596217Y-100627439D01*
X116596222Y-100627443D01*
X116673086Y-100673908D01*
X116739822Y-100714251D01*
X116900029Y-100764173D01*
X116969653Y-100770500D01*
X117970346Y-100770499D01*
X117970353Y-100770499D01*
X118039966Y-100764174D01*
X118039969Y-100764173D01*
X118039971Y-100764173D01*
X118200178Y-100714251D01*
X118295465Y-100656648D01*
X118343777Y-100627443D01*
X118343778Y-100627441D01*
X118343783Y-100627439D01*
X118462439Y-100508783D01*
X118472685Y-100491835D01*
X118490254Y-100462770D01*
X118549251Y-100365178D01*
X118599173Y-100204971D01*
X118605500Y-100135347D01*
X118605499Y-97864655D01*
X118874500Y-97864655D01*
X118874500Y-100135354D01*
X118880825Y-100204966D01*
X118880828Y-100204977D01*
X118930747Y-100365175D01*
X118930749Y-100365179D01*
X119017556Y-100508777D01*
X119017560Y-100508782D01*
X119136217Y-100627439D01*
X119136222Y-100627443D01*
X119213086Y-100673908D01*
X119279822Y-100714251D01*
X119440029Y-100764173D01*
X119509653Y-100770500D01*
X120510346Y-100770499D01*
X120510353Y-100770499D01*
X120579966Y-100764174D01*
X120579969Y-100764173D01*
X120579971Y-100764173D01*
X120740178Y-100714251D01*
X120835465Y-100656648D01*
X120883777Y-100627443D01*
X120883778Y-100627441D01*
X120883783Y-100627439D01*
X121002439Y-100508783D01*
X121012685Y-100491835D01*
X121030254Y-100462770D01*
X121089251Y-100365178D01*
X121139173Y-100204971D01*
X121145500Y-100135347D01*
X121145499Y-97864655D01*
X121414500Y-97864655D01*
X121414500Y-100135354D01*
X121420825Y-100204966D01*
X121420828Y-100204977D01*
X121470747Y-100365175D01*
X121470749Y-100365179D01*
X121557556Y-100508777D01*
X121557560Y-100508782D01*
X121676217Y-100627439D01*
X121676222Y-100627443D01*
X121753086Y-100673908D01*
X121819822Y-100714251D01*
X121980029Y-100764173D01*
X122049653Y-100770500D01*
X123050346Y-100770499D01*
X123050353Y-100770499D01*
X123119966Y-100764174D01*
X123119969Y-100764173D01*
X123119971Y-100764173D01*
X123280178Y-100714251D01*
X123375465Y-100656648D01*
X123423777Y-100627443D01*
X123423778Y-100627441D01*
X123423783Y-100627439D01*
X123542439Y-100508783D01*
X123552685Y-100491835D01*
X123570254Y-100462770D01*
X123629251Y-100365178D01*
X123679173Y-100204971D01*
X123685500Y-100135347D01*
X123685499Y-97864655D01*
X123954500Y-97864655D01*
X123954500Y-100135354D01*
X123960825Y-100204966D01*
X123960828Y-100204977D01*
X124010747Y-100365175D01*
X124010749Y-100365179D01*
X124097556Y-100508777D01*
X124097560Y-100508782D01*
X124216217Y-100627439D01*
X124216222Y-100627443D01*
X124293086Y-100673908D01*
X124359822Y-100714251D01*
X124520029Y-100764173D01*
X124589653Y-100770500D01*
X125590346Y-100770499D01*
X125590353Y-100770499D01*
X125659966Y-100764174D01*
X125659969Y-100764173D01*
X125659971Y-100764173D01*
X125820178Y-100714251D01*
X125915465Y-100656648D01*
X125963777Y-100627443D01*
X125963778Y-100627441D01*
X125963783Y-100627439D01*
X126082439Y-100508783D01*
X126092685Y-100491835D01*
X126110254Y-100462770D01*
X126169251Y-100365178D01*
X126219173Y-100204971D01*
X126225500Y-100135347D01*
X126225499Y-97864655D01*
X126494500Y-97864655D01*
X126494500Y-100135354D01*
X126500825Y-100204966D01*
X126500828Y-100204977D01*
X126550747Y-100365175D01*
X126550749Y-100365179D01*
X126637556Y-100508777D01*
X126637560Y-100508782D01*
X126756217Y-100627439D01*
X126756222Y-100627443D01*
X126833086Y-100673908D01*
X126899822Y-100714251D01*
X127060029Y-100764173D01*
X127129653Y-100770500D01*
X128130346Y-100770499D01*
X128130353Y-100770499D01*
X128199966Y-100764174D01*
X128199969Y-100764173D01*
X128199971Y-100764173D01*
X128360178Y-100714251D01*
X128455465Y-100656648D01*
X128503777Y-100627443D01*
X128503778Y-100627441D01*
X128503783Y-100627439D01*
X128622439Y-100508783D01*
X128632685Y-100491835D01*
X128650254Y-100462770D01*
X128709251Y-100365178D01*
X128759173Y-100204971D01*
X128765500Y-100135347D01*
X128765499Y-97864655D01*
X129034500Y-97864655D01*
X129034500Y-100135354D01*
X129040825Y-100204966D01*
X129040828Y-100204977D01*
X129090747Y-100365175D01*
X129090749Y-100365179D01*
X129177556Y-100508777D01*
X129177560Y-100508782D01*
X129296217Y-100627439D01*
X129296222Y-100627443D01*
X129373086Y-100673908D01*
X129439822Y-100714251D01*
X129600029Y-100764173D01*
X129669653Y-100770500D01*
X130670346Y-100770499D01*
X130670353Y-100770499D01*
X130739966Y-100764174D01*
X130739969Y-100764173D01*
X130739971Y-100764173D01*
X130900178Y-100714251D01*
X130995465Y-100656648D01*
X131043777Y-100627443D01*
X131043778Y-100627441D01*
X131043783Y-100627439D01*
X131162439Y-100508783D01*
X131172685Y-100491835D01*
X131190254Y-100462770D01*
X131249251Y-100365178D01*
X131299173Y-100204971D01*
X131305500Y-100135347D01*
X131305499Y-97864655D01*
X131574500Y-97864655D01*
X131574500Y-100135354D01*
X131580825Y-100204966D01*
X131580828Y-100204977D01*
X131630747Y-100365175D01*
X131630749Y-100365179D01*
X131717556Y-100508777D01*
X131717560Y-100508782D01*
X131836217Y-100627439D01*
X131836222Y-100627443D01*
X131913086Y-100673908D01*
X131979822Y-100714251D01*
X132140029Y-100764173D01*
X132209653Y-100770500D01*
X133210346Y-100770499D01*
X133210353Y-100770499D01*
X133279966Y-100764174D01*
X133279969Y-100764173D01*
X133279971Y-100764173D01*
X133440178Y-100714251D01*
X133535465Y-100656648D01*
X133583777Y-100627443D01*
X133583778Y-100627441D01*
X133583783Y-100627439D01*
X133702439Y-100508783D01*
X133712685Y-100491835D01*
X133730254Y-100462770D01*
X133789251Y-100365178D01*
X133839173Y-100204971D01*
X133845500Y-100135347D01*
X133845499Y-97864655D01*
X134114500Y-97864655D01*
X134114500Y-100135354D01*
X134120825Y-100204966D01*
X134120828Y-100204977D01*
X134170747Y-100365175D01*
X134170749Y-100365179D01*
X134257556Y-100508777D01*
X134257560Y-100508782D01*
X134376217Y-100627439D01*
X134376222Y-100627443D01*
X134453086Y-100673908D01*
X134519822Y-100714251D01*
X134680029Y-100764173D01*
X134749653Y-100770500D01*
X135750346Y-100770499D01*
X135750353Y-100770499D01*
X135819966Y-100764174D01*
X135819969Y-100764173D01*
X135819971Y-100764173D01*
X135980178Y-100714251D01*
X136075465Y-100656648D01*
X136123777Y-100627443D01*
X136123778Y-100627441D01*
X136123783Y-100627439D01*
X136242439Y-100508783D01*
X136252685Y-100491835D01*
X136270254Y-100462770D01*
X136329251Y-100365178D01*
X136379173Y-100204971D01*
X136385500Y-100135347D01*
X136385499Y-97864654D01*
X136385499Y-97864653D01*
X136385499Y-97864645D01*
X136379174Y-97795033D01*
X136379171Y-97795022D01*
X136329252Y-97634824D01*
X136329250Y-97634820D01*
X136242443Y-97491222D01*
X136242439Y-97491217D01*
X136123782Y-97372560D01*
X136123777Y-97372556D01*
X135980180Y-97285750D01*
X135980179Y-97285749D01*
X135980178Y-97285749D01*
X135819971Y-97235827D01*
X135819969Y-97235826D01*
X135819967Y-97235826D01*
X135771221Y-97231396D01*
X135750347Y-97229500D01*
X135750344Y-97229500D01*
X134749645Y-97229500D01*
X134680033Y-97235825D01*
X134680022Y-97235828D01*
X134519824Y-97285747D01*
X134519820Y-97285749D01*
X134376222Y-97372556D01*
X134376217Y-97372560D01*
X134257560Y-97491217D01*
X134257556Y-97491222D01*
X134170750Y-97634819D01*
X134120826Y-97795032D01*
X134114500Y-97864655D01*
X133845499Y-97864655D01*
X133845499Y-97864654D01*
X133845499Y-97864653D01*
X133845499Y-97864645D01*
X133839174Y-97795033D01*
X133839171Y-97795022D01*
X133789252Y-97634824D01*
X133789250Y-97634820D01*
X133702443Y-97491222D01*
X133702439Y-97491217D01*
X133583782Y-97372560D01*
X133583777Y-97372556D01*
X133440180Y-97285750D01*
X133440179Y-97285749D01*
X133440178Y-97285749D01*
X133279971Y-97235827D01*
X133279969Y-97235826D01*
X133279967Y-97235826D01*
X133231221Y-97231396D01*
X133210347Y-97229500D01*
X133210344Y-97229500D01*
X132209645Y-97229500D01*
X132140033Y-97235825D01*
X132140022Y-97235828D01*
X131979824Y-97285747D01*
X131979820Y-97285749D01*
X131836222Y-97372556D01*
X131836217Y-97372560D01*
X131717560Y-97491217D01*
X131717556Y-97491222D01*
X131630750Y-97634819D01*
X131580826Y-97795032D01*
X131574500Y-97864655D01*
X131305499Y-97864655D01*
X131305499Y-97864654D01*
X131305499Y-97864653D01*
X131305499Y-97864645D01*
X131299174Y-97795033D01*
X131299171Y-97795022D01*
X131249252Y-97634824D01*
X131249250Y-97634820D01*
X131162443Y-97491222D01*
X131162439Y-97491217D01*
X131043782Y-97372560D01*
X131043777Y-97372556D01*
X130900180Y-97285750D01*
X130900179Y-97285749D01*
X130900178Y-97285749D01*
X130739971Y-97235827D01*
X130739969Y-97235826D01*
X130739967Y-97235826D01*
X130691221Y-97231396D01*
X130670347Y-97229500D01*
X130670344Y-97229500D01*
X129669645Y-97229500D01*
X129600033Y-97235825D01*
X129600022Y-97235828D01*
X129439824Y-97285747D01*
X129439820Y-97285749D01*
X129296222Y-97372556D01*
X129296217Y-97372560D01*
X129177560Y-97491217D01*
X129177556Y-97491222D01*
X129090750Y-97634819D01*
X129040826Y-97795032D01*
X129034500Y-97864655D01*
X128765499Y-97864655D01*
X128765499Y-97864654D01*
X128765499Y-97864653D01*
X128765499Y-97864645D01*
X128759174Y-97795033D01*
X128759171Y-97795022D01*
X128709252Y-97634824D01*
X128709250Y-97634820D01*
X128622443Y-97491222D01*
X128622439Y-97491217D01*
X128503782Y-97372560D01*
X128503777Y-97372556D01*
X128360180Y-97285750D01*
X128360179Y-97285749D01*
X128360178Y-97285749D01*
X128199971Y-97235827D01*
X128199969Y-97235826D01*
X128199967Y-97235826D01*
X128151221Y-97231396D01*
X128130347Y-97229500D01*
X128130344Y-97229500D01*
X127129645Y-97229500D01*
X127060033Y-97235825D01*
X127060022Y-97235828D01*
X126899824Y-97285747D01*
X126899820Y-97285749D01*
X126756222Y-97372556D01*
X126756217Y-97372560D01*
X126637560Y-97491217D01*
X126637556Y-97491222D01*
X126550750Y-97634819D01*
X126500826Y-97795032D01*
X126494500Y-97864655D01*
X126225499Y-97864655D01*
X126225499Y-97864654D01*
X126225499Y-97864653D01*
X126225499Y-97864645D01*
X126219174Y-97795033D01*
X126219171Y-97795022D01*
X126169252Y-97634824D01*
X126169250Y-97634820D01*
X126082443Y-97491222D01*
X126082439Y-97491217D01*
X125963782Y-97372560D01*
X125963777Y-97372556D01*
X125820180Y-97285750D01*
X125820179Y-97285749D01*
X125820178Y-97285749D01*
X125659971Y-97235827D01*
X125659969Y-97235826D01*
X125659967Y-97235826D01*
X125611221Y-97231396D01*
X125590347Y-97229500D01*
X125590344Y-97229500D01*
X124589645Y-97229500D01*
X124520033Y-97235825D01*
X124520022Y-97235828D01*
X124359824Y-97285747D01*
X124359820Y-97285749D01*
X124216222Y-97372556D01*
X124216217Y-97372560D01*
X124097560Y-97491217D01*
X124097556Y-97491222D01*
X124010750Y-97634819D01*
X123960826Y-97795032D01*
X123954500Y-97864655D01*
X123685499Y-97864655D01*
X123685499Y-97864654D01*
X123685499Y-97864653D01*
X123685499Y-97864645D01*
X123679174Y-97795033D01*
X123679171Y-97795022D01*
X123629252Y-97634824D01*
X123629250Y-97634820D01*
X123542443Y-97491222D01*
X123542439Y-97491217D01*
X123423782Y-97372560D01*
X123423777Y-97372556D01*
X123280180Y-97285750D01*
X123280179Y-97285749D01*
X123280178Y-97285749D01*
X123119971Y-97235827D01*
X123119969Y-97235826D01*
X123119967Y-97235826D01*
X123071221Y-97231396D01*
X123050347Y-97229500D01*
X123050344Y-97229500D01*
X122049645Y-97229500D01*
X121980033Y-97235825D01*
X121980022Y-97235828D01*
X121819824Y-97285747D01*
X121819820Y-97285749D01*
X121676222Y-97372556D01*
X121676217Y-97372560D01*
X121557560Y-97491217D01*
X121557556Y-97491222D01*
X121470750Y-97634819D01*
X121420826Y-97795032D01*
X121414500Y-97864655D01*
X121145499Y-97864655D01*
X121145499Y-97864654D01*
X121145499Y-97864653D01*
X121145499Y-97864645D01*
X121139174Y-97795033D01*
X121139171Y-97795022D01*
X121089252Y-97634824D01*
X121089250Y-97634820D01*
X121002443Y-97491222D01*
X121002439Y-97491217D01*
X120883782Y-97372560D01*
X120883777Y-97372556D01*
X120740180Y-97285750D01*
X120740179Y-97285749D01*
X120740178Y-97285749D01*
X120579971Y-97235827D01*
X120579969Y-97235826D01*
X120579967Y-97235826D01*
X120531221Y-97231396D01*
X120510347Y-97229500D01*
X120510344Y-97229500D01*
X119509645Y-97229500D01*
X119440033Y-97235825D01*
X119440022Y-97235828D01*
X119279824Y-97285747D01*
X119279820Y-97285749D01*
X119136222Y-97372556D01*
X119136217Y-97372560D01*
X119017560Y-97491217D01*
X119017556Y-97491222D01*
X118930750Y-97634819D01*
X118880826Y-97795032D01*
X118874500Y-97864655D01*
X118605499Y-97864655D01*
X118605499Y-97864654D01*
X118605499Y-97864653D01*
X118605499Y-97864645D01*
X118599174Y-97795033D01*
X118599171Y-97795022D01*
X118549252Y-97634824D01*
X118549250Y-97634820D01*
X118462443Y-97491222D01*
X118462439Y-97491217D01*
X118343782Y-97372560D01*
X118343777Y-97372556D01*
X118200180Y-97285750D01*
X118200179Y-97285749D01*
X118200178Y-97285749D01*
X118039971Y-97235827D01*
X118039969Y-97235826D01*
X118039967Y-97235826D01*
X117991221Y-97231396D01*
X117970347Y-97229500D01*
X117970344Y-97229500D01*
X116969645Y-97229500D01*
X116900033Y-97235825D01*
X116900022Y-97235828D01*
X116739824Y-97285747D01*
X116739820Y-97285749D01*
X116596222Y-97372556D01*
X116596217Y-97372560D01*
X116477560Y-97491217D01*
X116477556Y-97491222D01*
X116390750Y-97634819D01*
X116340826Y-97795032D01*
X116334500Y-97864655D01*
X116065499Y-97864655D01*
X116065499Y-97864654D01*
X116065499Y-97864653D01*
X116065499Y-97864645D01*
X116059174Y-97795033D01*
X116059171Y-97795022D01*
X116009252Y-97634824D01*
X116009250Y-97634820D01*
X115922443Y-97491222D01*
X115922439Y-97491217D01*
X115803782Y-97372560D01*
X115803777Y-97372556D01*
X115660180Y-97285750D01*
X115660179Y-97285749D01*
X115660178Y-97285749D01*
X115499971Y-97235827D01*
X115499969Y-97235826D01*
X115499967Y-97235826D01*
X115451221Y-97231396D01*
X115430347Y-97229500D01*
X115430344Y-97229500D01*
X114429645Y-97229500D01*
X114360033Y-97235825D01*
X114360022Y-97235828D01*
X114199824Y-97285747D01*
X114199820Y-97285749D01*
X114056222Y-97372556D01*
X114056217Y-97372560D01*
X113937560Y-97491217D01*
X113937556Y-97491222D01*
X113850750Y-97634819D01*
X113800826Y-97795032D01*
X113794500Y-97864655D01*
X110231892Y-97864655D01*
X110245741Y-97795033D01*
X110253000Y-97758543D01*
X110253000Y-97561456D01*
X110214552Y-97368170D01*
X110214551Y-97368169D01*
X110214551Y-97368165D01*
X110180414Y-97285750D01*
X110139135Y-97186092D01*
X110139128Y-97186079D01*
X110029639Y-97022218D01*
X110029636Y-97022214D01*
X109890285Y-96882863D01*
X109890281Y-96882860D01*
X109726420Y-96773371D01*
X109726407Y-96773364D01*
X109544339Y-96697950D01*
X109544329Y-96697947D01*
X109351043Y-96659500D01*
X109351041Y-96659500D01*
X108153959Y-96659500D01*
X108153957Y-96659500D01*
X107960670Y-96697947D01*
X107960660Y-96697950D01*
X107778592Y-96773364D01*
X107778579Y-96773371D01*
X107614718Y-96882860D01*
X107614714Y-96882863D01*
X107475363Y-97022214D01*
X107475360Y-97022218D01*
X107365871Y-97186079D01*
X107365864Y-97186092D01*
X107339061Y-97250803D01*
X107295220Y-97305207D01*
X107228926Y-97327272D01*
X107161227Y-97309993D01*
X107113616Y-97258856D01*
X107100500Y-97203351D01*
X107100500Y-95576648D01*
X107120185Y-95509609D01*
X107172989Y-95463854D01*
X107242147Y-95453910D01*
X107305703Y-95482935D01*
X107339061Y-95529196D01*
X107365864Y-95593908D01*
X107365871Y-95593920D01*
X107475360Y-95757781D01*
X107475363Y-95757785D01*
X107614714Y-95897136D01*
X107614718Y-95897139D01*
X107778579Y-96006628D01*
X107778592Y-96006635D01*
X107952927Y-96078846D01*
X107960665Y-96082051D01*
X107960669Y-96082051D01*
X107960670Y-96082052D01*
X108153956Y-96120500D01*
X108153959Y-96120500D01*
X109351043Y-96120500D01*
X109481082Y-96094632D01*
X109544335Y-96082051D01*
X109726414Y-96006632D01*
X109890282Y-95897139D01*
X110029639Y-95757782D01*
X110139132Y-95593914D01*
X110214551Y-95411835D01*
X110227132Y-95348582D01*
X110253000Y-95218543D01*
X110253000Y-95021456D01*
X110214552Y-94828170D01*
X110214551Y-94828169D01*
X110214551Y-94828165D01*
X110175339Y-94733497D01*
X110139135Y-94646092D01*
X110139128Y-94646079D01*
X110029639Y-94482218D01*
X110029636Y-94482214D01*
X109890285Y-94342863D01*
X109890281Y-94342860D01*
X109726420Y-94233371D01*
X109726407Y-94233364D01*
X109544339Y-94157950D01*
X109544329Y-94157947D01*
X109351043Y-94119500D01*
X109351041Y-94119500D01*
X108153959Y-94119500D01*
X108153957Y-94119500D01*
X107960670Y-94157947D01*
X107960660Y-94157950D01*
X107778592Y-94233364D01*
X107778579Y-94233371D01*
X107614718Y-94342860D01*
X107614714Y-94342863D01*
X107475363Y-94482214D01*
X107475360Y-94482218D01*
X107365871Y-94646079D01*
X107365864Y-94646092D01*
X107339061Y-94710803D01*
X107295220Y-94765207D01*
X107228926Y-94787272D01*
X107161227Y-94769993D01*
X107113616Y-94718856D01*
X107100500Y-94663351D01*
X107100500Y-93036648D01*
X107120185Y-92969609D01*
X107172989Y-92923854D01*
X107242147Y-92913910D01*
X107305703Y-92942935D01*
X107339061Y-92989196D01*
X107365864Y-93053908D01*
X107365871Y-93053920D01*
X107475360Y-93217781D01*
X107475363Y-93217785D01*
X107614714Y-93357136D01*
X107614718Y-93357139D01*
X107778579Y-93466628D01*
X107778592Y-93466635D01*
X107960660Y-93542049D01*
X107960665Y-93542051D01*
X107960669Y-93542051D01*
X107960670Y-93542052D01*
X108153956Y-93580500D01*
X108153959Y-93580500D01*
X109351043Y-93580500D01*
X109481082Y-93554632D01*
X109544335Y-93542051D01*
X109726414Y-93466632D01*
X109890282Y-93357139D01*
X110029639Y-93217782D01*
X110139132Y-93053914D01*
X110214551Y-92871835D01*
X110253000Y-92678541D01*
X110253000Y-92481459D01*
X110253000Y-92481456D01*
X110214552Y-92288170D01*
X110214551Y-92288169D01*
X110214551Y-92288165D01*
X110169274Y-92178856D01*
X110139135Y-92106092D01*
X110139128Y-92106079D01*
X110029639Y-91942218D01*
X110029636Y-91942214D01*
X109890285Y-91802863D01*
X109890281Y-91802860D01*
X109726420Y-91693371D01*
X109726407Y-91693364D01*
X109544339Y-91617950D01*
X109544329Y-91617947D01*
X109351043Y-91579500D01*
X109351041Y-91579500D01*
X108153959Y-91579500D01*
X108153957Y-91579500D01*
X107960670Y-91617947D01*
X107960660Y-91617950D01*
X107778592Y-91693364D01*
X107778579Y-91693371D01*
X107614718Y-91802860D01*
X107614714Y-91802863D01*
X107475363Y-91942214D01*
X107475360Y-91942218D01*
X107365871Y-92106079D01*
X107365864Y-92106092D01*
X107339061Y-92170803D01*
X107295220Y-92225207D01*
X107228926Y-92247272D01*
X107161227Y-92229993D01*
X107113616Y-92178856D01*
X107100500Y-92123351D01*
X107100500Y-90496648D01*
X107120185Y-90429609D01*
X107172989Y-90383854D01*
X107242147Y-90373910D01*
X107305703Y-90402935D01*
X107339061Y-90449196D01*
X107365864Y-90513908D01*
X107365871Y-90513920D01*
X107475360Y-90677781D01*
X107475363Y-90677785D01*
X107614714Y-90817136D01*
X107614718Y-90817139D01*
X107778579Y-90926628D01*
X107778592Y-90926635D01*
X107960660Y-91002049D01*
X107960665Y-91002051D01*
X107960669Y-91002051D01*
X107960670Y-91002052D01*
X108153956Y-91040500D01*
X108153959Y-91040500D01*
X109351043Y-91040500D01*
X109481082Y-91014632D01*
X109544335Y-91002051D01*
X109726414Y-90926632D01*
X109890282Y-90817139D01*
X110029639Y-90677782D01*
X110139132Y-90513914D01*
X110214551Y-90331835D01*
X110253000Y-90138541D01*
X110253000Y-89941459D01*
X110253000Y-89941456D01*
X110214552Y-89748170D01*
X110214551Y-89748169D01*
X110214551Y-89748165D01*
X110169274Y-89638856D01*
X110139135Y-89566092D01*
X110139128Y-89566079D01*
X110029639Y-89402218D01*
X110029636Y-89402214D01*
X109890285Y-89262863D01*
X109890281Y-89262860D01*
X109726420Y-89153371D01*
X109726407Y-89153364D01*
X109544339Y-89077950D01*
X109544329Y-89077947D01*
X109351043Y-89039500D01*
X109351041Y-89039500D01*
X108153959Y-89039500D01*
X108153957Y-89039500D01*
X107960670Y-89077947D01*
X107960660Y-89077950D01*
X107778592Y-89153364D01*
X107778579Y-89153371D01*
X107614718Y-89262860D01*
X107614714Y-89262863D01*
X107475363Y-89402214D01*
X107475360Y-89402218D01*
X107365871Y-89566079D01*
X107365864Y-89566092D01*
X107339061Y-89630803D01*
X107295220Y-89685207D01*
X107228926Y-89707272D01*
X107161227Y-89689993D01*
X107113616Y-89638856D01*
X107100500Y-89583351D01*
X107100500Y-87956648D01*
X107120185Y-87889609D01*
X107172989Y-87843854D01*
X107242147Y-87833910D01*
X107305703Y-87862935D01*
X107339061Y-87909196D01*
X107365864Y-87973908D01*
X107365871Y-87973920D01*
X107475360Y-88137781D01*
X107475363Y-88137785D01*
X107614714Y-88277136D01*
X107614718Y-88277139D01*
X107778579Y-88386628D01*
X107778592Y-88386635D01*
X107960660Y-88462049D01*
X107960665Y-88462051D01*
X107960669Y-88462051D01*
X107960670Y-88462052D01*
X108153956Y-88500500D01*
X108153959Y-88500500D01*
X109351043Y-88500500D01*
X109481082Y-88474632D01*
X109544335Y-88462051D01*
X109726414Y-88386632D01*
X109890282Y-88277139D01*
X110029639Y-88137782D01*
X110139132Y-87973914D01*
X110214551Y-87791835D01*
X110252120Y-87602966D01*
X110253000Y-87598543D01*
X110253000Y-87401456D01*
X110214552Y-87208170D01*
X110214551Y-87208169D01*
X110214551Y-87208165D01*
X110169274Y-87098856D01*
X110139135Y-87026092D01*
X110139128Y-87026079D01*
X110029639Y-86862218D01*
X110029636Y-86862214D01*
X109890285Y-86722863D01*
X109890281Y-86722860D01*
X109726420Y-86613371D01*
X109726407Y-86613364D01*
X109544339Y-86537950D01*
X109544329Y-86537947D01*
X109351043Y-86499500D01*
X109351041Y-86499500D01*
X108153959Y-86499500D01*
X108153957Y-86499500D01*
X107960670Y-86537947D01*
X107960660Y-86537950D01*
X107778592Y-86613364D01*
X107778579Y-86613371D01*
X107614718Y-86722860D01*
X107614714Y-86722863D01*
X107475363Y-86862214D01*
X107475360Y-86862218D01*
X107365871Y-87026079D01*
X107365864Y-87026092D01*
X107339061Y-87090803D01*
X107295220Y-87145207D01*
X107228926Y-87167272D01*
X107161227Y-87149993D01*
X107113616Y-87098856D01*
X107100500Y-87043351D01*
X107100500Y-85416648D01*
X107120185Y-85349609D01*
X107172989Y-85303854D01*
X107242147Y-85293910D01*
X107305703Y-85322935D01*
X107339061Y-85369196D01*
X107365864Y-85433908D01*
X107365871Y-85433920D01*
X107475360Y-85597781D01*
X107475363Y-85597785D01*
X107614714Y-85737136D01*
X107614718Y-85737139D01*
X107778579Y-85846628D01*
X107778592Y-85846635D01*
X107960660Y-85922049D01*
X107960665Y-85922051D01*
X107960669Y-85922051D01*
X107960670Y-85922052D01*
X108153956Y-85960500D01*
X108153959Y-85960500D01*
X109351043Y-85960500D01*
X109481082Y-85934632D01*
X109544335Y-85922051D01*
X109726414Y-85846632D01*
X109890282Y-85737139D01*
X110029639Y-85597782D01*
X110139132Y-85433914D01*
X110210069Y-85262655D01*
X113794500Y-85262655D01*
X113794500Y-87533354D01*
X113800825Y-87602966D01*
X113800828Y-87602977D01*
X113850747Y-87763175D01*
X113850749Y-87763179D01*
X113937556Y-87906777D01*
X113937560Y-87906782D01*
X114056217Y-88025439D01*
X114056222Y-88025443D01*
X114199820Y-88112250D01*
X114199822Y-88112251D01*
X114242389Y-88125515D01*
X114300536Y-88164250D01*
X114328512Y-88228275D01*
X114329500Y-88243900D01*
X114329500Y-94343330D01*
X114329499Y-94343348D01*
X114329499Y-94509054D01*
X114329498Y-94509054D01*
X114370423Y-94661785D01*
X114382887Y-94683373D01*
X114387037Y-94698862D01*
X114394477Y-94710439D01*
X114399500Y-94745374D01*
X114399500Y-94920234D01*
X114379815Y-94987273D01*
X114378602Y-94989125D01*
X114290609Y-95120814D01*
X114290602Y-95120827D01*
X114230264Y-95266498D01*
X114230261Y-95266510D01*
X114199500Y-95421153D01*
X114199500Y-95578846D01*
X114230261Y-95733489D01*
X114230264Y-95733501D01*
X114290602Y-95879172D01*
X114290609Y-95879185D01*
X114378210Y-96010288D01*
X114378213Y-96010292D01*
X114489707Y-96121786D01*
X114489711Y-96121789D01*
X114620814Y-96209390D01*
X114620827Y-96209397D01*
X114766498Y-96269735D01*
X114766503Y-96269737D01*
X114921153Y-96300499D01*
X114921156Y-96300500D01*
X114921158Y-96300500D01*
X115078844Y-96300500D01*
X115078845Y-96300499D01*
X115233497Y-96269737D01*
X115379179Y-96209394D01*
X115510289Y-96121789D01*
X115621789Y-96010289D01*
X115709394Y-95879179D01*
X115769737Y-95733497D01*
X115800500Y-95578842D01*
X115800500Y-95421158D01*
X115800500Y-95421155D01*
X115800499Y-95421153D01*
X115798646Y-95411839D01*
X115769737Y-95266503D01*
X115769735Y-95266498D01*
X115709397Y-95120827D01*
X115709390Y-95120814D01*
X115621398Y-94989125D01*
X115600520Y-94922447D01*
X115600500Y-94920234D01*
X115600500Y-94589059D01*
X115600501Y-94589046D01*
X115600501Y-94420945D01*
X115600501Y-94420943D01*
X115559577Y-94268215D01*
X115547111Y-94246624D01*
X115530500Y-94184626D01*
X115530500Y-88243900D01*
X115550185Y-88176861D01*
X115602989Y-88131106D01*
X115617602Y-88125517D01*
X115660178Y-88112251D01*
X115757113Y-88053652D01*
X115803777Y-88025443D01*
X115803778Y-88025441D01*
X115803783Y-88025439D01*
X115922439Y-87906783D01*
X116009251Y-87763178D01*
X116059173Y-87602971D01*
X116065500Y-87533347D01*
X116065499Y-85262655D01*
X116334500Y-85262655D01*
X116334500Y-87533354D01*
X116340825Y-87602966D01*
X116340828Y-87602977D01*
X116390747Y-87763175D01*
X116390749Y-87763179D01*
X116477556Y-87906777D01*
X116477560Y-87906782D01*
X116596217Y-88025439D01*
X116596222Y-88025443D01*
X116739820Y-88112250D01*
X116739822Y-88112251D01*
X116782389Y-88125515D01*
X116840536Y-88164250D01*
X116868512Y-88228275D01*
X116869500Y-88243900D01*
X116869500Y-95390939D01*
X116869499Y-95390943D01*
X116869499Y-95448618D01*
X116869499Y-95465136D01*
X116849814Y-95532175D01*
X116849810Y-95532177D01*
X116848601Y-95534025D01*
X116790604Y-95620823D01*
X116730264Y-95766498D01*
X116730261Y-95766510D01*
X116699500Y-95921153D01*
X116699500Y-96078846D01*
X116730261Y-96233489D01*
X116730264Y-96233501D01*
X116790602Y-96379172D01*
X116790609Y-96379185D01*
X116878210Y-96510288D01*
X116878213Y-96510292D01*
X116989707Y-96621786D01*
X116989711Y-96621789D01*
X117120814Y-96709390D01*
X117120827Y-96709397D01*
X117266498Y-96769735D01*
X117266503Y-96769737D01*
X117421153Y-96800499D01*
X117421156Y-96800500D01*
X117421158Y-96800500D01*
X117578844Y-96800500D01*
X117578845Y-96800499D01*
X117733497Y-96769737D01*
X117879179Y-96709394D01*
X118010289Y-96621789D01*
X118121789Y-96510289D01*
X118209394Y-96379179D01*
X118269737Y-96233497D01*
X118300500Y-96078842D01*
X118300500Y-95921158D01*
X118300500Y-95921155D01*
X118300499Y-95921153D01*
X118269738Y-95766510D01*
X118269737Y-95766503D01*
X118256062Y-95733489D01*
X118209397Y-95620827D01*
X118209390Y-95620814D01*
X118121398Y-95489125D01*
X118103792Y-95448618D01*
X118100500Y-95434618D01*
X118100500Y-95420943D01*
X118074228Y-95322894D01*
X118073792Y-95321040D01*
X118073922Y-95318653D01*
X118070500Y-95292656D01*
X118070500Y-88243900D01*
X118090185Y-88176861D01*
X118142989Y-88131106D01*
X118157602Y-88125517D01*
X118200178Y-88112251D01*
X118297113Y-88053652D01*
X118343777Y-88025443D01*
X118343778Y-88025441D01*
X118343783Y-88025439D01*
X118462439Y-87906783D01*
X118549251Y-87763178D01*
X118599173Y-87602971D01*
X118605500Y-87533347D01*
X118605499Y-85262655D01*
X118874500Y-85262655D01*
X118874500Y-87533354D01*
X118880825Y-87602966D01*
X118880828Y-87602977D01*
X118930747Y-87763175D01*
X118930749Y-87763179D01*
X119017556Y-87906777D01*
X119017560Y-87906782D01*
X119136217Y-88025439D01*
X119136222Y-88025443D01*
X119279820Y-88112250D01*
X119279822Y-88112251D01*
X119322389Y-88125515D01*
X119380536Y-88164250D01*
X119408512Y-88228275D01*
X119409500Y-88243900D01*
X119409500Y-93367293D01*
X119409374Y-93372879D01*
X119408766Y-93386357D01*
X119399499Y-93420943D01*
X119399499Y-93579057D01*
X119399500Y-93579060D01*
X119399500Y-93591850D01*
X119399500Y-93920234D01*
X119379815Y-93987273D01*
X119378602Y-93989125D01*
X119290609Y-94120814D01*
X119290602Y-94120827D01*
X119230264Y-94266498D01*
X119230261Y-94266510D01*
X119199500Y-94421153D01*
X119199500Y-94578846D01*
X119230261Y-94733489D01*
X119230264Y-94733501D01*
X119290602Y-94879172D01*
X119290609Y-94879185D01*
X119378210Y-95010288D01*
X119378213Y-95010292D01*
X119489707Y-95121786D01*
X119489711Y-95121789D01*
X119620814Y-95209390D01*
X119620827Y-95209397D01*
X119758683Y-95266498D01*
X119766503Y-95269737D01*
X119881724Y-95292656D01*
X119921153Y-95300499D01*
X119921156Y-95300500D01*
X119921158Y-95300500D01*
X120078844Y-95300500D01*
X120078845Y-95300499D01*
X120233497Y-95269737D01*
X120379179Y-95209394D01*
X120510289Y-95121789D01*
X120621789Y-95010289D01*
X120709394Y-94879179D01*
X120769737Y-94733497D01*
X120800500Y-94578842D01*
X120800500Y-94421158D01*
X120800500Y-94421155D01*
X120800499Y-94421153D01*
X120786532Y-94350939D01*
X120769737Y-94266503D01*
X120761503Y-94246625D01*
X120709397Y-94120827D01*
X120709390Y-94120814D01*
X120621398Y-93989125D01*
X120600520Y-93922447D01*
X120600500Y-93920234D01*
X120600500Y-93622702D01*
X120604725Y-93590609D01*
X120610500Y-93569057D01*
X120610500Y-93410943D01*
X120610500Y-88243900D01*
X120630185Y-88176861D01*
X120682989Y-88131106D01*
X120697602Y-88125517D01*
X120740178Y-88112251D01*
X120837113Y-88053652D01*
X120883777Y-88025443D01*
X120883778Y-88025441D01*
X120883783Y-88025439D01*
X121002439Y-87906783D01*
X121089251Y-87763178D01*
X121139173Y-87602971D01*
X121145500Y-87533347D01*
X121145499Y-85262655D01*
X121414500Y-85262655D01*
X121414500Y-87533354D01*
X121420825Y-87602966D01*
X121420828Y-87602977D01*
X121470747Y-87763175D01*
X121470749Y-87763179D01*
X121557556Y-87906777D01*
X121557560Y-87906782D01*
X121676217Y-88025439D01*
X121676222Y-88025443D01*
X121774609Y-88084919D01*
X121819822Y-88112251D01*
X121980029Y-88162173D01*
X122049653Y-88168500D01*
X123050346Y-88168499D01*
X123050353Y-88168499D01*
X123119966Y-88162174D01*
X123119969Y-88162173D01*
X123119971Y-88162173D01*
X123280178Y-88112251D01*
X123377113Y-88053652D01*
X123423777Y-88025443D01*
X123423778Y-88025441D01*
X123423783Y-88025439D01*
X123542439Y-87906783D01*
X123629251Y-87763178D01*
X123679173Y-87602971D01*
X123685500Y-87533347D01*
X123685499Y-85262654D01*
X123685499Y-85262653D01*
X123685499Y-85262645D01*
X123679174Y-85193033D01*
X123679171Y-85193022D01*
X123629252Y-85032824D01*
X123629250Y-85032820D01*
X123542443Y-84889222D01*
X123542439Y-84889217D01*
X123423782Y-84770560D01*
X123423777Y-84770556D01*
X123280180Y-84683750D01*
X123280179Y-84683749D01*
X123280178Y-84683749D01*
X123119971Y-84633827D01*
X123119969Y-84633826D01*
X123119967Y-84633826D01*
X123071221Y-84629396D01*
X123050347Y-84627500D01*
X123050344Y-84627500D01*
X122049645Y-84627500D01*
X121980033Y-84633825D01*
X121980022Y-84633828D01*
X121819824Y-84683747D01*
X121819820Y-84683749D01*
X121676222Y-84770556D01*
X121676217Y-84770560D01*
X121557560Y-84889217D01*
X121557556Y-84889222D01*
X121470750Y-85032819D01*
X121470750Y-85032820D01*
X121470749Y-85032822D01*
X121451911Y-85093277D01*
X121420826Y-85193032D01*
X121414500Y-85262655D01*
X121145499Y-85262655D01*
X121145499Y-85262654D01*
X121145499Y-85262653D01*
X121145499Y-85262645D01*
X121139174Y-85193033D01*
X121139171Y-85193022D01*
X121089252Y-85032824D01*
X121089250Y-85032820D01*
X121002443Y-84889222D01*
X121002439Y-84889217D01*
X120883782Y-84770560D01*
X120883777Y-84770556D01*
X120740180Y-84683750D01*
X120740179Y-84683749D01*
X120740178Y-84683749D01*
X120579971Y-84633827D01*
X120579969Y-84633826D01*
X120579967Y-84633826D01*
X120531221Y-84629396D01*
X120510347Y-84627500D01*
X120510344Y-84627500D01*
X119509645Y-84627500D01*
X119440033Y-84633825D01*
X119440022Y-84633828D01*
X119279824Y-84683747D01*
X119279820Y-84683749D01*
X119136222Y-84770556D01*
X119136217Y-84770560D01*
X119017560Y-84889217D01*
X119017556Y-84889222D01*
X118930750Y-85032819D01*
X118930750Y-85032820D01*
X118930749Y-85032822D01*
X118911911Y-85093277D01*
X118880826Y-85193032D01*
X118874500Y-85262655D01*
X118605499Y-85262655D01*
X118605499Y-85262654D01*
X118605499Y-85262653D01*
X118605499Y-85262645D01*
X118599174Y-85193033D01*
X118599171Y-85193022D01*
X118549252Y-85032824D01*
X118549250Y-85032820D01*
X118462443Y-84889222D01*
X118462439Y-84889217D01*
X118343782Y-84770560D01*
X118343777Y-84770556D01*
X118200180Y-84683750D01*
X118200179Y-84683749D01*
X118200178Y-84683749D01*
X118039971Y-84633827D01*
X118039969Y-84633826D01*
X118039967Y-84633826D01*
X117991221Y-84629396D01*
X117970347Y-84627500D01*
X117970344Y-84627500D01*
X116969645Y-84627500D01*
X116900033Y-84633825D01*
X116900022Y-84633828D01*
X116739824Y-84683747D01*
X116739820Y-84683749D01*
X116596222Y-84770556D01*
X116596217Y-84770560D01*
X116477560Y-84889217D01*
X116477556Y-84889222D01*
X116390750Y-85032819D01*
X116390750Y-85032820D01*
X116390749Y-85032822D01*
X116371911Y-85093277D01*
X116340826Y-85193032D01*
X116334500Y-85262655D01*
X116065499Y-85262655D01*
X116065499Y-85262654D01*
X116065499Y-85262653D01*
X116065499Y-85262645D01*
X116059174Y-85193033D01*
X116059171Y-85193022D01*
X116009252Y-85032824D01*
X116009250Y-85032820D01*
X115922443Y-84889222D01*
X115922439Y-84889217D01*
X115803782Y-84770560D01*
X115803777Y-84770556D01*
X115660180Y-84683750D01*
X115660179Y-84683749D01*
X115660178Y-84683749D01*
X115499971Y-84633827D01*
X115499969Y-84633826D01*
X115499967Y-84633826D01*
X115451221Y-84629396D01*
X115430347Y-84627500D01*
X115430344Y-84627500D01*
X114429645Y-84627500D01*
X114360033Y-84633825D01*
X114360022Y-84633828D01*
X114199824Y-84683747D01*
X114199820Y-84683749D01*
X114056222Y-84770556D01*
X114056217Y-84770560D01*
X113937560Y-84889217D01*
X113937556Y-84889222D01*
X113850750Y-85032819D01*
X113850750Y-85032820D01*
X113850749Y-85032822D01*
X113831911Y-85093277D01*
X113800826Y-85193032D01*
X113794500Y-85262655D01*
X110210069Y-85262655D01*
X110214551Y-85251835D01*
X110253000Y-85058541D01*
X110253000Y-84872229D01*
X110272685Y-84805190D01*
X110289319Y-84784548D01*
X110787049Y-84286819D01*
X110848372Y-84253334D01*
X110874730Y-84250500D01*
X125637770Y-84250500D01*
X125704809Y-84270185D01*
X125725451Y-84286819D01*
X125903443Y-84464811D01*
X125936928Y-84526134D01*
X125931944Y-84595826D01*
X125890072Y-84651759D01*
X125824608Y-84676176D01*
X125778873Y-84670878D01*
X125661560Y-84634322D01*
X125659968Y-84633826D01*
X125609325Y-84629224D01*
X125590347Y-84627500D01*
X125590344Y-84627500D01*
X124589645Y-84627500D01*
X124520033Y-84633825D01*
X124520022Y-84633828D01*
X124359824Y-84683747D01*
X124359820Y-84683749D01*
X124216222Y-84770556D01*
X124216217Y-84770560D01*
X124097560Y-84889217D01*
X124097556Y-84889222D01*
X124010750Y-85032819D01*
X124010750Y-85032820D01*
X124010749Y-85032822D01*
X123991911Y-85093277D01*
X123960826Y-85193032D01*
X123954500Y-85262655D01*
X123954500Y-87533354D01*
X123960825Y-87602966D01*
X123960828Y-87602977D01*
X124010747Y-87763175D01*
X124010749Y-87763179D01*
X124097556Y-87906777D01*
X124097560Y-87906782D01*
X124216217Y-88025439D01*
X124216222Y-88025443D01*
X124314609Y-88084919D01*
X124359822Y-88112251D01*
X124520029Y-88162173D01*
X124589653Y-88168500D01*
X125590346Y-88168499D01*
X125590353Y-88168499D01*
X125659966Y-88162174D01*
X125659969Y-88162173D01*
X125659971Y-88162173D01*
X125820178Y-88112251D01*
X125917113Y-88053652D01*
X125963777Y-88025443D01*
X125963778Y-88025441D01*
X125963783Y-88025439D01*
X126082439Y-87906783D01*
X126169251Y-87763178D01*
X126219173Y-87602971D01*
X126225500Y-87533347D01*
X126225499Y-85262654D01*
X126225499Y-85262653D01*
X126225499Y-85262645D01*
X126219174Y-85193033D01*
X126219172Y-85193025D01*
X126185462Y-85084848D01*
X126182121Y-85074126D01*
X126182029Y-85068517D01*
X126179341Y-85063594D01*
X126181459Y-85033967D01*
X126180970Y-85004267D01*
X126183924Y-84999498D01*
X126184325Y-84993902D01*
X126202126Y-84970122D01*
X126217771Y-84944874D01*
X126222835Y-84942459D01*
X126226197Y-84937969D01*
X126254028Y-84927588D01*
X126280840Y-84914806D01*
X126286404Y-84915512D01*
X126291661Y-84913552D01*
X126320685Y-84919865D01*
X126350153Y-84923608D01*
X126355895Y-84927525D01*
X126359934Y-84928404D01*
X126388188Y-84949555D01*
X126478904Y-85040271D01*
X126512389Y-85101594D01*
X126509610Y-85164838D01*
X126500827Y-85193025D01*
X126494500Y-85262655D01*
X126494500Y-87533354D01*
X126500825Y-87602966D01*
X126500828Y-87602977D01*
X126550747Y-87763175D01*
X126550749Y-87763179D01*
X126637556Y-87906777D01*
X126637560Y-87906782D01*
X126756217Y-88025439D01*
X126756222Y-88025443D01*
X126854609Y-88084919D01*
X126899822Y-88112251D01*
X127060029Y-88162173D01*
X127129653Y-88168500D01*
X128130346Y-88168499D01*
X128130353Y-88168499D01*
X128199966Y-88162174D01*
X128199969Y-88162173D01*
X128199971Y-88162173D01*
X128360178Y-88112251D01*
X128457113Y-88053652D01*
X128503777Y-88025443D01*
X128503778Y-88025441D01*
X128503783Y-88025439D01*
X128622439Y-87906783D01*
X128709251Y-87763178D01*
X128759173Y-87602971D01*
X128765500Y-87533347D01*
X128765499Y-86345339D01*
X128765499Y-85262701D01*
X129035000Y-85262701D01*
X129035000Y-86148000D01*
X129854314Y-86148000D01*
X129849920Y-86152394D01*
X129797259Y-86243606D01*
X129770000Y-86345339D01*
X129770000Y-86450661D01*
X129797259Y-86552394D01*
X129849920Y-86643606D01*
X129854314Y-86648000D01*
X129035001Y-86648000D01*
X129035001Y-87533308D01*
X129041321Y-87602875D01*
X129041323Y-87602883D01*
X129091208Y-87762970D01*
X129091209Y-87762972D01*
X129177954Y-87906467D01*
X129177957Y-87906471D01*
X129296528Y-88025042D01*
X129296532Y-88025045D01*
X129440026Y-88111789D01*
X129600123Y-88161677D01*
X129669701Y-88167999D01*
X129919999Y-88167999D01*
X129920000Y-88167998D01*
X129920000Y-86713686D01*
X129924394Y-86718080D01*
X130015606Y-86770741D01*
X130117339Y-86798000D01*
X130222661Y-86798000D01*
X130324394Y-86770741D01*
X130415606Y-86718080D01*
X130420000Y-86713686D01*
X130420000Y-88167999D01*
X130670307Y-88167999D01*
X130739875Y-88161678D01*
X130739883Y-88161676D01*
X130899970Y-88111791D01*
X130899972Y-88111790D01*
X131043467Y-88025045D01*
X131043471Y-88025042D01*
X131162042Y-87906471D01*
X131162045Y-87906467D01*
X131248789Y-87762973D01*
X131298677Y-87602876D01*
X131305000Y-87533298D01*
X131305000Y-86648000D01*
X130485686Y-86648000D01*
X130490080Y-86643606D01*
X130542741Y-86552394D01*
X130570000Y-86450661D01*
X130570000Y-86345339D01*
X130542741Y-86243606D01*
X130490080Y-86152394D01*
X130485686Y-86148000D01*
X131304999Y-86148000D01*
X131304999Y-85262691D01*
X131304996Y-85262655D01*
X131574500Y-85262655D01*
X131574500Y-87533354D01*
X131580825Y-87602966D01*
X131580828Y-87602977D01*
X131630747Y-87763175D01*
X131630749Y-87763179D01*
X131717556Y-87906777D01*
X131717560Y-87906782D01*
X131836217Y-88025439D01*
X131836222Y-88025443D01*
X131934609Y-88084919D01*
X131979822Y-88112251D01*
X132140029Y-88162173D01*
X132209653Y-88168500D01*
X133210346Y-88168499D01*
X133210353Y-88168499D01*
X133279966Y-88162174D01*
X133279969Y-88162173D01*
X133279971Y-88162173D01*
X133440178Y-88112251D01*
X133537113Y-88053652D01*
X133583777Y-88025443D01*
X133583778Y-88025441D01*
X133583783Y-88025439D01*
X133702439Y-87906783D01*
X133789251Y-87763178D01*
X133839173Y-87602971D01*
X133845500Y-87533347D01*
X133845499Y-85262655D01*
X134114500Y-85262655D01*
X134114500Y-87533354D01*
X134120825Y-87602966D01*
X134120828Y-87602977D01*
X134170747Y-87763175D01*
X134170749Y-87763179D01*
X134257556Y-87906777D01*
X134257560Y-87906782D01*
X134376217Y-88025439D01*
X134376222Y-88025443D01*
X134474609Y-88084919D01*
X134519822Y-88112251D01*
X134680029Y-88162173D01*
X134749653Y-88168500D01*
X135750346Y-88168499D01*
X135750353Y-88168499D01*
X135819966Y-88162174D01*
X135819969Y-88162173D01*
X135819971Y-88162173D01*
X135980178Y-88112251D01*
X136077113Y-88053652D01*
X136123777Y-88025443D01*
X136123778Y-88025441D01*
X136123783Y-88025439D01*
X136242439Y-87906783D01*
X136329251Y-87763178D01*
X136379173Y-87602971D01*
X136385500Y-87533347D01*
X136385499Y-85262654D01*
X136385499Y-85262653D01*
X136385499Y-85262645D01*
X136379174Y-85193033D01*
X136379171Y-85193022D01*
X136329252Y-85032824D01*
X136329250Y-85032820D01*
X136242443Y-84889222D01*
X136242439Y-84889217D01*
X136123782Y-84770560D01*
X136123777Y-84770556D01*
X135980180Y-84683750D01*
X135980179Y-84683749D01*
X135980178Y-84683749D01*
X135819971Y-84633827D01*
X135819969Y-84633826D01*
X135819967Y-84633826D01*
X135771221Y-84629396D01*
X135750347Y-84627500D01*
X135750344Y-84627500D01*
X134749645Y-84627500D01*
X134680033Y-84633825D01*
X134680022Y-84633828D01*
X134519824Y-84683747D01*
X134519820Y-84683749D01*
X134376222Y-84770556D01*
X134376217Y-84770560D01*
X134257560Y-84889217D01*
X134257556Y-84889222D01*
X134170750Y-85032819D01*
X134170750Y-85032820D01*
X134170749Y-85032822D01*
X134151911Y-85093277D01*
X134120826Y-85193032D01*
X134114500Y-85262655D01*
X133845499Y-85262655D01*
X133845499Y-85262654D01*
X133845499Y-85262653D01*
X133845499Y-85262645D01*
X133839174Y-85193033D01*
X133839171Y-85193022D01*
X133789252Y-85032824D01*
X133789250Y-85032820D01*
X133702443Y-84889222D01*
X133702439Y-84889217D01*
X133583782Y-84770560D01*
X133583777Y-84770556D01*
X133440180Y-84683750D01*
X133440179Y-84683749D01*
X133440178Y-84683749D01*
X133279971Y-84633827D01*
X133279969Y-84633826D01*
X133279967Y-84633826D01*
X133231221Y-84629396D01*
X133210347Y-84627500D01*
X133210344Y-84627500D01*
X132209645Y-84627500D01*
X132140033Y-84633825D01*
X132140022Y-84633828D01*
X131979824Y-84683747D01*
X131979820Y-84683749D01*
X131836222Y-84770556D01*
X131836217Y-84770560D01*
X131717560Y-84889217D01*
X131717556Y-84889222D01*
X131630750Y-85032819D01*
X131630750Y-85032820D01*
X131630749Y-85032822D01*
X131611911Y-85093277D01*
X131580826Y-85193032D01*
X131574500Y-85262655D01*
X131304996Y-85262655D01*
X131298678Y-85193124D01*
X131298676Y-85193116D01*
X131248791Y-85033029D01*
X131248790Y-85033027D01*
X131162045Y-84889532D01*
X131162042Y-84889528D01*
X131043471Y-84770957D01*
X131043467Y-84770954D01*
X130899973Y-84684210D01*
X130739876Y-84634322D01*
X130670298Y-84628000D01*
X130420000Y-84628000D01*
X130420000Y-86082314D01*
X130415606Y-86077920D01*
X130324394Y-86025259D01*
X130222661Y-85998000D01*
X130117339Y-85998000D01*
X130015606Y-86025259D01*
X129924394Y-86077920D01*
X129920000Y-86082314D01*
X129920000Y-84628000D01*
X129669691Y-84628000D01*
X129600123Y-84634321D01*
X129600116Y-84634323D01*
X129440029Y-84684208D01*
X129440027Y-84684209D01*
X129296532Y-84770954D01*
X129296528Y-84770957D01*
X129177957Y-84889528D01*
X129177954Y-84889532D01*
X129091210Y-85033026D01*
X129041322Y-85193123D01*
X129035000Y-85262701D01*
X128765499Y-85262701D01*
X128765499Y-85262645D01*
X128759174Y-85193033D01*
X128759171Y-85193022D01*
X128709252Y-85032824D01*
X128709250Y-85032820D01*
X128622443Y-84889222D01*
X128622439Y-84889217D01*
X128503782Y-84770560D01*
X128503777Y-84770556D01*
X128360179Y-84683749D01*
X128360177Y-84683748D01*
X128222208Y-84640755D01*
X128210190Y-84633490D01*
X128199672Y-84631202D01*
X128171418Y-84610051D01*
X128108416Y-84547049D01*
X126478421Y-82917052D01*
X126478420Y-82917051D01*
X126361475Y-82838912D01*
X126361474Y-82838911D01*
X126355498Y-82834918D01*
X126355497Y-82834917D01*
X126355495Y-82834916D01*
X126218913Y-82778342D01*
X126218907Y-82778340D01*
X126073920Y-82749500D01*
X126073918Y-82749500D01*
X110438582Y-82749500D01*
X110379533Y-82761245D01*
X110309941Y-82755016D01*
X110254765Y-82712153D01*
X110231521Y-82646263D01*
X110233726Y-82615435D01*
X110253000Y-82518543D01*
X110253000Y-82321456D01*
X110214552Y-82128170D01*
X110214551Y-82128169D01*
X110214551Y-82128165D01*
X110169274Y-82018856D01*
X110139135Y-81946092D01*
X110139128Y-81946079D01*
X110029639Y-81782218D01*
X110029636Y-81782214D01*
X109890285Y-81642863D01*
X109890281Y-81642860D01*
X109726420Y-81533371D01*
X109726407Y-81533364D01*
X109544339Y-81457950D01*
X109544329Y-81457947D01*
X109351043Y-81419500D01*
X109351041Y-81419500D01*
X108153959Y-81419500D01*
X108153957Y-81419500D01*
X107960670Y-81457947D01*
X107960660Y-81457950D01*
X107778592Y-81533364D01*
X107778579Y-81533371D01*
X107614718Y-81642860D01*
X107614714Y-81642863D01*
X107475363Y-81782214D01*
X107475360Y-81782218D01*
X107365871Y-81946079D01*
X107365864Y-81946092D01*
X107339061Y-82010803D01*
X107295220Y-82065207D01*
X107228926Y-82087272D01*
X107161227Y-82069993D01*
X107113616Y-82018856D01*
X107100500Y-81963351D01*
X107100500Y-80336648D01*
X107120185Y-80269609D01*
X107172989Y-80223854D01*
X107242147Y-80213910D01*
X107305703Y-80242935D01*
X107339061Y-80289196D01*
X107365864Y-80353908D01*
X107365871Y-80353920D01*
X107475360Y-80517781D01*
X107475363Y-80517785D01*
X107614714Y-80657136D01*
X107614718Y-80657139D01*
X107778579Y-80766628D01*
X107778592Y-80766635D01*
X107960660Y-80842049D01*
X107960665Y-80842051D01*
X107960669Y-80842051D01*
X107960670Y-80842052D01*
X108153956Y-80880500D01*
X108153959Y-80880500D01*
X109351043Y-80880500D01*
X109481082Y-80854632D01*
X109544335Y-80842051D01*
X109726414Y-80766632D01*
X109890282Y-80657139D01*
X110029639Y-80517782D01*
X110139132Y-80353914D01*
X110214551Y-80171835D01*
X110246243Y-80012512D01*
X110253000Y-79978543D01*
X110253000Y-79781456D01*
X110214552Y-79588170D01*
X110214551Y-79588169D01*
X110214551Y-79588165D01*
X110169274Y-79478856D01*
X110139135Y-79406092D01*
X110139128Y-79406079D01*
X110029639Y-79242218D01*
X110029636Y-79242214D01*
X109890285Y-79102863D01*
X109890281Y-79102860D01*
X109726420Y-78993371D01*
X109726407Y-78993364D01*
X109544339Y-78917950D01*
X109544329Y-78917947D01*
X109351043Y-78879500D01*
X109351041Y-78879500D01*
X108153959Y-78879500D01*
X108153957Y-78879500D01*
X107960670Y-78917947D01*
X107960660Y-78917950D01*
X107778592Y-78993364D01*
X107778579Y-78993371D01*
X107614718Y-79102860D01*
X107614714Y-79102863D01*
X107475363Y-79242214D01*
X107475360Y-79242218D01*
X107365871Y-79406079D01*
X107365864Y-79406092D01*
X107339061Y-79470803D01*
X107295220Y-79525207D01*
X107228926Y-79547272D01*
X107161227Y-79529993D01*
X107113616Y-79478856D01*
X107100500Y-79423351D01*
X107100500Y-78300097D01*
X107120185Y-78233058D01*
X107136819Y-78212416D01*
X107232099Y-78117136D01*
X107335727Y-78013507D01*
X107397048Y-77980024D01*
X107466739Y-77985008D01*
X107511087Y-78013509D01*
X107614714Y-78117136D01*
X107614718Y-78117139D01*
X107778579Y-78226628D01*
X107778592Y-78226635D01*
X107960660Y-78302049D01*
X107960665Y-78302051D01*
X107960669Y-78302051D01*
X107960670Y-78302052D01*
X108153956Y-78340500D01*
X108153959Y-78340500D01*
X109351043Y-78340500D01*
X109481082Y-78314632D01*
X109544335Y-78302051D01*
X109726414Y-78226632D01*
X109890282Y-78117139D01*
X110029639Y-77977782D01*
X110139132Y-77813914D01*
X110214551Y-77631835D01*
X110236900Y-77519480D01*
X110253000Y-77438543D01*
X110253000Y-77241456D01*
X110214552Y-77048170D01*
X110214551Y-77048169D01*
X110214551Y-77048165D01*
X110214549Y-77048160D01*
X110139135Y-76866092D01*
X110139128Y-76866079D01*
X110029639Y-76702218D01*
X110029636Y-76702214D01*
X109890285Y-76562863D01*
X109890281Y-76562860D01*
X109726420Y-76453371D01*
X109726407Y-76453364D01*
X109544339Y-76377950D01*
X109544329Y-76377947D01*
X109351043Y-76339500D01*
X109351041Y-76339500D01*
X108153959Y-76339500D01*
X108153957Y-76339500D01*
X107960670Y-76377947D01*
X107960660Y-76377950D01*
X107778592Y-76453364D01*
X107778579Y-76453371D01*
X107614718Y-76562860D01*
X107614714Y-76562863D01*
X107474397Y-76703181D01*
X107447469Y-76717884D01*
X107421651Y-76734477D01*
X107415450Y-76735368D01*
X107413074Y-76736666D01*
X107386716Y-76739500D01*
X107246669Y-76739500D01*
X107246653Y-76739499D01*
X107239057Y-76739499D01*
X107080943Y-76739499D01*
X106973587Y-76768265D01*
X106928210Y-76780424D01*
X106928209Y-76780425D01*
X106878096Y-76809359D01*
X106878095Y-76809360D01*
X106834689Y-76834420D01*
X106791285Y-76859479D01*
X106791282Y-76859481D01*
X106019481Y-77631282D01*
X106019479Y-77631285D01*
X106000944Y-77663389D01*
X105982408Y-77695495D01*
X105940423Y-77768215D01*
X105899499Y-77920943D01*
X105899499Y-77920945D01*
X105899499Y-78089046D01*
X105899500Y-78089059D01*
X105899500Y-111413330D01*
X105899499Y-111413348D01*
X105899499Y-111579054D01*
X105899498Y-111579054D01*
X105940424Y-111731789D01*
X105940425Y-111731790D01*
X105961455Y-111768214D01*
X105961456Y-111768216D01*
X106019475Y-111868709D01*
X106019479Y-111868714D01*
X106019480Y-111868716D01*
X106131284Y-111980520D01*
X106131285Y-111980521D01*
X106631284Y-112480520D01*
X106631286Y-112480521D01*
X106631290Y-112480524D01*
X106768209Y-112559573D01*
X106768216Y-112559577D01*
X106920943Y-112600501D01*
X106920945Y-112600501D01*
X107086654Y-112600501D01*
X107086670Y-112600500D01*
X114413331Y-112600500D01*
X114413347Y-112600501D01*
X114420943Y-112600501D01*
X114579054Y-112600501D01*
X114579057Y-112600501D01*
X114731785Y-112559577D01*
X114781904Y-112530639D01*
X114868716Y-112480520D01*
X114980520Y-112368716D01*
X114980520Y-112368714D01*
X114990728Y-112358507D01*
X114990730Y-112358504D01*
X116868713Y-110480521D01*
X116868716Y-110480520D01*
X116937822Y-110411413D01*
X116999144Y-110377931D01*
X117038974Y-110380780D01*
X117068834Y-110382916D01*
X117068835Y-110382916D01*
X117068836Y-110382917D01*
X117124769Y-110424789D01*
X117140698Y-110467501D01*
X117149184Y-110490252D01*
X117149500Y-110499098D01*
X117149500Y-111449902D01*
X117129815Y-111516941D01*
X117113181Y-111537583D01*
X115287584Y-113363181D01*
X115226261Y-113396666D01*
X115199903Y-113399500D01*
X106189903Y-113399500D01*
X106122864Y-113379815D01*
X106077109Y-113327011D01*
X106070128Y-113307594D01*
X106059576Y-113268214D01*
X106059573Y-113268209D01*
X105980524Y-113131290D01*
X105980521Y-113131286D01*
X105980520Y-113131284D01*
X105868716Y-113019480D01*
X105868715Y-113019479D01*
X105864385Y-113015149D01*
X105864374Y-113015139D01*
X104636819Y-111787584D01*
X104603334Y-111726261D01*
X104600500Y-111699903D01*
X104600500Y-77800097D01*
X104620185Y-77733058D01*
X104636819Y-77712416D01*
X106712416Y-75636819D01*
X106773739Y-75603334D01*
X106800097Y-75600500D01*
X107612065Y-75600500D01*
X107679104Y-75620185D01*
X107680956Y-75621398D01*
X107778586Y-75686632D01*
X107960665Y-75762051D01*
X107960669Y-75762051D01*
X107960670Y-75762052D01*
X108153956Y-75800500D01*
X108153959Y-75800500D01*
X109351043Y-75800500D01*
X109481082Y-75774632D01*
X109544335Y-75762051D01*
X109726414Y-75686632D01*
X109890282Y-75577139D01*
X110029639Y-75437782D01*
X110139132Y-75273914D01*
X110214551Y-75091835D01*
X110227132Y-75028582D01*
X110253000Y-74898543D01*
X110253000Y-74701456D01*
X110214552Y-74508170D01*
X110214551Y-74508169D01*
X110214551Y-74508165D01*
X110198477Y-74469359D01*
X110139135Y-74326092D01*
X110139128Y-74326079D01*
X110029639Y-74162218D01*
X110029636Y-74162214D01*
X109890285Y-74022863D01*
X109890281Y-74022860D01*
X109726420Y-73913371D01*
X109726407Y-73913364D01*
X109544339Y-73837950D01*
X109544329Y-73837947D01*
X109351043Y-73799500D01*
X109351041Y-73799500D01*
X108153959Y-73799500D01*
X108153957Y-73799500D01*
X107960670Y-73837947D01*
X107960660Y-73837950D01*
X107778592Y-73913364D01*
X107778579Y-73913371D01*
X107614718Y-74022860D01*
X107614714Y-74022863D01*
X107475363Y-74162214D01*
X107475360Y-74162218D01*
X107365871Y-74326079D01*
X107362998Y-74331456D01*
X107361118Y-74330451D01*
X107323341Y-74377345D01*
X107257050Y-74399420D01*
X107252605Y-74399500D01*
X106586669Y-74399500D01*
X106586653Y-74399499D01*
X106579057Y-74399499D01*
X106420943Y-74399499D01*
X106313587Y-74428265D01*
X106268210Y-74440424D01*
X106268209Y-74440425D01*
X106218096Y-74469359D01*
X106218095Y-74469360D01*
X106174689Y-74494420D01*
X106131285Y-74519479D01*
X106131282Y-74519481D01*
X103519481Y-77131282D01*
X103519479Y-77131285D01*
X103469361Y-77218094D01*
X103469359Y-77218096D01*
X103440425Y-77268209D01*
X103440424Y-77268210D01*
X103440423Y-77268215D01*
X103399499Y-77420943D01*
X103399499Y-77579057D01*
X103399499Y-77579059D01*
X103399500Y-77589053D01*
X103399500Y-111913330D01*
X103399499Y-111913348D01*
X103399499Y-112079054D01*
X103399498Y-112079054D01*
X87000000Y-112079054D01*
X87000000Y-100298543D01*
X87531999Y-100298543D01*
X87570447Y-100491829D01*
X87570450Y-100491839D01*
X87645864Y-100673907D01*
X87645871Y-100673920D01*
X87755360Y-100837781D01*
X87755363Y-100837785D01*
X87894714Y-100977136D01*
X87894718Y-100977139D01*
X88058579Y-101086628D01*
X88058592Y-101086635D01*
X88240660Y-101162049D01*
X88240665Y-101162051D01*
X88240669Y-101162051D01*
X88240670Y-101162052D01*
X88433956Y-101200500D01*
X88433959Y-101200500D01*
X89631043Y-101200500D01*
X89761082Y-101174632D01*
X89824335Y-101162051D01*
X90006414Y-101086632D01*
X90170282Y-100977139D01*
X90309639Y-100837782D01*
X90419132Y-100673914D01*
X90494551Y-100491835D01*
X90533000Y-100298541D01*
X90533000Y-100101459D01*
X90533000Y-100101456D01*
X90494552Y-99908170D01*
X90494551Y-99908169D01*
X90494551Y-99908165D01*
X90449274Y-99798856D01*
X90419135Y-99726092D01*
X90419128Y-99726079D01*
X90309639Y-99562218D01*
X90309636Y-99562214D01*
X90170285Y-99422863D01*
X90170281Y-99422860D01*
X90006420Y-99313371D01*
X90006407Y-99313364D01*
X89824339Y-99237950D01*
X89824329Y-99237947D01*
X89631043Y-99199500D01*
X89631041Y-99199500D01*
X88433959Y-99199500D01*
X88433957Y-99199500D01*
X88240670Y-99237947D01*
X88240660Y-99237950D01*
X88058592Y-99313364D01*
X88058579Y-99313371D01*
X87894718Y-99422860D01*
X87894714Y-99422863D01*
X87755363Y-99562214D01*
X87755360Y-99562218D01*
X87645871Y-99726079D01*
X87645864Y-99726092D01*
X87570450Y-99908160D01*
X87570447Y-99908170D01*
X87532000Y-100101456D01*
X87532000Y-100101459D01*
X87532000Y-100298541D01*
X87532000Y-100298543D01*
X87531999Y-100298543D01*
X87000000Y-100298543D01*
X87000000Y-97758543D01*
X87531999Y-97758543D01*
X87570447Y-97951829D01*
X87570450Y-97951839D01*
X87645864Y-98133907D01*
X87645871Y-98133920D01*
X87755360Y-98297781D01*
X87755363Y-98297785D01*
X87894714Y-98437136D01*
X87894718Y-98437139D01*
X88058579Y-98546628D01*
X88058592Y-98546635D01*
X88240660Y-98622049D01*
X88240665Y-98622051D01*
X88240669Y-98622051D01*
X88240670Y-98622052D01*
X88433956Y-98660500D01*
X88433959Y-98660500D01*
X89631043Y-98660500D01*
X89761082Y-98634632D01*
X89824335Y-98622051D01*
X90006414Y-98546632D01*
X90170282Y-98437139D01*
X90309639Y-98297782D01*
X90419132Y-98133914D01*
X90494551Y-97951835D01*
X90525741Y-97795033D01*
X90533000Y-97758543D01*
X90533000Y-97561456D01*
X90494552Y-97368170D01*
X90494551Y-97368169D01*
X90494551Y-97368165D01*
X90460414Y-97285750D01*
X90419135Y-97186092D01*
X90419128Y-97186079D01*
X90309639Y-97022218D01*
X90309636Y-97022214D01*
X90170285Y-96882863D01*
X90170281Y-96882860D01*
X90006420Y-96773371D01*
X90006407Y-96773364D01*
X89824339Y-96697950D01*
X89824329Y-96697947D01*
X89631043Y-96659500D01*
X89631041Y-96659500D01*
X88433959Y-96659500D01*
X88433957Y-96659500D01*
X88240670Y-96697947D01*
X88240660Y-96697950D01*
X88058592Y-96773364D01*
X88058579Y-96773371D01*
X87894718Y-96882860D01*
X87894714Y-96882863D01*
X87755363Y-97022214D01*
X87755360Y-97022218D01*
X87645871Y-97186079D01*
X87645864Y-97186092D01*
X87570450Y-97368160D01*
X87570447Y-97368170D01*
X87532000Y-97561456D01*
X87532000Y-97561459D01*
X87532000Y-97758541D01*
X87532000Y-97758543D01*
X87531999Y-97758543D01*
X87000000Y-97758543D01*
X87000000Y-95218543D01*
X87531999Y-95218543D01*
X87570447Y-95411829D01*
X87570450Y-95411839D01*
X87645864Y-95593907D01*
X87645871Y-95593920D01*
X87755360Y-95757781D01*
X87755363Y-95757785D01*
X87894714Y-95897136D01*
X87894718Y-95897139D01*
X88058579Y-96006628D01*
X88058592Y-96006635D01*
X88232927Y-96078846D01*
X88240665Y-96082051D01*
X88240669Y-96082051D01*
X88240670Y-96082052D01*
X88433956Y-96120500D01*
X88433959Y-96120500D01*
X89631043Y-96120500D01*
X89761082Y-96094632D01*
X89824335Y-96082051D01*
X90006414Y-96006632D01*
X90170282Y-95897139D01*
X90309639Y-95757782D01*
X90419132Y-95593914D01*
X90494551Y-95411835D01*
X90507132Y-95348582D01*
X90533000Y-95218543D01*
X90533000Y-95021456D01*
X90494552Y-94828170D01*
X90494551Y-94828169D01*
X90494551Y-94828165D01*
X90455339Y-94733497D01*
X90419135Y-94646092D01*
X90419128Y-94646079D01*
X90309639Y-94482218D01*
X90309636Y-94482214D01*
X90170285Y-94342863D01*
X90170281Y-94342860D01*
X90006420Y-94233371D01*
X90006407Y-94233364D01*
X89824339Y-94157950D01*
X89824329Y-94157947D01*
X89631043Y-94119500D01*
X89631041Y-94119500D01*
X88433959Y-94119500D01*
X88433957Y-94119500D01*
X88240670Y-94157947D01*
X88240660Y-94157950D01*
X88058592Y-94233364D01*
X88058579Y-94233371D01*
X87894718Y-94342860D01*
X87894714Y-94342863D01*
X87755363Y-94482214D01*
X87755360Y-94482218D01*
X87645871Y-94646079D01*
X87645864Y-94646092D01*
X87570450Y-94828160D01*
X87570447Y-94828170D01*
X87532000Y-95021456D01*
X87532000Y-95021459D01*
X87532000Y-95218541D01*
X87532000Y-95218543D01*
X87531999Y-95218543D01*
X87000000Y-95218543D01*
X87000000Y-90138543D01*
X87531999Y-90138543D01*
X87570447Y-90331829D01*
X87570450Y-90331839D01*
X87645864Y-90513907D01*
X87645871Y-90513920D01*
X87755360Y-90677781D01*
X87755363Y-90677785D01*
X87894714Y-90817136D01*
X87894718Y-90817139D01*
X88058579Y-90926628D01*
X88058592Y-90926635D01*
X88240660Y-91002049D01*
X88240665Y-91002051D01*
X88240669Y-91002051D01*
X88240670Y-91002052D01*
X88433956Y-91040500D01*
X88433959Y-91040500D01*
X89631043Y-91040500D01*
X89761082Y-91014632D01*
X89824335Y-91002051D01*
X90006414Y-90926632D01*
X90170282Y-90817139D01*
X90309639Y-90677782D01*
X90419132Y-90513914D01*
X90494551Y-90331835D01*
X90533000Y-90138541D01*
X90533000Y-89941459D01*
X90533000Y-89941456D01*
X90494552Y-89748170D01*
X90494551Y-89748169D01*
X90494551Y-89748165D01*
X90449274Y-89638856D01*
X90419135Y-89566092D01*
X90419128Y-89566079D01*
X90309639Y-89402218D01*
X90309636Y-89402214D01*
X90170285Y-89262863D01*
X90170281Y-89262860D01*
X90006420Y-89153371D01*
X90006407Y-89153364D01*
X89824339Y-89077950D01*
X89824329Y-89077947D01*
X89631043Y-89039500D01*
X89631041Y-89039500D01*
X88433959Y-89039500D01*
X88433957Y-89039500D01*
X88240670Y-89077947D01*
X88240660Y-89077950D01*
X88058592Y-89153364D01*
X88058579Y-89153371D01*
X87894718Y-89262860D01*
X87894714Y-89262863D01*
X87755363Y-89402214D01*
X87755360Y-89402218D01*
X87645871Y-89566079D01*
X87645864Y-89566092D01*
X87570450Y-89748160D01*
X87570447Y-89748170D01*
X87532000Y-89941456D01*
X87532000Y-89941459D01*
X87532000Y-90138541D01*
X87532000Y-90138543D01*
X87531999Y-90138543D01*
X87000000Y-90138543D01*
X87000000Y-87598543D01*
X87531999Y-87598543D01*
X87570447Y-87791829D01*
X87570450Y-87791839D01*
X87645864Y-87973907D01*
X87645871Y-87973920D01*
X87755360Y-88137781D01*
X87755363Y-88137785D01*
X87894714Y-88277136D01*
X87894718Y-88277139D01*
X88058579Y-88386628D01*
X88058592Y-88386635D01*
X88240660Y-88462049D01*
X88240665Y-88462051D01*
X88240669Y-88462051D01*
X88240670Y-88462052D01*
X88433956Y-88500500D01*
X88433959Y-88500500D01*
X89631043Y-88500500D01*
X89761082Y-88474632D01*
X89824335Y-88462051D01*
X90006414Y-88386632D01*
X90170282Y-88277139D01*
X90219146Y-88228275D01*
X90310603Y-88136819D01*
X90371926Y-88103334D01*
X90398284Y-88100500D01*
X97579055Y-88100500D01*
X97579057Y-88100500D01*
X97731784Y-88059577D01*
X97731785Y-88059576D01*
X97739635Y-88057473D01*
X97740262Y-88059813D01*
X97797500Y-88053652D01*
X97859984Y-88084919D01*
X97895644Y-88145003D01*
X97899500Y-88175685D01*
X97899500Y-91855500D01*
X97879815Y-91922539D01*
X97827011Y-91968294D01*
X97775500Y-91979500D01*
X90398284Y-91979500D01*
X90331245Y-91959815D01*
X90310603Y-91943181D01*
X90170285Y-91802863D01*
X90170281Y-91802860D01*
X90006420Y-91693371D01*
X90006407Y-91693364D01*
X89824339Y-91617950D01*
X89824329Y-91617947D01*
X89631043Y-91579500D01*
X89631041Y-91579500D01*
X88433959Y-91579500D01*
X88433957Y-91579500D01*
X88240670Y-91617947D01*
X88240660Y-91617950D01*
X88058592Y-91693364D01*
X88058579Y-91693371D01*
X87894718Y-91802860D01*
X87894714Y-91802863D01*
X87755363Y-91942214D01*
X87755360Y-91942218D01*
X87645871Y-92106079D01*
X87645864Y-92106092D01*
X87570450Y-92288160D01*
X87570447Y-92288170D01*
X87532000Y-92481456D01*
X87532000Y-92481459D01*
X87532000Y-92678541D01*
X87532000Y-92678543D01*
X87531999Y-92678543D01*
X87570447Y-92871829D01*
X87570450Y-92871839D01*
X87645864Y-93053907D01*
X87645871Y-93053920D01*
X87755360Y-93217781D01*
X87755363Y-93217785D01*
X87894714Y-93357136D01*
X87894718Y-93357139D01*
X88058579Y-93466628D01*
X88058592Y-93466635D01*
X88240660Y-93542049D01*
X88240665Y-93542051D01*
X88240669Y-93542051D01*
X88240670Y-93542052D01*
X88433956Y-93580500D01*
X88433959Y-93580500D01*
X89631043Y-93580500D01*
X89761082Y-93554632D01*
X89824335Y-93542051D01*
X90006414Y-93466632D01*
X90170282Y-93357139D01*
X90170285Y-93357136D01*
X90310603Y-93216819D01*
X90371926Y-93183334D01*
X90398284Y-93180500D01*
X98333331Y-93180500D01*
X98333347Y-93180501D01*
X98340943Y-93180501D01*
X98499054Y-93180501D01*
X98499057Y-93180501D01*
X98651785Y-93139577D01*
X98719468Y-93100500D01*
X98788716Y-93060520D01*
X98900520Y-92948716D01*
X98980520Y-92868716D01*
X99030639Y-92781904D01*
X99059577Y-92731785D01*
X99100500Y-92579057D01*
X99100500Y-92420943D01*
X99100500Y-74079765D01*
X99120185Y-74012726D01*
X99121398Y-74010874D01*
X99209390Y-73879185D01*
X99209390Y-73879184D01*
X99209394Y-73879179D01*
X99269737Y-73733497D01*
X99300500Y-73578842D01*
X99300500Y-73421158D01*
X99300500Y-73421155D01*
X99300499Y-73421153D01*
X99269738Y-73266510D01*
X99269737Y-73266503D01*
X99269735Y-73266498D01*
X99209397Y-73120827D01*
X99209390Y-73120814D01*
X99121789Y-72989711D01*
X99121786Y-72989707D01*
X99010292Y-72878213D01*
X99010288Y-72878210D01*
X98879185Y-72790609D01*
X98879172Y-72790602D01*
X98733501Y-72730264D01*
X98733489Y-72730261D01*
X98578845Y-72699500D01*
X98578842Y-72699500D01*
X98421158Y-72699500D01*
X98421155Y-72699500D01*
X98266510Y-72730261D01*
X98260676Y-72732031D01*
X98259873Y-72729385D01*
X98202056Y-72735396D01*
X98139687Y-72703902D01*
X98104245Y-72643689D01*
X98100500Y-72613444D01*
X98100500Y-71724500D01*
X98120185Y-71657461D01*
X98172989Y-71611706D01*
X98224500Y-71600500D01*
X107258184Y-71600500D01*
X107325223Y-71620185D01*
X107370978Y-71672989D01*
X107380922Y-71742147D01*
X107367542Y-71782953D01*
X107365867Y-71786085D01*
X107290450Y-71968160D01*
X107290447Y-71968170D01*
X107252000Y-72161456D01*
X107252000Y-72161459D01*
X107252000Y-72358541D01*
X107252000Y-72358543D01*
X107251999Y-72358543D01*
X107290447Y-72551829D01*
X107290450Y-72551839D01*
X107365864Y-72733907D01*
X107365871Y-72733920D01*
X107475360Y-72897781D01*
X107475363Y-72897785D01*
X107614714Y-73037136D01*
X107614718Y-73037139D01*
X107778579Y-73146628D01*
X107778592Y-73146635D01*
X107960660Y-73222049D01*
X107960665Y-73222051D01*
X107960669Y-73222051D01*
X107960670Y-73222052D01*
X108153956Y-73260500D01*
X108153959Y-73260500D01*
X109351043Y-73260500D01*
X109481082Y-73234632D01*
X109544335Y-73222051D01*
X109726414Y-73146632D01*
X109890282Y-73037139D01*
X110029639Y-72897782D01*
X110139132Y-72733914D01*
X110214551Y-72551835D01*
X110240587Y-72420945D01*
X110253000Y-72358543D01*
X110253000Y-72161456D01*
X110214552Y-71968170D01*
X110214551Y-71968169D01*
X110214551Y-71968165D01*
X110142734Y-71794781D01*
X110139132Y-71786085D01*
X110137458Y-71782953D01*
X110137077Y-71781123D01*
X110136801Y-71780457D01*
X110136927Y-71780404D01*
X110123216Y-71714550D01*
X110148216Y-71649306D01*
X110204521Y-71607936D01*
X110246816Y-71600500D01*
X110775500Y-71600500D01*
X110842539Y-71620185D01*
X110888294Y-71672989D01*
X110899500Y-71724500D01*
X110899500Y-75579057D01*
X110928326Y-75686635D01*
X110940423Y-75731783D01*
X110940426Y-75731790D01*
X111019475Y-75868709D01*
X111019479Y-75868714D01*
X111019480Y-75868716D01*
X111131284Y-75980520D01*
X111131286Y-75980521D01*
X111131290Y-75980524D01*
X111268209Y-76059573D01*
X111268216Y-76059577D01*
X111420943Y-76100500D01*
X111579057Y-76100500D01*
X113775500Y-76100500D01*
X113842539Y-76120185D01*
X113888294Y-76172989D01*
X113899500Y-76224500D01*
X113899500Y-78408480D01*
X113879815Y-78475519D01*
X113863181Y-78496161D01*
X113744531Y-78614810D01*
X113744530Y-78614811D01*
X113656522Y-78760393D01*
X113605913Y-78922807D01*
X113600782Y-78979275D01*
X113599502Y-78993368D01*
X113599500Y-78993386D01*
X113599500Y-80006613D01*
X113605913Y-80077192D01*
X113605913Y-80077194D01*
X113605914Y-80077196D01*
X113648515Y-80213910D01*
X113656522Y-80239606D01*
X113744530Y-80385188D01*
X113864811Y-80505469D01*
X113864813Y-80505470D01*
X113864815Y-80505472D01*
X114010394Y-80593478D01*
X114172804Y-80644086D01*
X114243384Y-80650500D01*
X114243387Y-80650500D01*
X114756613Y-80650500D01*
X114756616Y-80650500D01*
X114827196Y-80644086D01*
X114989606Y-80593478D01*
X115133597Y-80506431D01*
X115201148Y-80488596D01*
X115266636Y-80509447D01*
X115323689Y-80547569D01*
X115323693Y-80547571D01*
X115487476Y-80615412D01*
X115487483Y-80615415D01*
X115500000Y-80617904D01*
X115500000Y-80617903D01*
X116000000Y-80617903D01*
X116012516Y-80615415D01*
X116012523Y-80615412D01*
X116176306Y-80547571D01*
X116176316Y-80547566D01*
X116323716Y-80449076D01*
X116323720Y-80449073D01*
X116449073Y-80323720D01*
X116449076Y-80323716D01*
X116547566Y-80176316D01*
X116547571Y-80176307D01*
X116615413Y-80012520D01*
X116615415Y-80012512D01*
X116649999Y-79838646D01*
X116650000Y-79838643D01*
X116650000Y-79750000D01*
X116000000Y-79750000D01*
X116000000Y-80617903D01*
X115500000Y-80617903D01*
X115500000Y-79549728D01*
X115538060Y-79641614D01*
X115608386Y-79711940D01*
X115700272Y-79750000D01*
X115799728Y-79750000D01*
X115891614Y-79711940D01*
X115961940Y-79641614D01*
X116000000Y-79549728D01*
X116000000Y-79450272D01*
X115961940Y-79358386D01*
X115891614Y-79288060D01*
X115799728Y-79250000D01*
X116000000Y-79250000D01*
X116650000Y-79250000D01*
X116650000Y-79161357D01*
X116649999Y-79161353D01*
X116620842Y-79014765D01*
X116616589Y-78993386D01*
X120974500Y-78993386D01*
X120974500Y-80006613D01*
X120980913Y-80077192D01*
X120980913Y-80077194D01*
X120980914Y-80077196D01*
X121023515Y-80213910D01*
X121031522Y-80239606D01*
X121119530Y-80385188D01*
X121239811Y-80505469D01*
X121239813Y-80505470D01*
X121239815Y-80505472D01*
X121385394Y-80593478D01*
X121547804Y-80644086D01*
X121618384Y-80650500D01*
X121618387Y-80650500D01*
X122131613Y-80650500D01*
X122131616Y-80650500D01*
X122202196Y-80644086D01*
X122364606Y-80593478D01*
X122508597Y-80506431D01*
X122576148Y-80488596D01*
X122641636Y-80509447D01*
X122698689Y-80547569D01*
X122698693Y-80547571D01*
X122862476Y-80615412D01*
X122862483Y-80615415D01*
X122875000Y-80617904D01*
X122875000Y-80617903D01*
X123375000Y-80617903D01*
X123387516Y-80615415D01*
X123387523Y-80615412D01*
X123551306Y-80547571D01*
X123551316Y-80547566D01*
X123698716Y-80449076D01*
X123698720Y-80449073D01*
X123824073Y-80323720D01*
X123824076Y-80323716D01*
X123922566Y-80176316D01*
X123922571Y-80176307D01*
X123990413Y-80012520D01*
X123990415Y-80012512D01*
X124024999Y-79838646D01*
X124025000Y-79838643D01*
X124025000Y-79750000D01*
X123375000Y-79750000D01*
X123375000Y-80617903D01*
X122875000Y-80617903D01*
X122875000Y-79549728D01*
X122913060Y-79641614D01*
X122983386Y-79711940D01*
X123075272Y-79750000D01*
X123174728Y-79750000D01*
X123266614Y-79711940D01*
X123336940Y-79641614D01*
X123375000Y-79549728D01*
X123375000Y-79450272D01*
X123336940Y-79358386D01*
X123266614Y-79288060D01*
X123174728Y-79250000D01*
X123375000Y-79250000D01*
X124025000Y-79250000D01*
X124025000Y-79161357D01*
X124024999Y-79161353D01*
X123990415Y-78987487D01*
X123990413Y-78987479D01*
X123922571Y-78823692D01*
X123922566Y-78823683D01*
X123824076Y-78676283D01*
X123824073Y-78676279D01*
X123698720Y-78550926D01*
X123698716Y-78550923D01*
X123551316Y-78452433D01*
X123551307Y-78452428D01*
X123387519Y-78384585D01*
X123375000Y-78382094D01*
X123375000Y-79250000D01*
X123174728Y-79250000D01*
X123075272Y-79250000D01*
X122983386Y-79288060D01*
X122913060Y-79358386D01*
X122875000Y-79450272D01*
X122875000Y-78382095D01*
X122874999Y-78382094D01*
X122862480Y-78384585D01*
X122698691Y-78452429D01*
X122641634Y-78490553D01*
X122574956Y-78511430D01*
X122508596Y-78493567D01*
X122364606Y-78406522D01*
X122202196Y-78355914D01*
X122202194Y-78355913D01*
X122202192Y-78355913D01*
X122152778Y-78351423D01*
X122131616Y-78349500D01*
X121618384Y-78349500D01*
X121599145Y-78351248D01*
X121547807Y-78355913D01*
X121385393Y-78406522D01*
X121239811Y-78494530D01*
X121119530Y-78614811D01*
X121031522Y-78760393D01*
X120980913Y-78922807D01*
X120975782Y-78979275D01*
X120974502Y-78993368D01*
X120974500Y-78993386D01*
X116616589Y-78993386D01*
X116615415Y-78987485D01*
X116615413Y-78987479D01*
X116547571Y-78823692D01*
X116547566Y-78823683D01*
X116449076Y-78676283D01*
X116449073Y-78676279D01*
X116323720Y-78550926D01*
X116323716Y-78550923D01*
X116176316Y-78452433D01*
X116176307Y-78452428D01*
X116012519Y-78384585D01*
X116000000Y-78382094D01*
X116000000Y-79250000D01*
X115799728Y-79250000D01*
X115700272Y-79250000D01*
X115608386Y-79288060D01*
X115538060Y-79358386D01*
X115500000Y-79450272D01*
X115500000Y-78382095D01*
X115499999Y-78382094D01*
X115487480Y-78384585D01*
X115323690Y-78452429D01*
X115293388Y-78472676D01*
X115226711Y-78493552D01*
X115159331Y-78475066D01*
X115112642Y-78423086D01*
X115100500Y-78369572D01*
X115100500Y-76224500D01*
X115120185Y-76157461D01*
X115172989Y-76111706D01*
X115224500Y-76100500D01*
X133579055Y-76100500D01*
X133579057Y-76100500D01*
X133731784Y-76059577D01*
X133868716Y-75980520D01*
X133980520Y-75868716D01*
X134059577Y-75731784D01*
X134100500Y-75579057D01*
X134100500Y-75281975D01*
X134117113Y-75219975D01*
X134179577Y-75111784D01*
X134220501Y-74959057D01*
X134220501Y-74800942D01*
X134220501Y-74793347D01*
X134220500Y-74793329D01*
X134220500Y-74229601D01*
X134240185Y-74162562D01*
X134288206Y-74119116D01*
X134301610Y-74112287D01*
X134467219Y-73991966D01*
X134611966Y-73847219D01*
X134611968Y-73847215D01*
X134611971Y-73847213D01*
X134694595Y-73733489D01*
X134732287Y-73681610D01*
X134825220Y-73499219D01*
X134888477Y-73304534D01*
X134920500Y-73102352D01*
X134920500Y-72897648D01*
X134903545Y-72790602D01*
X134888477Y-72695465D01*
X134841808Y-72551835D01*
X134825220Y-72500781D01*
X134825218Y-72500778D01*
X134825218Y-72500776D01*
X134784540Y-72420943D01*
X134732287Y-72318390D01*
X134695829Y-72268209D01*
X134611971Y-72152786D01*
X134467213Y-72008028D01*
X134301613Y-71887715D01*
X134301612Y-71887714D01*
X134301610Y-71887713D01*
X134244653Y-71858691D01*
X134119223Y-71794781D01*
X133924534Y-71731522D01*
X133749995Y-71703878D01*
X133722352Y-71699500D01*
X133517648Y-71699500D01*
X133493329Y-71703351D01*
X133315465Y-71731522D01*
X133120776Y-71794781D01*
X132938386Y-71887715D01*
X132772786Y-72008028D01*
X132628028Y-72152786D01*
X132507715Y-72318386D01*
X132414781Y-72500776D01*
X132351522Y-72695465D01*
X132319500Y-72897648D01*
X132319500Y-73102351D01*
X132351522Y-73304534D01*
X132414781Y-73499223D01*
X132507715Y-73681613D01*
X132628028Y-73847213D01*
X132628034Y-73847219D01*
X132772781Y-73991966D01*
X132938390Y-74112287D01*
X132951793Y-74119116D01*
X133002589Y-74167088D01*
X133019500Y-74229601D01*
X133019500Y-74598023D01*
X133015350Y-74613511D01*
X133016005Y-74627255D01*
X133002888Y-74660021D01*
X132978967Y-74701456D01*
X132978965Y-74701459D01*
X132940423Y-74768215D01*
X132929870Y-74807595D01*
X132893507Y-74867254D01*
X132830660Y-74897783D01*
X132810097Y-74899500D01*
X112224500Y-74899500D01*
X112157461Y-74879815D01*
X112111706Y-74827011D01*
X112100500Y-74775500D01*
X112100500Y-72897648D01*
X112889500Y-72897648D01*
X112889500Y-73102351D01*
X112921522Y-73304534D01*
X112984781Y-73499223D01*
X113077715Y-73681613D01*
X113198028Y-73847213D01*
X113342786Y-73991971D01*
X113463627Y-74079765D01*
X113508390Y-74112287D01*
X113589499Y-74153614D01*
X113690776Y-74205218D01*
X113690778Y-74205218D01*
X113690781Y-74205220D01*
X113765818Y-74229601D01*
X113885465Y-74268477D01*
X113986557Y-74284488D01*
X114087648Y-74300500D01*
X114087649Y-74300500D01*
X114292351Y-74300500D01*
X114292352Y-74300500D01*
X114494534Y-74268477D01*
X114689219Y-74205220D01*
X114871610Y-74112287D01*
X114964590Y-74044732D01*
X115037213Y-73991971D01*
X115037215Y-73991968D01*
X115037219Y-73991966D01*
X115181966Y-73847219D01*
X115181968Y-73847215D01*
X115181971Y-73847213D01*
X115264595Y-73733489D01*
X115302287Y-73681610D01*
X115395220Y-73499219D01*
X115458477Y-73304534D01*
X115490500Y-73102352D01*
X115490500Y-72897648D01*
X120509500Y-72897648D01*
X120509500Y-73102351D01*
X120541522Y-73304534D01*
X120604781Y-73499223D01*
X120697715Y-73681613D01*
X120818028Y-73847213D01*
X120962786Y-73991971D01*
X121083627Y-74079765D01*
X121128390Y-74112287D01*
X121209499Y-74153614D01*
X121310776Y-74205218D01*
X121310778Y-74205218D01*
X121310781Y-74205220D01*
X121385818Y-74229601D01*
X121505465Y-74268477D01*
X121606557Y-74284488D01*
X121707648Y-74300500D01*
X121707649Y-74300500D01*
X121912351Y-74300500D01*
X121912352Y-74300500D01*
X122114534Y-74268477D01*
X122309219Y-74205220D01*
X122491610Y-74112287D01*
X122584590Y-74044732D01*
X122657213Y-73991971D01*
X122657215Y-73991968D01*
X122657219Y-73991966D01*
X122801966Y-73847219D01*
X122801968Y-73847215D01*
X122801971Y-73847213D01*
X122884595Y-73733489D01*
X122922287Y-73681610D01*
X123015220Y-73499219D01*
X123078477Y-73304534D01*
X123110500Y-73102352D01*
X123110500Y-72897648D01*
X124699500Y-72897648D01*
X124699500Y-73102351D01*
X124731522Y-73304534D01*
X124794781Y-73499223D01*
X124887715Y-73681613D01*
X125008028Y-73847213D01*
X125152786Y-73991971D01*
X125273627Y-74079765D01*
X125318390Y-74112287D01*
X125399499Y-74153614D01*
X125500776Y-74205218D01*
X125500778Y-74205218D01*
X125500781Y-74205220D01*
X125575818Y-74229601D01*
X125695465Y-74268477D01*
X125796557Y-74284488D01*
X125897648Y-74300500D01*
X125897649Y-74300500D01*
X126102351Y-74300500D01*
X126102352Y-74300500D01*
X126304534Y-74268477D01*
X126499219Y-74205220D01*
X126681610Y-74112287D01*
X126774590Y-74044732D01*
X126847213Y-73991971D01*
X126847215Y-73991968D01*
X126847219Y-73991966D01*
X126991966Y-73847219D01*
X126991968Y-73847215D01*
X126991971Y-73847213D01*
X127074595Y-73733489D01*
X127112287Y-73681610D01*
X127205220Y-73499219D01*
X127268477Y-73304534D01*
X127300500Y-73102352D01*
X127300500Y-72897648D01*
X127283545Y-72790602D01*
X127268477Y-72695465D01*
X127221808Y-72551835D01*
X127205220Y-72500781D01*
X127205218Y-72500778D01*
X127205218Y-72500776D01*
X127164540Y-72420943D01*
X127112287Y-72318390D01*
X127075829Y-72268209D01*
X126991971Y-72152786D01*
X126847213Y-72008028D01*
X126681613Y-71887715D01*
X126681612Y-71887714D01*
X126681610Y-71887713D01*
X126624653Y-71858691D01*
X126499223Y-71794781D01*
X126304534Y-71731522D01*
X126129995Y-71703878D01*
X126102352Y-71699500D01*
X125897648Y-71699500D01*
X125873329Y-71703351D01*
X125695465Y-71731522D01*
X125500776Y-71794781D01*
X125318386Y-71887715D01*
X125152786Y-72008028D01*
X125008028Y-72152786D01*
X124887715Y-72318386D01*
X124794781Y-72500776D01*
X124731522Y-72695465D01*
X124699500Y-72897648D01*
X123110500Y-72897648D01*
X123093545Y-72790602D01*
X123078477Y-72695465D01*
X123031808Y-72551835D01*
X123015220Y-72500781D01*
X123015218Y-72500778D01*
X123015218Y-72500776D01*
X122974540Y-72420943D01*
X122922287Y-72318390D01*
X122885829Y-72268209D01*
X122801971Y-72152786D01*
X122657213Y-72008028D01*
X122491613Y-71887715D01*
X122491612Y-71887714D01*
X122491610Y-71887713D01*
X122434653Y-71858691D01*
X122309223Y-71794781D01*
X122114534Y-71731522D01*
X121939995Y-71703878D01*
X121912352Y-71699500D01*
X121707648Y-71699500D01*
X121683329Y-71703351D01*
X121505465Y-71731522D01*
X121310776Y-71794781D01*
X121128386Y-71887715D01*
X120962786Y-72008028D01*
X120818028Y-72152786D01*
X120697715Y-72318386D01*
X120604781Y-72500776D01*
X120541522Y-72695465D01*
X120509500Y-72897648D01*
X115490500Y-72897648D01*
X115473545Y-72790602D01*
X115458477Y-72695465D01*
X115411808Y-72551835D01*
X115395220Y-72500781D01*
X115395218Y-72500778D01*
X115395218Y-72500776D01*
X115354540Y-72420943D01*
X115302287Y-72318390D01*
X115265829Y-72268209D01*
X115181971Y-72152786D01*
X115037213Y-72008028D01*
X114871613Y-71887715D01*
X114871612Y-71887714D01*
X114871610Y-71887713D01*
X114814653Y-71858691D01*
X114689223Y-71794781D01*
X114494534Y-71731522D01*
X114319995Y-71703878D01*
X114292352Y-71699500D01*
X114087648Y-71699500D01*
X114063329Y-71703351D01*
X113885465Y-71731522D01*
X113690776Y-71794781D01*
X113508386Y-71887715D01*
X113342786Y-72008028D01*
X113198028Y-72152786D01*
X113077715Y-72318386D01*
X112984781Y-72500776D01*
X112921522Y-72695465D01*
X112889500Y-72897648D01*
X112100500Y-72897648D01*
X112100500Y-70920945D01*
X112100500Y-70920943D01*
X112059577Y-70768216D01*
X112059573Y-70768209D01*
X111980524Y-70631290D01*
X111980518Y-70631282D01*
X111868717Y-70519481D01*
X111868709Y-70519475D01*
X111731790Y-70440426D01*
X111731786Y-70440424D01*
X111731784Y-70440423D01*
X111579057Y-70399500D01*
X97579057Y-70399500D01*
X97420943Y-70399500D01*
X97268216Y-70440423D01*
X97268209Y-70440426D01*
X97131290Y-70519475D01*
X97131282Y-70519481D01*
X97019481Y-70631282D01*
X97019475Y-70631290D01*
X96940426Y-70768209D01*
X96940423Y-70768216D01*
X96899500Y-70920943D01*
X96899500Y-86775500D01*
X96879815Y-86842539D01*
X96827011Y-86888294D01*
X96775500Y-86899500D01*
X90398284Y-86899500D01*
X90331245Y-86879815D01*
X90310603Y-86863181D01*
X90170285Y-86722863D01*
X90170281Y-86722860D01*
X90006420Y-86613371D01*
X90006407Y-86613364D01*
X89824339Y-86537950D01*
X89824329Y-86537947D01*
X89631043Y-86499500D01*
X89631041Y-86499500D01*
X88433959Y-86499500D01*
X88433957Y-86499500D01*
X88240670Y-86537947D01*
X88240660Y-86537950D01*
X88058592Y-86613364D01*
X88058579Y-86613371D01*
X87894718Y-86722860D01*
X87894714Y-86722863D01*
X87755363Y-86862214D01*
X87755360Y-86862218D01*
X87645871Y-87026079D01*
X87645864Y-87026092D01*
X87570450Y-87208160D01*
X87570447Y-87208170D01*
X87532000Y-87401456D01*
X87532000Y-87401459D01*
X87532000Y-87598541D01*
X87532000Y-87598543D01*
X87531999Y-87598543D01*
X87000000Y-87598543D01*
X87000000Y-82518543D01*
X87531999Y-82518543D01*
X87570447Y-82711829D01*
X87570450Y-82711839D01*
X87645864Y-82893907D01*
X87645871Y-82893920D01*
X87755360Y-83057781D01*
X87755363Y-83057785D01*
X87894714Y-83197136D01*
X87894718Y-83197139D01*
X88058579Y-83306628D01*
X88058592Y-83306635D01*
X88240660Y-83382049D01*
X88240665Y-83382051D01*
X88240669Y-83382051D01*
X88240670Y-83382052D01*
X88433956Y-83420500D01*
X88433959Y-83420500D01*
X89631043Y-83420500D01*
X89761082Y-83394632D01*
X89824335Y-83382051D01*
X90006414Y-83306632D01*
X90170282Y-83197139D01*
X90309639Y-83057782D01*
X90419132Y-82893914D01*
X90494551Y-82711835D01*
X90533000Y-82518541D01*
X90533000Y-82321459D01*
X90533000Y-82321456D01*
X90494552Y-82128170D01*
X90494551Y-82128169D01*
X90494551Y-82128165D01*
X90449274Y-82018856D01*
X90419135Y-81946092D01*
X90419128Y-81946079D01*
X90309639Y-81782218D01*
X90309636Y-81782214D01*
X90170285Y-81642863D01*
X90170281Y-81642860D01*
X90006420Y-81533371D01*
X90006407Y-81533364D01*
X89824339Y-81457950D01*
X89824329Y-81457947D01*
X89631043Y-81419500D01*
X89631041Y-81419500D01*
X88433959Y-81419500D01*
X88433957Y-81419500D01*
X88240670Y-81457947D01*
X88240660Y-81457950D01*
X88058592Y-81533364D01*
X88058579Y-81533371D01*
X87894718Y-81642860D01*
X87894714Y-81642863D01*
X87755363Y-81782214D01*
X87755360Y-81782218D01*
X87645871Y-81946079D01*
X87645864Y-81946092D01*
X87570450Y-82128160D01*
X87570447Y-82128170D01*
X87532000Y-82321456D01*
X87532000Y-82321459D01*
X87532000Y-82518541D01*
X87532000Y-82518543D01*
X87531999Y-82518543D01*
X87000000Y-82518543D01*
X87000000Y-79978543D01*
X87531999Y-79978543D01*
X87570447Y-80171829D01*
X87570450Y-80171839D01*
X87645864Y-80353907D01*
X87645871Y-80353920D01*
X87755360Y-80517781D01*
X87755363Y-80517785D01*
X87894714Y-80657136D01*
X87894718Y-80657139D01*
X88058579Y-80766628D01*
X88058592Y-80766635D01*
X88240660Y-80842049D01*
X88240665Y-80842051D01*
X88240669Y-80842051D01*
X88240670Y-80842052D01*
X88433956Y-80880500D01*
X88433959Y-80880500D01*
X89631043Y-80880500D01*
X89761082Y-80854632D01*
X89824335Y-80842051D01*
X90006414Y-80766632D01*
X90170282Y-80657139D01*
X90309639Y-80517782D01*
X90419132Y-80353914D01*
X90494551Y-80171835D01*
X90526243Y-80012512D01*
X90533000Y-79978543D01*
X90533000Y-79781456D01*
X90494552Y-79588170D01*
X90494551Y-79588169D01*
X90494551Y-79588165D01*
X90449274Y-79478856D01*
X90419135Y-79406092D01*
X90419128Y-79406079D01*
X90309639Y-79242218D01*
X90309636Y-79242214D01*
X90170285Y-79102863D01*
X90170281Y-79102860D01*
X90006420Y-78993371D01*
X90006407Y-78993364D01*
X89824339Y-78917950D01*
X89824329Y-78917947D01*
X89631043Y-78879500D01*
X89631041Y-78879500D01*
X88433959Y-78879500D01*
X88433957Y-78879500D01*
X88240670Y-78917947D01*
X88240660Y-78917950D01*
X88058592Y-78993364D01*
X88058579Y-78993371D01*
X87894718Y-79102860D01*
X87894714Y-79102863D01*
X87755363Y-79242214D01*
X87755360Y-79242218D01*
X87645871Y-79406079D01*
X87645864Y-79406092D01*
X87570450Y-79588160D01*
X87570447Y-79588170D01*
X87532000Y-79781456D01*
X87532000Y-79781459D01*
X87532000Y-79978541D01*
X87532000Y-79978543D01*
X87531999Y-79978543D01*
X87000000Y-79978543D01*
X87000000Y-77438543D01*
X87531999Y-77438543D01*
X87570447Y-77631829D01*
X87570450Y-77631839D01*
X87645864Y-77813907D01*
X87645871Y-77813920D01*
X87755360Y-77977781D01*
X87755363Y-77977785D01*
X87894714Y-78117136D01*
X87894718Y-78117139D01*
X88058579Y-78226628D01*
X88058592Y-78226635D01*
X88240660Y-78302049D01*
X88240665Y-78302051D01*
X88240669Y-78302051D01*
X88240670Y-78302052D01*
X88433956Y-78340500D01*
X88433959Y-78340500D01*
X89631043Y-78340500D01*
X89761082Y-78314632D01*
X89824335Y-78302051D01*
X90006414Y-78226632D01*
X90170282Y-78117139D01*
X90309639Y-77977782D01*
X90419132Y-77813914D01*
X90494551Y-77631835D01*
X90516900Y-77519480D01*
X90533000Y-77438543D01*
X90533000Y-77241456D01*
X90494552Y-77048170D01*
X90494551Y-77048169D01*
X90494551Y-77048165D01*
X90494549Y-77048160D01*
X90419135Y-76866092D01*
X90419128Y-76866079D01*
X90309639Y-76702218D01*
X90309636Y-76702214D01*
X90170285Y-76562863D01*
X90170281Y-76562860D01*
X90006420Y-76453371D01*
X90006407Y-76453364D01*
X89824339Y-76377950D01*
X89824329Y-76377947D01*
X89631043Y-76339500D01*
X89631041Y-76339500D01*
X88433959Y-76339500D01*
X88433957Y-76339500D01*
X88240670Y-76377947D01*
X88240660Y-76377950D01*
X88058592Y-76453364D01*
X88058579Y-76453371D01*
X87894718Y-76562860D01*
X87894714Y-76562863D01*
X87755363Y-76702214D01*
X87755360Y-76702218D01*
X87645871Y-76866079D01*
X87645864Y-76866092D01*
X87570450Y-77048160D01*
X87570447Y-77048170D01*
X87532000Y-77241456D01*
X87532000Y-77241459D01*
X87532000Y-77438541D01*
X87532000Y-77438543D01*
X87531999Y-77438543D01*
X87000000Y-77438543D01*
X87000000Y-74898543D01*
X87531999Y-74898543D01*
X87570447Y-75091829D01*
X87570450Y-75091839D01*
X87645864Y-75273907D01*
X87645871Y-75273920D01*
X87755360Y-75437781D01*
X87755363Y-75437785D01*
X87894714Y-75577136D01*
X87894718Y-75577139D01*
X88058579Y-75686628D01*
X88058592Y-75686635D01*
X88240660Y-75762049D01*
X88240665Y-75762051D01*
X88240669Y-75762051D01*
X88240670Y-75762052D01*
X88433956Y-75800500D01*
X88433959Y-75800500D01*
X89631043Y-75800500D01*
X89761082Y-75774632D01*
X89824335Y-75762051D01*
X90006414Y-75686632D01*
X90170282Y-75577139D01*
X90309639Y-75437782D01*
X90419132Y-75273914D01*
X90494551Y-75091835D01*
X90507132Y-75028582D01*
X90533000Y-74898543D01*
X90533000Y-74701456D01*
X90494552Y-74508170D01*
X90494551Y-74508169D01*
X90494551Y-74508165D01*
X90478477Y-74469359D01*
X90419135Y-74326092D01*
X90419128Y-74326079D01*
X90309639Y-74162218D01*
X90309636Y-74162214D01*
X90170285Y-74022863D01*
X90170281Y-74022860D01*
X90006420Y-73913371D01*
X90006407Y-73913364D01*
X89824339Y-73837950D01*
X89824329Y-73837947D01*
X89631043Y-73799500D01*
X89631041Y-73799500D01*
X88433959Y-73799500D01*
X88433957Y-73799500D01*
X88240670Y-73837947D01*
X88240660Y-73837950D01*
X88058592Y-73913364D01*
X88058579Y-73913371D01*
X87894718Y-74022860D01*
X87894714Y-74022863D01*
X87755363Y-74162214D01*
X87755360Y-74162218D01*
X87645871Y-74326079D01*
X87645864Y-74326092D01*
X87570450Y-74508160D01*
X87570447Y-74508170D01*
X87532000Y-74701456D01*
X87532000Y-74701457D01*
X87532000Y-74701459D01*
X87532000Y-74898541D01*
X87532000Y-74898543D01*
X87531999Y-74898543D01*
X87000000Y-74898543D01*
X87000000Y-72358543D01*
X87531999Y-72358543D01*
X87570447Y-72551829D01*
X87570450Y-72551839D01*
X87645864Y-72733907D01*
X87645871Y-72733920D01*
X87755360Y-72897781D01*
X87755363Y-72897785D01*
X87894714Y-73037136D01*
X87894718Y-73037139D01*
X88058579Y-73146628D01*
X88058592Y-73146635D01*
X88240660Y-73222049D01*
X88240665Y-73222051D01*
X88240669Y-73222051D01*
X88240670Y-73222052D01*
X88433956Y-73260500D01*
X88433959Y-73260500D01*
X89631043Y-73260500D01*
X89761082Y-73234632D01*
X89824335Y-73222051D01*
X90006414Y-73146632D01*
X90006420Y-73146628D01*
X90044180Y-73121398D01*
X90110857Y-73100520D01*
X90113071Y-73100500D01*
X91275500Y-73100500D01*
X91342539Y-73120185D01*
X91388294Y-73172989D01*
X91399500Y-73224500D01*
X91399500Y-83420234D01*
X91379815Y-83487273D01*
X91378602Y-83489125D01*
X91290609Y-83620814D01*
X91290602Y-83620827D01*
X91230264Y-83766498D01*
X91230261Y-83766510D01*
X91199500Y-83921153D01*
X91199500Y-83921158D01*
X91199500Y-84078842D01*
X91199500Y-84078844D01*
X91199499Y-84078844D01*
X91225849Y-84211308D01*
X91219622Y-84280900D01*
X91176759Y-84336077D01*
X91110869Y-84359322D01*
X91104232Y-84359500D01*
X90398284Y-84359500D01*
X90331245Y-84339815D01*
X90310603Y-84323181D01*
X90170285Y-84182863D01*
X90170281Y-84182860D01*
X90006420Y-84073371D01*
X90006407Y-84073364D01*
X89824339Y-83997950D01*
X89824329Y-83997947D01*
X89631043Y-83959500D01*
X89631041Y-83959500D01*
X88433959Y-83959500D01*
X88433957Y-83959500D01*
X88240670Y-83997947D01*
X88240660Y-83997950D01*
X88058592Y-84073364D01*
X88058579Y-84073371D01*
X87894718Y-84182860D01*
X87894714Y-84182863D01*
X87755363Y-84322214D01*
X87755360Y-84322218D01*
X87645871Y-84486079D01*
X87645864Y-84486092D01*
X87570450Y-84668160D01*
X87570447Y-84668170D01*
X87532000Y-84861456D01*
X87532000Y-84861459D01*
X87532000Y-85058541D01*
X87532000Y-85058543D01*
X87531999Y-85058543D01*
X87570447Y-85251829D01*
X87570450Y-85251839D01*
X87645864Y-85433907D01*
X87645871Y-85433920D01*
X87755360Y-85597781D01*
X87755363Y-85597785D01*
X87894714Y-85737136D01*
X87894718Y-85737139D01*
X88058579Y-85846628D01*
X88058592Y-85846635D01*
X88240660Y-85922049D01*
X88240665Y-85922051D01*
X88240669Y-85922051D01*
X88240670Y-85922052D01*
X88433956Y-85960500D01*
X88433959Y-85960500D01*
X89631043Y-85960500D01*
X89761082Y-85934632D01*
X89824335Y-85922051D01*
X90006414Y-85846632D01*
X90170282Y-85737139D01*
X90198031Y-85709390D01*
X90310603Y-85596819D01*
X90371926Y-85563334D01*
X90398284Y-85560500D01*
X94877059Y-85560500D01*
X94944098Y-85580185D01*
X94964740Y-85596819D01*
X94989707Y-85621786D01*
X94989711Y-85621789D01*
X95120814Y-85709390D01*
X95120827Y-85709397D01*
X95266498Y-85769735D01*
X95266503Y-85769737D01*
X95421153Y-85800499D01*
X95421156Y-85800500D01*
X95421158Y-85800500D01*
X95578844Y-85800500D01*
X95578845Y-85800499D01*
X95733497Y-85769737D01*
X95879179Y-85709394D01*
X96010289Y-85621789D01*
X96121789Y-85510289D01*
X96209394Y-85379179D01*
X96269737Y-85233497D01*
X96300500Y-85078842D01*
X96300500Y-84921158D01*
X96300500Y-84921155D01*
X96300499Y-84921153D01*
X96299377Y-84915512D01*
X96269737Y-84766503D01*
X96269735Y-84766498D01*
X96209397Y-84620827D01*
X96209390Y-84620814D01*
X96121789Y-84489711D01*
X96121786Y-84489707D01*
X96010292Y-84378213D01*
X96010288Y-84378210D01*
X95879185Y-84290609D01*
X95879172Y-84290602D01*
X95733501Y-84230264D01*
X95733489Y-84230261D01*
X95578845Y-84199500D01*
X95578842Y-84199500D01*
X95421158Y-84199500D01*
X95421155Y-84199500D01*
X95266510Y-84230261D01*
X95266498Y-84230264D01*
X95120827Y-84290602D01*
X95120815Y-84290609D01*
X95048990Y-84338602D01*
X94982313Y-84359480D01*
X94980099Y-84359500D01*
X92895768Y-84359500D01*
X92828729Y-84339815D01*
X92782974Y-84287011D01*
X92773030Y-84217853D01*
X92774151Y-84211308D01*
X92800500Y-84078844D01*
X92800500Y-83921155D01*
X92800499Y-83921153D01*
X92769738Y-83766510D01*
X92769737Y-83766503D01*
X92769735Y-83766498D01*
X92709397Y-83620827D01*
X92709390Y-83620814D01*
X92621398Y-83489125D01*
X92600520Y-83422447D01*
X92600500Y-83420234D01*
X92600500Y-72420945D01*
X92600500Y-72420943D01*
X92559577Y-72268216D01*
X92559573Y-72268209D01*
X92480524Y-72131290D01*
X92480518Y-72131282D01*
X92368717Y-72019481D01*
X92368709Y-72019475D01*
X92231790Y-71940426D01*
X92231786Y-71940424D01*
X92231784Y-71940423D01*
X92079057Y-71899500D01*
X92079056Y-71899500D01*
X90548963Y-71899500D01*
X90481924Y-71879815D01*
X90436169Y-71827011D01*
X90434417Y-71822987D01*
X90419132Y-71786086D01*
X90377982Y-71724500D01*
X90309639Y-71622217D01*
X90170285Y-71482863D01*
X90170281Y-71482860D01*
X90006420Y-71373371D01*
X90006407Y-71373364D01*
X89824339Y-71297950D01*
X89824329Y-71297947D01*
X89631043Y-71259500D01*
X89631041Y-71259500D01*
X88433959Y-71259500D01*
X88433957Y-71259500D01*
X88240670Y-71297947D01*
X88240660Y-71297950D01*
X88058592Y-71373364D01*
X88058579Y-71373371D01*
X87894718Y-71482860D01*
X87894714Y-71482863D01*
X87755363Y-71622214D01*
X87755360Y-71622218D01*
X87645871Y-71786079D01*
X87645864Y-71786092D01*
X87570450Y-71968160D01*
X87570447Y-71968170D01*
X87532000Y-72161456D01*
X87532000Y-72161459D01*
X87532000Y-72358541D01*
X87532000Y-72358543D01*
X87531999Y-72358543D01*
X87000000Y-72358543D01*
X87000000Y-67713520D01*
X87004886Y-67696877D01*
X87004749Y-67679531D01*
X87014526Y-67664047D01*
X87019685Y-67646481D01*
X87032920Y-67634919D01*
X87042055Y-67620455D01*
X87071586Y-67601143D01*
X87081027Y-67596740D01*
X87133213Y-67585124D01*
X136998370Y-67500847D01*
X137009352Y-67501318D01*
G37*
%TD.AperFunction*%
%TD*%
M02*
