M48
; DRILL file {KiCad 9.0.7} date 2026-03-19T19:08:15-0700
; FORMAT={-:-/ absolute / metric / decimal}
; #@! TF.CreationDate,2026-03-19T19:08:15-07:00
; #@! TF.GenerationSoftware,Kicad,Pcbnew,9.0.7
; #@! TF.FileFunction,Plated,1,2,PTH
FMAT,2
METRIC
; #@! TA.AperFunction,Plated,PTH,ViaDrill
T1C0.300
; #@! TA.AperFunction,Plated,PTH,ComponentDrill
T2C0.800
; #@! TA.AperFunction,Plated,PTH,ComponentDrill
T3C1.000
; #@! TA.AperFunction,Plated,PTH,ComponentDrill
T4C1.300
%
G90
G05
T1
X92.0Y-84.0
X95.5Y-85.0
X98.5Y-72.0
X114.0Y-85.5
X114.0Y-88.5
T2
X114.19Y-71.0
X117.398Y-79.25
X117.398Y-81.79
X117.398Y-84.33
X117.398Y-86.87
X117.398Y-89.41
X117.398Y-91.95
X117.398Y-94.49
X117.398Y-97.03
X117.398Y-99.57
X121.81Y-71.0
X126.0Y-71.0
X130.0Y-79.25
X130.0Y-81.79
X130.0Y-84.33
X130.0Y-86.87
X130.0Y-89.41
X130.0Y-91.95
X130.0Y-94.49
X130.0Y-97.03
X130.0Y-99.57
X133.62Y-71.0
T3
X88.733Y-72.26
X88.733Y-74.8
X88.733Y-77.34
X88.733Y-79.88
X88.733Y-82.42
X88.733Y-84.96
X88.733Y-87.5
X88.733Y-90.04
X88.733Y-92.58
X88.733Y-95.12
X88.733Y-97.66
X88.733Y-100.2
X109.052Y-72.26
X109.052Y-74.8
X109.052Y-77.34
X109.052Y-79.88
X109.052Y-82.42
X109.052Y-84.96
X109.052Y-87.5
X109.052Y-90.04
X109.052Y-92.58
X109.052Y-95.12
X109.052Y-97.66
X109.052Y-100.2
X109.052Y-102.74
X109.052Y-105.28
X109.052Y-107.82
X109.052Y-110.36
T4
X123.75Y-108.468
X128.75Y-108.468
X133.75Y-108.468
X138.25Y-79.968
X138.25Y-93.468
X138.75Y-108.468
X143.25Y-79.968
X143.25Y-93.468
M30
