M48
; DRILL file {KiCad 9.0.7} date 2026-04-16T07:21:39-0700
; FORMAT={-:-/ absolute / metric / decimal}
; #@! TF.CreationDate,2026-04-16T07:21:39-07:00
; #@! TF.GenerationSoftware,Kicad,Pcbnew,9.0.7
; #@! TF.FileFunction,Plated,1,2,PTH
FMAT,2
METRIC
; #@! TA.AperFunction,Plated,PTH,ViaDrill
T1C0.300
; #@! TA.AperFunction,Plated,PTH,ComponentDrill
T2C0.500
; #@! TA.AperFunction,Plated,PTH,ComponentDrill
T3C0.800
; #@! TA.AperFunction,Plated,PTH,ComponentDrill
T4C1.000
%
G90
G05
T1
X92.0Y-84.0
X95.5Y-85.0
X98.5Y-73.5
X115.0Y-95.5
X117.5Y-96.0
X120.0Y-94.5
T2
X114.5Y-79.5
X115.75Y-79.5
X116.5Y-106.955
X117.75Y-106.955
X119.0Y-106.955
X120.25Y-106.955
X121.875Y-79.5
X123.125Y-79.5
T3
X114.19Y-73.0
X114.93Y-86.398
X114.93Y-99.0
X117.47Y-86.398
X117.47Y-99.0
X120.01Y-86.398
X120.01Y-99.0
X121.81Y-73.0
X122.55Y-86.398
X122.55Y-99.0
X125.09Y-86.398
X125.09Y-99.0
X126.0Y-73.0
X127.63Y-86.398
X127.63Y-99.0
X130.17Y-86.398
X130.17Y-99.0
X132.71Y-86.398
X132.71Y-99.0
X133.62Y-73.0
X135.25Y-86.398
X135.25Y-99.0
T4
X88.733Y-72.26
X88.733Y-74.8
X88.733Y-77.34
X88.733Y-79.88
X88.733Y-82.42
X88.733Y-84.96
X88.733Y-87.5
X88.733Y-90.04
X88.733Y-92.58
X88.733Y-95.12
X88.733Y-97.66
X88.733Y-100.2
X109.052Y-72.26
X109.052Y-74.8
X109.052Y-77.34
X109.052Y-79.88
X109.052Y-82.42
X109.052Y-84.96
X109.052Y-87.5
X109.052Y-90.04
X109.052Y-92.58
X109.052Y-95.12
X109.052Y-97.66
X109.052Y-100.2
X109.052Y-102.74
X109.052Y-105.28
X109.052Y-107.82
X109.052Y-110.36
M30
