%TF.GenerationSoftware,KiCad,Pcbnew,9.0.7*%
%TF.CreationDate,2026-08-31T13:05:17-07:00*%
%TF.ProjectId,display_board,64697370-6c61-4795-9f62-6f6172642e6b,rev?*%
%TF.SameCoordinates,Original*%
%TF.FileFunction,Legend,Top*%
%TF.FilePolarity,Positive*%
%FSLAX46Y46*%
G04 Gerber Fmt 4.6, Leading zero omitted, Abs format (unit mm)*
G04 Created by KiCad (PCBNEW 9.0.7) date 2026-08-31 13:05:17*
%MOMM*%
%LPD*%
G01*
G04 APERTURE LIST*
%ADD10C,0.100000*%
%ADD11C,0.150000*%
%ADD12C,0.120000*%
G04 APERTURE END LIST*
D10*
X130772419Y-75988972D02*
X130772419Y-75417544D01*
X131772419Y-75703258D02*
X130772419Y-75703258D01*
X130772419Y-75179448D02*
X131772419Y-74512782D01*
X130772419Y-74512782D02*
X131772419Y-75179448D01*
X134270038Y-75322306D02*
X134222419Y-75417544D01*
X134222419Y-75417544D02*
X134222419Y-75560401D01*
X134222419Y-75560401D02*
X134270038Y-75703258D01*
X134270038Y-75703258D02*
X134365276Y-75798496D01*
X134365276Y-75798496D02*
X134460514Y-75846115D01*
X134460514Y-75846115D02*
X134650990Y-75893734D01*
X134650990Y-75893734D02*
X134793847Y-75893734D01*
X134793847Y-75893734D02*
X134984323Y-75846115D01*
X134984323Y-75846115D02*
X135079561Y-75798496D01*
X135079561Y-75798496D02*
X135174800Y-75703258D01*
X135174800Y-75703258D02*
X135222419Y-75560401D01*
X135222419Y-75560401D02*
X135222419Y-75465163D01*
X135222419Y-75465163D02*
X135174800Y-75322306D01*
X135174800Y-75322306D02*
X135127180Y-75274687D01*
X135127180Y-75274687D02*
X134793847Y-75274687D01*
X134793847Y-75274687D02*
X134793847Y-75465163D01*
X135222419Y-74846115D02*
X134222419Y-74846115D01*
X134222419Y-74846115D02*
X135222419Y-74274687D01*
X135222419Y-74274687D02*
X134222419Y-74274687D01*
X135222419Y-73798496D02*
X134222419Y-73798496D01*
X134222419Y-73798496D02*
X134222419Y-73560401D01*
X134222419Y-73560401D02*
X134270038Y-73417544D01*
X134270038Y-73417544D02*
X134365276Y-73322306D01*
X134365276Y-73322306D02*
X134460514Y-73274687D01*
X134460514Y-73274687D02*
X134650990Y-73227068D01*
X134650990Y-73227068D02*
X134793847Y-73227068D01*
X134793847Y-73227068D02*
X134984323Y-73274687D01*
X134984323Y-73274687D02*
X135079561Y-73322306D01*
X135079561Y-73322306D02*
X135174800Y-73417544D01*
X135174800Y-73417544D02*
X135222419Y-73560401D01*
X135222419Y-73560401D02*
X135222419Y-73798496D01*
X132672419Y-75419925D02*
X132672419Y-75896115D01*
X132672419Y-75896115D02*
X133148609Y-75943734D01*
X133148609Y-75943734D02*
X133100990Y-75896115D01*
X133100990Y-75896115D02*
X133053371Y-75800877D01*
X133053371Y-75800877D02*
X133053371Y-75562782D01*
X133053371Y-75562782D02*
X133100990Y-75467544D01*
X133100990Y-75467544D02*
X133148609Y-75419925D01*
X133148609Y-75419925D02*
X133243847Y-75372306D01*
X133243847Y-75372306D02*
X133481942Y-75372306D01*
X133481942Y-75372306D02*
X133577180Y-75419925D01*
X133577180Y-75419925D02*
X133624800Y-75467544D01*
X133624800Y-75467544D02*
X133672419Y-75562782D01*
X133672419Y-75562782D02*
X133672419Y-75800877D01*
X133672419Y-75800877D02*
X133624800Y-75896115D01*
X133624800Y-75896115D02*
X133577180Y-75943734D01*
X132672419Y-75086591D02*
X133672419Y-74753258D01*
X133672419Y-74753258D02*
X132672419Y-74419925D01*
X130022419Y-75324687D02*
X129546228Y-75658020D01*
X130022419Y-75896115D02*
X129022419Y-75896115D01*
X129022419Y-75896115D02*
X129022419Y-75515163D01*
X129022419Y-75515163D02*
X129070038Y-75419925D01*
X129070038Y-75419925D02*
X129117657Y-75372306D01*
X129117657Y-75372306D02*
X129212895Y-75324687D01*
X129212895Y-75324687D02*
X129355752Y-75324687D01*
X129355752Y-75324687D02*
X129450990Y-75372306D01*
X129450990Y-75372306D02*
X129498609Y-75419925D01*
X129498609Y-75419925D02*
X129546228Y-75515163D01*
X129546228Y-75515163D02*
X129546228Y-75896115D01*
X129022419Y-74991353D02*
X130022419Y-74324687D01*
X129022419Y-74324687D02*
X130022419Y-74991353D01*
D11*
X127810667Y-86631400D02*
X127953524Y-86679019D01*
X127953524Y-86679019D02*
X128191619Y-86679019D01*
X128191619Y-86679019D02*
X128286857Y-86631400D01*
X128286857Y-86631400D02*
X128334476Y-86583780D01*
X128334476Y-86583780D02*
X128382095Y-86488542D01*
X128382095Y-86488542D02*
X128382095Y-86393304D01*
X128382095Y-86393304D02*
X128334476Y-86298066D01*
X128334476Y-86298066D02*
X128286857Y-86250447D01*
X128286857Y-86250447D02*
X128191619Y-86202828D01*
X128191619Y-86202828D02*
X128001143Y-86155209D01*
X128001143Y-86155209D02*
X127905905Y-86107590D01*
X127905905Y-86107590D02*
X127858286Y-86059971D01*
X127858286Y-86059971D02*
X127810667Y-85964733D01*
X127810667Y-85964733D02*
X127810667Y-85869495D01*
X127810667Y-85869495D02*
X127858286Y-85774257D01*
X127858286Y-85774257D02*
X127905905Y-85726638D01*
X127905905Y-85726638D02*
X128001143Y-85679019D01*
X128001143Y-85679019D02*
X128239238Y-85679019D01*
X128239238Y-85679019D02*
X128382095Y-85726638D01*
X128715429Y-85679019D02*
X128953524Y-86679019D01*
X128953524Y-86679019D02*
X129144000Y-85964733D01*
X129144000Y-85964733D02*
X129334476Y-86679019D01*
X129334476Y-86679019D02*
X129572572Y-85679019D01*
X129905905Y-85774257D02*
X129953524Y-85726638D01*
X129953524Y-85726638D02*
X130048762Y-85679019D01*
X130048762Y-85679019D02*
X130286857Y-85679019D01*
X130286857Y-85679019D02*
X130382095Y-85726638D01*
X130382095Y-85726638D02*
X130429714Y-85774257D01*
X130429714Y-85774257D02*
X130477333Y-85869495D01*
X130477333Y-85869495D02*
X130477333Y-85964733D01*
X130477333Y-85964733D02*
X130429714Y-86107590D01*
X130429714Y-86107590D02*
X129858286Y-86679019D01*
X129858286Y-86679019D02*
X130477333Y-86679019D01*
X131913333Y-84049819D02*
X131580000Y-83573628D01*
X131341905Y-84049819D02*
X131341905Y-83049819D01*
X131341905Y-83049819D02*
X131722857Y-83049819D01*
X131722857Y-83049819D02*
X131818095Y-83097438D01*
X131818095Y-83097438D02*
X131865714Y-83145057D01*
X131865714Y-83145057D02*
X131913333Y-83240295D01*
X131913333Y-83240295D02*
X131913333Y-83383152D01*
X131913333Y-83383152D02*
X131865714Y-83478390D01*
X131865714Y-83478390D02*
X131818095Y-83526009D01*
X131818095Y-83526009D02*
X131722857Y-83573628D01*
X131722857Y-83573628D02*
X131341905Y-83573628D01*
X132294286Y-83145057D02*
X132341905Y-83097438D01*
X132341905Y-83097438D02*
X132437143Y-83049819D01*
X132437143Y-83049819D02*
X132675238Y-83049819D01*
X132675238Y-83049819D02*
X132770476Y-83097438D01*
X132770476Y-83097438D02*
X132818095Y-83145057D01*
X132818095Y-83145057D02*
X132865714Y-83240295D01*
X132865714Y-83240295D02*
X132865714Y-83335533D01*
X132865714Y-83335533D02*
X132818095Y-83478390D01*
X132818095Y-83478390D02*
X132246667Y-84049819D01*
X132246667Y-84049819D02*
X132865714Y-84049819D01*
D10*
X125074580Y-78032095D02*
X124265057Y-78032095D01*
X124265057Y-78032095D02*
X124169819Y-78079714D01*
X124169819Y-78079714D02*
X124122200Y-78127333D01*
X124122200Y-78127333D02*
X124074580Y-78222571D01*
X124074580Y-78222571D02*
X124074580Y-78413047D01*
X124074580Y-78413047D02*
X124122200Y-78508285D01*
X124122200Y-78508285D02*
X124169819Y-78555904D01*
X124169819Y-78555904D02*
X124265057Y-78603523D01*
X124265057Y-78603523D02*
X125074580Y-78603523D01*
X124074580Y-79603523D02*
X124074580Y-79032095D01*
X124074580Y-79317809D02*
X125074580Y-79317809D01*
X125074580Y-79317809D02*
X124931723Y-79222571D01*
X124931723Y-79222571D02*
X124836485Y-79127333D01*
X124836485Y-79127333D02*
X124788866Y-79032095D01*
X119579580Y-78558074D02*
X119579580Y-78081884D01*
X119579580Y-78081884D02*
X120579580Y-78081884D01*
X119579580Y-78891408D02*
X120246247Y-78891408D01*
X120579580Y-78891408D02*
X120531961Y-78843789D01*
X120531961Y-78843789D02*
X120484342Y-78891408D01*
X120484342Y-78891408D02*
X120531961Y-78939027D01*
X120531961Y-78939027D02*
X120579580Y-78891408D01*
X120579580Y-78891408D02*
X120484342Y-78891408D01*
X120246247Y-79224741D02*
X120246247Y-79605693D01*
X120579580Y-79367598D02*
X119722438Y-79367598D01*
X119722438Y-79367598D02*
X119627200Y-79415217D01*
X119627200Y-79415217D02*
X119579580Y-79510455D01*
X119579580Y-79510455D02*
X119579580Y-79605693D01*
X119627200Y-80319979D02*
X119579580Y-80224741D01*
X119579580Y-80224741D02*
X119579580Y-80034265D01*
X119579580Y-80034265D02*
X119627200Y-79939027D01*
X119627200Y-79939027D02*
X119722438Y-79891408D01*
X119722438Y-79891408D02*
X120103390Y-79891408D01*
X120103390Y-79891408D02*
X120198628Y-79939027D01*
X120198628Y-79939027D02*
X120246247Y-80034265D01*
X120246247Y-80034265D02*
X120246247Y-80224741D01*
X120246247Y-80224741D02*
X120198628Y-80319979D01*
X120198628Y-80319979D02*
X120103390Y-80367598D01*
X120103390Y-80367598D02*
X120008152Y-80367598D01*
X120008152Y-80367598D02*
X119912914Y-79891408D01*
X104339580Y-78399312D02*
X104815771Y-78065979D01*
X104339580Y-77827884D02*
X105339580Y-77827884D01*
X105339580Y-77827884D02*
X105339580Y-78208836D01*
X105339580Y-78208836D02*
X105291961Y-78304074D01*
X105291961Y-78304074D02*
X105244342Y-78351693D01*
X105244342Y-78351693D02*
X105149104Y-78399312D01*
X105149104Y-78399312D02*
X105006247Y-78399312D01*
X105006247Y-78399312D02*
X104911009Y-78351693D01*
X104911009Y-78351693D02*
X104863390Y-78304074D01*
X104863390Y-78304074D02*
X104815771Y-78208836D01*
X104815771Y-78208836D02*
X104815771Y-77827884D01*
X104387200Y-78780265D02*
X104339580Y-78923122D01*
X104339580Y-78923122D02*
X104339580Y-79161217D01*
X104339580Y-79161217D02*
X104387200Y-79256455D01*
X104387200Y-79256455D02*
X104434819Y-79304074D01*
X104434819Y-79304074D02*
X104530057Y-79351693D01*
X104530057Y-79351693D02*
X104625295Y-79351693D01*
X104625295Y-79351693D02*
X104720533Y-79304074D01*
X104720533Y-79304074D02*
X104768152Y-79256455D01*
X104768152Y-79256455D02*
X104815771Y-79161217D01*
X104815771Y-79161217D02*
X104863390Y-78970741D01*
X104863390Y-78970741D02*
X104911009Y-78875503D01*
X104911009Y-78875503D02*
X104958628Y-78827884D01*
X104958628Y-78827884D02*
X105053866Y-78780265D01*
X105053866Y-78780265D02*
X105149104Y-78780265D01*
X105149104Y-78780265D02*
X105244342Y-78827884D01*
X105244342Y-78827884D02*
X105291961Y-78875503D01*
X105291961Y-78875503D02*
X105339580Y-78970741D01*
X105339580Y-78970741D02*
X105339580Y-79208836D01*
X105339580Y-79208836D02*
X105291961Y-79351693D01*
X105339580Y-79637408D02*
X105339580Y-80208836D01*
X104339580Y-79923122D02*
X105339580Y-79923122D01*
X109419580Y-78081884D02*
X110419580Y-78081884D01*
X110419580Y-78081884D02*
X109705295Y-78415217D01*
X109705295Y-78415217D02*
X110419580Y-78748550D01*
X110419580Y-78748550D02*
X109419580Y-78748550D01*
X109419580Y-79224741D02*
X110419580Y-79224741D01*
X109467200Y-79653312D02*
X109419580Y-79796169D01*
X109419580Y-79796169D02*
X109419580Y-80034264D01*
X109419580Y-80034264D02*
X109467200Y-80129502D01*
X109467200Y-80129502D02*
X109514819Y-80177121D01*
X109514819Y-80177121D02*
X109610057Y-80224740D01*
X109610057Y-80224740D02*
X109705295Y-80224740D01*
X109705295Y-80224740D02*
X109800533Y-80177121D01*
X109800533Y-80177121D02*
X109848152Y-80129502D01*
X109848152Y-80129502D02*
X109895771Y-80034264D01*
X109895771Y-80034264D02*
X109943390Y-79843788D01*
X109943390Y-79843788D02*
X109991009Y-79748550D01*
X109991009Y-79748550D02*
X110038628Y-79700931D01*
X110038628Y-79700931D02*
X110133866Y-79653312D01*
X110133866Y-79653312D02*
X110229104Y-79653312D01*
X110229104Y-79653312D02*
X110324342Y-79700931D01*
X110324342Y-79700931D02*
X110371961Y-79748550D01*
X110371961Y-79748550D02*
X110419580Y-79843788D01*
X110419580Y-79843788D02*
X110419580Y-80081883D01*
X110419580Y-80081883D02*
X110371961Y-80224740D01*
X110419580Y-80843788D02*
X110419580Y-81034264D01*
X110419580Y-81034264D02*
X110371961Y-81129502D01*
X110371961Y-81129502D02*
X110276723Y-81224740D01*
X110276723Y-81224740D02*
X110086247Y-81272359D01*
X110086247Y-81272359D02*
X109752914Y-81272359D01*
X109752914Y-81272359D02*
X109562438Y-81224740D01*
X109562438Y-81224740D02*
X109467200Y-81129502D01*
X109467200Y-81129502D02*
X109419580Y-81034264D01*
X109419580Y-81034264D02*
X109419580Y-80843788D01*
X109419580Y-80843788D02*
X109467200Y-80748550D01*
X109467200Y-80748550D02*
X109562438Y-80653312D01*
X109562438Y-80653312D02*
X109752914Y-80605693D01*
X109752914Y-80605693D02*
X110086247Y-80605693D01*
X110086247Y-80605693D02*
X110276723Y-80653312D01*
X110276723Y-80653312D02*
X110371961Y-80748550D01*
X110371961Y-80748550D02*
X110419580Y-80843788D01*
X103053580Y-77685027D02*
X103053580Y-78256455D01*
X102053580Y-77970741D02*
X103053580Y-77970741D01*
X102148819Y-79161217D02*
X102101200Y-79113598D01*
X102101200Y-79113598D02*
X102053580Y-78970741D01*
X102053580Y-78970741D02*
X102053580Y-78875503D01*
X102053580Y-78875503D02*
X102101200Y-78732646D01*
X102101200Y-78732646D02*
X102196438Y-78637408D01*
X102196438Y-78637408D02*
X102291676Y-78589789D01*
X102291676Y-78589789D02*
X102482152Y-78542170D01*
X102482152Y-78542170D02*
X102625009Y-78542170D01*
X102625009Y-78542170D02*
X102815485Y-78589789D01*
X102815485Y-78589789D02*
X102910723Y-78637408D01*
X102910723Y-78637408D02*
X103005961Y-78732646D01*
X103005961Y-78732646D02*
X103053580Y-78875503D01*
X103053580Y-78875503D02*
X103053580Y-78970741D01*
X103053580Y-78970741D02*
X103005961Y-79113598D01*
X103005961Y-79113598D02*
X102958342Y-79161217D01*
X102101200Y-79542170D02*
X102053580Y-79685027D01*
X102053580Y-79685027D02*
X102053580Y-79923122D01*
X102053580Y-79923122D02*
X102101200Y-80018360D01*
X102101200Y-80018360D02*
X102148819Y-80065979D01*
X102148819Y-80065979D02*
X102244057Y-80113598D01*
X102244057Y-80113598D02*
X102339295Y-80113598D01*
X102339295Y-80113598D02*
X102434533Y-80065979D01*
X102434533Y-80065979D02*
X102482152Y-80018360D01*
X102482152Y-80018360D02*
X102529771Y-79923122D01*
X102529771Y-79923122D02*
X102577390Y-79732646D01*
X102577390Y-79732646D02*
X102625009Y-79637408D01*
X102625009Y-79637408D02*
X102672628Y-79589789D01*
X102672628Y-79589789D02*
X102767866Y-79542170D01*
X102767866Y-79542170D02*
X102863104Y-79542170D01*
X102863104Y-79542170D02*
X102958342Y-79589789D01*
X102958342Y-79589789D02*
X103005961Y-79637408D01*
X103005961Y-79637408D02*
X103053580Y-79732646D01*
X103053580Y-79732646D02*
X103053580Y-79970741D01*
X103053580Y-79970741D02*
X103005961Y-80113598D01*
X117737961Y-78605693D02*
X117785580Y-78510455D01*
X117785580Y-78510455D02*
X117785580Y-78367598D01*
X117785580Y-78367598D02*
X117737961Y-78224741D01*
X117737961Y-78224741D02*
X117642723Y-78129503D01*
X117642723Y-78129503D02*
X117547485Y-78081884D01*
X117547485Y-78081884D02*
X117357009Y-78034265D01*
X117357009Y-78034265D02*
X117214152Y-78034265D01*
X117214152Y-78034265D02*
X117023676Y-78081884D01*
X117023676Y-78081884D02*
X116928438Y-78129503D01*
X116928438Y-78129503D02*
X116833200Y-78224741D01*
X116833200Y-78224741D02*
X116785580Y-78367598D01*
X116785580Y-78367598D02*
X116785580Y-78462836D01*
X116785580Y-78462836D02*
X116833200Y-78605693D01*
X116833200Y-78605693D02*
X116880819Y-78653312D01*
X116880819Y-78653312D02*
X117214152Y-78653312D01*
X117214152Y-78653312D02*
X117214152Y-78462836D01*
X116785580Y-79081884D02*
X117785580Y-79081884D01*
X117785580Y-79081884D02*
X116785580Y-79653312D01*
X116785580Y-79653312D02*
X117785580Y-79653312D01*
X116785580Y-80129503D02*
X117785580Y-80129503D01*
X117785580Y-80129503D02*
X117785580Y-80367598D01*
X117785580Y-80367598D02*
X117737961Y-80510455D01*
X117737961Y-80510455D02*
X117642723Y-80605693D01*
X117642723Y-80605693D02*
X117547485Y-80653312D01*
X117547485Y-80653312D02*
X117357009Y-80700931D01*
X117357009Y-80700931D02*
X117214152Y-80700931D01*
X117214152Y-80700931D02*
X117023676Y-80653312D01*
X117023676Y-80653312D02*
X116928438Y-80605693D01*
X116928438Y-80605693D02*
X116833200Y-80510455D01*
X116833200Y-80510455D02*
X116785580Y-80367598D01*
X116785580Y-80367598D02*
X116785580Y-80129503D01*
X111959580Y-78081884D02*
X112959580Y-78081884D01*
X112959580Y-78081884D02*
X112245295Y-78415217D01*
X112245295Y-78415217D02*
X112959580Y-78748550D01*
X112959580Y-78748550D02*
X111959580Y-78748550D01*
X112959580Y-79415217D02*
X112959580Y-79605693D01*
X112959580Y-79605693D02*
X112911961Y-79700931D01*
X112911961Y-79700931D02*
X112816723Y-79796169D01*
X112816723Y-79796169D02*
X112626247Y-79843788D01*
X112626247Y-79843788D02*
X112292914Y-79843788D01*
X112292914Y-79843788D02*
X112102438Y-79796169D01*
X112102438Y-79796169D02*
X112007200Y-79700931D01*
X112007200Y-79700931D02*
X111959580Y-79605693D01*
X111959580Y-79605693D02*
X111959580Y-79415217D01*
X111959580Y-79415217D02*
X112007200Y-79319979D01*
X112007200Y-79319979D02*
X112102438Y-79224741D01*
X112102438Y-79224741D02*
X112292914Y-79177122D01*
X112292914Y-79177122D02*
X112626247Y-79177122D01*
X112626247Y-79177122D02*
X112816723Y-79224741D01*
X112816723Y-79224741D02*
X112911961Y-79319979D01*
X112911961Y-79319979D02*
X112959580Y-79415217D01*
X112007200Y-80224741D02*
X111959580Y-80367598D01*
X111959580Y-80367598D02*
X111959580Y-80605693D01*
X111959580Y-80605693D02*
X112007200Y-80700931D01*
X112007200Y-80700931D02*
X112054819Y-80748550D01*
X112054819Y-80748550D02*
X112150057Y-80796169D01*
X112150057Y-80796169D02*
X112245295Y-80796169D01*
X112245295Y-80796169D02*
X112340533Y-80748550D01*
X112340533Y-80748550D02*
X112388152Y-80700931D01*
X112388152Y-80700931D02*
X112435771Y-80605693D01*
X112435771Y-80605693D02*
X112483390Y-80415217D01*
X112483390Y-80415217D02*
X112531009Y-80319979D01*
X112531009Y-80319979D02*
X112578628Y-80272360D01*
X112578628Y-80272360D02*
X112673866Y-80224741D01*
X112673866Y-80224741D02*
X112769104Y-80224741D01*
X112769104Y-80224741D02*
X112864342Y-80272360D01*
X112864342Y-80272360D02*
X112911961Y-80319979D01*
X112911961Y-80319979D02*
X112959580Y-80415217D01*
X112959580Y-80415217D02*
X112959580Y-80653312D01*
X112959580Y-80653312D02*
X112911961Y-80796169D01*
X111959580Y-81224741D02*
X112959580Y-81224741D01*
X114801200Y-78034265D02*
X114753580Y-78177122D01*
X114753580Y-78177122D02*
X114753580Y-78415217D01*
X114753580Y-78415217D02*
X114801200Y-78510455D01*
X114801200Y-78510455D02*
X114848819Y-78558074D01*
X114848819Y-78558074D02*
X114944057Y-78605693D01*
X114944057Y-78605693D02*
X115039295Y-78605693D01*
X115039295Y-78605693D02*
X115134533Y-78558074D01*
X115134533Y-78558074D02*
X115182152Y-78510455D01*
X115182152Y-78510455D02*
X115229771Y-78415217D01*
X115229771Y-78415217D02*
X115277390Y-78224741D01*
X115277390Y-78224741D02*
X115325009Y-78129503D01*
X115325009Y-78129503D02*
X115372628Y-78081884D01*
X115372628Y-78081884D02*
X115467866Y-78034265D01*
X115467866Y-78034265D02*
X115563104Y-78034265D01*
X115563104Y-78034265D02*
X115658342Y-78081884D01*
X115658342Y-78081884D02*
X115705961Y-78129503D01*
X115705961Y-78129503D02*
X115753580Y-78224741D01*
X115753580Y-78224741D02*
X115753580Y-78462836D01*
X115753580Y-78462836D02*
X115705961Y-78605693D01*
X114848819Y-79605693D02*
X114801200Y-79558074D01*
X114801200Y-79558074D02*
X114753580Y-79415217D01*
X114753580Y-79415217D02*
X114753580Y-79319979D01*
X114753580Y-79319979D02*
X114801200Y-79177122D01*
X114801200Y-79177122D02*
X114896438Y-79081884D01*
X114896438Y-79081884D02*
X114991676Y-79034265D01*
X114991676Y-79034265D02*
X115182152Y-78986646D01*
X115182152Y-78986646D02*
X115325009Y-78986646D01*
X115325009Y-78986646D02*
X115515485Y-79034265D01*
X115515485Y-79034265D02*
X115610723Y-79081884D01*
X115610723Y-79081884D02*
X115705961Y-79177122D01*
X115705961Y-79177122D02*
X115753580Y-79319979D01*
X115753580Y-79319979D02*
X115753580Y-79415217D01*
X115753580Y-79415217D02*
X115705961Y-79558074D01*
X115705961Y-79558074D02*
X115658342Y-79605693D01*
X114753580Y-80034265D02*
X115753580Y-80034265D01*
X114753580Y-80605693D02*
X115325009Y-80177122D01*
X115753580Y-80605693D02*
X115182152Y-80034265D01*
X123119580Y-77939027D02*
X122119580Y-78272360D01*
X122119580Y-78272360D02*
X123119580Y-78605693D01*
X122119580Y-78939027D02*
X122786247Y-78939027D01*
X123119580Y-78939027D02*
X123071961Y-78891408D01*
X123071961Y-78891408D02*
X123024342Y-78939027D01*
X123024342Y-78939027D02*
X123071961Y-78986646D01*
X123071961Y-78986646D02*
X123119580Y-78939027D01*
X123119580Y-78939027D02*
X123024342Y-78939027D01*
X122786247Y-79415217D02*
X122119580Y-79415217D01*
X122691009Y-79415217D02*
X122738628Y-79462836D01*
X122738628Y-79462836D02*
X122786247Y-79558074D01*
X122786247Y-79558074D02*
X122786247Y-79700931D01*
X122786247Y-79700931D02*
X122738628Y-79796169D01*
X122738628Y-79796169D02*
X122643390Y-79843788D01*
X122643390Y-79843788D02*
X122119580Y-79843788D01*
X106879580Y-78081884D02*
X107879580Y-78081884D01*
X107879580Y-78081884D02*
X107879580Y-78319979D01*
X107879580Y-78319979D02*
X107831961Y-78462836D01*
X107831961Y-78462836D02*
X107736723Y-78558074D01*
X107736723Y-78558074D02*
X107641485Y-78605693D01*
X107641485Y-78605693D02*
X107451009Y-78653312D01*
X107451009Y-78653312D02*
X107308152Y-78653312D01*
X107308152Y-78653312D02*
X107117676Y-78605693D01*
X107117676Y-78605693D02*
X107022438Y-78558074D01*
X107022438Y-78558074D02*
X106927200Y-78462836D01*
X106927200Y-78462836D02*
X106879580Y-78319979D01*
X106879580Y-78319979D02*
X106879580Y-78081884D01*
X106974819Y-79653312D02*
X106927200Y-79605693D01*
X106927200Y-79605693D02*
X106879580Y-79462836D01*
X106879580Y-79462836D02*
X106879580Y-79367598D01*
X106879580Y-79367598D02*
X106927200Y-79224741D01*
X106927200Y-79224741D02*
X107022438Y-79129503D01*
X107022438Y-79129503D02*
X107117676Y-79081884D01*
X107117676Y-79081884D02*
X107308152Y-79034265D01*
X107308152Y-79034265D02*
X107451009Y-79034265D01*
X107451009Y-79034265D02*
X107641485Y-79081884D01*
X107641485Y-79081884D02*
X107736723Y-79129503D01*
X107736723Y-79129503D02*
X107831961Y-79224741D01*
X107831961Y-79224741D02*
X107879580Y-79367598D01*
X107879580Y-79367598D02*
X107879580Y-79462836D01*
X107879580Y-79462836D02*
X107831961Y-79605693D01*
X107831961Y-79605693D02*
X107784342Y-79653312D01*
D11*
X92286667Y-85097200D02*
X92429524Y-85144819D01*
X92429524Y-85144819D02*
X92667619Y-85144819D01*
X92667619Y-85144819D02*
X92762857Y-85097200D01*
X92762857Y-85097200D02*
X92810476Y-85049580D01*
X92810476Y-85049580D02*
X92858095Y-84954342D01*
X92858095Y-84954342D02*
X92858095Y-84859104D01*
X92858095Y-84859104D02*
X92810476Y-84763866D01*
X92810476Y-84763866D02*
X92762857Y-84716247D01*
X92762857Y-84716247D02*
X92667619Y-84668628D01*
X92667619Y-84668628D02*
X92477143Y-84621009D01*
X92477143Y-84621009D02*
X92381905Y-84573390D01*
X92381905Y-84573390D02*
X92334286Y-84525771D01*
X92334286Y-84525771D02*
X92286667Y-84430533D01*
X92286667Y-84430533D02*
X92286667Y-84335295D01*
X92286667Y-84335295D02*
X92334286Y-84240057D01*
X92334286Y-84240057D02*
X92381905Y-84192438D01*
X92381905Y-84192438D02*
X92477143Y-84144819D01*
X92477143Y-84144819D02*
X92715238Y-84144819D01*
X92715238Y-84144819D02*
X92858095Y-84192438D01*
X93191429Y-84144819D02*
X93429524Y-85144819D01*
X93429524Y-85144819D02*
X93620000Y-84430533D01*
X93620000Y-84430533D02*
X93810476Y-85144819D01*
X93810476Y-85144819D02*
X94048572Y-84144819D01*
X94953333Y-85144819D02*
X94381905Y-85144819D01*
X94667619Y-85144819D02*
X94667619Y-84144819D01*
X94667619Y-84144819D02*
X94572381Y-84287676D01*
X94572381Y-84287676D02*
X94477143Y-84382914D01*
X94477143Y-84382914D02*
X94381905Y-84430533D01*
X92543333Y-81734819D02*
X92210000Y-81258628D01*
X91971905Y-81734819D02*
X91971905Y-80734819D01*
X91971905Y-80734819D02*
X92352857Y-80734819D01*
X92352857Y-80734819D02*
X92448095Y-80782438D01*
X92448095Y-80782438D02*
X92495714Y-80830057D01*
X92495714Y-80830057D02*
X92543333Y-80925295D01*
X92543333Y-80925295D02*
X92543333Y-81068152D01*
X92543333Y-81068152D02*
X92495714Y-81163390D01*
X92495714Y-81163390D02*
X92448095Y-81211009D01*
X92448095Y-81211009D02*
X92352857Y-81258628D01*
X92352857Y-81258628D02*
X91971905Y-81258628D01*
X93495714Y-81734819D02*
X92924286Y-81734819D01*
X93210000Y-81734819D02*
X93210000Y-80734819D01*
X93210000Y-80734819D02*
X93114762Y-80877676D01*
X93114762Y-80877676D02*
X93019524Y-80972914D01*
X93019524Y-80972914D02*
X92924286Y-81020533D01*
D12*
%TO.C,J1*%
X128450000Y-80650000D02*
X128450000Y-79650000D01*
X128450000Y-80650000D02*
X129450000Y-80650000D01*
X129050000Y-78300000D02*
X129250000Y-78300000D01*
X129050000Y-79100000D02*
X129050000Y-78300000D01*
X129250000Y-77450000D02*
X132225000Y-77450000D01*
X129250000Y-78300000D02*
X129250000Y-77450000D01*
X129250000Y-79100000D02*
X129050000Y-79100000D01*
X129250000Y-79850000D02*
X129250000Y-79100000D01*
X132225000Y-79850000D02*
X129250000Y-79850000D01*
X132225000Y-79850000D02*
X135200000Y-79850000D01*
X135200000Y-77450000D02*
X132225000Y-77450000D01*
X135200000Y-78300000D02*
X135200000Y-77450000D01*
X135200000Y-79100000D02*
X135400000Y-79100000D01*
X135200000Y-79850000D02*
X135200000Y-79100000D01*
X135400000Y-78300000D02*
X135200000Y-78300000D01*
X135400000Y-79100000D02*
X135400000Y-78300000D01*
X128740000Y-76940000D02*
X135710000Y-76940000D01*
X135710000Y-80360000D01*
X128740000Y-80360000D01*
X128740000Y-76940000D01*
%TO.C,SW2*%
X126624000Y-91034200D02*
X126624000Y-90034200D01*
X126624000Y-91034200D02*
X127624000Y-91034200D01*
X127224000Y-88684200D02*
X127424000Y-88684200D01*
X127224000Y-89484200D02*
X127224000Y-88684200D01*
X127424000Y-87834200D02*
X129149000Y-87834200D01*
X127424000Y-88684200D02*
X127424000Y-87834200D01*
X127424000Y-89484200D02*
X127224000Y-89484200D01*
X127424000Y-90234200D02*
X127424000Y-89484200D01*
X129149000Y-90234200D02*
X127424000Y-90234200D01*
X129149000Y-90234200D02*
X130874000Y-90234200D01*
X130874000Y-87834200D02*
X129149000Y-87834200D01*
X130874000Y-88684200D02*
X130874000Y-87834200D01*
X130874000Y-89484200D02*
X131074000Y-89484200D01*
X130874000Y-90234200D02*
X130874000Y-89484200D01*
X131074000Y-88684200D02*
X130874000Y-88684200D01*
X131074000Y-89484200D02*
X131074000Y-88684200D01*
X126914000Y-87324200D02*
X131384000Y-87324200D01*
X131384000Y-90744200D01*
X126914000Y-90744200D01*
X126914000Y-87324200D01*
%TO.C,A1*%
X86740000Y-94750000D02*
X86740000Y-112530000D01*
X89390000Y-92100000D02*
X135110000Y-92100000D01*
X89390000Y-115180000D02*
X135110000Y-115180000D01*
X94200000Y-115500000D02*
X92200000Y-115500000D01*
X137760000Y-94750000D02*
X137760000Y-112530000D01*
X86740000Y-94750000D02*
G75*
G02*
X89390000Y-92100000I2650000J0D01*
G01*
X89390000Y-115180000D02*
G75*
G02*
X86740000Y-112530000I0J2650000D01*
G01*
X135110000Y-92100000D02*
G75*
G02*
X137760000Y-94750000I0J-2650000D01*
G01*
X137760000Y-112530000D02*
G75*
G02*
X135110000Y-115180000I-2650000J0D01*
G01*
%TO.C,R2*%
X128810000Y-82450000D02*
X135350000Y-82450000D01*
X128810000Y-82780000D02*
X128810000Y-82450000D01*
X128810000Y-84860000D02*
X128810000Y-85190000D01*
X128810000Y-85190000D02*
X135350000Y-85190000D01*
X135350000Y-82450000D02*
X135350000Y-82780000D01*
X135350000Y-85190000D02*
X135350000Y-84860000D01*
%TO.C,U1*%
D10*
X126000000Y-73102000D02*
X99500000Y-73102000D01*
X99500000Y-91102000D01*
X126000000Y-91102000D01*
X126000000Y-73102000D01*
D12*
%TO.C,SW1*%
X91100000Y-89500000D02*
X91100000Y-88500000D01*
X91100000Y-89500000D02*
X92100000Y-89500000D01*
X91700000Y-87150000D02*
X91900000Y-87150000D01*
X91700000Y-87950000D02*
X91700000Y-87150000D01*
X91900000Y-86300000D02*
X93625000Y-86300000D01*
X91900000Y-87150000D02*
X91900000Y-86300000D01*
X91900000Y-87950000D02*
X91700000Y-87950000D01*
X91900000Y-88700000D02*
X91900000Y-87950000D01*
X93625000Y-88700000D02*
X91900000Y-88700000D01*
X93625000Y-88700000D02*
X95350000Y-88700000D01*
X95350000Y-86300000D02*
X93625000Y-86300000D01*
X95350000Y-87150000D02*
X95350000Y-86300000D01*
X95350000Y-87950000D02*
X95550000Y-87950000D01*
X95350000Y-88700000D02*
X95350000Y-87950000D01*
X95550000Y-87150000D02*
X95350000Y-87150000D01*
X95550000Y-87950000D02*
X95550000Y-87150000D01*
X91390000Y-85790000D02*
X95860000Y-85790000D01*
X95860000Y-89210000D01*
X91390000Y-89210000D01*
X91390000Y-85790000D01*
%TO.C,R1*%
X95980000Y-82650000D02*
X95980000Y-82320000D01*
X95980000Y-79910000D02*
X95980000Y-80240000D01*
X89440000Y-82650000D02*
X95980000Y-82650000D01*
X89440000Y-82320000D02*
X89440000Y-82650000D01*
X89440000Y-80240000D02*
X89440000Y-79910000D01*
X89440000Y-79910000D02*
X95980000Y-79910000D01*
%TD*%
M02*
