%TF.GenerationSoftware,KiCad,Pcbnew,9.0.7*%
%TF.CreationDate,2026-04-16T07:21:43-07:00*%
%TF.ProjectId,display_board,64697370-6c61-4795-9f62-6f6172642e6b,rev?*%
%TF.SameCoordinates,Original*%
%TF.FileFunction,Soldermask,Top*%
%TF.FilePolarity,Negative*%
%FSLAX46Y46*%
G04 Gerber Fmt 4.6, Leading zero omitted, Abs format (unit mm)*
G04 Created by KiCad (PCBNEW 9.0.7) date 2026-04-16 07:21:43*
%MOMM*%
%LPD*%
G01*
G04 APERTURE LIST*
G04 Aperture macros list*
%AMRoundRect*
0 Rectangle with rounded corners*
0 $1 Rounding radius*
0 $2 $3 $4 $5 $6 $7 $8 $9 X,Y pos of 4 corners*
0 Add a 4 corners polygon primitive as box body*
4,1,4,$2,$3,$4,$5,$6,$7,$8,$9,$2,$3,0*
0 Add four circle primitives for the rounded corners*
1,1,$1+$1,$2,$3*
1,1,$1+$1,$4,$5*
1,1,$1+$1,$6,$7*
1,1,$1+$1,$8,$9*
0 Add four rect primitives between the rounded corners*
20,1,$1+$1,$2,$3,$4,$5,0*
20,1,$1+$1,$4,$5,$6,$7,0*
20,1,$1+$1,$6,$7,$8,$9,0*
20,1,$1+$1,$8,$9,$2,$3,0*%
G04 Aperture macros list end*
%ADD10RoundRect,0.200000X-0.200000X-0.450000X0.200000X-0.450000X0.200000X0.450000X-0.200000X0.450000X0*%
%ADD11O,0.800000X1.300000*%
%ADD12RoundRect,0.250000X1.050000X0.550000X-1.050000X0.550000X-1.050000X-0.550000X1.050000X-0.550000X0*%
%ADD13O,2.600000X1.600000*%
%ADD14C,1.600000*%
%ADD15RoundRect,0.190500X-0.444500X1.079500X-0.444500X-1.079500X0.444500X-1.079500X0.444500X1.079500X0*%
G04 APERTURE END LIST*
D10*
%TO.C,J1*%
X116500000Y-106955000D03*
D11*
X117750000Y-106955000D03*
X119000000Y-106955000D03*
X120250000Y-106955000D03*
%TD*%
D10*
%TO.C,SW2*%
X121875000Y-79500000D03*
D11*
X123125000Y-79500000D03*
%TD*%
D12*
%TO.C,A1*%
X108752500Y-110360000D03*
D13*
X108752500Y-107820000D03*
X108752500Y-105280000D03*
X108752500Y-102740000D03*
X108752500Y-100200000D03*
X108752500Y-97660000D03*
X108752500Y-95120000D03*
X108752500Y-92580000D03*
X108752500Y-90040000D03*
X108752500Y-87500000D03*
X108752500Y-84960000D03*
X108752500Y-82420000D03*
X108752500Y-79880000D03*
X108752500Y-77340000D03*
X108752500Y-74800000D03*
X108752500Y-72260000D03*
X89032500Y-72260000D03*
X89032500Y-74800000D03*
X89032500Y-77340000D03*
X89032500Y-79880000D03*
X89032500Y-82420000D03*
X89032500Y-84960000D03*
X89032500Y-87500000D03*
X89032500Y-90040000D03*
X89032500Y-92580000D03*
X89032500Y-95120000D03*
X89032500Y-97660000D03*
X89032500Y-100200000D03*
%TD*%
D14*
%TO.C,R2*%
X114190000Y-73000000D03*
X121810000Y-73000000D03*
%TD*%
D15*
%TO.C,U1*%
X135250000Y-86398000D03*
X132710000Y-86398000D03*
X130170000Y-86398000D03*
X127630000Y-86398000D03*
X125090000Y-86398000D03*
X122550000Y-86398000D03*
X120010000Y-86398000D03*
X117470000Y-86398000D03*
X114930000Y-86398000D03*
X114930000Y-99000000D03*
X117470000Y-99000000D03*
X120010000Y-99000000D03*
X122550000Y-99000000D03*
X125090000Y-99000000D03*
X127630000Y-99000000D03*
X130170000Y-99000000D03*
X132710000Y-99000000D03*
X135250000Y-99000000D03*
%TD*%
D10*
%TO.C,SW1*%
X114500000Y-79500000D03*
D11*
X115750000Y-79500000D03*
%TD*%
D14*
%TO.C,R1*%
X133620000Y-73000000D03*
X126000000Y-73000000D03*
%TD*%
M02*
