%TF.GenerationSoftware,KiCad,Pcbnew,9.0.7*%
%TF.CreationDate,2026-04-16T07:21:42-07:00*%
%TF.ProjectId,display_board,64697370-6c61-4795-9f62-6f6172642e6b,rev?*%
%TF.SameCoordinates,Original*%
%TF.FileFunction,Copper,L1,Top*%
%TF.FilePolarity,Positive*%
%FSLAX46Y46*%
G04 Gerber Fmt 4.6, Leading zero omitted, Abs format (unit mm)*
G04 Created by KiCad (PCBNEW 9.0.7) date 2026-04-16 07:21:42*
%MOMM*%
%LPD*%
G01*
G04 APERTURE LIST*
G04 Aperture macros list*
%AMRoundRect*
0 Rectangle with rounded corners*
0 $1 Rounding radius*
0 $2 $3 $4 $5 $6 $7 $8 $9 X,Y pos of 4 corners*
0 Add a 4 corners polygon primitive as box body*
4,1,4,$2,$3,$4,$5,$6,$7,$8,$9,$2,$3,0*
0 Add four circle primitives for the rounded corners*
1,1,$1+$1,$2,$3*
1,1,$1+$1,$4,$5*
1,1,$1+$1,$6,$7*
1,1,$1+$1,$8,$9*
0 Add four rect primitives between the rounded corners*
20,1,$1+$1,$2,$3,$4,$5,0*
20,1,$1+$1,$4,$5,$6,$7,0*
20,1,$1+$1,$6,$7,$8,$9,0*
20,1,$1+$1,$8,$9,$2,$3,0*%
G04 Aperture macros list end*
%TA.AperFunction,ComponentPad*%
%ADD10RoundRect,0.200000X-0.200000X-0.450000X0.200000X-0.450000X0.200000X0.450000X-0.200000X0.450000X0*%
%TD*%
%TA.AperFunction,ComponentPad*%
%ADD11O,0.800000X1.300000*%
%TD*%
%TA.AperFunction,ComponentPad*%
%ADD12RoundRect,0.250000X1.050000X0.550000X-1.050000X0.550000X-1.050000X-0.550000X1.050000X-0.550000X0*%
%TD*%
%TA.AperFunction,ComponentPad*%
%ADD13O,2.600000X1.600000*%
%TD*%
%TA.AperFunction,ComponentPad*%
%ADD14C,1.600000*%
%TD*%
%TA.AperFunction,ComponentPad*%
%ADD15RoundRect,0.190500X-0.444500X1.079500X-0.444500X-1.079500X0.444500X-1.079500X0.444500X1.079500X0*%
%TD*%
%TA.AperFunction,ViaPad*%
%ADD16C,0.600000*%
%TD*%
%TA.AperFunction,Conductor*%
%ADD17C,0.200000*%
%TD*%
%TA.AperFunction,Conductor*%
%ADD18C,0.400000*%
%TD*%
%TA.AperFunction,Conductor*%
%ADD19C,0.500000*%
%TD*%
G04 APERTURE END LIST*
D10*
%TO.P,J1,1,Pin_1*%
%TO.N,Net-(A1-RX{slash}IO16)*%
X116500000Y-106955000D03*
D11*
%TO.P,J1,2,Pin_2*%
%TO.N,Net-(A1-TX{slash}IO17)*%
X117750000Y-106955000D03*
%TO.P,J1,3,Pin_3*%
%TO.N,+5V*%
X119000000Y-106955000D03*
%TO.P,J1,4,Pin_4*%
%TO.N,GND*%
X120250000Y-106955000D03*
%TD*%
D10*
%TO.P,SW2,1,1*%
%TO.N,Net-(A1-A12{slash}IO13)*%
X121875000Y-79500000D03*
D11*
%TO.P,SW2,2,2*%
%TO.N,GND*%
X123125000Y-79500000D03*
%TD*%
D12*
%TO.P,A1,1,~{RESET}*%
%TO.N,unconnected-(A1-~{RESET}-Pad1)*%
X108752500Y-110360000D03*
D13*
%TO.P,A1,2,3V3*%
%TO.N,/3V3*%
X108752500Y-107820000D03*
%TO.P,A1,3,NC*%
%TO.N,unconnected-(A1-NC-Pad3)*%
X108752500Y-105280000D03*
%TO.P,A1,4,GND*%
%TO.N,GND*%
X108752500Y-102740000D03*
%TO.P,A1,5,DAC2/A0*%
%TO.N,unconnected-(A1-DAC2{slash}A0-Pad5)*%
X108752500Y-100200000D03*
%TO.P,A1,6,DAC1/A1*%
%TO.N,unconnected-(A1-DAC1{slash}A1-Pad6)*%
X108752500Y-97660000D03*
%TO.P,A1,7,I34/A2*%
%TO.N,unconnected-(A1-I34{slash}A2-Pad7)*%
X108752500Y-95120000D03*
%TO.P,A1,8,I39/A3*%
%TO.N,unconnected-(A1-I39{slash}A3-Pad8)*%
X108752500Y-92580000D03*
%TO.P,A1,9,IO36/A4*%
%TO.N,unconnected-(A1-IO36{slash}A4-Pad9)*%
X108752500Y-90040000D03*
%TO.P,A1,10,IO4/A5*%
%TO.N,unconnected-(A1-IO4{slash}A5-Pad10)*%
X108752500Y-87500000D03*
%TO.P,A1,11,SCK/IO5*%
%TO.N,/MOSI*%
X108752500Y-84960000D03*
%TO.P,A1,12,MOSI/IO18*%
%TO.N,Net-(A1-MOSI{slash}IO18)*%
X108752500Y-82420000D03*
%TO.P,A1,13,MISO/IO19*%
%TO.N,unconnected-(A1-MISO{slash}IO19-Pad13)*%
X108752500Y-79880000D03*
%TO.P,A1,14,RX/IO16*%
%TO.N,Net-(A1-RX{slash}IO16)*%
X108752500Y-77340000D03*
%TO.P,A1,15,TX/IO17*%
%TO.N,Net-(A1-TX{slash}IO17)*%
X108752500Y-74800000D03*
%TO.P,A1,16,IO21*%
%TO.N,unconnected-(A1-IO21-Pad16)*%
X108752500Y-72260000D03*
%TO.P,A1,17,SDA/IO23*%
%TO.N,Net-(A1-SDA{slash}IO23)*%
X89032500Y-72260000D03*
%TO.P,A1,18,SCL/IO22*%
%TO.N,unconnected-(A1-SCL{slash}IO22-Pad18)*%
X89032500Y-74800000D03*
%TO.P,A1,19,A6/IO14*%
%TO.N,unconnected-(A1-A6{slash}IO14-Pad19)*%
X89032500Y-77340000D03*
%TO.P,A1,20,A7/IO32*%
%TO.N,unconnected-(A1-A7{slash}IO32-Pad20)*%
X89032500Y-79880000D03*
%TO.P,A1,21,A8/IO15*%
%TO.N,/DC*%
X89032500Y-82420000D03*
%TO.P,A1,22,A9/IO33*%
%TO.N,Net-(A1-A9{slash}IO33)*%
X89032500Y-84960000D03*
%TO.P,A1,23,A10/IO27*%
%TO.N,Net-(A1-A10{slash}IO27)*%
X89032500Y-87500000D03*
%TO.P,A1,24,A11/IO12*%
%TO.N,unconnected-(A1-A11{slash}IO12-Pad24)*%
X89032500Y-90040000D03*
%TO.P,A1,25,A12/IO13*%
%TO.N,Net-(A1-A12{slash}IO13)*%
X89032500Y-92580000D03*
%TO.P,A1,26,USB*%
%TO.N,unconnected-(A1-USB-Pad26)*%
X89032500Y-95120000D03*
%TO.P,A1,27,EN*%
%TO.N,unconnected-(A1-EN-Pad27)*%
X89032500Y-97660000D03*
%TO.P,A1,28,VBAT*%
%TO.N,+5V*%
X89032500Y-100200000D03*
%TD*%
D14*
%TO.P,R2,1*%
%TO.N,Net-(A1-A12{slash}IO13)*%
X114190000Y-73000000D03*
%TO.P,R2,2*%
%TO.N,+5V*%
X121810000Y-73000000D03*
%TD*%
D15*
%TO.P,U1,1,Vin*%
%TO.N,/3V3*%
X135250000Y-86398000D03*
%TO.P,U1,2,Lite*%
%TO.N,unconnected-(U1-Lite-Pad2)*%
X132710000Y-86398000D03*
%TO.P,U1,3,Gnd*%
%TO.N,GND*%
X130170000Y-86398000D03*
%TO.P,U1,4,SCK*%
%TO.N,/MOSI*%
X127630000Y-86398000D03*
%TO.P,U1,5,MOSI*%
%TO.N,Net-(A1-MOSI{slash}IO18)*%
X125090000Y-86398000D03*
%TO.P,U1,6,MISO*%
%TO.N,unconnected-(U1-MISO-Pad6)*%
X122550000Y-86398000D03*
%TO.P,U1,7,DC*%
%TO.N,Net-(A1-A9{slash}IO33)*%
X120010000Y-86398000D03*
%TO.P,U1,8,RST*%
%TO.N,Net-(A1-SDA{slash}IO23)*%
X117470000Y-86398000D03*
%TO.P,U1,9,TCS*%
%TO.N,/DC*%
X114930000Y-86398000D03*
%TO.P,U1,10,GP2*%
%TO.N,unconnected-(U1-GP2-Pad10)*%
X114930000Y-99000000D03*
%TO.P,U1,11,GP1*%
%TO.N,unconnected-(U1-GP1-Pad11)*%
X117470000Y-99000000D03*
%TO.P,U1,12,BUSY*%
%TO.N,unconnected-(U1-BUSY-Pad12)*%
X120010000Y-99000000D03*
%TO.P,U1,13,INT*%
%TO.N,unconnected-(U1-INT-Pad13)*%
X122550000Y-99000000D03*
%TO.P,U1,14,SDA*%
%TO.N,unconnected-(U1-SDA-Pad14)*%
X125090000Y-99000000D03*
%TO.P,U1,15,SCL*%
%TO.N,unconnected-(U1-SCL-Pad15)*%
X127630000Y-99000000D03*
%TO.P,U1,16,TSCS*%
%TO.N,unconnected-(U1-TSCS-Pad16)*%
X130170000Y-99000000D03*
%TO.P,U1,17,MEMCS*%
%TO.N,unconnected-(U1-MEMCS-Pad17)*%
X132710000Y-99000000D03*
%TO.P,U1,18,SDCS*%
%TO.N,unconnected-(U1-SDCS-Pad18)*%
X135250000Y-99000000D03*
%TD*%
D10*
%TO.P,SW1,1,1*%
%TO.N,Net-(A1-A10{slash}IO27)*%
X114500000Y-79500000D03*
D11*
%TO.P,SW1,2,2*%
%TO.N,GND*%
X115750000Y-79500000D03*
%TD*%
D14*
%TO.P,R1,1*%
%TO.N,Net-(A1-A10{slash}IO27)*%
X133620000Y-73000000D03*
%TO.P,R1,2*%
%TO.N,+5V*%
X126000000Y-73000000D03*
%TD*%
D16*
%TO.N,Net-(A1-SDA{slash}IO23)*%
X92000000Y-84000000D03*
X117500000Y-96000000D03*
%TO.N,Net-(A1-A9{slash}IO33)*%
X95500000Y-85000000D03*
X120000000Y-94500000D03*
%TO.N,Net-(A1-A12{slash}IO13)*%
X98500000Y-73500000D03*
%TO.N,/DC*%
X115000000Y-95500000D03*
%TD*%
D17*
%TO.N,Net-(A1-A12{slash}IO13)*%
X118000000Y-74000000D02*
X119000000Y-75000000D01*
X119000000Y-75000000D02*
X121875000Y-75000000D01*
X118000000Y-72000000D02*
X118000000Y-74000000D01*
X116500000Y-70500000D02*
X118000000Y-72000000D01*
X114500000Y-70500000D02*
X116500000Y-70500000D01*
X121875000Y-75000000D02*
X121875000Y-79500000D01*
X114190000Y-70810000D02*
X114500000Y-70500000D01*
X114190000Y-73000000D02*
X114190000Y-70810000D01*
X98500000Y-70500000D02*
X114500000Y-70500000D01*
X98500000Y-73500000D02*
X98500000Y-70500000D01*
%TO.N,+5V*%
X121810000Y-73000000D02*
X126000000Y-73000000D01*
D18*
X126000000Y-71000000D02*
X126000000Y-73000000D01*
X137000000Y-71000000D02*
X126000000Y-71000000D01*
X137000000Y-114500000D02*
X137000000Y-71000000D01*
X119000000Y-114500000D02*
X137000000Y-114500000D01*
X119000000Y-106955000D02*
X119000000Y-114500000D01*
D17*
%TO.N,Net-(A1-SDA{slash}IO23)*%
X117500000Y-96000000D02*
X115500000Y-96000000D01*
X107000000Y-113500000D02*
X92000000Y-113500000D01*
X113500000Y-98000000D02*
X113500000Y-112067100D01*
X113500000Y-112067100D02*
X112166100Y-113401000D01*
X92000000Y-113500000D02*
X92000000Y-84000000D01*
X107099000Y-113401000D02*
X107000000Y-113500000D01*
X115500000Y-96000000D02*
X113500000Y-98000000D01*
X112166100Y-113401000D02*
X107099000Y-113401000D01*
%TO.N,Net-(A1-A9{slash}IO33)*%
X100500000Y-112000000D02*
X100500000Y-85000000D01*
X112000000Y-96500000D02*
X114000000Y-94500000D01*
X111000000Y-112599000D02*
X112000000Y-111599000D01*
X101099000Y-112599000D02*
X100500000Y-112000000D01*
X114000000Y-94500000D02*
X120000000Y-94500000D01*
X112000000Y-111599000D02*
X112000000Y-96500000D01*
X100500000Y-85000000D02*
X95500000Y-85000000D01*
X111000000Y-112599000D02*
X101099000Y-112599000D01*
D19*
%TO.N,Net-(A1-MOSI{slash}IO18)*%
X123500000Y-82500000D02*
X125090000Y-84090000D01*
X109052500Y-82447500D02*
X109000000Y-82500000D01*
X109052500Y-82420000D02*
X109052500Y-82447500D01*
X109000000Y-82500000D02*
X123500000Y-82500000D01*
X125090000Y-84090000D02*
X125090000Y-86398000D01*
D17*
%TO.N,/DC*%
X88852500Y-82500000D02*
X93500000Y-82500000D01*
X93500000Y-82500000D02*
X93500000Y-113000000D01*
X113000000Y-97500000D02*
X115000000Y-95500000D01*
X88732500Y-82620000D02*
X88852500Y-82500000D01*
X113000000Y-112000000D02*
X113000000Y-97500000D01*
X93500000Y-113000000D02*
X112000000Y-113000000D01*
X112000000Y-113000000D02*
X113000000Y-112000000D01*
%TO.N,/3V3*%
X114000000Y-93500000D02*
X134000000Y-93500000D01*
X108752500Y-108020000D02*
X111500000Y-108020000D01*
X111500000Y-96000000D02*
X114000000Y-93500000D01*
X134000000Y-93500000D02*
X135250000Y-92250000D01*
X135250000Y-92250000D02*
X135250000Y-86398000D01*
X111500000Y-108020000D02*
X111500000Y-96000000D01*
D18*
%TO.N,+5V*%
X88500000Y-100632500D02*
X88500000Y-114500000D01*
X88500000Y-114500000D02*
X119000000Y-114500000D01*
X88732500Y-100400000D02*
X88500000Y-100632500D01*
D17*
%TO.N,unconnected-(U1-GP1-Pad11)*%
X117500000Y-99500000D02*
X117430000Y-99570000D01*
X117430000Y-99570000D02*
X117398000Y-99570000D01*
%TO.N,Net-(A1-RX{slash}IO16)*%
X109392500Y-77000000D02*
X109052500Y-77340000D01*
%TD*%
M02*
