%TF.GenerationSoftware,KiCad,Pcbnew,9.0.7*%
%TF.CreationDate,2026-08-31T13:05:17-07:00*%
%TF.ProjectId,display_board,64697370-6c61-4795-9f62-6f6172642e6b,rev?*%
%TF.SameCoordinates,Original*%
%TF.FileFunction,Soldermask,Bot*%
%TF.FilePolarity,Negative*%
%FSLAX46Y46*%
G04 Gerber Fmt 4.6, Leading zero omitted, Abs format (unit mm)*
G04 Created by KiCad (PCBNEW 9.0.7) date 2026-08-31 13:05:17*
%MOMM*%
%LPD*%
G01*
G04 APERTURE LIST*
G04 Aperture macros list*
%AMRoundRect*
0 Rectangle with rounded corners*
0 $1 Rounding radius*
0 $2 $3 $4 $5 $6 $7 $8 $9 X,Y pos of 4 corners*
0 Add a 4 corners polygon primitive as box body*
4,1,4,$2,$3,$4,$5,$6,$7,$8,$9,$2,$3,0*
0 Add four circle primitives for the rounded corners*
1,1,$1+$1,$2,$3*
1,1,$1+$1,$4,$5*
1,1,$1+$1,$6,$7*
1,1,$1+$1,$8,$9*
0 Add four rect primitives between the rounded corners*
20,1,$1+$1,$2,$3,$4,$5,0*
20,1,$1+$1,$4,$5,$6,$7,0*
20,1,$1+$1,$6,$7,$8,$9,0*
20,1,$1+$1,$8,$9,$2,$3,0*%
G04 Aperture macros list end*
%ADD10C,3.200000*%
%ADD11RoundRect,0.200000X-0.200000X-0.450000X0.200000X-0.450000X0.200000X0.450000X-0.200000X0.450000X0*%
%ADD12O,0.800000X1.300000*%
%ADD13RoundRect,0.250000X0.550000X-1.050000X0.550000X1.050000X-0.550000X1.050000X-0.550000X-1.050000X0*%
%ADD14O,1.600000X2.600000*%
%ADD15C,1.600000*%
%ADD16RoundRect,0.190500X-0.444500X1.079500X-0.444500X-1.079500X0.444500X-1.079500X0.444500X1.079500X0*%
G04 APERTURE END LIST*
D10*
%TO.C,REF\u002A\u002A*%
X135712200Y-88747600D03*
%TD*%
%TO.C,REF\u002A\u002A*%
X90398600Y-76123800D03*
%TD*%
D11*
%TO.C,J1*%
X130350000Y-79100000D03*
D12*
X131600000Y-79100000D03*
X132850000Y-79100000D03*
X134100000Y-79100000D03*
%TD*%
D11*
%TO.C,SW2*%
X128524000Y-89484200D03*
D12*
X129774000Y-89484200D03*
%TD*%
D13*
%TO.C,A1*%
X93200000Y-113500000D03*
D14*
X95740000Y-113500000D03*
X98280000Y-113500000D03*
X100820000Y-113500000D03*
X103360000Y-113500000D03*
X105900000Y-113500000D03*
X108440000Y-113500000D03*
X110980000Y-113500000D03*
X113520000Y-113500000D03*
X116060000Y-113500000D03*
X118600000Y-113500000D03*
X121140000Y-113500000D03*
X123680000Y-113500000D03*
X126220000Y-113500000D03*
X128760000Y-113500000D03*
X131300000Y-113500000D03*
X131300000Y-93780000D03*
X128760000Y-93780000D03*
X126220000Y-93780000D03*
X123680000Y-93780000D03*
X121140000Y-93780000D03*
X118600000Y-93780000D03*
X116060000Y-93780000D03*
X113520000Y-93780000D03*
X110980000Y-93780000D03*
X108440000Y-93780000D03*
X105900000Y-93780000D03*
X103360000Y-93780000D03*
%TD*%
D15*
%TO.C,R2*%
X128270000Y-83820000D03*
X135890000Y-83820000D03*
%TD*%
D16*
%TO.C,U1*%
X122500000Y-76000000D03*
X119960000Y-76000000D03*
X117420000Y-76000000D03*
X114880000Y-76000000D03*
X112340000Y-76000000D03*
X109800000Y-76000000D03*
X107260000Y-76000000D03*
X104720000Y-76000000D03*
X102180000Y-76000000D03*
X102180000Y-88602000D03*
X104720000Y-88602000D03*
X107260000Y-88602000D03*
X109800000Y-88602000D03*
X112340000Y-88602000D03*
X114880000Y-88602000D03*
X117420000Y-88602000D03*
X119960000Y-88602000D03*
X122500000Y-88602000D03*
%TD*%
D11*
%TO.C,SW1*%
X93000000Y-87950000D03*
D12*
X94250000Y-87950000D03*
%TD*%
D15*
%TO.C,R1*%
X88900000Y-81280000D03*
X96520000Y-81280000D03*
%TD*%
M02*
