M48
; DRILL file {KiCad 9.0.7} date 2026-08-31T13:05:15-0700
; FORMAT={-:-/ absolute / metric / decimal}
; #@! TF.CreationDate,2026-08-31T13:05:15-07:00
; #@! TF.GenerationSoftware,Kicad,Pcbnew,9.0.7
; #@! TF.FileFunction,Plated,1,2,PTH
FMAT,2
METRIC
; #@! TA.AperFunction,Plated,PTH,ViaDrill
T1C0.300
; #@! TA.AperFunction,Plated,PTH,ComponentDrill
T2C0.500
; #@! TA.AperFunction,Plated,PTH,ComponentDrill
T3C0.800
; #@! TA.AperFunction,Plated,PTH,ComponentDrill
T4C1.000
%
G90
G05
T1
X111.07Y-82.535
X120.576Y-90.586
X125.07Y-85.853
X132.537Y-88.443
T2
X93.0Y-87.95
X94.25Y-87.95
X128.524Y-89.484
X129.774Y-89.484
X130.35Y-79.1
X131.6Y-79.1
X132.85Y-79.1
X134.1Y-79.1
T3
X88.9Y-81.28
X96.52Y-81.28
X102.18Y-76.0
X102.18Y-88.602
X104.72Y-76.0
X104.72Y-88.602
X107.26Y-76.0
X107.26Y-88.602
X109.8Y-76.0
X109.8Y-88.602
X112.34Y-76.0
X112.34Y-88.602
X114.88Y-76.0
X114.88Y-88.602
X117.42Y-76.0
X117.42Y-88.602
X119.96Y-76.0
X119.96Y-88.602
X122.5Y-76.0
X122.5Y-88.602
X128.27Y-83.82
X135.89Y-83.82
T4
X93.2Y-113.8
X95.74Y-113.8
X98.28Y-113.8
X100.82Y-113.8
X103.36Y-93.48
X103.36Y-113.8
X105.9Y-93.48
X105.9Y-113.8
X108.44Y-93.48
X108.44Y-113.8
X110.98Y-93.48
X110.98Y-113.8
X113.52Y-93.48
X113.52Y-113.8
X116.06Y-93.48
X116.06Y-113.8
X118.6Y-93.48
X118.6Y-113.8
X121.14Y-93.48
X121.14Y-113.8
X123.68Y-93.48
X123.68Y-113.8
X126.22Y-93.48
X126.22Y-113.8
X128.76Y-93.48
X128.76Y-113.8
X131.3Y-93.48
X131.3Y-113.8
M30
